<svg width="234" height="234" viewBox="0 0 234 234" fill="none" xmlns="http://www.w3.org/2000/svg">
<mask id="path-1-inside-1_1650_6272" fill="white">
<path d="M234 117C234 181.617 181.617 234 117 234C52.3827 234 0 181.617 0 117C0 52.3827 52.3827 0 117 0C181.617 0 234 52.3827 234 117ZM26.91 117C26.91 166.755 67.2447 207.09 117 207.09C166.755 207.09 207.09 166.755 207.09 117C207.09 67.2447 166.755 26.91 117 26.91C67.2447 26.91 26.91 67.2447 26.91 117Z"/>
</mask>
<path d="M234 117C234 181.617 181.617 234 117 234C52.3827 234 0 181.617 0 117C0 52.3827 52.3827 0 117 0C181.617 0 234 52.3827 234 117ZM26.91 117C26.91 166.755 67.2447 207.09 117 207.09C166.755 207.09 207.09 166.755 207.09 117C207.09 67.2447 166.755 26.91 117 26.91C67.2447 26.91 26.91 67.2447 26.91 117Z" stroke="white" stroke-width="2" mask="url(#path-1-inside-1_1650_6272)"/>
<path d="M232 117C232 180.513 180.513 232 117 232C53.4873 232 2 180.513 2 117C2 53.4873 53.4873 2 117 2C180.513 2 232 53.4873 232 117ZM25 117C25 167.81 66.1898 209 117 209C167.81 209 209 167.81 209 117C209 66.1898 167.81 25 117 25C66.1898 25 25 66.1898 25 117Z" fill="#D9D9D9"/>
</svg>
