<svg width="86" height="90" viewBox="0 0 86 90" fill="none" xmlns="http://www.w3.org/2000/svg">
<g clip-path="url(#clip0_544_326)">
<path d="M65.5801 47.179L68.1207 49.7195L72.9169 45.0776" stroke="#1890FF" stroke-width="2" stroke-linecap="round" stroke-linejoin="round"/>
<path d="M1.18701 11.6462V1.18701H52.8535L69.2486 17.5821V26.949" stroke="#1890FF" stroke-width="2" stroke-linecap="round" stroke-linejoin="round"/>
<path d="M69.2486 77.2026V88.4216H1.18701V20.3481" stroke="#1890FF" stroke-width="2" stroke-linecap="round" stroke-linejoin="round"/>
<path d="M69.2486 17.5821H52.8535V1.18701L69.2486 17.5821Z" stroke="#1890FF" stroke-width="2" stroke-linecap="round" stroke-linejoin="round"/>
<path d="M69.2486 17.5821L52.8535 1.18701" stroke="#1890FF" stroke-width="2" stroke-linecap="round" stroke-linejoin="round"/>
<path d="M34.915 33.4194H39.2008" stroke="#1890FF" stroke-width="2" stroke-linecap="round" stroke-linejoin="round"/>
<path d="M9.08203 33.4194H28.3145" stroke="#1890FF" stroke-width="2" stroke-linecap="round" stroke-linejoin="round"/>
<path d="M9.08203 42.3823H39.201" stroke="#1890FF" stroke-width="2" stroke-linecap="round" stroke-linejoin="round"/>
<path d="M9.08203 51.3574H43.748" stroke="#1890FF" stroke-width="2" stroke-linecap="round" stroke-linejoin="round"/>
<path d="M9.08203 60.3208H46.5616" stroke="#1890FF" stroke-width="2" stroke-linecap="round" stroke-linejoin="round"/>
<path d="M9.08203 69.2959H39.201" stroke="#1890FF" stroke-width="2" stroke-linecap="round" stroke-linejoin="round"/>
<path d="M9.08203 78.2593H49.3752" stroke="#1890FF" stroke-width="2" stroke-linecap="round" stroke-linejoin="round"/>
<path d="M79.4111 47.3926C79.4122 44.8734 78.4775 42.4437 76.7884 40.5746C75.0993 38.7056 72.7762 37.5306 70.2697 37.2775C67.7633 37.0244 65.2521 37.7113 63.2235 39.205C61.1949 40.6986 59.7933 42.8925 59.2907 45.361C58.7882 47.8296 59.2204 50.3968 60.5036 52.5647C61.7867 54.7326 63.8294 56.3467 66.2353 57.0937C68.6412 57.8407 71.2388 57.6675 73.5242 56.6077C75.8096 55.5478 77.6198 53.6769 78.6038 51.3578" stroke="#1890FF" stroke-width="2" stroke-linecap="round" stroke-linejoin="round"/>
<path d="M69.2486 62.9562C77.8444 62.9562 84.8127 55.988 84.8127 47.3922C84.8127 38.7964 77.8444 31.8281 69.2486 31.8281C60.6528 31.8281 53.6846 38.7964 53.6846 47.3922C53.6846 55.988 60.6528 62.9562 69.2486 62.9562Z" stroke="#1890FF" stroke-width="2" stroke-linecap="round" stroke-linejoin="round"/>
<path d="M69.2488 62.9208C66.457 62.9187 63.7174 62.1641 61.3184 60.7363H61.1284V74.1753L69.2488 70.6137L77.381 74.1753V60.7719H77.1673C74.7682 62.1852 72.0332 62.9274 69.2488 62.9208V62.9208Z" stroke="#1890FF" stroke-width="2" stroke-linecap="round" stroke-linejoin="round"/>
<path d="M39.201 14.5312H43.748V25.5009H9.08203V14.5312H29.9053" stroke="#1890FF" stroke-width="2" stroke-linecap="round" stroke-linejoin="round"/>
</g>
<defs>
<clipPath id="clip0_544_326">
<rect width="86" height="89.6091" fill="white"/>
</clipPath>
</defs>
</svg>
