<svg width="200" height="217" viewBox="0 0 200 217" fill="none" xmlns="http://www.w3.org/2000/svg">
<g clip-path="url(#clip0_1313_5786)">
<path d="M28.7755 87.2785V138.032C28.785 138.217 28.7556 138.402 28.6892 138.575C28.6228 138.747 28.5208 138.904 28.3899 139.035C28.2591 139.166 28.1022 139.268 27.9294 139.334C27.7566 139.401 27.5718 139.43 27.387 139.421H1.40181C1.21661 139.421 1.03325 139.384 0.862311 139.313C0.691376 139.242 0.536258 139.137 0.405919 139.006C0.275581 138.874 0.172606 138.718 0.102944 138.546C0.0332827 138.375 -0.00168477 138.191 6.23839e-05 138.006C0.0631513 135.429 0.288405 132.858 0.674487 130.309C0.952191 128.405 1.30924 126.527 1.74563 124.689C1.8382 124.24 1.94399 123.803 2.06301 123.367C2.96204 119.819 4.11551 116.341 5.51448 112.959C11.1215 99.3255 19.6245 89.1563 24.4777 86.9346C25.8001 86.3263 26.7919 86.2734 27.4399 86.8421L28.7755 87.2785Z" fill="#E1E9F2"/>
<path d="M28.7755 123.367V124.689H1.74561C1.83817 124.239 1.94397 123.803 2.06298 123.367H28.7755Z" fill="#BEC4CC"/>
<path d="M26.0383 139.421C26.0021 140.246 25.8824 141.066 25.6812 141.867C25.6812 141.986 25.6812 142.105 25.5886 142.238C24.7158 145.477 22.1107 150.357 14.3879 150.357C9.46856 150.357 6.54605 148.387 4.80048 146.112C3.84444 144.841 3.1357 143.401 2.71109 141.867H2.64497C2.40697 141.07 2.25187 140.25 2.18213 139.421H26.0383Z" fill="#40A9FF"/>
<path d="M171.211 87.2787V139.421H200C199.999 136.371 199.769 133.325 199.312 130.31C199.035 128.405 198.678 126.528 198.241 124.689C198.149 124.24 198.043 123.803 197.924 123.367C192.185 100.675 176.263 83.5495 172.534 86.8026L171.211 87.2787Z" fill="#E1E9F2"/>
<path d="M171.211 123.367V124.689H198.241C198.149 124.239 198.043 123.803 197.924 123.367H171.211Z" fill="#BEC4CC"/>
<path d="M197.752 139.421C197.752 139.421 197.17 150.357 185.612 150.357C174.055 150.357 173.949 139.421 173.949 139.421H197.752Z" fill="#40A9FF"/>
<path d="M100 167.495C141.221 167.495 174.636 134.08 174.636 92.859C174.636 51.6385 141.221 18.2227 100 18.2227C58.7796 18.2227 25.3638 51.6385 25.3638 92.859C25.3638 134.08 58.7796 167.495 100 167.495Z" fill="#E1E9F2"/>
<path d="M99.9998 159.521C132.084 159.521 158.093 133.512 158.093 101.428C158.093 69.3441 132.084 43.335 99.9998 43.335C67.9159 43.335 41.9067 69.3441 41.9067 101.428C41.9067 133.512 67.9159 159.521 99.9998 159.521Z" fill="#40A9FF"/>
<path d="M57.5115 101.257C55.7395 106.335 62.735 116.967 71.238 118.514C88.297 121.622 92.727 88.0986 80.7593 88.0986C68.0775 88.1648 58.7545 97.686 57.5115 101.257Z" fill="#D6F4FF"/>
<path opacity="0.1" d="M89.5664 135.626C89.9859 134.182 90.7428 132.858 91.7748 131.764C94.0076 129.682 96.947 128.524 100 128.524C103.053 128.524 105.993 129.682 108.225 131.764C109.253 132.859 110.006 134.182 110.421 135.626C110.608 136.309 110.732 137.009 110.791 137.715C110.859 136.565 110.733 135.412 110.421 134.303C110.006 132.86 109.253 131.536 108.225 130.442C105.993 128.36 103.053 127.202 100 127.202C96.947 127.202 94.0076 128.36 91.7748 130.442C90.7428 131.536 89.9859 132.859 89.5664 134.303C89.2535 135.412 89.1284 136.565 89.1961 137.715C89.2551 137.009 89.3791 136.309 89.5664 135.626Z" fill="black"/>
<path d="M142.475 101.257C144.247 106.335 137.252 116.967 128.749 118.514C111.69 121.622 107.26 88.0986 119.228 88.0986C131.909 88.1648 141.232 97.686 142.475 101.257Z" fill="#D6F4FF"/>
<path d="M109.402 139.871C108.77 137.724 107.513 135.813 105.792 134.383C104.053 133.302 102.047 132.73 100 132.73C97.9531 132.73 95.9469 133.302 94.2081 134.383C92.479 135.809 91.2169 137.72 90.5847 139.871C90.5578 139.955 90.5144 140.032 90.4571 140.099C90.3997 140.166 90.3295 140.221 90.2507 140.26C90.1718 140.3 90.0859 140.323 89.9979 140.329C89.9099 140.335 89.8217 140.323 89.7384 140.294C89.6225 140.255 89.5195 140.185 89.4403 140.092C89.3611 139.998 89.3087 139.885 89.2887 139.765C89.0921 138.357 89.1957 136.924 89.5929 135.56C90.0124 134.116 90.7694 132.792 91.8013 131.698C94.0341 129.616 96.9736 128.458 100.027 128.458C103.08 128.458 106.019 129.616 108.252 131.698C109.28 132.793 110.032 134.116 110.447 135.56C110.844 136.924 110.948 138.357 110.751 139.765C110.719 139.938 110.621 140.092 110.479 140.196C110.336 140.299 110.159 140.344 109.984 140.32C109.863 140.302 109.75 140.25 109.656 140.17C109.563 140.091 109.493 139.987 109.455 139.871H109.402Z" fill="#D6F4FF"/>
<path d="M100.661 18.2227H99.3389V43.3483H100.661V18.2227Z" fill="#BEC4CC"/>
<path d="M193.825 111.426C193.124 110.209 192.502 108.966 191.775 107.776C191.047 106.586 190.452 105.343 189.659 104.166C188.191 101.812 186.697 99.4712 185.057 97.2496C183.456 95.0003 181.716 92.8538 179.847 90.8227C178.915 89.8113 177.902 88.8781 176.818 88.0324C175.825 87.0741 174.509 86.5222 173.129 86.4852C173.822 86.2813 174.563 86.3186 175.232 86.591C175.913 86.8228 176.569 87.1241 177.189 87.4903C178.384 88.2766 179.512 89.1613 180.561 90.1351C182.628 92.0748 184.494 94.2192 186.128 96.5355C187.776 98.8233 189.248 101.233 190.532 103.743C191.834 106.211 192.936 108.78 193.825 111.426Z" fill="#EBF1F7"/>
<path d="M6.21533 111.425C7.10093 108.757 8.20215 106.166 9.50811 103.676C10.7949 101.189 12.2669 98.8017 13.9117 96.5351C15.5519 94.2275 17.4216 92.0919 19.4922 90.1612C20.5408 89.1874 21.6688 88.3027 22.8644 87.5163C23.4842 87.1502 24.14 86.8489 24.8215 86.6171C25.4904 86.3457 26.2314 86.3084 26.9241 86.5113C25.5443 86.5483 24.2281 87.1002 23.2346 88.0585C22.1506 88.9042 21.1377 89.8374 20.2063 90.8488C18.3322 92.8795 16.5876 95.0261 14.9829 97.2757C13.3431 99.4709 11.9017 101.825 10.3809 104.165C9.65358 105.342 8.9527 106.559 8.27828 107.776C7.60385 108.992 6.9162 110.209 6.21533 111.425Z" fill="#EBF1F7"/>
<path d="M173.115 77.8234C170.225 65.455 164.268 54.013 155.794 44.5517C147.319 35.0904 136.6 27.9142 124.623 23.6843C108.667 18.1677 91.32 18.1677 75.3636 23.6843C67.4502 26.4933 60.0553 30.5907 53.4778 35.8107C46.8669 41.0459 41.1964 47.3693 36.7098 54.5095C32.1506 61.6717 28.8249 69.5479 26.8711 77.8102C28.345 69.3666 31.2997 61.2501 35.5989 53.8351C42.1748 42.5922 51.5798 33.267 62.8784 26.7871C74.1769 20.3073 86.9751 16.8987 99.9999 16.9004C113.021 16.9089 125.813 20.322 137.108 26.8009C148.403 33.2799 157.807 42.5995 164.388 53.8351C168.69 61.2532 171.645 69.3747 173.115 77.8234Z" fill="#EBF1F7"/>
<path d="M100.661 159.521H99.3389V167.509H100.661V159.521Z" fill="#BEC4CC"/>
<path d="M99.9998 22.4546C104.542 22.4546 108.225 20.56 108.225 18.2229C108.225 15.8858 104.542 13.9912 99.9998 13.9912C95.457 13.9912 91.7744 15.8858 91.7744 18.2229C91.7744 20.56 95.457 22.4546 99.9998 22.4546Z" fill="#40A9FF"/>
<path opacity="0.53" d="M71.2485 65.3318C76.2389 62.4506 79.5917 58.9151 78.7372 57.4351C77.8827 55.955 73.1444 57.0909 68.1541 59.9721C63.1637 62.8533 59.8109 66.3888 60.6654 67.8688C61.5199 69.3488 66.2581 68.213 71.2485 65.3318Z" fill="white"/>
<path d="M89.2622 139.83C88.6829 137.555 88.9901 135.144 90.1217 133.086C90.6985 132.041 91.4654 131.113 92.383 130.349C93.3128 129.595 94.3635 129.005 95.4907 128.603C97.7314 127.862 100.132 127.747 102.433 128.273C104.733 128.704 106.794 129.966 108.225 131.817C106.527 130.409 104.454 129.531 102.261 129.291C100.131 128.999 97.9627 129.207 95.9271 129.899C93.9314 130.55 92.2036 131.837 91.0078 133.562C90.4086 134.457 89.9617 135.444 89.6853 136.485C89.3663 137.57 89.2234 138.7 89.2622 139.83Z" fill="white"/>
<path d="M63.7531 104.126C66.5962 102.658 68.0112 105.805 72.3751 105.699C76.1969 105.594 77.4796 103.345 80.7591 104.813C85.5991 106.969 77.8366 120.1 69.4262 115.115C61.0157 110.129 60.5793 105.792 63.7531 104.126Z" fill="white"/>
<path d="M75.4164 100.463C78.1259 100.463 80.3225 99.0477 80.3225 97.3021C80.3225 95.5566 78.1259 94.1416 75.4164 94.1416C72.7068 94.1416 70.5103 95.5566 70.5103 97.3021C70.5103 99.0477 72.7068 100.463 75.4164 100.463Z" fill="white"/>
<path d="M117.958 104.126C120.801 102.658 122.216 105.805 126.58 105.699C130.402 105.594 131.685 103.345 134.977 104.813C139.804 106.969 132.055 120.1 123.644 115.115C115.234 110.129 114.798 105.792 117.958 104.126Z" fill="white"/>
<path d="M129.622 100.463C132.331 100.463 134.528 99.0477 134.528 97.3021C134.528 95.5566 132.331 94.1416 129.622 94.1416C126.912 94.1416 124.716 95.5566 124.716 97.3021C124.716 99.0477 126.912 100.463 129.622 100.463Z" fill="white"/>
<path opacity="0.1" d="M100 48.6246C114.946 48.6295 129.315 54.3947 140.12 64.7216C150.925 75.0484 157.333 89.1423 158.014 104.073C158.014 103.2 158.08 102.314 158.08 101.428C158.196 93.7263 156.78 86.0783 153.913 78.9291C151.046 71.7798 146.786 65.2722 141.38 59.7846C135.975 54.2971 129.532 49.9393 122.427 46.9648C115.322 43.9903 107.696 42.4585 99.9935 42.4585C92.2908 42.4585 84.6651 43.9903 77.5599 46.9648C70.4548 49.9393 64.0121 54.2971 58.6067 59.7846C53.2014 65.2722 48.9413 71.7798 46.0743 78.9291C43.2074 86.0783 41.7908 93.7263 41.907 101.428C41.907 102.314 41.907 103.2 41.907 104.073C42.5881 89.1286 49.0079 75.0231 59.8296 64.6941C70.6512 54.3652 85.0403 48.609 100 48.6246Z" fill="black"/>
<path opacity="0.1" d="M99.9999 150.357C81.6809 150.354 64.0027 143.614 50.3303 131.422C36.6579 119.23 27.946 102.436 25.8529 84.2368C25.525 87.0815 25.3573 89.9424 25.3504 92.806C25.2188 102.692 27.0523 112.505 30.7444 121.677C34.4365 130.848 39.9137 139.195 46.858 146.232C53.8023 153.27 62.0753 158.857 71.1968 162.671C80.3183 166.485 90.1066 168.449 99.9933 168.449C109.88 168.449 119.668 166.485 128.79 162.671C137.911 158.857 146.184 153.27 153.129 146.232C160.073 139.195 165.55 130.848 169.242 121.677C172.934 112.505 174.768 102.692 174.636 92.806C174.629 89.9424 174.462 87.0815 174.134 84.2368C172.044 102.435 163.334 119.229 149.664 131.421C135.994 143.614 118.317 150.353 99.9999 150.357Z" fill="black"/>
<path opacity="0.1" d="M99.9998 22.481C95.9136 22.481 92.5414 20.9602 91.8935 18.9502C91.8112 19.1795 91.7665 19.4207 91.7612 19.6643C91.7612 22.0049 95.4507 23.896 99.9998 23.896C104.549 23.896 108.225 22.0049 108.225 19.6643C108.22 19.4207 108.175 19.1795 108.093 18.9502C107.445 20.9338 104.073 22.481 99.9998 22.481Z" fill="black"/>
<path d="M106.824 15.8686C105.54 15.2828 104.168 14.912 102.764 14.771C101.388 14.6256 100.001 14.6256 98.6247 14.771C97.2675 14.8632 95.931 15.1527 94.6575 15.6306C93.9991 15.8059 93.3929 16.138 92.8909 16.5986C92.3889 17.0592 92.0058 17.6345 91.7746 18.2754C91.7285 17.894 91.7635 17.5071 91.8774 17.1401C91.9914 16.7732 92.1817 16.4345 92.4358 16.1463C92.925 15.553 93.5273 15.063 94.2078 14.7049C95.5417 13.9907 97.0101 13.5628 98.5189 13.4486C100.009 13.3085 101.513 13.4293 102.962 13.8057C104.417 14.1176 105.755 14.8325 106.824 15.8686Z" fill="#96D0FF"/>
<path d="M99.18 15.4061C99.1521 13.4559 98.8494 11.5194 98.2808 9.6537C97.7583 7.86622 96.7622 6.25328 95.398 4.98562C94.0278 3.84937 92.2832 3.26471 90.5051 3.34584C88.637 3.44898 86.8078 3.92089 85.1229 4.73437C84.9625 4.82359 84.7853 4.87844 84.6025 4.89542C84.4197 4.91241 84.2354 4.89116 84.0613 4.83303C83.8872 4.77491 83.7271 4.68117 83.5912 4.55779C83.4553 4.43441 83.3466 4.28409 83.272 4.11639C83.1973 3.9487 83.1584 3.7673 83.1577 3.58375C83.157 3.4002 83.1945 3.21851 83.2679 3.05025C83.3412 2.88199 83.4488 2.73084 83.5838 2.60643C83.7187 2.48201 83.8781 2.38705 84.0518 2.3276C86.0946 1.46544 88.2878 1.01601 90.5051 1.00519C92.8171 0.986443 95.056 1.81429 96.7997 3.33262C98.3968 4.91433 99.5387 6.89674 100.106 9.07184C100.668 11.1348 100.926 13.2687 100.873 15.4061C100.846 15.6208 100.742 15.8184 100.58 15.9617C100.418 16.105 100.21 16.1841 99.9933 16.1841C99.777 16.1841 99.5682 16.105 99.4062 15.9617C99.2443 15.8184 99.1403 15.6208 99.1139 15.4061H99.18Z" fill="#BEC4CC"/>
<path opacity="0.1" d="M25.6943 141.841C25.6943 141.682 25.7604 141.523 25.7869 141.378L25.8662 140.928C25.9551 140.461 26.0081 139.988 26.0249 139.513H2.22168C2.28466 140.31 2.42641 141.098 2.64485 141.867H20.9337C21.2938 141.872 21.6455 141.976 21.9503 142.168C22.255 142.36 22.5009 142.632 22.6609 142.955C22.8209 143.277 22.8887 143.638 22.8569 143.997C22.8252 144.355 22.695 144.698 22.4809 144.988C20.8279 147.223 17.9979 149.14 13.1447 149.14C10.2694 149.231 7.4561 148.293 5.21031 146.495C6.36615 147.786 7.7996 148.799 9.4029 149.456C11.0062 150.113 12.7377 150.399 14.4671 150.291C22.1899 150.291 24.7951 145.411 25.6679 142.171C25.7065 142.05 25.7374 141.926 25.7604 141.801L25.6943 141.841Z" fill="black"/>
<path opacity="0.1" d="M174.306 141.841C174.306 141.682 174.226 141.523 174.2 141.378L174.121 140.928C174.002 140.188 173.975 139.606 173.962 139.513H197.765C197.695 140.342 197.54 141.162 197.302 141.96H179.066C178.703 141.957 178.346 142.056 178.037 142.246C177.727 142.436 177.477 142.709 177.314 143.034C177.152 143.359 177.084 143.723 177.118 144.085C177.151 144.446 177.286 144.791 177.506 145.08C179.146 147.315 181.976 149.233 186.829 149.233C189.704 149.326 192.519 148.388 194.763 146.588C193.609 147.881 192.175 148.894 190.572 149.551C188.968 150.209 187.236 150.493 185.506 150.383C177.784 150.383 175.179 145.504 174.306 142.264C174.306 142.145 174.306 142.026 174.213 141.894L174.306 141.841Z" fill="black"/>
<path opacity="0.1" d="M57.5113 101.256C58.7544 97.6857 68.0905 88.1644 80.7591 88.1644C84.9379 88.1644 87.1067 92.2374 87.4505 97.4212C87.8472 90.915 85.7181 85.189 80.7591 85.189C68.0773 85.189 58.7544 94.7103 57.5113 98.294C57.1737 99.4017 57.1371 100.579 57.4055 101.706C57.4325 101.554 57.4678 101.404 57.5113 101.256Z" fill="black"/>
<path opacity="0.1" d="M119.228 88.1644C131.91 88.1644 141.232 97.6857 142.476 101.256C142.519 101.4 142.554 101.545 142.581 101.693C142.85 100.566 142.813 99.3885 142.476 98.2808C141.232 94.6971 131.896 85.189 119.228 85.1758C114.269 85.1758 112.14 90.9018 112.536 97.408C112.88 92.2374 115.049 88.1644 119.228 88.1644Z" fill="black"/>
<path d="M80.7588 88.1644C77.3906 88.4386 74.0919 89.2745 70.9995 90.6373C67.9401 91.9641 65.0999 93.7476 62.5758 95.9269C61.323 97.0114 60.1842 98.2211 59.1772 99.537C58.6856 100.151 58.293 100.838 58.0135 101.574C57.7943 102.32 57.7225 103.101 57.8019 103.875C57.9919 105.52 58.4851 107.116 59.2566 108.582C59.9848 110.104 60.8713 111.544 61.9014 112.88C59.3347 110.539 57.5716 107.448 56.863 104.046C56.6596 103.136 56.6596 102.193 56.863 101.283C57.1647 100.407 57.6118 99.5893 58.1854 98.8626C59.2187 97.443 60.4074 96.1434 61.7295 94.988C64.352 92.6946 67.373 90.9017 70.6424 89.6984L71.8723 89.262L73.1153 88.9182C73.9498 88.6856 74.7977 88.5046 75.6544 88.376C76.5007 88.2173 77.3735 88.2041 78.2198 88.1247C79.0661 88.0454 79.9125 88.1379 80.7588 88.1644Z" fill="white"/>
<path d="M113.502 106.096C112.056 102.153 111.745 97.8831 112.602 93.7715C112.853 92.719 113.263 91.711 113.819 90.7829C114.368 89.7975 115.16 88.969 116.12 88.3761C117.109 87.7942 118.239 87.4968 119.386 87.5166C124.674 87.5861 129.827 89.1995 134.21 92.1582C135.95 93.307 137.564 94.6368 139.024 96.1254C140.519 97.5766 141.695 99.3242 142.475 101.256C141.487 99.468 140.162 97.8874 138.574 96.6015C137.072 95.2341 135.428 94.0326 133.668 93.0177C130.215 90.9362 126.371 89.5859 122.375 89.0505C121.379 88.9182 120.377 88.8387 119.373 88.8125C118.448 88.7782 117.532 89.0026 116.728 89.4605C115.142 90.5475 114.012 92.1813 113.555 94.0492C113.001 95.9871 112.752 97.9989 112.814 100.013C112.833 102.059 113.064 104.098 113.502 106.096Z" fill="white"/>
<path opacity="0.1" d="M28.7755 135.665V138.032C28.785 138.217 28.7556 138.402 28.6892 138.575C28.6228 138.747 28.5208 138.904 28.3899 139.035C28.2591 139.166 28.1022 139.268 27.9294 139.334C27.7566 139.401 27.5718 139.43 27.387 139.421H1.40181C1.21661 139.421 1.03325 139.384 0.862311 139.313C0.691376 139.242 0.536258 139.137 0.405919 139.005C0.275581 138.874 0.172606 138.718 0.102944 138.546C0.0332827 138.375 -0.00168477 138.191 6.23839e-05 138.006C0.0631513 135.429 0.288405 132.858 0.674487 130.309C0.952191 128.405 1.30924 126.527 1.74563 124.689C1.8382 124.24 1.94399 123.803 2.06301 123.367C2.96204 119.819 4.11551 116.341 5.51448 112.959C5.36901 113.845 2.86967 128.471 10.2883 132.452C17.9318 136.551 28.7755 135.665 28.7755 135.665Z" fill="black"/>
<path opacity="0.1" d="M171.224 135.665V138.032C171.215 138.217 171.244 138.402 171.311 138.575C171.377 138.747 171.479 138.904 171.61 139.035C171.741 139.166 171.898 139.268 172.071 139.334C172.243 139.401 172.428 139.43 172.613 139.421H198.598C198.783 139.421 198.967 139.384 199.138 139.313C199.309 139.242 199.464 139.137 199.594 139.005C199.724 138.874 199.827 138.718 199.897 138.546C199.967 138.375 200.002 138.191 200 138.006C199.937 135.429 199.712 132.858 199.325 130.309C199.048 128.405 198.691 126.527 198.254 124.689C198.162 124.24 198.056 123.803 197.937 123.367C197.038 119.819 195.884 116.341 194.485 112.959C194.631 113.845 197.13 128.471 189.712 132.452C182.068 136.551 171.224 135.665 171.224 135.665Z" fill="black"/>
<path opacity="0.32" d="M115.274 180.64L110.579 176.779L104.893 178.921L103.901 184.912L108.595 188.76L114.282 186.631L115.274 180.64Z" fill="#40A9FF"/>
<path d="M86.5381 1.45443C88.0415 0.892411 89.6421 0.636148 91.2458 0.700665C92.8647 0.773311 94.4368 1.26546 95.8081 2.12886C97.1616 3.02699 98.2632 4.25601 99.0083 5.69934C99.7595 7.10106 100.244 8.63013 100.437 10.2087C99.9889 8.71286 99.3488 7.2815 98.5323 5.9506C97.7501 4.63502 96.6894 3.50661 95.4246 2.6446C94.1311 1.85125 92.6759 1.35865 91.1665 1.20318C89.6195 1.06895 88.0614 1.15354 86.5381 1.45443Z" fill="#D8DFE8"/>
<path opacity="0.32" d="M96.8 180.336L94.2081 178.207L91.0608 179.384L90.5054 182.703L93.1105 184.832L96.2578 183.655L96.8 180.336Z" fill="#40A9FF"/>
<path opacity="0.32" d="M80.468 193.031L77.8628 190.889L74.7155 192.079L74.1733 195.385L76.7652 197.527L79.9126 196.337L80.468 193.031Z" fill="#40A9FF"/>
<path opacity="0.32" d="M103.544 213.515L101.997 212.246L100.119 212.946L99.7886 214.917L101.336 216.2L103.214 215.485L103.544 213.515Z" fill="#40A9FF"/>
<path opacity="0.32" d="M134.541 168.103L132.981 166.834L131.103 167.535L130.786 169.518L132.333 170.788L134.211 170.087L134.541 168.103Z" fill="#40A9FF"/>
<path opacity="0.15" d="M80.1774 173.79L75.7605 167.006L67.6674 167.442L64.0044 174.676L68.4344 181.446L76.5143 181.01L80.1774 173.79Z" fill="#40A9FF"/>
<path opacity="0.15" d="M126.395 177.413L124.98 172.309L119.862 170.973L116.146 174.755L117.561 179.846L122.679 181.182L126.395 177.413Z" fill="#40A9FF"/>
<path opacity="0.15" d="M111.941 206.44L110.527 201.336L105.409 200.013L101.693 203.782L103.108 208.887L108.226 210.209L111.941 206.44Z" fill="#40A9FF"/>
<path opacity="0.15" d="M101.745 197.593L99.537 194.208L95.4905 194.433L93.6523 198.03L95.8608 201.428L99.9073 201.204L101.745 197.593Z" fill="#40A9FF"/>
<path opacity="0.1" d="M100.569 15.6838C100.342 15.6839 100.124 15.5956 99.9606 15.4376C99.7976 15.2796 99.7027 15.0643 99.6958 14.8374C99.6733 12.8868 99.3704 10.9495 98.7965 9.08499C98.2755 7.30064 97.279 5.6916 95.9137 4.43013C94.55 3.28234 92.8008 2.69613 91.0208 2.79036C89.1529 2.89488 87.324 3.36672 85.6387 4.17888C85.3896 4.28297 85.1147 4.30836 84.8508 4.25164C84.5869 4.19492 84.3467 4.0588 84.1624 3.86157C83.9781 3.66434 83.8586 3.41544 83.8199 3.1483C83.7812 2.88117 83.8252 2.60859 83.946 2.36719C83.6386 2.51627 83.4009 2.77851 83.2825 3.09897C83.1642 3.41944 83.1745 3.77326 83.3112 4.08631C83.4555 4.40501 83.7203 4.65353 84.0474 4.77746C84.3746 4.90139 84.7376 4.89062 85.0568 4.74751C86.7417 3.93404 88.5709 3.46213 90.439 3.35899C92.2171 3.27786 93.9617 3.86251 95.3319 4.99877C96.6941 6.26277 97.69 7.8709 98.2147 9.65362C98.8057 11.5161 99.1307 13.4527 99.18 15.4061C99.1835 15.6352 99.277 15.8539 99.4403 16.0147C99.6036 16.1755 99.8236 16.2657 100.053 16.2656C100.242 16.2664 100.427 16.2046 100.577 16.0898C100.728 15.975 100.836 15.8137 100.886 15.6309C100.785 15.6707 100.677 15.6888 100.569 15.6838Z" fill="black"/>
<path d="M84.5147 7.06162C86.4647 7.06162 88.0455 5.48083 88.0455 3.53081C88.0455 1.5808 86.4647 0 84.5147 0C82.5647 0 80.9839 1.5808 80.9839 3.53081C80.9839 5.48083 82.5647 7.06162 84.5147 7.06162Z" fill="#40A9FF"/>
<path opacity="0.1" d="M84.5147 5.43504C83.7224 5.43296 82.9539 5.16448 82.3326 4.67278C81.7114 4.18108 81.2736 3.49473 81.0896 2.72412C81.0313 2.98914 81.0003 3.25944 80.9971 3.53079C81.0521 4.42814 81.4473 5.27073 82.1022 5.88669C82.7571 6.50266 83.6222 6.84562 84.5213 6.84562C85.4203 6.84562 86.2855 6.50266 86.9404 5.88669C87.5952 5.27073 87.9905 4.42814 88.0455 3.53079C88.0445 3.2585 88.009 2.98744 87.9397 2.72412C87.7557 3.49473 87.3179 4.18108 86.6967 4.67278C86.0755 5.16448 85.3069 5.43296 84.5147 5.43504Z" fill="black"/>
<path opacity="0.1" d="M100 21.6078C95.7288 21.6078 92.2244 19.9416 91.8012 17.7993C91.7876 17.94 91.7876 18.0818 91.8012 18.2225C91.8012 20.5631 95.4907 22.4542 100.04 22.4542C104.589 22.4542 108.265 20.5631 108.265 18.2225C108.279 18.0818 108.279 17.94 108.265 17.7993C107.776 19.9416 104.258 21.6078 100 21.6078Z" fill="black"/>
</g>
<defs>
<clipPath id="clip0_1313_5786">
<rect width="200" height="216.199" fill="white"/>
</clipPath>
</defs>
</svg>
