<svg width="414" height="404" viewBox="0 0 414 404" fill="none" xmlns="http://www.w3.org/2000/svg">
<g clip-path="url(#clip0_2777_9514)">
<path d="M317.768 262.467C317.768 262.467 334.7 303.75 337.143 328.214L305.129 265.963L317.768 262.467Z" fill="#EFBFA9"/>
<path d="M65.676 369.663C73.3475 369.07 82.513 366.782 88.5127 357.81C96.694 345.673 100.702 326.436 103.737 312.77C109.002 289.064 106.417 284.584 106.417 284.584C106.417 284.584 99.1247 275.635 97.8086 276.157C96.4924 276.678 71.8298 262.419 71.8298 262.419L65.676 369.663Z" fill="#EFBFA9"/>
<path d="M263.961 168.143C258.104 185.697 250.1 169.328 246.709 178.3C243.318 187.273 245.168 200.465 238.706 200.465C232.777 200.465 232.457 175.005 227.762 173.299C227.556 173.222 227.337 173.19 227.118 173.204C226.9 173.219 226.687 173.279 226.493 173.382C220.564 176.143 216.521 105.335 215.596 104.102C215.229 103.605 211.102 95.1892 206.336 85.3751C203.775 80.1125 201.036 74.4469 198.581 69.3858C194.337 60.6148 190.969 53.6217 190.969 53.6217C190.969 53.6217 204.51 24.9737 240.543 37.0279C276.577 49.0821 269.807 150.589 263.961 168.143Z" fill="#3D1A02"/>
<g opacity="0.1">
<path d="M227.762 173.299C227.556 173.222 227.337 173.19 227.118 173.205C226.9 173.219 226.687 173.279 226.493 173.382C220.564 176.143 216.521 105.335 215.596 104.103C215.229 103.605 211.103 95.1893 206.336 85.3752C206.585 82.4476 206.751 80.7645 206.751 80.7645L207.83 63.1158L209.478 55.2219C209.478 55.2219 227.572 50.3623 243.093 71.8157C253.397 86.039 262.989 124.655 227.762 173.299Z" fill="black"/>
</g>
<path d="M242.832 115.505C240.366 95.7936 220.956 105.347 220.956 105.347C220.956 105.347 220.339 73.0127 188.942 73.0127C157.544 73.0127 145.272 78.2279 141.348 116.358C138.134 147.471 148.652 171.829 165.062 171.829C172.65 171.829 173.148 171.485 173.148 171.485L171.37 196.755C171.37 196.755 174.452 194.906 179.077 192.014L182.693 196.755C182.693 196.755 213.426 190.959 213.96 190.829C214.494 190.698 220.956 176.985 220.956 176.985V161.683C220.956 161.683 221.881 147.46 226.197 143.833C230.512 140.206 245.286 135.204 242.832 115.505Z" fill="#EFBFA9"/>
<path d="M220.956 161.683L229.801 141.367L223.552 143.536C222.794 143.804 222.137 144.299 221.672 144.955C221.207 145.611 220.957 146.395 220.956 147.199V161.683Z" fill="#3D1A02"/>
<path d="M135.502 104.031C141.193 106.117 155.979 98.1049 155.979 98.1049C155.669 99.4185 155.236 100.7 154.687 101.933C154.569 102.211 154.517 102.513 154.535 102.814C154.554 103.115 154.642 103.408 154.792 103.67C154.942 103.932 155.151 104.155 155.403 104.323C155.654 104.49 155.94 104.597 156.24 104.636C166.52 105.928 172.935 96.9552 175.425 92.5459C175.552 92.3425 175.726 92.1731 175.934 92.0527C176.141 91.9323 176.375 91.8644 176.615 91.855C176.855 91.8457 177.093 91.8951 177.309 91.999C177.525 92.1029 177.713 92.2581 177.855 92.4511C183.025 99.8354 194.277 101.613 202.447 98.2234C209.857 95.1535 209.205 117.33 208.767 124.963C208.747 125.286 208.794 125.61 208.905 125.914C209.015 126.218 209.187 126.497 209.409 126.732C209.631 126.968 209.899 127.155 210.196 127.283C210.494 127.411 210.814 127.476 211.138 127.476C211.625 127.476 212.101 127.325 212.5 127.045C212.899 126.766 213.201 126.37 213.367 125.911L220.896 105.311C220.896 105.311 230.999 100.333 237.555 104.979C243.413 87.4019 233.856 60.2828 203.668 53.5861C161.979 44.3528 153.145 72.989 153.145 72.989C153.145 72.989 146.778 69.8954 138.063 78.8324C129.574 87.6034 133.403 103.273 135.502 104.031Z" fill="#3D1A02"/>
<path d="M178.425 135.24C180.297 135.24 181.816 132.071 181.816 128.163C181.816 124.255 180.297 121.087 178.425 121.087C176.552 121.087 175.033 124.255 175.033 128.163C175.033 132.071 176.552 135.24 178.425 135.24Z" fill="#010002"/>
<path d="M152.92 133.473C154.793 133.473 156.311 130.305 156.311 126.397C156.311 122.489 154.793 119.321 152.92 119.321C151.047 119.321 149.529 122.489 149.529 126.397C149.529 130.305 151.047 133.473 152.92 133.473Z" fill="#010002"/>
<g opacity="0.1">
<path d="M250.539 43.5588C269.415 74.6367 263.926 147.092 259.076 161.671C253.219 179.225 245.215 162.856 241.824 171.829C238.516 180.517 240.188 193.294 234.307 193.958C235.398 197.715 236.749 200.465 238.706 200.465C245.168 200.465 243.318 187.226 246.709 178.301C250.1 169.375 258.104 185.697 263.961 168.143C269.155 152.438 275.178 69.4333 250.539 43.5588Z" fill="black"/>
<path d="M223.054 166.922C224.027 170.987 225.07 173.488 226.185 173.453C225.284 170.158 224.371 167.597 223.054 166.922Z" fill="black"/>
</g>
<path d="M174.381 151.525L156.667 152.9C156.667 152.9 161.41 162.75 166.84 163.058C172.271 163.366 174.381 151.525 174.381 151.525Z" fill="#FCF7F3"/>
<path d="M167.481 144.686C165.403 144.635 163.378 144.021 161.623 142.908C160.058 141.96 158.244 140.633 158.066 138.677C157.912 137.302 158.611 135.891 160.117 134.469C164.386 130.427 164.86 119.961 164.86 119.855H166.046C166.046 120.305 165.572 130.913 160.947 135.263C160.439 135.634 160.023 136.116 159.731 136.673C159.439 137.23 159.279 137.847 159.264 138.475C159.418 139.921 160.959 141.024 162.275 141.83C163.946 142.902 165.898 143.455 167.884 143.418L168.014 144.603C167.839 144.648 167.661 144.676 167.481 144.686Z" fill="#E8937F"/>
<g opacity="0.1">
<path d="M199.115 157.297C190.946 169.292 173.136 171.521 173.136 171.521L171.844 190.058C173.551 190.201 171.156 187.486 173.871 186.917C193.27 182.828 199.115 157.297 199.115 157.297Z" fill="black"/>
</g>
<path d="M174.796 114.77C174.986 113.727 178.875 112.399 183.618 113.324C188.361 114.248 189.143 117.757 188.124 117.994C186.487 118.397 187.246 117.994 182.503 117.117C177.76 116.24 174.618 115.801 174.796 114.77Z" fill="#460000"/>
<g opacity="0.1">
<path d="M65.676 369.663C73.3475 369.07 82.513 366.782 88.5127 357.81C96.694 345.673 100.702 326.436 103.737 312.77C109.002 289.064 106.417 284.584 106.417 284.584C106.417 284.584 99.1247 275.635 97.8086 276.157C96.4924 276.678 71.8298 262.419 71.8298 262.419L65.676 369.663Z" fill="black"/>
</g>
<path d="M159.726 113.656C159.726 112.613 156.169 110.645 151.331 110.621C146.494 110.598 145.083 113.964 146.043 114.391C147.584 115.078 146.909 114.533 151.723 114.557C156.537 114.58 159.726 114.711 159.726 113.656Z" fill="#460000"/>
<g opacity="0.1">
<path d="M317.768 262.467C317.768 262.467 334.7 303.75 337.143 328.214L305.129 265.963L317.768 262.467Z" fill="black"/>
</g>
<path d="M227.762 139.744C229.333 139.744 230.607 138.47 230.607 136.899C230.607 135.328 229.333 134.054 227.762 134.054C226.19 134.054 224.916 135.328 224.916 136.899C224.916 138.47 226.19 139.744 227.762 139.744Z" fill="#40A9FF"/>
<path d="M116.317 196.755C91.8801 207.091 76.0747 249.986 76.0747 249.986L109.168 270.882L134.743 251.692L116.317 196.755Z" fill="#FA8C16"/>
<path d="M70.6324 263.308C72.5414 251.159 76.9403 247.793 76.9403 247.793L107.674 270.1L106.417 284.631C106.417 284.631 69.8617 268.215 70.6324 263.308Z" fill="#E6FCFF"/>
<path d="M168.856 191.101C168.856 191.101 137.755 189.3 116.317 196.755C109.203 199.232 110.531 219.749 110.152 250.092C110.01 261.009 106.95 269.768 106.417 281.798C105.409 304.591 112.345 317.949 112.689 325.737C114.918 373.693 118.618 403.964 118.618 403.964H268.633C268.633 354.396 287.391 217.083 278.118 207.079C268.846 197.075 226.469 189.644 226.469 189.644C226.469 189.644 218.679 195.499 193.495 195.155C168.311 194.811 168.856 191.101 168.856 191.101Z" fill="#FA8C16"/>
<path d="M254.831 284.963L231.117 249.405L208.66 283.778L185.527 249.109L163.2 283.28L140.281 248.907L117.23 284.134L141.158 322.951L163.259 285.651L186.416 323.2L208.684 285.651L232.054 323.579L254.831 284.963ZM141.099 320.652L118.57 284.145L140.221 251.041L162.441 284.335L162.512 284.454L141.099 320.652ZM186.369 320.877L163.947 284.465V284.382L185.551 251.278L207.842 284.691L186.369 320.877ZM209.443 284.702L231.105 251.598L253.397 284.999L231.995 321.209L209.443 284.702Z" fill="#FFA940"/>
<path d="M267.767 200.856C293.367 207.826 311.52 247.829 311.52 247.829L284.142 270.764L253.61 257.358L267.767 200.856Z" fill="#FA8C16"/>
<path d="M318.693 260.274C315.136 248.492 310.393 245.742 310.393 245.742L282.387 269.981L282.197 286.196C282.197 286.196 320.14 265.039 318.693 260.274Z" fill="#E6FCFF"/>
<g opacity="0.1">
<path d="M252.424 404H268.633C268.633 374.665 275.202 314.571 278.64 268.346L282.351 269.981L282.197 286.196C282.197 286.196 320.14 265.039 318.669 260.274C315.61 250.009 311.555 246.608 310.571 245.897C306.575 237.837 289.964 206.913 267.744 200.856C251.997 194.159 226.469 189.644 226.469 189.644C226.469 189.644 223.327 192.014 214.612 193.638C215.61 194.185 216.754 194.409 217.885 194.278C240.022 194.278 273.221 221.67 280.407 240.148C287.592 258.626 266.368 261.187 261.104 286.374C255.839 311.561 252.424 404 252.424 404Z" fill="black"/>
</g>
<path d="M129.111 238.37C129.28 238.755 129.423 239.151 129.538 239.555C129.977 241.084 130.356 243.787 128.352 245.482C125.376 247.852 104.638 250.507 100.18 252.842C100.18 252.842 91.4176 284.027 89.5086 301.723C87.5996 319.419 77.6516 371.192 64.1701 369.698C50.6887 368.205 38.2744 330.217 53.9138 286.267C59.5815 270.372 67.1937 255.213 71.2369 242.412C76.6319 225.332 81.6118 222.013 82.7975 214.404C84.671 202.492 86.2242 199.825 83.343 193.768L81.0901 188.067C80.98 187.826 80.9283 187.563 80.9391 187.299C80.9499 187.034 81.023 186.776 81.1524 186.545C81.2817 186.314 81.4638 186.117 81.6837 185.969C81.9037 185.822 82.1553 185.728 82.4181 185.697C88.1569 185.08 94.5479 194.076 94.5479 201.899V209.402C94.5478 209.88 94.6491 210.352 94.845 210.788C95.0409 211.223 95.3271 211.612 95.6845 211.929C96.042 212.246 96.4626 212.484 96.9187 212.626C97.3747 212.769 97.8558 212.813 98.3303 212.756C104.496 212.021 116.555 210.777 121.499 211.571C126.076 212.318 126.242 215.127 125.933 216.869C125.837 217.373 125.678 217.863 125.459 218.327C126.074 218.489 126.664 218.732 127.214 219.05C128.032 219.484 128.702 220.153 129.137 220.97C129.572 221.788 129.753 222.716 129.657 223.637C129.567 225.067 129.353 226.487 129.016 227.88C128.927 228.308 128.792 228.726 128.613 229.125C129.388 229.659 130.028 230.365 130.485 231.187C130.941 232.01 131.202 232.926 131.245 233.866C131.241 235.032 130.872 236.167 130.19 237.114C129.874 237.568 129.512 237.989 129.111 238.37Z" fill="#EFBFA9"/>
<path d="M335.672 363.191C325.713 372.294 288.968 350.592 279.672 306.417C275.534 286.753 258.981 253.885 258.981 253.885C254.345 251.906 233.489 250.875 230.335 248.682C228.034 247.094 228.378 244.131 228.734 242.625C228.804 242.315 228.895 242.01 229.007 241.713C228.464 241.262 227.985 240.74 227.584 240.16C226.955 239.333 226.58 238.34 226.505 237.303C226.449 235.797 226.961 234.325 227.939 233.179C228.183 232.875 228.462 232.6 228.769 232.361C228.503 231.875 228.3 231.357 228.165 230.82C227.787 229.558 227.502 228.271 227.311 226.968C227.138 225.969 227.289 224.94 227.744 224.033C228.199 223.127 228.932 222.39 229.837 221.93C230.239 221.695 230.664 221.501 231.105 221.35C230.801 220.803 230.573 220.216 230.429 219.607C230.05 217.877 230.311 215.352 234.544 214.321C239.417 213.136 251.535 213.456 257.736 213.717C258.217 213.745 258.698 213.67 259.148 213.497C259.597 213.324 260.004 213.057 260.341 212.713C260.678 212.369 260.938 211.957 261.102 211.505C261.266 211.052 261.331 210.569 261.293 210.09C261.163 208.359 260.973 205.929 260.724 202.611C260.131 194.811 265.823 185.353 271.597 185.543C271.865 185.554 272.127 185.63 272.36 185.763C272.593 185.896 272.791 186.082 272.937 186.307C273.083 186.532 273.173 186.789 273.2 187.056C273.227 187.323 273.19 187.592 273.091 187.842L271.289 193.697C268.858 199.944 270.625 202.492 273.387 214.226C275.119 221.599 281.106 228.793 289.987 243.68C295.264 252.51 305.295 267.077 314.816 281.609C335.957 313.908 347.861 352.026 335.672 363.191Z" fill="#EFBFA9"/>
<path d="M127.226 218.944C123.289 219.643 111.053 220.947 105.492 221.385L105.302 220.532C110.33 220.117 121.357 217.569 125.945 216.763C125.849 217.267 125.69 217.757 125.471 218.221C126.086 218.382 126.676 218.625 127.226 218.944Z" fill="#E8937F"/>
<path d="M129.787 230.049L125.933 230.689C120.1 231.673 111.278 232.373 106.441 232.894L106.192 232.183C110.934 231.673 119.732 229.326 125.542 228.354L129.099 227.774C129.01 228.202 128.875 228.619 128.696 229.018C129.102 229.314 129.469 229.661 129.787 230.049Z" fill="#E8937F"/>
<path d="M129.111 238.37C129.28 238.755 129.423 239.151 129.538 239.555C125.412 240.148 118.416 240.847 113.519 241.547L113.175 240.954C118.511 240.195 126.301 237.623 130.214 237.054C129.893 237.53 129.524 237.971 129.111 238.37Z" fill="#E8937F"/>
<path d="M252.555 222.416V223.27C246.519 223.175 232.54 222.238 229.86 221.93C230.263 221.695 230.688 221.501 231.129 221.35C230.825 220.803 230.597 220.216 230.453 219.607C233.726 219.975 246.934 222.321 252.555 222.416Z" fill="#E8937F"/>
<path d="M252.424 233.937V234.791C247.563 234.589 238.611 234.257 232.73 233.605L227.987 233.131C228.231 232.827 228.509 232.553 228.817 232.313C228.55 231.828 228.347 231.31 228.212 230.772L232.955 231.247C238.777 231.898 247.634 233.747 252.424 233.937Z" fill="#E8937F"/>
<path d="M245.974 242.068L245.796 243.253C240.472 242.838 232.753 242.969 228.734 242.661C228.804 242.351 228.895 242.046 229.007 241.748C228.464 241.297 227.985 240.775 227.584 240.195C230.833 240.421 239.962 241.606 245.974 242.068Z" fill="#E8937F"/>
<path d="M219.841 176.819C215.467 180.404 210.692 183.47 205.613 185.957C195.843 190.367 173.006 191.445 172.318 183.03L172.52 180.351C172.52 180.351 167.67 181.121 166.449 185.543C165.228 189.964 163.271 196.21 170.48 200.489C177.334 204.602 184.27 204.317 195.167 203.523C206.063 202.729 219.059 195.843 224.975 192.488C225.469 192.175 225.873 191.74 226.149 191.225C226.425 190.71 226.564 190.133 226.552 189.549C226.671 184.559 224.465 173.216 219.841 176.819Z" fill="#E6FCFF"/>
<g opacity="0.1">
<path d="M217.944 144.094C214.245 148.681 214.553 180.754 214.553 180.754C222.213 188.683 221.3 194.491 221.3 194.503C222.699 193.756 223.956 193.069 224.975 192.488C225.468 192.175 225.873 191.74 226.149 191.225C226.425 190.71 226.564 190.133 226.552 189.549C226.659 184.974 224.809 175.088 220.956 176.226V147.199C220.957 146.395 221.207 145.611 221.672 144.955C222.137 144.299 222.794 143.804 223.552 143.536L229.789 141.367C234.769 138.155 242.121 133.142 243.069 122.083C239.334 135.465 221.643 139.507 217.944 144.094Z" fill="black"/>
</g>
<g opacity="0.5">
<path d="M299.903 118.795C299.439 118.656 299.021 118.397 298.691 118.045C298.361 117.693 298.13 117.26 298.024 116.791L295.796 107.292L292.816 106.381C290.604 105.706 289.634 102.654 290.614 99.4475L314.063 22.7262C315.043 19.5195 317.554 17.5319 319.765 18.2078L410.354 45.8952C412.575 46.574 413.545 49.6254 412.565 52.8321L389.116 129.553C388.136 132.76 385.626 134.748 383.405 134.069L309.738 111.553L302.581 118.184C302.23 118.513 301.797 118.743 301.327 118.85C300.856 118.958 300.364 118.939 299.903 118.795ZM319.182 20.1165C318.22 19.8226 316.675 21.0616 315.986 23.3139L292.537 100.035C291.849 102.288 292.438 104.179 293.399 104.473L296.937 105.554C297.107 105.605 297.26 105.7 297.382 105.829C297.503 105.957 297.588 106.115 297.628 106.287L299.974 116.396C300.001 116.521 300.061 116.638 300.149 116.732C300.236 116.827 300.347 116.897 300.471 116.935C300.595 116.973 300.726 116.977 300.852 116.947C300.977 116.918 301.092 116.855 301.185 116.766L308.781 109.696C308.91 109.576 309.069 109.492 309.242 109.454C309.414 109.415 309.594 109.422 309.763 109.474L383.988 132.16C384.95 132.454 386.505 131.218 387.193 128.966L410.642 52.2444C411.331 49.9921 410.732 48.0978 409.771 47.804L319.182 20.1165Z" fill="#40A9FF"/>
</g>
<path d="M366.363 77.4132L359.668 75.3672L354.115 93.5374L360.809 95.5835L366.363 77.4132Z" fill="#40A9FF"/>
<path d="M354.7 65.6579C352.767 62.2582 354.659 59.7106 353.244 58.8769C351.829 58.0432 351.171 58.3067 349.653 62.6898C348.135 67.0728 353.092 67.9648 349.474 72.1392L339.871 69.2039C339.55 69.1058 339.203 69.14 338.906 69.2988C338.609 69.4577 338.387 69.7282 338.289 70.051L337.864 71.4417C337.813 71.6015 337.795 71.7696 337.81 71.9363C337.825 72.1029 337.873 72.2648 337.951 72.4125C338.029 72.5602 338.136 72.6907 338.265 72.7964C338.394 72.9022 338.542 72.9811 338.702 73.0284L338.587 73.4051C338.428 73.3551 338.26 73.3375 338.095 73.3531C337.929 73.3688 337.767 73.4174 337.62 73.4963C337.473 73.5751 337.343 73.6825 337.237 73.8123C337.131 73.9421 337.052 74.0916 337.005 74.2522L336.591 75.6043C336.541 75.764 336.523 75.9321 336.538 76.0988C336.553 76.2655 336.601 76.4274 336.679 76.575C336.757 76.7227 336.864 76.8532 336.992 76.959C337.121 77.0647 337.27 77.1436 337.43 77.191L337.303 77.6063C337.144 77.5563 336.976 77.5386 336.81 77.5543C336.645 77.5699 336.483 77.6186 336.336 77.6974C336.189 77.7763 336.059 77.8837 335.953 78.0135C335.847 78.1433 335.768 78.2928 335.721 78.4533L335.304 79.8151C335.206 80.1378 335.239 80.4863 335.396 80.7839C335.553 81.0815 335.822 81.3037 336.143 81.4018L336.027 81.7785C335.869 81.7288 335.703 81.711 335.538 81.7263C335.373 81.7415 335.212 81.7894 335.065 81.8673C334.919 81.9451 334.788 82.0514 334.683 82.1799C334.577 82.3083 334.497 82.4565 334.448 82.6159L334.032 83.9776C333.982 84.1374 333.964 84.3055 333.979 84.4722C333.994 84.6389 334.042 84.8008 334.12 84.9484C334.198 85.0961 334.304 85.2266 334.433 85.3324C334.562 85.4381 334.711 85.517 334.87 85.5644L351.83 90.748L356.822 74.4165C357.883 71.0132 356.636 69.0479 354.7 65.6579Z" fill="#40A9FF"/>
<g opacity="0.2">
<path d="M6.88893 141.367L10.2563 145.895L15.9003 145.682L12.6277 150.281L14.5723 155.579L9.1892 153.896L4.74281 157.38L4.68353 151.739L0 148.586L5.34752 146.784L6.88893 141.367Z" fill="#40A9FF"/>
</g>
<g opacity="0.2">
<path d="M162.868 26.0405L166.224 30.5683L171.868 30.3668L168.607 34.9656L170.54 40.2638L165.156 38.5807L160.71 42.0536L160.651 36.4235L155.967 33.2707L161.315 31.4691L162.868 26.0405Z" fill="#40A9FF"/>
</g>
<g opacity="0.53">
<path d="M50.6058 157.357L56.0007 164.611L65.0358 164.279L59.8068 171.651L62.9134 180.149L54.2815 177.447L47.1672 183.018L47.0724 173.986L39.5669 168.937L48.1277 166.057L50.6058 157.357Z" fill="#40A9FF"/>
</g>
<g opacity="0.51">
<path d="M342.81 196.779L344.293 204.637L351.608 207.873L344.589 211.713L343.783 219.666L337.961 214.179L330.135 215.862L333.562 208.643L329.542 201.721L337.475 202.741L342.81 196.779Z" fill="#FA8C16"/>
</g>
<g opacity="0.2">
<path d="M389.029 332.386L393.487 339.023L401.491 339.118L396.546 345.412L398.93 353.045L391.424 350.295L384.903 354.918L385.199 346.929L378.773 342.152L386.468 339.971L389.029 332.386Z" fill="#40A9FF"/>
</g>
<g opacity="0.51">
<path d="M22.4216 211.749L27.4016 213.361L31.5515 210.184V215.423L35.8675 218.386L30.8875 219.998L29.3936 225.012L26.3226 220.781L21.0818 220.911L24.1646 216.68L22.4216 211.749Z" fill="#FA8C16"/>
</g>
</g>
<defs>
<clipPath id="clip0_2777_9514">
<rect width="414" height="404" fill="white"/>
</clipPath>
</defs>
</svg>
