<svg width="87" height="87" viewBox="0 0 87 87" fill="none" xmlns="http://www.w3.org/2000/svg">
<g clip-path="url(#clip0_544_509)">
<path d="M85.3002 1H63.6802V8.25C64.0701 8.50216 64.5201 8.64616 64.9839 8.66724C65.4478 8.68833 65.909 8.58575 66.3202 8.37V8.37C66.8466 8.04599 67.452 7.87301 68.0702 7.87C68.5235 7.84517 68.9771 7.91301 69.4033 8.0694C69.8296 8.22578 70.2194 8.46741 70.5491 8.77953C70.8788 9.09166 71.1414 9.46772 71.3208 9.88474C71.5003 10.3018 71.5929 10.751 71.5929 11.205C71.5929 11.659 71.5003 12.1082 71.3208 12.5253C71.1414 12.9423 70.8788 13.3183 70.5491 13.6305C70.2194 13.9426 69.8296 14.1842 69.4033 14.3406C68.9771 14.497 68.5235 14.5648 68.0702 14.54C67.452 14.537 66.8466 14.364 66.3202 14.04V14.04C65.909 13.8243 65.4478 13.7217 64.9839 13.7428C64.5201 13.7638 64.0701 13.9078 63.6802 14.16V21.41H71.5302C71.7874 21.7979 71.9344 22.2484 71.9555 22.7134C71.9766 23.1784 71.8711 23.6403 71.6502 24.05V24.05C71.3174 24.5768 71.1406 25.187 71.1402 25.81C71.1869 26.6629 71.5586 27.4655 72.1789 28.0528C72.7992 28.64 73.621 28.9673 74.4752 28.9673C75.3294 28.9673 76.1511 28.64 76.7714 28.0528C77.3917 27.4655 77.7635 26.6629 77.8102 25.81C77.8133 25.1879 77.6399 24.5776 77.3102 24.05V24.05C77.0944 23.6388 76.9918 23.1776 77.0129 22.7138C77.034 22.2499 77.178 21.7999 77.4302 21.41H85.3002V1Z" stroke="#1890FF" stroke-width="2" stroke-linecap="round" stroke-linejoin="round"/>
<path d="M13 1H1V21.41H8.85C9.10984 21.024 9.2609 20.5751 9.28729 20.1106C9.31369 19.646 9.21445 19.1829 9 18.77V18.77C8.6609 18.2419 8.48043 17.6276 8.48 17C8.48 16.1168 8.83084 15.2698 9.45533 14.6453C10.0798 14.0208 10.9268 13.67 11.81 13.67C12.6932 13.67 13.5402 14.0208 14.1647 14.6453C14.7892 15.2698 15.14 16.1168 15.14 17C15.1418 17.6188 14.9684 18.2255 14.64 18.75C14.4243 19.1612 14.3217 19.6224 14.3428 20.0862C14.3638 20.5501 14.5078 21.0001 14.76 21.39H22.62V14.16C23.0063 13.9016 23.4544 13.7505 23.9183 13.7224C24.3823 13.6943 24.8453 13.7901 25.26 14V14C25.7864 14.324 26.3918 14.497 27.01 14.5C27.4633 14.5248 27.9169 14.457 28.3432 14.3006C28.7694 14.1442 29.1592 13.9026 29.4889 13.5905C29.8186 13.2783 30.0812 12.9023 30.2607 12.4853C30.4401 12.0682 30.5327 11.619 30.5327 11.165C30.5327 10.711 30.4401 10.2618 30.2607 9.84474C30.0812 9.42772 29.8186 9.05166 29.4889 8.73953C29.1592 8.42741 28.7694 8.18578 28.3432 8.0294C27.9169 7.87301 27.4633 7.80517 27.01 7.83C26.3918 7.83301 25.7864 8.00599 25.26 8.33V8.33C24.8488 8.54575 24.3876 8.64833 23.9238 8.62724C23.4599 8.60616 23.0099 8.46216 22.62 8.21V1H18.25" stroke="#1890FF" stroke-width="2" stroke-linecap="round" stroke-linejoin="round"/>
<path d="M18.22 71.6901C18.8415 71.6918 19.4505 71.8648 19.98 72.1901V72.1901C20.3903 72.4089 20.8519 72.5133 21.3165 72.4921C21.781 72.471 22.2313 72.3252 22.62 72.0701V64.8201H14.76C14.5078 64.4302 14.3638 63.9802 14.3428 63.5163C14.3217 63.0525 14.4243 62.5913 14.64 62.1801V62.1801C14.9684 61.6556 15.1418 61.0489 15.14 60.4301C15.14 59.5469 14.7892 58.6999 14.1647 58.0754C13.5402 57.4509 12.6932 57.1001 11.81 57.1001C10.9268 57.1001 10.0798 57.4509 9.45533 58.0754C8.83084 58.6999 8.48 59.5469 8.48 60.4301C8.48423 61.0509 8.66455 61.6577 9 62.1801V62.1801C9.21736 62.5913 9.32 63.0534 9.29712 63.5179C9.27425 63.9825 9.12671 64.4323 8.87 64.8201H1V85.2301H22.62V78.0001C22.2341 77.7485 21.7888 77.6031 21.3288 77.5785C20.8688 77.5539 20.4105 77.6511 20 77.8601V77.8601C19.4724 78.1898 18.8621 78.3632 18.24 78.3601C17.3871 78.3134 16.5845 77.9416 15.9972 77.3213C15.41 76.701 15.0827 75.8793 15.0827 75.0251C15.0827 74.1709 15.41 73.3492 15.9972 72.7289C16.5845 72.1086 17.3871 71.7368 18.24 71.6901H18.22Z" stroke="#1890FF" stroke-width="2" stroke-linecap="round" stroke-linejoin="round"/>
<path d="M85.3598 73.6398V64.8198H77.5098C77.2531 65.2077 77.1056 65.6575 77.0827 66.122C77.0598 66.5865 77.1625 67.0486 77.3798 67.4598C77.7096 67.9874 77.8829 68.5977 77.8798 69.2198C77.8798 70.103 77.529 70.95 76.9045 71.5745C76.28 72.199 75.433 72.5498 74.5498 72.5498C73.6667 72.5498 72.8197 72.199 72.1952 71.5745C71.5707 70.95 71.2198 70.103 71.2198 69.2198C71.2167 68.5977 71.3901 67.9874 71.7198 67.4598V67.4598C71.9372 67.0486 72.0398 66.5865 72.017 66.122C71.9941 65.6575 71.8465 65.2077 71.5898 64.8198H63.7398V72.0698C63.3511 72.325 62.9008 72.4708 62.4363 72.4919C61.9718 72.513 61.5101 72.4087 61.0998 72.1898V72.1898C60.5734 71.8658 59.968 71.6928 59.3498 71.6898C58.8965 71.665 58.4429 71.7328 58.0167 71.8892C57.5905 72.0456 57.2006 72.2872 56.8709 72.5994C56.5412 72.9115 56.2786 73.2875 56.0992 73.7046C55.9197 74.1216 55.8271 74.5708 55.8271 75.0248C55.8271 75.4788 55.9197 75.9281 56.0992 76.3451C56.2786 76.7621 56.5412 77.1382 56.8709 77.4503C57.2006 77.7624 57.5905 78.004 58.0167 78.1604C58.4429 78.3168 58.8965 78.3847 59.3498 78.3598C59.9687 78.3616 60.5753 78.1882 61.0998 77.8598V77.8598C61.511 77.6441 61.9722 77.5415 62.4361 77.5626C62.9 77.5837 63.3499 77.7277 63.7398 77.9798V85.2298H85.3598V80.1198" stroke="#1890FF" stroke-width="2" stroke-linecap="round" stroke-linejoin="round"/>
<path d="M38.4102 55.77H48.1402V59C48.1402 59.8169 47.8157 60.6003 47.238 61.1779C46.6604 61.7555 45.877 62.08 45.0602 62.08H41.5002C41.0948 62.0813 40.6933 62.0026 40.3184 61.8484C39.9436 61.6943 39.6029 61.4676 39.3158 61.1814C39.0287 60.8953 38.801 60.5553 38.6456 60.181C38.4902 59.8067 38.4102 59.4053 38.4102 59V55.77Z" stroke="#1890FF" stroke-width="2" stroke-linecap="round" stroke-linejoin="round"/>
<path d="M33.18 39.73C32.8869 40.7032 32.7354 41.7136 32.73 42.73C32.73 48.12 36.08 51.93 37.15 54.61C37.2912 54.9456 37.5294 55.2315 37.834 55.431C38.1386 55.6305 38.4959 55.7346 38.86 55.73H47.7C48.0641 55.7346 48.4213 55.6305 48.7259 55.431C49.0306 55.2315 49.2687 54.9456 49.41 54.61C50.49 51.93 53.83 48.12 53.83 42.73C53.8293 40.5903 53.1779 38.5013 51.9624 36.7404C50.7469 34.9794 49.0246 33.6297 47.0242 32.8704C45.0237 32.111 42.8397 31.9778 40.7618 32.4885C38.6839 32.9993 36.8104 34.1298 35.39 35.73" stroke="#1890FF" stroke-width="2" stroke-linecap="round" stroke-linejoin="round"/>
<path d="M43.2798 24.1499V27.9899" stroke="#1890FF" stroke-width="2" stroke-linecap="round" stroke-linejoin="round"/>
<path d="M61.4298 42.2998H57.5898" stroke="#1890FF" stroke-width="2" stroke-linecap="round" stroke-linejoin="round"/>
<path d="M24.9302 42.2998H28.7702" stroke="#1890FF" stroke-width="2" stroke-linecap="round" stroke-linejoin="round"/>
<path d="M30.3501 29.4302L33.0601 32.1402" stroke="#1890FF" stroke-width="2" stroke-linecap="round" stroke-linejoin="round"/>
<path d="M56.1499 29.5698L53.4399 32.2798" stroke="#1890FF" stroke-width="2" stroke-linecap="round" stroke-linejoin="round"/>
<path d="M56.0098 55.3702L53.2998 52.6602" stroke="#1890FF" stroke-width="2" stroke-linecap="round" stroke-linejoin="round"/>
<path d="M30.21 55.23L32.92 52.52" stroke="#1890FF" stroke-width="2" stroke-linecap="round" stroke-linejoin="round"/>
<path d="M43.1802 55.77V51.48" stroke="#1890FF" stroke-width="2" stroke-linecap="round" stroke-linejoin="round"/>
<path d="M39.3599 48.75C39.6156 49.5614 40.1234 50.2701 40.8094 50.7732C41.4955 51.2763 42.3241 51.5476 43.1749 51.5476C44.0256 51.5476 44.8542 51.2763 45.5403 50.7732C46.2263 50.2701 46.7341 49.5614 46.9899 48.75" stroke="#1890FF" stroke-width="2" stroke-linecap="round" stroke-linejoin="round"/>
<path d="M11.8101 49.75V53.62" stroke="#1890FF" stroke-width="2" stroke-linecap="round" stroke-linejoin="round"/>
<path d="M11.8101 36.5601V43.1201" stroke="#1890FF" stroke-width="2" stroke-linecap="round" stroke-linejoin="round"/>
<path d="M11.8101 24.1499V29.1399" stroke="#1890FF" stroke-width="2" stroke-linecap="round" stroke-linejoin="round"/>
<path d="M57.25 11.21H60.85" stroke="#1890FF" stroke-width="2" stroke-linecap="round" stroke-linejoin="round"/>
<path d="M45.0298 11.21H51.0998" stroke="#1890FF" stroke-width="2" stroke-linecap="round" stroke-linejoin="round"/>
<path d="M33.52 11.21H38.15" stroke="#1890FF" stroke-width="2" stroke-linecap="round" stroke-linejoin="round"/>
<path d="M49.21 75.21H52.8" stroke="#1890FF" stroke-width="2" stroke-linecap="round" stroke-linejoin="round"/>
<path d="M36.98 75.21H43.06" stroke="#1890FF" stroke-width="2" stroke-linecap="round" stroke-linejoin="round"/>
<path d="M25.48 75.21H30.1" stroke="#1890FF" stroke-width="2" stroke-linecap="round" stroke-linejoin="round"/>
<path d="M74.4902 58.23V62.11" stroke="#1890FF" stroke-width="2" stroke-linecap="round" stroke-linejoin="round"/>
<path d="M74.4902 45.04V51.6" stroke="#1890FF" stroke-width="2" stroke-linecap="round" stroke-linejoin="round"/>
<path d="M74.4902 32.6401V37.6201" stroke="#1890FF" stroke-width="2" stroke-linecap="round" stroke-linejoin="round"/>
</g>
<defs>
<clipPath id="clip0_544_509">
<rect width="86.36" height="86.23" fill="white"/>
</clipPath>
</defs>
</svg>
