<svg width="87" height="87" viewBox="0 0 87 87" fill="none" xmlns="http://www.w3.org/2000/svg">
<g clip-path="url(#clip0_193_1416)">
<path d="M85.2999 1H63.6799V8.25C64.0699 8.50216 64.5198 8.64616 64.9837 8.66724C65.4476 8.68833 65.9087 8.58575 66.3199 8.37V8.37C66.8464 8.04599 67.4518 7.87301 68.0699 7.87C68.5233 7.84517 68.9769 7.91301 69.4031 8.0694C69.8293 8.22578 70.2192 8.46741 70.5489 8.77953C70.8785 9.09166 71.1411 9.46772 71.3206 9.88474C71.5001 10.3018 71.5926 10.751 71.5926 11.205C71.5926 11.659 71.5001 12.1082 71.3206 12.5253C71.1411 12.9423 70.8785 13.3183 70.5489 13.6305C70.2192 13.9426 69.8293 14.1842 69.4031 14.3406C68.9769 14.497 68.5233 14.5648 68.0699 14.54C67.4518 14.537 66.8464 14.364 66.3199 14.04V14.04C65.9087 13.8243 65.4476 13.7217 64.9837 13.7428C64.5198 13.7638 64.0699 13.9078 63.6799 14.16V21.41H71.5299C71.7871 21.7979 71.9341 22.2484 71.9553 22.7134C71.9764 23.1784 71.8709 23.6403 71.6499 24.05V24.05C71.3172 24.5768 71.1404 25.187 71.1399 25.81C71.1867 26.6629 71.5584 27.4655 72.1787 28.0528C72.799 28.64 73.6207 28.9673 74.4749 28.9673C75.3291 28.9673 76.1509 28.64 76.7712 28.0528C77.3915 27.4655 77.7632 26.6629 77.8099 25.81C77.813 25.1879 77.6397 24.5776 77.3099 24.05V24.05C77.0942 23.6388 76.9916 23.1776 77.0127 22.7138C77.0338 22.2499 77.1778 21.7999 77.4299 21.41H85.2999V1Z" stroke="white" stroke-width="2" stroke-linecap="round" stroke-linejoin="round"/>
<path d="M13 1H1V21.41H8.85C9.10984 21.024 9.2609 20.5751 9.28729 20.1106C9.31369 19.646 9.21445 19.1829 9 18.77V18.77C8.6609 18.2419 8.48043 17.6276 8.48 17C8.48 16.1168 8.83084 15.2698 9.45533 14.6453C10.0798 14.0208 10.9268 13.67 11.81 13.67C12.6932 13.67 13.5402 14.0208 14.1647 14.6453C14.7892 15.2698 15.14 16.1168 15.14 17C15.1418 17.6188 14.9684 18.2255 14.64 18.75C14.4243 19.1612 14.3217 19.6224 14.3428 20.0862C14.3638 20.5501 14.5078 21.0001 14.76 21.39H22.62V14.16C23.0063 13.9016 23.4544 13.7505 23.9183 13.7224C24.3823 13.6943 24.8453 13.7901 25.26 14V14C25.7864 14.324 26.3918 14.497 27.01 14.5C27.4633 14.5248 27.9169 14.457 28.3432 14.3006C28.7694 14.1442 29.1592 13.9026 29.4889 13.5905C29.8186 13.2783 30.0812 12.9023 30.2607 12.4853C30.4401 12.0682 30.5327 11.619 30.5327 11.165C30.5327 10.711 30.4401 10.2618 30.2607 9.84474C30.0812 9.42772 29.8186 9.05166 29.4889 8.73953C29.1592 8.42741 28.7694 8.18578 28.3432 8.0294C27.9169 7.87301 27.4633 7.80517 27.01 7.83C26.3918 7.83301 25.7864 8.00599 25.26 8.33V8.33C24.8488 8.54575 24.3876 8.64833 23.9238 8.62724C23.4599 8.60616 23.0099 8.46216 22.62 8.21V1H18.25" stroke="white" stroke-width="2" stroke-linecap="round" stroke-linejoin="round"/>
<path d="M18.22 71.69C18.8415 71.6917 19.4505 71.8647 19.98 72.19V72.19C20.3903 72.4088 20.8519 72.5131 21.3165 72.492C21.781 72.4709 22.2313 72.3251 22.62 72.07V64.82H14.76C14.5078 64.43 14.3638 63.9801 14.3428 63.5162C14.3217 63.0523 14.4243 62.5912 14.64 62.18V62.18C14.9684 61.6555 15.1418 61.0488 15.14 60.43C15.14 59.5468 14.7892 58.6998 14.1647 58.0753C13.5402 57.4508 12.6932 57.1 11.81 57.1C10.9268 57.1 10.0798 57.4508 9.45533 58.0753C8.83084 58.6998 8.48 59.5468 8.48 60.43C8.48423 61.0508 8.66455 61.6576 9 62.18V62.18C9.21736 62.5912 9.32 63.0533 9.29712 63.5178C9.27425 63.9823 9.12671 64.4321 8.87 64.82H1V85.23H22.62V78C22.2341 77.7484 21.7888 77.603 21.3288 77.5784C20.8688 77.5538 20.4105 77.6509 20 77.86V77.86C19.4724 78.1897 18.8621 78.3631 18.24 78.36C17.3871 78.3133 16.5845 77.9415 15.9972 77.3212C15.41 76.7009 15.0827 75.8792 15.0827 75.025C15.0827 74.1708 15.41 73.349 15.9972 72.7287C16.5845 72.1084 17.3871 71.7367 18.24 71.69H18.22Z" stroke="white" stroke-width="2" stroke-linecap="round" stroke-linejoin="round"/>
<path d="M85.3601 73.6399V64.8199H77.5101C77.2534 65.2078 77.1058 65.6576 77.083 66.1221C77.0601 66.5866 77.1627 67.0488 77.3801 67.4599C77.7098 67.9875 77.8832 68.5978 77.8801 69.2199C77.8801 70.1031 77.5292 70.9501 76.9047 71.5746C76.2802 72.1991 75.4333 72.5499 74.5501 72.5499C73.6669 72.5499 72.8199 72.1991 72.1954 71.5746C71.5709 70.9501 71.2201 70.1031 71.2201 69.2199C71.217 68.5978 71.3904 67.9875 71.7201 67.4599V67.4599C71.9374 67.0488 72.0401 66.5866 72.0172 66.1221C71.9943 65.6576 71.8468 65.2078 71.5901 64.8199H63.7401V72.0699C63.3513 72.3251 62.9011 72.4709 62.4365 72.492C61.972 72.5131 61.5104 72.4088 61.1001 72.1899V72.1899C60.5736 71.8659 59.9682 71.693 59.3501 71.6899C58.8968 71.6651 58.4431 71.733 58.0169 71.8893C57.5907 72.0457 57.2008 72.2874 56.8712 72.5995C56.5415 72.9116 56.2789 73.2877 56.0994 73.7047C55.92 74.1217 55.8274 74.5709 55.8274 75.0249C55.8274 75.4789 55.92 75.9282 56.0994 76.3452C56.2789 76.7622 56.5415 77.1383 56.8712 77.4504C57.2008 77.7625 57.5907 78.0042 58.0169 78.1606C58.4431 78.3169 58.8968 78.3848 59.3501 78.3599C59.9689 78.3617 60.5756 78.1884 61.1001 77.8599V77.8599C61.5113 77.6442 61.9724 77.5416 62.4363 77.5627C62.9002 77.5838 63.3501 77.7278 63.7401 77.9799V85.2299H85.3601V80.1199" stroke="white" stroke-width="2" stroke-linecap="round" stroke-linejoin="round"/>
<path d="M38.4099 55.77H48.1399V59C48.1399 59.8169 47.8154 60.6003 47.2378 61.1779C46.6602 61.7555 45.8768 62.08 45.0599 62.08H41.4999C41.0946 62.0813 40.693 62.0026 40.3182 61.8484C39.9433 61.6943 39.6026 61.4676 39.3156 61.1814C39.0285 60.8953 38.8007 60.5553 38.6453 60.181C38.4899 59.8067 38.4099 59.4053 38.4099 59V55.77Z" stroke="white" stroke-width="2" stroke-linecap="round" stroke-linejoin="round"/>
<path d="M33.18 39.73C32.8869 40.7032 32.7354 41.7136 32.73 42.73C32.73 48.12 36.08 51.93 37.15 54.61C37.2912 54.9456 37.5294 55.2315 37.834 55.431C38.1386 55.6305 38.4959 55.7346 38.86 55.73H47.7C48.0641 55.7346 48.4213 55.6305 48.7259 55.431C49.0306 55.2315 49.2687 54.9456 49.41 54.61C50.49 51.93 53.83 48.12 53.83 42.73C53.8293 40.5903 53.1779 38.5013 51.9624 36.7404C50.7469 34.9794 49.0246 33.6297 47.0242 32.8704C45.0237 32.111 42.8397 31.9778 40.7618 32.4885C38.6839 32.9993 36.8104 34.1298 35.39 35.73" stroke="white" stroke-width="2" stroke-linecap="round" stroke-linejoin="round"/>
<path d="M43.28 24.15V27.99" stroke="white" stroke-width="2" stroke-linecap="round" stroke-linejoin="round"/>
<path d="M61.4301 42.3H57.5901" stroke="white" stroke-width="2" stroke-linecap="round" stroke-linejoin="round"/>
<path d="M24.9299 42.3H28.7699" stroke="white" stroke-width="2" stroke-linecap="round" stroke-linejoin="round"/>
<path d="M30.3501 29.4301L33.0601 32.1401" stroke="white" stroke-width="2" stroke-linecap="round" stroke-linejoin="round"/>
<path d="M56.1499 29.5699L53.4399 32.2799" stroke="white" stroke-width="2" stroke-linecap="round" stroke-linejoin="round"/>
<path d="M56.01 55.37L53.3 52.66" stroke="white" stroke-width="2" stroke-linecap="round" stroke-linejoin="round"/>
<path d="M30.21 55.23L32.92 52.52" stroke="white" stroke-width="2" stroke-linecap="round" stroke-linejoin="round"/>
<path d="M43.1799 55.77V51.48" stroke="white" stroke-width="2" stroke-linecap="round" stroke-linejoin="round"/>
<path d="M39.3601 48.75C39.6158 49.5614 40.1236 50.2701 40.8097 50.7732C41.4958 51.2763 42.3243 51.5476 43.1751 51.5476C44.0259 51.5476 44.8545 51.2763 45.5405 50.7732C46.2266 50.2701 46.7344 49.5614 46.9901 48.75" stroke="white" stroke-width="2" stroke-linecap="round" stroke-linejoin="round"/>
<path d="M11.8101 49.75V53.62" stroke="white" stroke-width="2" stroke-linecap="round" stroke-linejoin="round"/>
<path d="M11.8101 36.5601V43.1201" stroke="white" stroke-width="2" stroke-linecap="round" stroke-linejoin="round"/>
<path d="M11.8101 24.15V29.14" stroke="white" stroke-width="2" stroke-linecap="round" stroke-linejoin="round"/>
<path d="M57.25 11.21H60.85" stroke="white" stroke-width="2" stroke-linecap="round" stroke-linejoin="round"/>
<path d="M45.03 11.21H51.1" stroke="white" stroke-width="2" stroke-linecap="round" stroke-linejoin="round"/>
<path d="M33.52 11.21H38.15" stroke="white" stroke-width="2" stroke-linecap="round" stroke-linejoin="round"/>
<path d="M49.21 75.21H52.8" stroke="white" stroke-width="2" stroke-linecap="round" stroke-linejoin="round"/>
<path d="M36.98 75.21H43.06" stroke="white" stroke-width="2" stroke-linecap="round" stroke-linejoin="round"/>
<path d="M25.48 75.21H30.1" stroke="white" stroke-width="2" stroke-linecap="round" stroke-linejoin="round"/>
<path d="M74.49 58.23V62.11" stroke="white" stroke-width="2" stroke-linecap="round" stroke-linejoin="round"/>
<path d="M74.49 45.04V51.6" stroke="white" stroke-width="2" stroke-linecap="round" stroke-linejoin="round"/>
<path d="M74.49 32.64V37.62" stroke="white" stroke-width="2" stroke-linecap="round" stroke-linejoin="round"/>
</g>
<defs>
<clipPath id="clip0_193_1416">
<rect width="86.36" height="86.23" fill="white"/>
</clipPath>
</defs>
</svg>
