<svg width="1920" height="888" viewBox="0 0 1920 888" fill="none" xmlns="http://www.w3.org/2000/svg">
<path d="M-384.565 -317.909C-385.087 -318.677 -385.011 -319.704 -384.382 -320.387L367.315 -1137.02C367.728 -1137.47 368.324 -1137.7 368.933 -1137.66L1745.77 -1036.22C1746.38 -1036.18 1746.93 -1035.86 1747.28 -1035.35L2371.18 -117.376C2371.7 -116.608 2371.63 -115.581 2371 -114.898L1619.3 701.734C1618.89 702.183 1618.29 702.419 1617.68 702.374L240.845 600.938C240.236 600.893 239.681 600.573 239.338 600.068L-384.565 -317.909Z" fill="url(#paint0_linear_618_4023)"/>
<mask id="mask0_618_4023" style="mask-type:alpha" maskUnits="userSpaceOnUse" x="-385" y="-1138" width="2757" height="1841">
<path d="M-384.565 -317.909C-385.087 -318.677 -385.011 -319.704 -384.382 -320.387L367.315 -1137.02C367.728 -1137.47 368.324 -1137.7 368.933 -1137.66L1745.77 -1036.22C1746.38 -1036.18 1746.93 -1035.86 1747.28 -1035.35L2371.18 -117.376C2371.7 -116.608 2371.63 -115.581 2371 -114.898L1619.3 701.734C1618.89 702.183 1618.29 702.419 1617.68 702.374L240.845 600.938C240.236 600.893 239.681 600.573 239.338 600.068L-384.565 -317.909Z" fill="url(#paint1_linear_618_4023)"/>
</mask>
<g mask="url(#mask0_618_4023)">
<path opacity="0.4" d="M1673.73 491.791C1674.28 492.245 1674.55 492.96 1674.43 493.664L1611.73 867.799C1611.61 868.503 1611.13 869.092 1610.46 869.342L1255.09 1002.11C1254.42 1002.36 1253.67 1002.23 1253.12 1001.78L960.463 760.405C959.912 759.95 959.645 759.236 959.763 758.531L1022.47 384.397C1022.59 383.692 1023.07 383.104 1023.74 382.854L1379.1 250.09C1379.77 249.84 1380.52 249.966 1381.07 250.42L1673.73 491.791Z" fill="url(#paint2_linear_618_4023)"/>
<path opacity="0.4" d="M887.201 716.503C887.434 717.178 887.288 717.927 886.819 718.466L748.968 877.038C748.5 877.577 747.779 877.825 747.077 877.689L540.824 837.592C540.123 837.456 539.548 836.956 539.315 836.28L470.913 637.612C470.681 636.936 470.826 636.188 471.295 635.648L609.146 477.076C609.615 476.537 610.336 476.289 611.037 476.425L817.29 516.522C817.991 516.658 818.567 517.158 818.799 517.834L887.201 716.503Z" fill="url(#paint3_linear_618_4023)"/>
</g>
<path opacity="0.1" d="M1028.8 355.585C1029.03 356.26 1028.88 357.009 1028.41 357.548L1007.95 381.091C1007.48 381.63 1006.76 381.879 1006.06 381.742L975.435 375.789C974.733 375.653 974.158 375.153 973.925 374.477L963.77 344.981C963.537 344.305 963.683 343.557 964.151 343.018L984.618 319.475C985.087 318.935 985.808 318.687 986.509 318.824L1017.13 324.777C1017.83 324.913 1018.41 325.413 1018.64 326.089L1028.8 355.585Z" fill="white"/>
<path opacity="0.3" d="M1523.92 217.776C1524.15 218.452 1524 219.2 1523.54 219.74L1513.08 231.763C1512.61 232.302 1511.89 232.551 1511.19 232.414L1495.55 229.374C1494.85 229.238 1494.28 228.737 1494.04 228.062L1488.86 212.998C1488.62 212.322 1488.77 211.574 1489.24 211.035L1499.69 199.011C1500.16 198.472 1500.88 198.223 1501.58 198.36L1517.22 201.4C1517.92 201.536 1518.5 202.037 1518.73 202.712L1523.92 217.776Z" fill="white"/>
<path opacity="0.1" d="M1473.04 621.825C1473.27 622.501 1473.12 623.249 1472.66 623.789L1443.89 656.876C1443.42 657.415 1442.7 657.663 1442 657.527L1398.96 649.16C1398.26 649.024 1397.69 648.524 1397.46 647.848L1383.18 606.395C1382.95 605.719 1383.1 604.971 1383.56 604.432L1412.33 571.344C1412.8 570.805 1413.52 570.557 1414.22 570.693L1457.26 579.06C1457.96 579.196 1458.53 579.696 1458.76 580.372L1473.04 621.825Z" fill="url(#paint4_linear_618_4023)"/>
<path opacity="0.2" d="M1580.99 470.329C1580.79 471.016 1580.25 471.548 1579.55 471.724L1543.38 480.889C1542.69 481.065 1541.95 480.857 1541.45 480.345L1515.43 453.598C1514.93 453.086 1514.74 452.347 1514.94 451.66L1525.09 415.747C1525.28 415.06 1525.83 414.528 1526.52 414.353L1562.7 405.187C1563.39 405.012 1564.12 405.219 1564.62 405.731L1590.65 432.478C1591.15 432.99 1591.33 433.729 1591.14 434.417L1580.99 470.329Z" fill="url(#paint5_linear_618_4023)"/>
<defs>
<linearGradient id="paint0_linear_618_4023" x1="1325" y1="680.5" x2="1250.5" y2="41.0001" gradientUnits="userSpaceOnUse">
<stop stop-color="#40A9FF"/>
<stop offset="0.53585" stop-color="#0084EF"/>
<stop offset="1" stop-color="#0267BA"/>
</linearGradient>
<linearGradient id="paint1_linear_618_4023" x1="1299.63" y1="778.763" x2="1034.8" y2="135.929" gradientUnits="userSpaceOnUse">
<stop stop-color="#40A9FF"/>
<stop offset="0.630208" stop-color="#0084EF"/>
<stop offset="1" stop-color="#0267BA"/>
</linearGradient>
<linearGradient id="paint2_linear_618_4023" x1="1598.5" y1="849" x2="1117.07" y2="527.489" gradientUnits="userSpaceOnUse">
<stop stop-color="#40A9FF"/>
<stop offset="0.630208" stop-color="#0084EF"/>
<stop offset="1" stop-color="#0071CC"/>
</linearGradient>
<linearGradient id="paint3_linear_618_4023" x1="747.819" y1="864.656" x2="612.786" y2="572.107" gradientUnits="userSpaceOnUse">
<stop stop-color="#40A9FF"/>
<stop offset="0.630208" stop-color="#0084EF"/>
<stop offset="1" stop-color="#0071CC"/>
</linearGradient>
<linearGradient id="paint4_linear_618_4023" x1="1420" y1="576.5" x2="1458" y2="640" gradientUnits="userSpaceOnUse">
<stop stop-color="white"/>
<stop offset="1" stop-color="white" stop-opacity="0"/>
</linearGradient>
<linearGradient id="paint5_linear_618_4023" x1="1513" y1="461.5" x2="1575" y2="463" gradientUnits="userSpaceOnUse">
<stop stop-color="white"/>
<stop offset="1" stop-color="white" stop-opacity="0"/>
</linearGradient>
</defs>
</svg>
