<svg width="320" height="323" viewBox="0 0 320 323" fill="none" xmlns="http://www.w3.org/2000/svg">
<path fill-rule="evenodd" clip-rule="evenodd" d="M200.559 277.712C200.202 277.094 199.542 276.712 198.827 276.712H119.463C118.748 276.712 118.088 277.094 117.731 277.712L92.3273 321.712C91.97 322.331 91.3098 322.712 90.5952 322.712H-43.5954C-44.3099 322.712 -44.9702 322.331 -45.3274 321.712L-112.423 205.5C-112.78 204.881 -112.78 204.119 -112.423 203.5L-45.3274 87.2875C-44.9702 86.6687 -44.3099 86.2875 -43.5954 86.2875L40.5371 86.2875C41.2516 86.2875 41.9119 85.9063 42.2692 85.2875L67.6726 41.2875C68.0298 40.6687 68.6901 40.2875 69.4046 40.2875L195.363 40.2875C196.078 40.2875 196.738 39.9063 197.095 39.2875L218.673 1.91448C219.03 1.29568 219.69 0.914486 220.405 0.914486L396.595 0.914478C397.31 0.914478 397.97 1.29568 398.327 1.91448L486.423 154.5C486.78 155.119 486.78 155.881 486.423 156.5L398.327 309.086C397.97 309.704 397.31 310.086 396.595 310.086H220.405C219.69 310.086 219.03 309.704 218.673 309.086L200.559 277.712Z" fill="url(#paint0_linear_1046_7064)"/>
<defs>
<linearGradient id="paint0_linear_1046_7064" x1="310" y1="295.5" x2="142.5" y2="14" gradientUnits="userSpaceOnUse">
<stop stop-color="#40A9FF"/>
<stop offset="0.448032" stop-color="#0084EF"/>
<stop offset="1" stop-color="#0267BA"/>
</linearGradient>
</defs>
</svg>
