<svg width="1920" height="3782" viewBox="0 0 1920 3782" fill="none" xmlns="http://www.w3.org/2000/svg">
<path d="M1625.54 2664.2C1625.72 2663.51 1626.25 2662.96 1626.94 2662.77L1821.46 2608.3C1822.14 2608.11 1822.88 2608.29 1823.39 2608.79L1967.82 2750.01C1968.33 2750.51 1968.54 2751.24 1968.36 2751.94L1918.28 2947.63C1918.1 2948.32 1917.57 2948.86 1916.88 2949.06L1722.37 3003.53C1721.68 3003.72 1720.94 3003.53 1720.43 3003.03L1576 2861.82C1575.49 2861.32 1575.29 2860.58 1575.46 2859.89L1625.54 2664.2Z" fill="url(#paint0_radial_655_3205)" fill-opacity="0.3"/>
<path opacity="0.5" d="M1624.5 2635.58C1625.12 2635.22 1625.88 2635.22 1626.5 2635.58L1663.04 2656.67C1663.66 2657.03 1664.04 2657.69 1664.04 2658.4V2700.6C1664.04 2701.31 1663.66 2701.97 1663.04 2702.33L1626.5 2723.42C1625.88 2723.78 1625.12 2723.78 1624.5 2723.42L1587.96 2702.33C1587.34 2701.97 1586.96 2701.31 1586.96 2700.6V2658.4C1586.96 2657.69 1587.34 2657.03 1587.96 2656.67L1624.5 2635.58Z" fill="url(#paint1_linear_655_3205)"/>
<path opacity="0.5" d="M100.5 3120.58C101.119 3120.22 101.881 3120.22 102.5 3120.58L139.038 3141.67C139.657 3142.03 140.038 3142.69 140.038 3143.4V3185.6C140.038 3186.31 139.657 3186.97 139.038 3187.33L102.5 3208.42C101.881 3208.78 101.119 3208.78 100.5 3208.42L63.9619 3187.33C63.3431 3186.97 62.9619 3186.31 62.9619 3185.6V3143.4C62.9619 3142.69 63.3431 3142.03 63.9619 3141.67L100.5 3120.58Z" fill="url(#paint2_linear_655_3205)"/>
<path d="M1675.54 519.2C1675.72 518.508 1676.25 517.963 1676.94 517.77L1871.46 463.298C1872.14 463.105 1872.88 463.294 1873.39 463.794L2017.82 605.01C2018.33 605.51 2018.54 606.244 2018.36 606.936L1968.28 802.625C1968.1 803.317 1967.57 803.862 1966.88 804.055L1772.37 858.527C1771.68 858.72 1770.94 858.531 1770.43 858.032L1626 716.815C1625.49 716.316 1625.29 715.581 1625.46 714.889L1675.54 519.2Z" fill="url(#paint3_radial_655_3205)" fill-opacity="0.3"/>
<path d="M-33.4553 1097.2C-33.2781 1096.51 -32.7451 1095.96 -32.0571 1095.77L162.455 1041.3C163.143 1041.11 163.882 1041.29 164.393 1041.79L308.823 1183.01C309.334 1183.51 309.54 1184.24 309.363 1184.94L259.281 1380.63C259.104 1381.32 258.571 1381.86 257.883 1382.06L63.3704 1436.53C62.6823 1436.72 61.9437 1436.53 61.4328 1436.03L-82.9977 1294.82C-83.5086 1294.32 -83.7142 1293.58 -83.5371 1292.89L-33.4553 1097.2Z" fill="url(#paint4_radial_655_3205)" fill-opacity="0.3"/>
<path d="M-199.93 2589.51C-200.077 2588.82 -199.841 2588.09 -199.309 2587.61L12.2225 2397.75C12.7543 2397.28 13.5002 2397.12 14.1794 2397.34L284.369 2485.6C285.048 2485.82 285.557 2486.39 285.705 2487.09L344.363 2765.21C344.51 2765.91 344.273 2766.64 343.742 2767.11L132.21 2956.97C131.679 2957.45 130.933 2957.61 130.253 2957.39L-139.936 2869.12C-140.615 2868.9 -141.124 2868.34 -141.272 2867.64L-199.93 2589.51Z" fill="url(#paint5_radial_655_3205)" fill-opacity="0.3"/>
<path d="M346.249 2507.67C345.503 2507.07 345.503 2505.93 346.249 2505.33L652.014 2259.22C652.281 2259 652.613 2258.88 652.955 2258.88L1268.05 2258.88C1268.39 2258.88 1268.72 2259 1268.99 2259.22L1574.75 2505.33C1575.5 2505.93 1575.5 2507.07 1574.75 2507.67L1268.99 2753.78C1268.72 2754 1268.39 2754.12 1268.05 2754.12L652.955 2754.12C652.613 2754.12 652.281 2754 652.014 2753.78L346.249 2507.67Z" stroke="#D9D9D9"/>
<path d="M345.936 2439.06C344.941 2438.26 344.941 2436.74 345.936 2435.94L651.701 2189.83C652.056 2189.54 652.499 2189.38 652.955 2189.38L1268.05 2189.38C1268.5 2189.38 1268.94 2189.54 1269.3 2189.83L1575.06 2435.94C1576.06 2436.74 1576.06 2438.26 1575.06 2439.06L1269.3 2685.17C1268.94 2685.46 1268.5 2685.62 1268.05 2685.62L652.955 2685.62C652.499 2685.62 652.056 2685.46 651.701 2685.17L345.936 2439.06Z" fill="url(#paint6_radial_655_3205)" fill-opacity="0.3"/>
<path d="M-18.9841 3208.15C-18.8069 3207.46 -18.2739 3206.91 -17.5859 3206.72L202.448 3145.1C203.136 3144.91 203.875 3145.1 204.386 3145.6L367.767 3305.34C368.278 3305.84 368.483 3306.58 368.306 3307.27L311.653 3528.63C311.476 3529.33 310.943 3529.87 310.255 3530.06L90.2209 3591.68C89.5329 3591.88 88.7943 3591.69 88.2834 3591.19L-75.0977 3431.44C-75.6086 3430.94 -75.8142 3430.21 -75.637 3429.52L-18.9841 3208.15Z" fill="url(#paint7_radial_655_3205)" fill-opacity="0.3"/>
<path d="M363.545 1397.2C363.722 1396.51 364.255 1395.96 364.943 1395.77L559.455 1341.3C560.143 1341.11 560.882 1341.29 561.393 1341.79L705.823 1483.01C706.334 1483.51 706.54 1484.24 706.363 1484.94L656.281 1680.63C656.104 1681.32 655.571 1681.86 654.883 1682.06L460.37 1736.53C459.682 1736.72 458.944 1736.53 458.433 1736.03L314.002 1594.82C313.491 1594.32 313.286 1593.58 313.463 1592.89L363.545 1397.2Z" fill="url(#paint8_radial_655_3205)" fill-opacity="0.3"/>
<path d="M241.777 888.981C241.954 888.289 242.487 887.744 243.175 887.551L349.853 857.676C350.541 857.484 351.279 857.673 351.79 858.172L431.001 935.62C431.512 936.12 431.718 936.854 431.541 937.546L404.074 1044.87C403.897 1045.56 403.364 1046.11 402.676 1046.3L295.998 1076.17C295.31 1076.37 294.571 1076.18 294.06 1075.68L214.849 998.23C214.338 997.73 214.133 996.996 214.31 996.304L241.777 888.981Z" fill="url(#paint9_radial_655_3205)" fill-opacity="0.3"/>
<path d="M1291.43 1362.86C1291.74 1362.42 1292.26 1362.18 1292.79 1362.23L1540 1385.25C1540.53 1385.3 1541 1385.63 1541.22 1386.12L1644.88 1611.71C1645.11 1612.2 1645.06 1612.77 1644.75 1613.21L1501.21 1815.78C1500.9 1816.22 1500.38 1816.46 1499.85 1816.41L1252.64 1793.39C1252.11 1793.34 1251.64 1793.01 1251.42 1792.52L1147.76 1566.93C1147.53 1566.44 1147.59 1565.87 1147.89 1565.43L1291.43 1362.86Z" stroke="#D9D9D9"/>
<path d="M1305.75 1397.12C1306.17 1396.54 1306.86 1396.22 1307.57 1396.29L1522.7 1416.32C1523.41 1416.39 1524.03 1416.83 1524.33 1417.48L1614.55 1613.8C1614.84 1614.45 1614.77 1615.21 1614.36 1615.79L1489.45 1792.08C1489.03 1792.66 1488.34 1792.98 1487.63 1792.91L1272.5 1772.88C1271.79 1772.81 1271.17 1772.37 1270.87 1771.72L1180.66 1575.4C1180.36 1574.75 1180.43 1573.99 1180.84 1573.41L1305.75 1397.12Z" fill="url(#paint10_radial_655_3205)" fill-opacity="0.3"/>
<path d="M626.045 1783.72C626.562 1783.58 627.115 1783.73 627.494 1784.1L754.088 1910.7C754.467 1911.08 754.615 1911.63 754.476 1912.15L708.139 2085.08C708.001 2085.6 707.596 2086 707.079 2086.14L534.148 2132.48C533.63 2132.61 533.078 2132.47 532.699 2132.09L406.104 2005.49C405.726 2005.11 405.578 2004.56 405.716 2004.04L452.053 1831.11C452.192 1830.6 452.596 1830.19 453.114 1830.05L626.045 1783.72Z" stroke="black" stroke-opacity="0.06"/>
<path d="M1746.54 1016.2C1746.72 1015.51 1747.25 1014.96 1747.94 1014.77L1942.46 960.298C1943.14 960.105 1943.88 960.294 1944.39 960.794L2088.82 1102.01C2089.33 1102.51 2089.54 1103.24 2089.36 1103.94L2039.28 1299.63C2039.1 1300.32 2038.57 1300.86 2037.88 1301.06L1843.37 1355.53C1842.68 1355.72 1841.94 1355.53 1841.43 1355.03L1697 1213.82C1696.49 1213.32 1696.29 1212.58 1696.46 1211.89L1746.54 1016.2Z" fill="url(#paint11_radial_655_3205)" fill-opacity="0.5"/>
<path d="M1493.55 3185.09C1493.68 3184.57 1494.08 3184.16 1494.6 3184.02L1799.23 3098.71C1799.75 3098.56 1800.3 3098.7 1800.68 3099.08L2026.88 3320.24C2027.26 3320.62 2027.42 3321.17 2027.28 3321.69L1948.85 3628.16C1948.72 3628.68 1948.32 3629.09 1947.8 3629.23L1643.17 3714.55C1642.65 3714.69 1642.1 3714.55 1641.72 3714.17L1415.52 3493.01C1415.14 3492.64 1414.98 3492.08 1415.11 3491.57L1493.55 3185.09Z" stroke="#D9D9D9"/>
<path d="M1625.54 147.2C1625.72 146.508 1626.25 145.963 1626.94 145.77L1821.46 91.2981C1822.14 91.1054 1822.88 91.2945 1823.39 91.794L1967.82 233.01C1968.33 233.51 1968.54 234.244 1968.36 234.936L1918.28 430.625C1918.1 431.317 1917.57 431.862 1916.88 432.055L1722.37 486.527C1721.68 486.72 1720.94 486.531 1720.43 486.032L1576 344.815C1575.49 344.316 1575.29 343.581 1575.46 342.889L1625.54 147.2Z" fill="url(#paint12_radial_655_3205)" fill-opacity="0.3"/>
<path d="M-26.4553 289.2C-26.2781 288.508 -25.7451 287.963 -25.0571 287.77L169.455 233.298C170.143 233.105 170.882 233.294 171.393 233.794L315.823 375.01C316.334 375.51 316.54 376.244 316.363 376.936L266.281 572.625C266.104 573.317 265.571 573.862 264.883 574.055L70.3704 628.527C69.6823 628.72 68.9437 628.531 68.4328 628.032L-75.9977 486.815C-76.5086 486.316 -76.7142 485.581 -76.5371 484.889L-26.4553 289.2Z" fill="url(#paint13_radial_655_3205)" fill-opacity="0.3"/>
<path opacity="0.5" d="M1624.5 118.577C1625.12 118.22 1625.88 118.22 1626.5 118.577L1663.04 139.673C1663.66 140.03 1664.04 140.69 1664.04 141.405V183.595C1664.04 184.31 1663.66 184.97 1663.04 185.327L1626.5 206.423C1625.88 206.78 1625.12 206.78 1624.5 206.423L1587.96 185.327C1587.34 184.97 1586.96 184.31 1586.96 183.595V141.405C1586.96 140.69 1587.34 140.03 1587.96 139.673L1624.5 118.577Z" fill="url(#paint14_linear_655_3205)"/>
<path opacity="0.5" d="M116 104.577C116.619 104.22 117.381 104.22 118 104.577L190.478 146.423C191.097 146.78 191.478 147.44 191.478 148.155V231.845C191.478 232.56 191.097 233.22 190.478 233.577L118 275.423C117.381 275.78 116.619 275.78 116 275.423L43.5218 233.577C42.903 233.22 42.5218 232.56 42.5218 231.845V148.155C42.5218 147.44 42.903 146.78 43.5218 146.423L116 104.577Z" fill="url(#paint15_linear_655_3205)"/>
<path opacity="0.5" d="M1781.4 1242.96C1782.03 1242.63 1782.8 1242.66 1783.4 1243.04L1849.82 1285.23C1850.43 1285.62 1850.78 1286.29 1850.75 1287.01L1847.42 1365.63C1847.39 1366.34 1846.98 1366.99 1846.35 1367.32L1776.6 1403.75C1775.97 1404.08 1775.2 1404.04 1774.6 1403.66L1708.18 1361.47C1707.57 1361.09 1707.22 1360.41 1707.25 1359.7L1710.58 1281.08C1710.61 1280.36 1711.02 1279.72 1711.65 1279.39L1781.4 1242.96Z" fill="url(#paint16_linear_655_3205)"/>
<path opacity="0.5" d="M246.5 1312.58C247.119 1312.22 247.881 1312.22 248.5 1312.58L285.038 1333.67C285.657 1334.03 286.038 1334.69 286.038 1335.4V1377.6C286.038 1378.31 285.657 1378.97 285.038 1379.33L248.5 1400.42C247.881 1400.78 247.119 1400.78 246.5 1400.42L209.962 1379.33C209.343 1378.97 208.962 1378.31 208.962 1377.6V1335.4C208.962 1334.69 209.343 1334.03 209.962 1333.67L246.5 1312.58Z" fill="url(#paint17_linear_655_3205)"/>
<defs>
<radialGradient id="paint0_radial_655_3205" cx="0" cy="0" r="1" gradientUnits="userSpaceOnUse" gradientTransform="translate(1771.91 2805.91) rotate(44.3553) scale(204.305)">
<stop stop-color="#D9D9D9" stop-opacity="0"/>
<stop offset="0.744792" stop-color="#D9D9D9" stop-opacity="0.4"/>
<stop offset="1" stop-color="#D9D9D9"/>
</radialGradient>
<linearGradient id="paint1_linear_655_3205" x1="1653.52" y1="2703.12" x2="1596.38" y2="2649.01" gradientUnits="userSpaceOnUse">
<stop stop-color="#096DD9"/>
<stop offset="1" stop-color="#1890FF"/>
</linearGradient>
<linearGradient id="paint2_linear_655_3205" x1="129.519" y1="3188.12" x2="72.3827" y2="3134.01" gradientUnits="userSpaceOnUse">
<stop stop-color="#096DD9"/>
<stop offset="1" stop-color="#1890FF"/>
</linearGradient>
<radialGradient id="paint3_radial_655_3205" cx="0" cy="0" r="1" gradientUnits="userSpaceOnUse" gradientTransform="translate(1821.91 660.913) rotate(44.3553) scale(204.305)">
<stop stop-color="#D9D9D9" stop-opacity="0"/>
<stop offset="0.744792" stop-color="#D9D9D9" stop-opacity="0.4"/>
<stop offset="1" stop-color="#D9D9D9"/>
</radialGradient>
<radialGradient id="paint4_radial_655_3205" cx="0" cy="0" r="1" gradientUnits="userSpaceOnUse" gradientTransform="translate(112.913 1238.91) rotate(44.3553) scale(204.305)">
<stop stop-color="#D9D9D9" stop-opacity="0"/>
<stop offset="0.744792" stop-color="#D9D9D9" stop-opacity="0.4"/>
<stop offset="1" stop-color="#D9D9D9"/>
</radialGradient>
<radialGradient id="paint5_radial_655_3205" cx="0" cy="0" r="1" gradientUnits="userSpaceOnUse" gradientTransform="translate(72.2164 2677.36) rotate(18.0904) scale(286.549)">
<stop stop-color="#D9D9D9" stop-opacity="0"/>
<stop offset="0.744792" stop-color="#D9D9D9" stop-opacity="0.4"/>
<stop offset="1" stop-color="#D9D9D9"/>
</radialGradient>
<radialGradient id="paint6_radial_655_3205" cx="0" cy="0" r="1" gradientUnits="userSpaceOnUse" gradientTransform="translate(960.5 2437.5) scale(616.5 286.5)">
<stop stop-color="#D9D9D9" stop-opacity="0"/>
<stop offset="0.744792" stop-color="#D9D9D9" stop-opacity="0.4"/>
<stop offset="1" stop-color="#D9D9D9"/>
</radialGradient>
<radialGradient id="paint7_radial_655_3205" cx="0" cy="0" r="1" gradientUnits="userSpaceOnUse" gradientTransform="translate(146.335 3368.39) rotate(44.3553) scale(230.809)">
<stop stop-color="#D9D9D9" stop-opacity="0"/>
<stop offset="0.744792" stop-color="#D9D9D9" stop-opacity="0.4"/>
<stop offset="1" stop-color="#D9D9D9"/>
</radialGradient>
<radialGradient id="paint8_radial_655_3205" cx="0" cy="0" r="1" gradientUnits="userSpaceOnUse" gradientTransform="translate(509.913 1538.91) rotate(44.3553) scale(204.305)">
<stop stop-color="#D9D9D9" stop-opacity="0"/>
<stop offset="0.744792" stop-color="#D9D9D9" stop-opacity="0.4"/>
<stop offset="1" stop-color="#D9D9D9"/>
</radialGradient>
<radialGradient id="paint9_radial_655_3205" cx="0" cy="0" r="1" gradientUnits="userSpaceOnUse" gradientTransform="translate(322.925 966.925) rotate(44.3553) scale(113.091)">
<stop stop-color="#D9D9D9" stop-opacity="0"/>
<stop offset="0.744792" stop-color="#D9D9D9" stop-opacity="0.4"/>
<stop offset="1" stop-color="#D9D9D9"/>
</radialGradient>
<radialGradient id="paint10_radial_655_3205" cx="0" cy="0" r="1" gradientUnits="userSpaceOnUse" gradientTransform="translate(1397.6 1594.6) rotate(65.3202) scale(218.368)">
<stop stop-color="#D9D9D9" stop-opacity="0"/>
<stop offset="0.744792" stop-color="#D9D9D9" stop-opacity="0.4"/>
<stop offset="1" stop-color="#D9D9D9"/>
</radialGradient>
<radialGradient id="paint11_radial_655_3205" cx="0" cy="0" r="1" gradientUnits="userSpaceOnUse" gradientTransform="translate(1892.91 1157.91) rotate(44.3553) scale(204.305)">
<stop stop-color="#D9D9D9" stop-opacity="0"/>
<stop offset="0.744792" stop-color="#D9D9D9" stop-opacity="0.4"/>
<stop offset="1" stop-color="#D9D9D9"/>
</radialGradient>
<radialGradient id="paint12_radial_655_3205" cx="0" cy="0" r="1" gradientUnits="userSpaceOnUse" gradientTransform="translate(1771.91 288.913) rotate(44.3553) scale(204.305)">
<stop stop-color="#D9D9D9" stop-opacity="0"/>
<stop offset="0.744792" stop-color="#D9D9D9" stop-opacity="0.4"/>
<stop offset="1" stop-color="#D9D9D9"/>
</radialGradient>
<radialGradient id="paint13_radial_655_3205" cx="0" cy="0" r="1" gradientUnits="userSpaceOnUse" gradientTransform="translate(119.913 430.913) rotate(44.3553) scale(204.305)">
<stop stop-color="#D9D9D9" stop-opacity="0"/>
<stop offset="0.744792" stop-color="#D9D9D9" stop-opacity="0.4"/>
<stop offset="1" stop-color="#D9D9D9"/>
</radialGradient>
<linearGradient id="paint14_linear_655_3205" x1="1653.52" y1="186.123" x2="1596.38" y2="132.009" gradientUnits="userSpaceOnUse">
<stop stop-color="#096DD9"/>
<stop offset="1" stop-color="#1890FF"/>
</linearGradient>
<linearGradient id="paint15_linear_655_3205" x1="171.148" y1="235.654" x2="60.7284" y2="131.074" gradientUnits="userSpaceOnUse">
<stop stop-color="#0975D9"/>
<stop offset="1" stop-color="#18C8FF"/>
</linearGradient>
<linearGradient id="paint16_linear_655_3205" x1="1828.14" y1="1368.47" x2="1728.39" y2="1265.66" gradientUnits="userSpaceOnUse">
<stop stop-color="#099BD9"/>
<stop offset="1" stop-color="#18C8FF"/>
</linearGradient>
<linearGradient id="paint17_linear_655_3205" x1="275.519" y1="1380.12" x2="218.383" y2="1326.01" gradientUnits="userSpaceOnUse">
<stop stop-color="#0975D9"/>
<stop offset="1" stop-color="#18C8FF"/>
</linearGradient>
</defs>
</svg>
