<svg width="1920" height="644" viewBox="0 0 1920 644" fill="none" xmlns="http://www.w3.org/2000/svg">
<mask id="mask0_118_2086" style="mask-type:alpha" maskUnits="userSpaceOnUse" x="0" y="0" width="1920" height="644">
<rect width="1920" height="644" rx="2" fill="#F0F2F5"/>
</mask>
<g mask="url(#mask0_118_2086)">
<path d="M272.683 579.618C273.398 579.618 274.058 579.999 274.415 580.618L327.878 673.219C328.236 673.838 328.236 674.601 327.878 675.219L274.415 767.821C274.058 768.44 273.398 768.821 272.683 768.821L165.756 768.821C165.042 768.821 164.381 768.44 164.024 767.821L110.561 675.219C110.203 674.601 110.203 673.838 110.561 673.219L164.024 580.618C164.381 579.999 165.042 579.618 165.756 579.618L272.683 579.618Z" fill="url(#paint0_linear_118_2086)"/>
<path d="M1305.99 -171.079C1306.7 -171.079 1307.36 -170.698 1307.72 -170.079L1379.49 -45.7766C1379.85 -45.1578 1379.85 -44.3954 1379.49 -43.7766L1307.72 80.5261C1307.36 81.1449 1306.7 81.5261 1305.99 81.5261L1162.46 81.526C1161.74 81.526 1161.08 81.1449 1160.73 80.526L1088.96 -43.7766C1088.6 -44.3954 1088.6 -45.1577 1088.96 -45.7765L1160.73 -170.079C1161.08 -170.698 1161.74 -171.079 1162.46 -171.079L1305.99 -171.079Z" fill="url(#paint1_linear_118_2086)"/>
<path d="M1986.25 -91.391C1986.94 -91.197 1987.47 -90.6508 1987.64 -89.9583L2071.54 240.536C2071.72 241.228 2071.51 241.962 2071 242.46L1826.73 480.363C1826.22 480.862 1825.48 481.05 1824.79 480.856L1496.63 388.265C1495.94 388.071 1495.41 387.524 1495.23 386.832L1411.33 56.338C1411.16 55.6455 1411.37 54.9117 1411.88 54.4131L1656.15 -183.49C1656.66 -183.988 1657.4 -184.176 1658.08 -183.982L1986.25 -91.391Z" fill="url(#paint2_linear_118_2086)"/>
<path d="M946.005 -38.8086C946.719 -38.8086 947.379 -38.4274 947.737 -37.8086L963.773 -10.0322C964.131 -9.41339 964.131 -8.65099 963.773 -8.03219L947.737 19.7442C947.379 20.363 946.719 20.7442 946.005 20.7442L913.931 20.7442C913.217 20.7442 912.556 20.363 912.199 19.7442L896.162 -8.03218C895.805 -8.65099 895.805 -9.41338 896.162 -10.0322L912.199 -37.8086C912.556 -38.4274 913.217 -38.8086 913.931 -38.8086L946.005 -38.8086Z" fill="url(#paint3_linear_118_2086)"/>
<path opacity="0.2" d="M138.991 414.533C139.705 414.533 140.365 414.914 140.723 415.533L173.101 471.613C173.458 472.231 173.458 472.994 173.101 473.613L140.723 529.693C140.365 530.312 139.705 530.693 138.991 530.693L74.2349 530.693C73.5203 530.693 72.8601 530.312 72.5028 529.693L40.1249 473.613C39.7677 472.994 39.7677 472.231 40.1249 471.613L72.5028 415.533C72.8601 414.914 73.5203 414.533 74.2349 414.533L138.991 414.533Z" fill="#1890FF"/>
<path d="M275.991 293.533C276.705 293.533 277.365 293.914 277.723 294.533L310.101 350.613C310.458 351.231 310.458 351.994 310.101 352.613L277.723 408.693C277.365 409.312 276.705 409.693 275.991 409.693L211.235 409.693C210.52 409.693 209.86 409.312 209.503 408.693L177.125 352.613C176.768 351.994 176.768 351.231 177.125 350.613L209.503 294.533C209.86 293.914 210.52 293.533 211.235 293.533L275.991 293.533Z" fill="url(#paint4_linear_118_2086)"/>
<path opacity="0.2" d="M1041.06 -8.2061C1041.77 -8.2061 1042.43 -7.8249 1042.79 -7.2061L1056.43 16.4177C1056.79 17.0365 1056.79 17.7989 1056.43 18.4177L1042.79 42.0415C1042.43 42.6603 1041.77 43.0415 1041.06 43.0415L1013.78 43.0415C1013.06 43.0415 1012.4 42.6603 1012.05 42.0415L998.407 18.4177C998.05 17.7989 998.05 17.0365 998.407 16.4177L1012.05 -7.2061C1012.4 -7.8249 1013.06 -8.2061 1013.78 -8.2061L1041.06 -8.2061Z" fill="#1890FF"/>
</g>
<defs>
<linearGradient id="paint0_linear_118_2086" x1="249.789" y1="758.829" x2="194.743" y2="573.662" gradientUnits="userSpaceOnUse">
<stop stop-color="#096DD9"/>
<stop offset="1" stop-color="#1890FF"/>
</linearGradient>
<linearGradient id="paint1_linear_118_2086" x1="1275.04" y1="68.1861" x2="1201.55" y2="-179.031" gradientUnits="userSpaceOnUse">
<stop stop-color="#099BD9"/>
<stop offset="1" stop-color="#18C8FF"/>
</linearGradient>
<linearGradient id="paint2_linear_118_2086" x1="1761.69" y1="430.427" x2="1753.22" y2="-176.587" gradientUnits="userSpaceOnUse">
<stop stop-color="#096DD9"/>
<stop offset="1" stop-color="#1890FF"/>
</linearGradient>
<linearGradient id="paint3_linear_118_2086" x1="939.59" y1="17.5993" x2="922.264" y2="-40.6832" gradientUnits="userSpaceOnUse">
<stop stop-color="#096DD9"/>
<stop offset="1" stop-color="#1890FF"/>
</linearGradient>
<linearGradient id="paint4_linear_118_2086" x1="262.38" y1="403.558" x2="228.586" y2="289.876" gradientUnits="userSpaceOnUse">
<stop stop-color="#099BD9"/>
<stop offset="1" stop-color="#18C8FF"/>
</linearGradient>
</defs>
</svg>
