<svg width="328" height="353" viewBox="0 0 328 353" fill="none" xmlns="http://www.w3.org/2000/svg">
<g clip-path="url(#clip0_2777_9105)">
<path d="M228.357 197.665C227.917 195.213 226.986 181.753 221.462 175.649C219.01 172.947 212.706 170.044 209.303 170.014C206.561 170.014 194.752 169.114 189.459 168.703L186.867 168.513L159.377 171.936L131.997 168.513L129.405 168.703C124.111 169.114 112.302 169.984 109.56 170.014C106.158 170.014 99.853 172.947 97.4012 175.649C91.8772 181.723 90.9465 195.183 90.5062 197.665C90.0659 200.146 88.9951 203.469 90.286 207.252C91.577 211.034 91.5469 214.887 90.6563 219.781C89.7656 224.674 89.7656 281.206 102.225 282.997C108.479 283.878 134.438 285.099 158.766 286.089V286.139H159.427H160.097V286.089C184.415 285.089 210.384 283.878 216.638 282.997C229.098 281.216 229.098 224.674 228.207 219.781C227.316 214.887 227.286 211.034 228.577 207.252C229.868 203.469 228.807 200.146 228.357 197.665Z" fill="#40A9FF"/>
<path d="M75.5753 118.637V101.074C75.5753 99.5867 74.9852 98.1603 73.9345 97.1077C72.8838 96.0551 71.4584 95.4625 69.9712 95.4598H51.0374V103.686C51.4813 103.971 51.9926 104.134 52.5197 104.159C53.0467 104.183 53.571 104.068 54.0396 103.826C54.6123 103.47 55.27 103.273 55.9443 103.257C56.6186 103.24 57.285 103.404 57.8746 103.732C58.4642 104.059 58.9555 104.539 59.2975 105.12C59.6395 105.702 59.8198 106.364 59.8198 107.038C59.8198 107.713 59.6395 108.375 59.2975 108.956C58.9555 109.538 58.4642 110.017 57.8746 110.345C57.285 110.672 56.6186 110.836 55.9443 110.82C55.27 110.803 54.6123 110.607 54.0396 110.251C53.571 110.008 53.0467 109.893 52.5197 109.918C51.9926 109.943 51.4813 110.106 51.0374 110.391V118.617H59.9439C60.229 119.061 60.392 119.572 60.4166 120.099C60.4412 120.626 60.3265 121.15 60.084 121.619C59.7278 122.192 59.5312 122.849 59.5147 123.524C59.4981 124.198 59.6622 124.864 59.9898 125.454C60.3175 126.044 60.7968 126.535 61.3782 126.877C61.9596 127.219 62.6218 127.399 63.2963 127.399C63.9708 127.399 64.6331 127.219 65.2144 126.877C65.7958 126.535 66.2751 126.044 66.6028 125.454C66.9305 124.864 67.0945 124.198 67.078 123.524C67.0614 122.849 66.8649 122.192 66.5087 121.619C66.2661 121.15 66.1514 120.626 66.176 120.099C66.2006 119.572 66.3637 119.061 66.6488 118.617L75.5753 118.637Z" fill="#FA8C16"/>
<path d="M30.8226 130.095C30.5375 129.651 30.3744 129.14 30.3498 128.613C30.3252 128.086 30.44 127.562 30.6825 127.093C31.0387 126.52 31.2352 125.863 31.2518 125.188C31.2683 124.514 31.1043 123.848 30.7766 123.258C30.449 122.668 29.9696 122.177 29.3883 121.835C28.8069 121.493 28.1447 121.313 27.4701 121.313C26.7956 121.313 26.1334 121.493 25.552 121.835C24.9707 122.177 24.4913 122.668 24.1637 123.258C23.836 123.848 23.672 124.514 23.6885 125.188C23.7051 125.863 23.9016 126.52 24.2578 127.093C24.5018 127.561 24.6182 128.085 24.5954 128.612C24.5726 129.139 24.4113 129.65 24.1277 130.095H15.2012V147.628C15.2012 149.117 15.7927 150.545 16.8455 151.598C17.8984 152.651 19.3263 153.242 20.8153 153.242H39.7291V130.095H30.8226Z" fill="#FA8C16"/>
<path d="M45.6635 114.844C45.1697 114.716 44.6552 114.691 44.1511 114.768C43.6471 114.845 43.164 115.025 42.7313 115.294C42.2636 115.538 41.7398 115.655 41.2128 115.632C40.6857 115.609 40.174 115.448 39.7291 115.164V106.938H20.8153C19.3263 106.938 17.8984 107.53 16.8455 108.583C15.7927 109.635 15.2012 111.063 15.2012 112.552V130.095H24.1177C24.4012 129.65 24.5626 129.139 24.5854 128.612C24.6082 128.084 24.4918 127.561 24.2478 127.093C23.9781 126.658 23.7984 126.174 23.7194 125.669C23.6403 125.163 23.6634 124.647 23.7875 124.151C23.9305 123.63 24.1833 123.146 24.5288 122.732C24.8743 122.317 25.3046 121.981 25.7908 121.746C26.277 121.512 26.8077 121.384 27.3474 121.371C27.8871 121.359 28.4232 121.462 28.9197 121.674C29.4162 121.886 29.8616 122.201 30.226 122.6C30.5904 122.998 30.8653 123.47 31.0323 123.983C31.1993 124.496 31.2544 125.039 31.1941 125.576C31.1338 126.112 30.9593 126.63 30.6825 127.093C30.44 127.562 30.3252 128.086 30.3498 128.613C30.3744 129.14 30.5375 129.651 30.8226 130.095H39.7291V121.869C40.1731 121.584 40.6844 121.421 41.2114 121.396C41.7385 121.372 42.2627 121.487 42.7313 121.729C43.3302 122.107 44.0248 122.305 44.7328 122.299C45.2974 122.298 45.8546 122.171 46.3639 121.928C46.8731 121.684 47.3215 121.329 47.6763 120.89C48.0312 120.451 48.2834 119.938 48.4148 119.389C48.5461 118.84 48.5532 118.268 48.4355 117.716C48.2915 117.025 47.9548 116.388 47.4643 115.88C46.9738 115.371 46.3494 115.012 45.6635 114.844Z" fill="#FFC069"/>
<path d="M55.3404 130.095C55.0499 130.537 54.8845 131.05 54.8616 131.578C54.8387 132.107 54.9592 132.632 55.2103 133.097C55.5688 133.672 55.767 134.331 55.7845 135.008C55.802 135.684 55.6381 136.353 55.3098 136.945C54.9815 137.537 54.5008 138.031 53.9176 138.374C53.3344 138.717 52.6698 138.899 51.993 138.899C51.3161 138.899 50.6516 138.717 50.0684 138.374C49.4851 138.031 49.0044 137.537 48.6762 136.945C48.3479 136.353 48.184 135.684 48.2015 135.008C48.219 134.331 48.4172 133.672 48.7756 133.097C49.0253 132.631 49.1442 132.106 49.1195 131.577C49.0948 131.048 48.9276 130.536 48.6355 130.095H39.729V138.311C39.285 138.596 38.7738 138.759 38.2467 138.784C37.7197 138.809 37.1954 138.694 36.7268 138.451C36.1538 138.097 35.4966 137.902 34.8231 137.887C34.1495 137.872 33.4841 138.037 32.8957 138.365C32.3072 138.693 31.817 139.172 31.4758 139.753C31.1345 140.333 30.9546 140.995 30.9546 141.669C30.9546 142.342 31.1345 143.004 31.4758 143.585C31.817 144.166 32.3072 144.645 32.8957 144.973C33.4841 145.301 34.1495 145.466 34.8231 145.45C35.4966 145.435 36.1538 145.24 36.7268 144.886C37.1946 144.642 37.7183 144.526 38.2454 144.548C38.7724 144.571 39.2842 144.733 39.729 145.016V153.242H58.6429C59.3801 153.242 60.1101 153.097 60.7913 152.815C61.4724 152.533 62.0913 152.119 62.6126 151.598C63.1339 151.076 63.5475 150.458 63.8296 149.776C64.1118 149.095 64.257 148.365 64.257 147.628V130.095H55.3404Z" fill="#FFC069"/>
<path d="M285.949 263.333C285.952 262.851 286.145 262.391 286.486 262.051C286.828 261.712 287.289 261.521 287.771 261.521H289.502C289.803 260.288 290.289 259.107 290.943 258.019L289.722 256.798C289.382 256.456 289.19 255.994 289.19 255.512C289.19 255.03 289.382 254.567 289.722 254.226L291.403 252.555C291.571 252.385 291.77 252.251 291.99 252.159C292.21 252.067 292.446 252.02 292.684 252.02C292.922 252.02 293.158 252.067 293.378 252.159C293.598 252.251 293.798 252.385 293.965 252.555L295.196 253.786C295.316 253.706 295.446 253.646 295.576 253.576C295.878 252.716 296.119 251.837 296.297 250.944H298.689V250.603C298.691 250.122 298.884 249.661 299.226 249.322C299.567 248.983 300.029 248.792 300.51 248.792H301.691V245.47C301.691 245.018 301.512 244.586 301.192 244.267C300.873 243.948 300.441 243.768 299.99 243.768H296.297C295.816 241.31 294.85 238.973 293.455 236.893L296.057 234.281C296.216 234.123 296.342 233.935 296.428 233.728C296.514 233.522 296.558 233.3 296.558 233.076C296.558 232.851 296.514 232.63 296.428 232.423C296.342 232.216 296.216 232.028 296.057 231.87L293.395 229.168C293.074 228.849 292.641 228.671 292.189 228.671C291.737 228.671 291.304 228.849 290.983 229.168L288.381 231.78C286.301 230.379 283.959 229.412 281.496 228.938V225.245C281.496 224.793 281.317 224.359 280.998 224.038C280.68 223.718 280.247 223.536 279.795 223.534H276.032C275.58 223.536 275.147 223.718 274.828 224.038C274.51 224.359 274.331 224.793 274.331 225.245V228.938C271.868 229.412 269.526 230.379 267.446 231.78L264.844 229.168C264.523 228.849 264.09 228.671 263.638 228.671C263.186 228.671 262.753 228.849 262.432 229.168L259.77 231.83C259.611 231.988 259.485 232.176 259.399 232.383C259.313 232.59 259.269 232.811 259.269 233.036C259.269 233.26 259.313 233.482 259.399 233.688C259.485 233.895 259.611 234.083 259.77 234.241L262.382 236.853C260.979 238.929 260.012 241.268 259.54 243.728H255.837C255.386 243.728 254.953 243.908 254.634 244.227C254.315 244.546 254.136 244.978 254.136 245.43V249.202C254.136 249.654 254.315 250.086 254.634 250.405C254.953 250.724 255.386 250.904 255.837 250.904H259.54C260.012 253.364 260.979 255.703 262.382 257.779L259.77 260.391C259.611 260.549 259.485 260.737 259.399 260.943C259.313 261.15 259.269 261.372 259.269 261.596C259.269 261.821 259.313 262.042 259.399 262.249C259.485 262.456 259.611 262.644 259.77 262.802L262.432 265.464C262.753 265.783 263.186 265.961 263.638 265.961C264.09 265.961 264.523 265.783 264.844 265.464L267.446 262.852C269.526 264.253 271.868 265.22 274.331 265.694V269.387C274.331 269.839 274.51 270.273 274.828 270.594C275.147 270.914 275.58 271.096 276.032 271.098H279.795C280.247 271.096 280.68 270.914 280.998 270.594C281.317 270.273 281.496 269.839 281.496 269.387V265.694C283.036 265.397 284.532 264.906 285.949 264.233V263.333ZM277.943 256.608C276.11 256.61 274.318 256.068 272.792 255.051C271.267 254.034 270.078 252.587 269.375 250.894C268.672 249.201 268.487 247.338 268.843 245.539C269.2 243.741 270.082 242.089 271.377 240.792C272.673 239.495 274.324 238.611 276.122 238.253C277.92 237.895 279.783 238.078 281.477 238.779C283.171 239.48 284.619 240.667 285.638 242.192C286.656 243.716 287.2 245.508 287.2 247.341C287.2 248.56 286.96 249.766 286.493 250.892C286.026 252.017 285.342 253.04 284.479 253.901C283.616 254.761 282.592 255.444 281.466 255.908C280.339 256.373 279.132 256.61 277.913 256.608H277.943Z" fill="#1890FF"/>
<path d="M315.621 262.262H313.289C312.984 260.71 312.375 259.234 311.498 257.919L313.139 256.277C313.24 256.178 313.319 256.059 313.374 255.929C313.428 255.798 313.456 255.658 313.456 255.517C313.456 255.375 313.428 255.235 313.374 255.105C313.319 254.974 313.24 254.856 313.139 254.756L311.458 253.075C311.358 252.975 311.24 252.895 311.109 252.841C310.979 252.786 310.839 252.758 310.697 252.758C310.556 252.758 310.416 252.786 310.285 252.841C310.155 252.895 310.036 252.975 309.937 253.075L308.296 254.716C306.98 253.839 305.504 253.23 303.952 252.925V250.593C303.952 250.309 303.84 250.037 303.639 249.836C303.438 249.635 303.166 249.523 302.882 249.523H300.51C300.368 249.521 300.228 249.548 300.097 249.601C299.966 249.654 299.847 249.733 299.746 249.833C299.646 249.932 299.566 250.051 299.512 250.181C299.457 250.312 299.429 250.452 299.429 250.593V252.925C297.88 253.228 296.407 253.837 295.096 254.716L293.445 253.075C293.345 252.975 293.227 252.895 293.096 252.841C292.966 252.786 292.826 252.758 292.684 252.758C292.543 252.758 292.403 252.786 292.272 252.841C292.142 252.895 292.023 252.975 291.924 253.075L290.212 254.756C290.112 254.856 290.032 254.974 289.978 255.105C289.923 255.235 289.895 255.375 289.895 255.517C289.895 255.658 289.923 255.798 289.978 255.929C290.032 256.059 290.112 256.178 290.212 256.277L291.864 257.919C290.978 259.23 290.368 260.707 290.072 262.262H287.741C287.599 262.261 287.459 262.287 287.328 262.34C287.197 262.394 287.077 262.472 286.977 262.572C286.876 262.671 286.797 262.79 286.742 262.921C286.688 263.051 286.66 263.191 286.66 263.333V265.704C286.66 265.991 286.774 266.266 286.976 266.469C287.179 266.671 287.454 266.785 287.741 266.785H290.072C290.367 268.337 290.976 269.812 291.864 271.118L290.212 272.77C290.112 272.869 290.032 272.988 289.978 273.118C289.923 273.249 289.895 273.389 289.895 273.53C289.895 273.671 289.923 273.812 289.978 273.942C290.032 274.073 290.112 274.191 290.212 274.291L291.894 275.972C291.993 276.072 292.112 276.152 292.242 276.206C292.373 276.261 292.513 276.289 292.654 276.289C292.796 276.289 292.936 276.261 293.066 276.206C293.197 276.152 293.315 276.072 293.415 275.972L295.066 274.321C296.373 275.208 297.847 275.818 299.399 276.112V278.444C299.399 278.73 299.513 279.005 299.716 279.208C299.918 279.411 300.193 279.524 300.48 279.524H302.852C302.993 279.524 303.133 279.496 303.264 279.442C303.394 279.388 303.513 279.308 303.612 279.207C303.712 279.107 303.791 278.988 303.844 278.857C303.897 278.725 303.924 278.585 303.922 278.444V276.112C305.477 275.816 306.955 275.207 308.266 274.321L309.907 275.972C310.006 276.072 310.125 276.152 310.255 276.206C310.386 276.261 310.526 276.289 310.667 276.289C310.809 276.289 310.949 276.261 311.079 276.206C311.21 276.152 311.328 276.072 311.428 275.972L313.109 274.291C313.21 274.191 313.289 274.073 313.344 273.942C313.398 273.812 313.426 273.671 313.426 273.53C313.426 273.389 313.398 273.249 313.344 273.118C313.289 272.988 313.21 272.869 313.109 272.77L311.468 271.118C312.347 269.807 312.956 268.334 313.259 266.785H315.591C315.732 266.785 315.872 266.757 316.003 266.703C316.134 266.648 316.252 266.568 316.352 266.468C316.451 266.367 316.53 266.248 316.583 266.117C316.636 265.986 316.663 265.846 316.662 265.704V263.333C316.662 263.054 316.553 262.786 316.359 262.586C316.164 262.386 315.9 262.27 315.621 262.262ZM301.691 270.358C300.534 270.358 299.404 270.015 298.443 269.372C297.482 268.729 296.732 267.816 296.29 266.748C295.848 265.679 295.733 264.504 295.96 263.37C296.186 262.236 296.743 261.194 297.562 260.377C298.38 259.56 299.422 259.005 300.557 258.78C301.691 258.556 302.867 258.673 303.934 259.117C305.002 259.561 305.914 260.311 306.555 261.274C307.196 262.236 307.537 263.367 307.535 264.523C307.535 265.29 307.384 266.05 307.09 266.758C306.796 267.467 306.366 268.111 305.823 268.652C305.28 269.194 304.636 269.624 303.927 269.917C303.218 270.209 302.458 270.359 301.691 270.358Z" fill="#FA8C16"/>
<path d="M277.913 235.833C275.634 235.831 273.406 236.505 271.51 237.77C269.615 239.034 268.137 240.833 267.264 242.938C266.391 245.044 266.162 247.36 266.606 249.596C267.05 251.831 268.147 253.884 269.759 255.496C271.37 257.107 273.423 258.204 275.659 258.649C277.894 259.093 280.211 258.864 282.316 257.991C284.421 257.118 286.22 255.64 287.485 253.744C288.75 251.848 289.424 249.62 289.422 247.341C289.422 244.289 288.209 241.362 286.051 239.203C283.893 237.045 280.966 235.833 277.913 235.833ZM277.913 256.608C276.08 256.61 274.287 256.068 272.762 255.051C271.237 254.034 270.048 252.587 269.345 250.894C268.642 249.201 268.457 247.337 268.813 245.539C269.17 243.741 270.052 242.089 271.347 240.792C272.643 239.495 274.294 238.611 276.092 238.253C277.89 237.895 279.753 238.078 281.447 238.779C283.141 239.48 284.589 240.667 285.608 242.192C286.626 243.716 287.17 245.508 287.17 247.341C287.17 249.797 286.195 252.152 284.459 253.89C282.724 255.628 280.369 256.605 277.913 256.608Z" fill="#40A9FF"/>
<g opacity="0.5">
<path d="M233.171 252.044C233.05 252.044 232.933 252 232.842 251.921C232.75 251.842 232.689 251.733 232.67 251.614C232.494 250.039 232.414 248.455 232.43 246.871C232.43 245.77 232.43 244.639 232.53 243.508C232.54 243.377 232.602 243.255 232.701 243.169C232.8 243.083 232.929 243.04 233.061 243.048C233.127 243.05 233.192 243.066 233.252 243.095C233.312 243.123 233.365 243.163 233.409 243.213C233.453 243.262 233.486 243.32 233.507 243.383C233.528 243.446 233.536 243.512 233.531 243.578C233.461 244.679 233.431 245.79 233.431 246.871C233.418 248.408 233.495 249.945 233.661 251.474C233.671 251.539 233.668 251.605 233.652 251.669C233.636 251.733 233.608 251.793 233.569 251.846C233.53 251.899 233.481 251.944 233.425 251.978C233.368 252.012 233.306 252.035 233.241 252.044H233.171ZM234.061 236.103H233.961C233.897 236.09 233.836 236.064 233.781 236.027C233.727 235.99 233.68 235.943 233.644 235.888C233.608 235.834 233.582 235.772 233.57 235.708C233.557 235.643 233.558 235.577 233.571 235.512C234.109 232.87 234.841 230.271 235.763 227.737C235.808 227.612 235.901 227.51 236.021 227.454C236.141 227.398 236.278 227.391 236.403 227.436C236.527 227.486 236.627 227.581 236.683 227.702C236.739 227.823 236.746 227.961 236.703 228.087C235.795 230.571 235.076 233.12 234.552 235.712C234.53 235.818 234.474 235.913 234.393 235.984C234.311 236.054 234.209 236.096 234.101 236.103H234.061ZM239.585 221.092C239.497 221.092 239.41 221.068 239.335 221.022C239.278 220.99 239.228 220.946 239.187 220.894C239.147 220.843 239.118 220.783 239.101 220.72C239.084 220.656 239.08 220.59 239.09 220.525C239.099 220.46 239.121 220.397 239.155 220.341C240.483 217.995 242.017 215.771 243.738 213.696C243.823 213.594 243.945 213.53 244.078 213.518C244.21 213.506 244.342 213.546 244.444 213.631C244.546 213.716 244.61 213.838 244.623 213.971C244.635 214.103 244.594 214.235 244.509 214.337C242.824 216.37 241.321 218.546 240.016 220.842C239.985 220.925 239.932 220.998 239.864 221.055C239.795 221.111 239.713 221.148 239.625 221.162L239.585 221.092ZM249.743 208.833C249.641 208.832 249.542 208.8 249.459 208.741C249.375 208.682 249.312 208.599 249.277 208.503C249.243 208.408 249.238 208.304 249.264 208.205C249.29 208.107 249.345 208.018 249.423 207.952C251.483 206.214 253.678 204.641 255.987 203.249C256.102 203.183 256.237 203.165 256.365 203.199C256.492 203.233 256.601 203.315 256.668 203.429C256.704 203.484 256.727 203.546 256.738 203.611C256.749 203.676 256.746 203.742 256.73 203.806C256.714 203.87 256.686 203.93 256.646 203.982C256.605 204.034 256.555 204.077 256.498 204.109C254.235 205.467 252.086 207.007 250.073 208.713C249.998 208.8 249.896 208.86 249.783 208.883L249.743 208.833ZM326.369 205.961C326.253 205.958 326.141 205.919 326.049 205.851C325.948 205.763 325.885 205.64 325.874 205.508C325.863 205.375 325.904 205.243 325.989 205.14C326.155 204.938 326.305 204.724 326.439 204.5C326.77 203.96 326.95 203.341 326.959 202.708C326.89 201.949 326.662 201.212 326.292 200.545C325.922 199.878 325.416 199.296 324.808 198.836C324.716 198.742 324.665 198.616 324.665 198.485C324.665 198.354 324.716 198.229 324.808 198.135C324.854 198.088 324.91 198.051 324.971 198.025C325.031 198 325.097 197.987 325.163 197.987C325.229 197.987 325.294 198 325.355 198.025C325.416 198.051 325.472 198.088 325.518 198.135C326.234 198.686 326.825 199.381 327.252 200.176C327.68 200.971 327.935 201.848 328 202.748C327.992 203.561 327.764 204.357 327.34 205.05C327.178 205.32 326.998 205.577 326.799 205.821C326.752 205.879 326.693 205.926 326.625 205.959C326.558 205.992 326.484 206.01 326.409 206.011L326.369 205.961ZM319.264 205.841C319.148 205.839 319.036 205.801 318.943 205.731C316.886 203.863 315.377 201.468 314.58 198.806C314.542 198.679 314.554 198.543 314.613 198.426C314.673 198.308 314.776 198.218 314.9 198.175C315.027 198.134 315.164 198.145 315.282 198.205C315.4 198.265 315.49 198.369 315.531 198.495C316.269 200.979 317.67 203.214 319.584 204.96C319.635 205.002 319.676 205.053 319.707 205.111C319.738 205.169 319.756 205.232 319.762 205.298C319.767 205.363 319.76 205.429 319.74 205.491C319.719 205.553 319.687 205.611 319.644 205.661C319.608 205.722 319.559 205.774 319.5 205.814C319.441 205.854 319.374 205.88 319.304 205.891L319.264 205.841ZM263.373 200.567C263.275 200.568 263.179 200.541 263.097 200.487C263.014 200.434 262.95 200.357 262.912 200.267C262.886 200.206 262.872 200.141 262.87 200.075C262.869 200.009 262.881 199.944 262.905 199.882C262.929 199.821 262.965 199.765 263.011 199.717C263.057 199.67 263.112 199.632 263.173 199.606C264.534 199.036 265.955 198.485 267.406 197.995C268.526 197.605 269.647 197.234 270.748 196.884C270.881 196.844 271.024 196.859 271.146 196.925C271.268 196.99 271.359 197.102 271.399 197.234C271.438 197.367 271.424 197.51 271.358 197.632C271.292 197.754 271.181 197.845 271.048 197.885C269.958 198.225 268.847 198.595 267.726 198.976C266.305 199.466 264.904 199.976 263.563 200.567C263.516 200.593 263.465 200.61 263.413 200.617L263.373 200.567ZM278.604 195.703C278.471 195.719 278.338 195.682 278.232 195.599C278.127 195.517 278.059 195.396 278.043 195.263C278.028 195.13 278.065 194.997 278.148 194.892C278.23 194.786 278.351 194.718 278.484 194.702C281.136 194.052 283.778 193.502 286.36 193.061C286.491 193.041 286.625 193.072 286.733 193.149C286.841 193.225 286.916 193.341 286.94 193.472C286.96 193.603 286.929 193.737 286.853 193.845C286.776 193.953 286.66 194.028 286.53 194.052C283.968 194.482 281.346 195.053 278.724 195.673L278.604 195.703ZM318.233 195.243C318.18 195.252 318.126 195.252 318.073 195.243C315.569 194.41 312.992 193.814 310.377 193.462C310.245 193.442 310.126 193.371 310.046 193.264C309.965 193.158 309.93 193.024 309.947 192.891C309.969 192.76 310.04 192.643 310.146 192.563C310.253 192.483 310.385 192.446 310.517 192.461C313.193 192.833 315.83 193.449 318.393 194.302C318.526 194.323 318.645 194.397 318.723 194.505C318.802 194.614 318.835 194.75 318.813 194.883C318.792 195.015 318.719 195.134 318.61 195.213C318.501 195.292 318.366 195.324 318.233 195.303V195.243ZM294.425 193.141C294.299 193.144 294.176 193.098 294.083 193.012C293.989 192.926 293.933 192.808 293.925 192.681C293.917 192.549 293.96 192.419 294.046 192.318C294.132 192.217 294.254 192.153 294.385 192.141C297.137 191.91 299.859 191.81 302.391 191.85C302.524 191.85 302.651 191.903 302.745 191.997C302.839 192.091 302.892 192.218 302.892 192.351C302.892 192.483 302.839 192.611 302.745 192.705C302.651 192.798 302.524 192.851 302.391 192.851C299.859 192.851 297.167 192.911 294.445 193.141H294.425ZM313.98 191.34C313.914 191.339 313.849 191.325 313.789 191.298C313.729 191.272 313.674 191.234 313.629 191.186C313.583 191.139 313.548 191.083 313.524 191.022C313.5 190.961 313.488 190.895 313.489 190.83C313.549 188.125 313.932 185.437 314.63 182.824C314.647 182.758 314.677 182.696 314.718 182.642C314.759 182.588 314.81 182.542 314.869 182.508C314.927 182.474 314.992 182.451 315.059 182.442C315.127 182.432 315.195 182.436 315.261 182.454C315.326 182.471 315.388 182.5 315.442 182.541C315.496 182.582 315.542 182.634 315.576 182.692C315.611 182.751 315.633 182.815 315.643 182.883C315.652 182.95 315.648 183.018 315.631 183.084C314.951 185.625 314.578 188.239 314.52 190.87C314.505 190.999 314.44 191.117 314.339 191.199C314.238 191.282 314.109 191.321 313.98 191.31V191.34ZM317.823 175.919C317.753 175.933 317.682 175.933 317.612 175.919C317.553 175.892 317.499 175.853 317.454 175.805C317.41 175.757 317.375 175.701 317.353 175.639C317.331 175.578 317.321 175.512 317.324 175.447C317.327 175.381 317.344 175.317 317.372 175.258L317.562 174.848C318.598 172.61 319.37 170.259 319.864 167.843C319.893 167.712 319.972 167.598 320.084 167.525C320.197 167.452 320.333 167.426 320.465 167.453C320.529 167.466 320.59 167.491 320.644 167.528C320.698 167.565 320.744 167.613 320.779 167.668C320.815 167.723 320.839 167.784 320.85 167.849C320.861 167.913 320.859 167.979 320.845 168.043C320.334 170.555 319.535 173 318.463 175.328L318.273 175.729C318.218 175.792 318.147 175.839 318.069 175.867C317.99 175.895 317.905 175.903 317.823 175.889V175.919ZM321.295 160.397C321.23 160.396 321.165 160.382 321.106 160.355C321.046 160.329 320.992 160.291 320.948 160.243C320.903 160.196 320.868 160.14 320.845 160.079C320.822 160.017 320.812 159.952 320.815 159.887C320.815 159.177 320.815 158.456 320.815 157.735C320.815 155.864 320.725 153.923 320.555 151.941C320.549 151.876 320.557 151.809 320.577 151.747C320.598 151.684 320.63 151.626 320.673 151.576C320.716 151.525 320.768 151.484 320.827 151.454C320.885 151.424 320.949 151.406 321.015 151.401C321.081 151.396 321.147 151.403 321.209 151.424C321.272 151.444 321.33 151.476 321.38 151.519C321.431 151.562 321.472 151.614 321.502 151.673C321.532 151.731 321.55 151.795 321.555 151.861C321.735 153.863 321.826 155.864 321.826 157.735C321.826 158.466 321.826 159.197 321.826 159.917C321.813 160.046 321.75 160.165 321.651 160.249C321.552 160.334 321.425 160.376 321.295 160.367V160.397ZM319.974 144.476C319.857 144.477 319.743 144.437 319.653 144.362C319.563 144.286 319.503 144.181 319.484 144.065C319.013 141.524 318.403 138.912 317.692 136.31C317.674 136.246 317.669 136.179 317.677 136.113C317.684 136.048 317.705 135.984 317.738 135.926C317.77 135.869 317.814 135.818 317.867 135.777C317.919 135.737 317.979 135.707 318.043 135.689C318.17 135.656 318.306 135.673 318.42 135.739C318.534 135.805 318.618 135.913 318.653 136.04C319.374 138.672 319.984 141.313 320.465 143.875C320.478 143.94 320.478 144.007 320.464 144.073C320.451 144.138 320.425 144.199 320.388 144.254C320.351 144.309 320.303 144.356 320.247 144.393C320.192 144.429 320.13 144.454 320.064 144.466L319.974 144.476ZM315.741 129.044C315.639 129.042 315.54 129.009 315.456 128.95C315.373 128.891 315.308 128.809 315.271 128.714C314.38 126.212 313.369 123.711 312.269 121.319C312.214 121.198 312.21 121.061 312.257 120.937C312.304 120.813 312.398 120.713 312.519 120.658C312.578 120.63 312.643 120.614 312.709 120.612C312.775 120.609 312.84 120.62 312.902 120.643C312.964 120.666 313.02 120.702 313.068 120.748C313.115 120.793 313.153 120.848 313.179 120.909C314.27 123.34 315.291 125.852 316.181 128.374C316.223 128.5 316.214 128.638 316.156 128.757C316.098 128.877 315.996 128.969 315.871 129.014C315.828 129.02 315.784 129.02 315.741 129.014V129.044ZM309.166 114.454C309.076 114.453 308.988 114.429 308.911 114.383C308.834 114.337 308.77 114.272 308.726 114.194C307.405 111.802 306.004 109.52 304.553 107.419C304.481 107.307 304.455 107.173 304.479 107.043C304.503 106.912 304.576 106.796 304.683 106.718C304.737 106.68 304.799 106.654 304.864 106.64C304.928 106.626 304.995 106.625 305.06 106.637C305.126 106.649 305.188 106.674 305.243 106.71C305.299 106.746 305.346 106.793 305.383 106.848C306.845 108.98 308.266 111.281 309.607 113.703C309.638 113.761 309.658 113.824 309.665 113.89C309.672 113.956 309.667 114.022 309.648 114.085C309.629 114.148 309.598 114.207 309.557 114.258C309.516 114.31 309.464 114.352 309.406 114.384C309.332 114.42 309.249 114.434 309.166 114.424V114.454ZM300.06 101.314C299.988 101.314 299.917 101.298 299.852 101.269C299.786 101.24 299.728 101.197 299.679 101.144C297.942 99.1547 296.026 97.329 293.955 95.6901C293.852 95.6075 293.786 95.4875 293.771 95.3563C293.756 95.2251 293.793 95.0932 293.875 94.9895C293.956 94.8849 294.075 94.8167 294.207 94.7998C294.338 94.7829 294.471 94.8188 294.576 94.8995C296.69 96.5785 298.649 98.444 300.43 100.474C300.477 100.52 300.514 100.575 300.539 100.636C300.565 100.697 300.578 100.763 300.578 100.829C300.578 100.895 300.565 100.96 300.539 101.021C300.514 101.082 300.477 101.138 300.43 101.184C300.324 101.264 300.191 101.3 300.06 101.284V101.314ZM287.4 91.7372C287.328 91.7558 287.252 91.7558 287.18 91.7372C284.7 90.6131 282.413 89.1033 280.405 87.2639C280.357 87.2185 280.319 87.1642 280.292 87.104C280.265 87.0437 280.25 86.9788 280.248 86.9128C280.244 86.7795 280.294 86.6502 280.385 86.5534C280.477 86.4565 280.603 86.4 280.736 86.3962C280.87 86.3925 280.999 86.4418 281.096 86.5334C283.027 88.3015 285.226 89.7538 287.61 90.8365C287.671 90.8644 287.725 90.904 287.769 90.9529C287.814 91.0019 287.848 91.0592 287.871 91.1216C287.893 91.1839 287.903 91.2501 287.899 91.3163C287.896 91.3824 287.879 91.4473 287.851 91.507C287.8 91.5771 287.732 91.6326 287.652 91.6677C287.573 91.7029 287.486 91.7165 287.4 91.7071V91.7372ZM275.712 82.8106C275.577 82.8107 275.448 82.7587 275.351 82.6654C275.254 82.5721 275.197 82.4448 275.191 82.3103C275.189 82.2464 275.199 82.1826 275.221 82.1226C275.243 82.0627 275.278 82.0078 275.321 81.9612C275.365 81.9145 275.418 81.8772 275.476 81.8512C275.535 81.8252 275.598 81.8112 275.662 81.8099C278.285 81.8517 280.901 81.5147 283.427 80.8092C283.49 80.7892 283.556 80.7819 283.621 80.7878C283.686 80.7936 283.75 80.8125 283.807 80.8433C283.865 80.8741 283.916 80.9161 283.958 80.967C283.999 81.0179 284.03 81.0765 284.048 81.1394C284.068 81.2025 284.075 81.2689 284.07 81.3349C284.064 81.4008 284.045 81.465 284.014 81.5236C283.984 81.5822 283.942 81.6342 283.891 81.6765C283.84 81.7187 283.781 81.7505 283.718 81.7699C281.111 82.4858 278.415 82.8262 275.712 82.7806V82.8106ZM267.706 81.8099H267.586C264.955 81.1417 262.455 80.0354 260.19 78.5375C260.135 78.5021 260.087 78.4559 260.05 78.4017C260.013 78.3475 259.987 78.2863 259.974 78.2219C259.961 78.1575 259.961 78.0911 259.974 78.0267C259.987 77.9623 260.013 77.9012 260.05 77.847C260.124 77.7373 260.237 77.661 260.367 77.6348C260.496 77.6086 260.63 77.6345 260.741 77.7069C262.939 79.1312 265.361 80.1764 267.906 80.7992C268.039 80.8164 268.159 80.8857 268.241 80.9917C268.322 81.0977 268.359 81.2319 268.341 81.3646C268.324 81.4973 268.255 81.6177 268.149 81.6993C268.043 81.781 267.909 81.8171 267.776 81.7999L267.706 81.8099ZM276.552 80.629C276.441 80.6278 276.334 80.5898 276.247 80.521C276.16 80.4522 276.099 80.3564 276.072 80.2488C275.846 79.3726 275.732 78.4715 275.732 77.5668C275.708 75.6424 276.289 73.7592 277.393 72.1828C277.432 72.1296 277.481 72.0846 277.537 72.0502C277.593 72.0159 277.655 71.993 277.72 71.9827C277.785 71.9725 277.852 71.9752 277.916 71.9906C277.98 72.0061 278.04 72.034 278.094 72.0728C278.147 72.1115 278.192 72.1604 278.226 72.2166C278.26 72.2728 278.283 72.3352 278.294 72.4002C278.304 72.4653 278.301 72.5317 278.286 72.5957C278.27 72.6597 278.242 72.7201 278.204 72.7733C277.222 74.177 276.707 75.8541 276.733 77.5668C276.733 78.3905 276.838 79.2108 277.043 80.0086C277.073 80.1359 277.052 80.2701 276.985 80.3823C276.918 80.4946 276.809 80.576 276.682 80.609L276.552 80.629ZM289.472 76.9764H289.412C289.281 76.9589 289.161 76.8901 289.081 76.7851C289 76.68 288.964 76.5473 288.981 76.416C288.981 76.3059 288.981 76.1858 288.981 76.0757C288.92 75.1029 288.52 74.1824 287.851 73.4738C286.994 72.3849 285.899 71.5083 284.648 70.9119C284.536 70.8525 284.45 70.7524 284.408 70.632C284.367 70.5115 284.373 70.3798 284.425 70.2637C284.478 70.1476 284.572 70.0558 284.69 70.007C284.808 69.9583 284.939 69.9562 285.059 70.0013C286.448 70.6591 287.667 71.6282 288.621 72.8333C289.455 73.7087 289.954 74.8493 290.032 76.0557C290.043 76.209 290.043 76.3627 290.032 76.516C290.015 76.6424 289.951 76.7578 289.853 76.8393C289.754 76.9208 289.629 76.9625 289.502 76.9563L289.472 76.9764ZM254.927 72.8934C254.844 72.8934 254.762 72.8735 254.689 72.8351C254.616 72.7968 254.553 72.7412 254.506 72.6732C253.586 71.2722 252.034 69.0105 249.853 66.1885C249.781 66.083 249.753 65.9543 249.773 65.8286C249.793 65.7028 249.86 65.5895 249.961 65.5116C250.062 65.4338 250.189 65.3973 250.315 65.4096C250.442 65.422 250.56 65.4822 250.643 65.578C252.845 68.4301 254.416 70.7118 255.337 72.1228C255.374 72.177 255.4 72.2381 255.413 72.3025C255.426 72.3669 255.426 72.4333 255.413 72.4977C255.4 72.5622 255.374 72.6233 255.337 72.6775C255.3 72.7317 255.252 72.7779 255.197 72.8133C255.123 72.852 255.04 72.8726 254.957 72.8734L254.927 72.8934ZM54.1196 61.6251C52.7086 61.6251 51.2575 61.6251 49.8065 61.5351C49.7407 61.5325 49.6761 61.517 49.6164 61.4894C49.5567 61.4619 49.503 61.4228 49.4584 61.3745C49.4138 61.3261 49.3791 61.2695 49.3564 61.2077C49.3337 61.146 49.3234 61.0804 49.3261 61.0147C49.3362 60.8837 49.3955 60.7614 49.492 60.6723C49.5885 60.5832 49.7151 60.5339 49.8465 60.5343C52.5485 60.6444 55.1404 60.6544 57.8523 60.5343C57.9181 60.5317 57.9837 60.542 58.0454 60.5647C58.1071 60.5874 58.1638 60.622 58.2121 60.6666C58.2605 60.7112 58.2995 60.7649 58.3271 60.8247C58.3546 60.8844 58.3701 60.949 58.3727 61.0147C58.3754 61.0804 58.3651 61.146 58.3424 61.2077C58.3197 61.2695 58.2851 61.3261 58.2404 61.3745C58.1958 61.4228 58.1421 61.4619 58.0824 61.4894C58.0227 61.517 57.9581 61.5325 57.8924 61.5351C56.6114 61.5951 55.3605 61.6251 54.1196 61.6251ZM65.8182 60.9446C65.6943 60.9431 65.5753 60.8965 65.4832 60.8137C65.3912 60.7308 65.3324 60.6173 65.3178 60.4943C65.3037 60.363 65.3421 60.2315 65.4246 60.1284C65.5071 60.0253 65.627 59.959 65.7581 59.9439C68.4201 59.6237 71.062 59.1833 73.6039 58.6329C73.6683 58.6198 73.7346 58.6194 73.7991 58.6319C73.8637 58.6444 73.9251 58.6695 73.9799 58.7058C74.0348 58.742 74.0819 58.7887 74.1187 58.8432C74.1555 58.8976 74.1812 58.9588 74.1943 59.0232C74.209 59.087 74.2107 59.1531 74.1994 59.2176C74.1882 59.282 74.1641 59.3436 74.1287 59.3986C74.0932 59.4537 74.0471 59.501 73.9931 59.538C73.939 59.5749 73.8782 59.6006 73.814 59.6137C71.2421 60.1641 68.5702 60.6144 65.8782 60.9346L65.8182 60.9446ZM41.8006 60.9446H41.7506C39.1086 60.6544 36.4267 60.2741 33.7447 59.8038C33.6802 59.7942 33.6183 59.7716 33.5629 59.7374C33.5074 59.7031 33.4595 59.6579 33.422 59.6046C33.3846 59.5512 33.3584 59.4908 33.345 59.427C33.3317 59.3631 33.3315 59.2973 33.3444 59.2334C33.3553 59.1682 33.379 59.1058 33.4141 59.0498C33.4493 58.9939 33.4951 58.9454 33.5491 58.9073C33.6031 58.8691 33.6641 58.842 33.7285 58.8276C33.793 58.8131 33.8597 58.8116 33.9248 58.8231C36.5367 59.2834 39.1987 59.6637 41.8206 59.9539C41.8863 59.9579 41.9506 59.9747 42.0098 60.0035C42.069 60.0323 42.122 60.0724 42.1656 60.1217C42.2093 60.1709 42.2428 60.2283 42.2644 60.2905C42.2859 60.3527 42.2949 60.4186 42.2909 60.4843C42.287 60.55 42.2702 60.6143 42.2414 60.6735C42.2126 60.7327 42.1724 60.7856 42.1232 60.8293C42.0739 60.873 42.0165 60.9065 41.9543 60.928C41.8921 60.9495 41.8263 60.9586 41.7606 60.9546L41.8006 60.9446ZM245.179 60.1641C245.109 60.1646 245.039 60.1496 244.975 60.1202C244.911 60.0908 244.855 60.0477 244.809 59.9939C243.068 57.9925 241.237 55.991 239.385 54.1396C239.333 54.0944 239.291 54.0389 239.261 53.9766C239.232 53.9144 239.215 53.8466 239.213 53.7777C239.211 53.7088 239.223 53.6402 239.249 53.5762C239.274 53.5121 239.313 53.4541 239.362 53.4057C239.411 53.3573 239.47 53.3196 239.534 53.2949C239.599 53.2702 239.667 53.259 239.736 53.2622C239.805 53.2653 239.873 53.2827 239.934 53.3131C239.996 53.3436 240.051 53.3865 240.096 53.4391C241.967 55.3405 243.808 57.332 245.56 59.3435C245.625 59.4148 245.667 59.5038 245.682 59.5993C245.697 59.6948 245.683 59.7925 245.642 59.8802C245.602 59.9679 245.536 60.0416 245.454 60.0921C245.371 60.1426 245.276 60.1676 245.179 60.1641ZM26.0791 58.1626H25.959C21.6058 57.0918 18.9539 56.1611 18.9539 56.1611C18.829 56.1158 18.7267 56.0235 18.6687 55.9039C18.6108 55.7843 18.6018 55.6468 18.6436 55.5207C18.6888 55.396 18.7816 55.2943 18.9017 55.238C19.0218 55.1817 19.1594 55.1754 19.2841 55.2204C19.2841 55.2204 21.886 56.1411 26.1892 57.2219C26.3177 57.2528 26.4287 57.3333 26.4981 57.4458C26.5675 57.5583 26.5895 57.6936 26.5594 57.8223C26.5239 57.9207 26.4585 58.0054 26.3723 58.0646C26.2862 58.1239 26.1836 58.1546 26.0791 58.1526V58.1626ZM81.4396 57.5622C81.3069 57.5834 81.1712 57.551 81.0623 57.4722C80.9535 57.3934 80.8804 57.2746 80.8592 57.1418C80.8379 57.0091 80.8703 56.8734 80.9491 56.7646C81.0279 56.6557 81.1468 56.5827 81.2795 56.5614C83.804 55.75 86.2799 54.7944 88.6949 53.6993C88.8157 53.6452 88.953 53.6411 89.0768 53.688C89.2006 53.7349 89.3008 53.8289 89.3554 53.9495C89.3838 54.0098 89.3998 54.0752 89.4025 54.1418C89.4053 54.2085 89.3947 54.2749 89.3714 54.3374C89.3481 54.3999 89.3125 54.4571 89.2668 54.5056C89.2211 54.5541 89.1662 54.593 89.1052 54.62C86.6532 55.7198 84.1445 56.6885 81.5897 57.5221L81.4396 57.5622ZM95.9902 50.9673C95.9041 50.9669 95.8194 50.9446 95.7442 50.9026C95.6689 50.8606 95.6055 50.8003 95.5599 50.7272C95.5254 50.6707 95.5025 50.608 95.4923 50.5427C95.4822 50.4773 95.4852 50.4106 95.501 50.3464C95.5168 50.2822 95.5452 50.2218 95.5845 50.1686C95.6238 50.1154 95.6733 50.0706 95.7301 50.0367C97.571 48.9374 99.3546 47.745 101.074 46.464L102.335 45.5434C102.388 45.5045 102.448 45.4764 102.512 45.4609C102.576 45.4454 102.643 45.4427 102.708 45.4529C102.773 45.4631 102.836 45.4861 102.892 45.5205C102.948 45.5549 102.997 45.6001 103.035 45.6534C103.111 45.7617 103.142 45.8953 103.122 46.0259C103.101 46.1566 103.031 46.2742 102.925 46.354L101.674 47.2646C99.9431 48.5556 98.1218 49.7765 96.2805 50.8873C96.1936 50.9409 96.092 50.9654 95.9902 50.9573V50.9673ZM233.961 48.7557C233.835 48.7566 233.714 48.7102 233.621 48.6256C231.619 46.8343 229.618 45.093 227.536 43.4718C227.432 43.3896 227.364 43.269 227.348 43.1367C227.332 43.0044 227.369 42.8712 227.451 42.7663C227.534 42.6615 227.654 42.5936 227.787 42.5777C227.919 42.5617 228.052 42.599 228.157 42.6813C230.228 44.3225 232.29 46.0737 234.291 47.8851C234.338 47.9307 234.375 47.9852 234.4 48.0454C234.426 48.1055 234.439 48.1701 234.439 48.2353C234.439 48.3006 234.426 48.3652 234.4 48.4253C234.375 48.4854 234.338 48.5399 234.291 48.5856C234.205 48.6781 234.087 48.7351 233.961 48.7457V48.7557ZM109.17 41.8907C109.086 41.8897 109.004 41.8681 108.931 41.828C108.858 41.7879 108.795 41.7304 108.75 41.6605C108.677 41.5502 108.651 41.4158 108.677 41.2864C108.704 41.1571 108.78 41.0434 108.89 40.97C111.151 39.4789 113.443 38.0479 115.705 36.7169C115.818 36.6504 115.952 36.6309 116.08 36.6628C116.207 36.6946 116.317 36.7751 116.385 36.887C116.452 37.0016 116.472 37.1379 116.44 37.2668C116.408 37.3957 116.328 37.5072 116.215 37.5775C113.963 38.8985 111.682 40.3295 109.45 41.8006C109.367 41.8551 109.269 41.883 109.17 41.8807V41.8907ZM221.412 38.8084C221.311 38.8092 221.213 38.7776 221.132 38.7184C218.92 37.1973 216.659 35.7162 214.407 34.4452C214.35 34.4117 214.3 34.3673 214.26 34.3145C214.22 34.2616 214.191 34.2014 214.174 34.1373C214.157 34.0732 214.153 34.0064 214.162 33.9408C214.171 33.8751 214.193 33.8119 214.227 33.7547C214.26 33.6976 214.305 33.6476 214.358 33.6076C214.41 33.5676 214.471 33.5384 214.535 33.5217C214.599 33.5049 214.666 33.501 214.731 33.5101C214.797 33.5192 214.86 33.5411 214.917 33.5746C217.179 34.9056 219.461 36.3566 221.692 37.8978C221.747 37.934 221.794 37.9808 221.83 38.0353C221.866 38.0899 221.891 38.1512 221.903 38.2156C221.915 38.2799 221.914 38.3461 221.9 38.4101C221.887 38.4741 221.86 38.5347 221.822 38.5883C221.778 38.6556 221.717 38.7103 221.645 38.7471C221.573 38.7839 221.493 38.8016 221.412 38.7984V38.8084ZM122.97 33.8048C122.877 33.8083 122.785 33.7846 122.705 33.7367C122.625 33.6887 122.56 33.6185 122.52 33.5346C122.489 33.4763 122.47 33.4125 122.465 33.3469C122.459 33.2812 122.467 33.2152 122.487 33.1526C122.508 33.09 122.541 33.0322 122.584 32.9826C122.628 32.9331 122.681 32.8928 122.74 32.8641C125.152 31.6232 127.593 30.4623 129.995 29.4116C130.116 29.3612 130.252 29.3602 130.373 29.4088C130.495 29.4575 130.593 29.5519 130.646 29.6718C130.7 29.7925 130.704 29.9299 130.657 30.0537C130.61 30.1775 130.516 30.2776 130.395 30.3322C128.014 31.333 125.592 32.5238 123.19 33.7547C123.119 33.7767 123.043 33.7801 122.97 33.7647V33.8048ZM207.602 30.8026C207.526 30.8002 207.451 30.7832 207.382 30.7525C204.98 29.5917 202.528 28.5209 200.086 27.5802C200.024 27.5569 199.968 27.5216 199.919 27.4761C199.871 27.4307 199.832 27.3762 199.805 27.3156C199.778 27.2551 199.764 27.1899 199.762 27.1236C199.76 27.0574 199.772 26.9915 199.796 26.9297C199.845 26.8061 199.941 26.7066 200.062 26.6524C200.184 26.5982 200.322 26.5936 200.447 26.6395C202.918 27.5902 205.4 28.641 207.822 29.8519C207.881 29.8807 207.934 29.9209 207.978 29.9703C208.022 30.0196 208.055 30.077 208.076 30.1393C208.098 30.2016 208.107 30.2675 208.102 30.3333C208.098 30.399 208.081 30.4633 208.052 30.5224C208 30.5903 207.931 30.6442 207.852 30.6791C207.774 30.7141 207.688 30.729 207.602 30.7225V30.8026ZM137.631 27.4601C137.498 27.4827 137.362 27.4516 137.252 27.3737C137.142 27.2958 137.068 27.1775 137.045 27.0448C137.023 26.9121 137.054 26.7759 137.132 26.6661C137.21 26.5563 137.328 26.482 137.461 26.4594C140.012 25.5487 142.594 24.7381 145.136 24.0476C145.269 24.0131 145.41 24.0328 145.528 24.1022C145.646 24.1716 145.732 24.2852 145.767 24.4179C145.801 24.5506 145.782 24.6916 145.712 24.8098C145.643 24.9281 145.529 25.0139 145.396 25.0484C142.885 25.7389 140.323 26.5395 137.801 27.4401L137.631 27.4601ZM192.671 25.0684H192.541C189.989 24.3378 187.377 23.7174 184.795 23.237C184.73 23.2252 184.668 23.2003 184.613 23.1638C184.558 23.1274 184.511 23.0802 184.474 23.025C184.438 22.9699 184.413 22.9079 184.401 22.8429C184.389 22.7779 184.39 22.7111 184.405 22.6466C184.416 22.582 184.439 22.5202 184.475 22.4651C184.51 22.41 184.557 22.3627 184.611 22.3261C184.665 22.2896 184.726 22.2645 184.791 22.2525C184.855 22.2405 184.921 22.2418 184.985 22.2563C187.597 22.7467 190.229 23.3671 192.811 24.1077C192.875 24.125 192.935 24.1549 192.987 24.1956C193.04 24.2363 193.083 24.2869 193.116 24.3447C193.149 24.4024 193.169 24.466 193.177 24.5318C193.185 24.5977 193.18 24.6644 193.161 24.7281C193.118 24.8198 193.048 24.8963 192.96 24.948C192.873 24.9997 192.772 25.0242 192.671 25.0183V25.0684ZM153.112 23.197C152.996 23.1947 152.884 23.1528 152.795 23.0782C152.705 23.0036 152.644 22.9007 152.622 22.7867C152.598 22.6567 152.627 22.5228 152.702 22.414C152.777 22.3053 152.892 22.2306 153.022 22.2063C155.674 21.7059 158.356 21.3357 161.028 21.0855C161.094 21.0789 161.16 21.0853 161.223 21.1044C161.286 21.1235 161.345 21.1548 161.396 21.1966C161.447 21.2385 161.49 21.2899 161.521 21.3481C161.552 21.4063 161.572 21.4701 161.578 21.5358C161.585 21.6015 161.578 21.6679 161.559 21.7311C161.54 21.7943 161.509 21.8532 161.467 21.9043C161.425 21.9554 161.374 21.9977 161.316 22.029C161.257 22.0602 161.194 22.0796 161.128 22.0862C158.526 22.3364 155.874 22.7067 153.242 23.197H153.112ZM176.969 22.0161C174.428 21.786 171.836 21.6659 169.274 21.6659H169.024C168.891 21.6659 168.764 21.6132 168.67 21.5193C168.576 21.4255 168.523 21.2982 168.523 21.1655C168.523 21.0328 168.576 20.9056 168.67 20.8117C168.764 20.7179 168.891 20.6652 169.024 20.6652H169.274C171.876 20.6652 174.488 20.7852 177.06 21.0154C177.191 21.0306 177.312 21.0965 177.396 21.1993C177.48 21.302 177.521 21.4335 177.51 21.5658C177.505 21.6312 177.487 21.695 177.457 21.7532C177.427 21.8115 177.385 21.8632 177.335 21.9052C177.284 21.9472 177.226 21.9786 177.163 21.9977C177.101 22.0168 177.035 22.023 176.969 22.0161Z" fill="#FA8C16"/>
</g>
<path d="M248.772 113.803H236.803C233.41 113.803 230.659 116.554 230.659 119.948V131.916C230.659 135.31 233.41 138.061 236.803 138.061H248.772C252.166 138.061 254.917 135.31 254.917 131.916V119.948C254.917 116.554 252.166 113.803 248.772 113.803Z" fill="#91D5FF"/>
<path d="M248.772 144.306H236.803C233.41 144.306 230.659 147.057 230.659 150.45V162.419C230.659 165.812 233.41 168.563 236.803 168.563H248.772C252.166 168.563 254.917 165.812 254.917 162.419V150.45C254.917 147.057 252.166 144.306 248.772 144.306Z" fill="#91D5FF"/>
<path d="M176.949 159.957L159.377 170.034L141.804 159.957L143.855 137.691H174.898L176.949 159.957Z" fill="#EFBFA9"/>
<g opacity="0.1">
<path d="M174.898 137.691H143.875L142.744 150C158.616 161.328 175.248 141.293 175.248 141.293L174.898 137.691Z" fill="black"/>
</g>
<g opacity="0.1">
<path d="M185.556 168.483C185.459 169.028 185.205 169.532 184.825 169.934L172.046 183.514C171.429 184.168 170.583 184.557 169.686 184.6C168.788 184.643 167.909 184.336 167.232 183.744L157.445 175.128L147.658 183.744C146.982 184.336 146.102 184.643 145.205 184.6C144.307 184.557 143.461 184.168 142.845 183.514L130.095 169.934C129.782 169.593 129.556 169.181 129.435 168.733L132.027 168.543L159.407 171.966C159.407 171.966 179.281 168.493 185.556 168.483Z" fill="black"/>
</g>
<g opacity="0.1">
<path d="M107.078 282.997C94.6592 281.206 94.6592 224.674 95.5499 219.781C96.4405 214.887 96.4705 211.034 95.1796 207.252C93.8887 203.469 94.9494 200.106 95.3998 197.665C95.8501 195.223 96.7708 181.753 102.295 175.649C104.747 172.947 111.051 170.044 114.454 170.014C117.116 170.014 128.324 169.164 133.818 168.733L131.997 168.513L129.405 168.703C124.111 169.114 112.302 169.984 109.56 170.014C106.158 170.014 99.853 172.947 97.4012 175.649C91.8772 181.723 90.9465 195.183 90.5062 197.665C90.0659 200.146 88.9951 203.469 90.286 207.252C91.577 211.034 91.5469 214.887 90.6563 219.781C89.7656 224.674 89.7656 281.206 102.225 282.997C114.684 284.788 117.926 284.528 107.078 282.997Z" fill="black"/>
</g>
<path d="M113.563 215.548H205.15C206.958 215.548 208.691 216.266 209.969 217.544C211.247 218.822 211.965 220.555 211.965 222.363V299.159H106.748V222.373C106.747 221.477 106.922 220.59 107.264 219.762C107.606 218.934 108.108 218.181 108.741 217.547C109.374 216.913 110.125 216.411 110.953 216.067C111.78 215.724 112.667 215.548 113.563 215.548Z" fill="#E6FCFF"/>
<path d="M187.197 165.281L182.283 155.934C182.064 155.517 181.761 155.149 181.394 154.852C181.026 154.556 180.603 154.338 180.148 154.212C179.694 154.085 179.218 154.053 178.751 154.117C178.283 154.181 177.834 154.339 177.43 154.583L159.417 165.441L141.403 154.583C141 154.339 140.55 154.181 140.083 154.117C139.615 154.053 139.14 154.085 138.685 154.212C138.231 154.338 137.807 154.556 137.44 154.852C137.072 155.149 136.77 155.517 136.55 155.934L131.636 165.281C131.364 165.804 131.259 166.398 131.338 166.982C131.417 167.566 131.675 168.112 132.077 168.543L144.776 182.133C145.393 182.787 146.239 183.176 147.136 183.219C148.034 183.262 148.913 182.955 149.589 182.363L159.377 173.757L169.164 182.363C169.84 182.955 170.719 183.262 171.617 183.219C172.515 183.176 173.361 182.787 173.977 182.133L186.757 168.553C187.163 168.122 187.424 167.575 187.503 166.988C187.582 166.401 187.475 165.804 187.197 165.281Z" fill="#A1DBFF"/>
<g opacity="0.1">
<path d="M106.748 268.927C106.748 268.927 120.138 282.267 159.377 282.267C198.615 282.267 212.005 270.358 212.005 270.358V299.219H106.748V268.927Z" fill="black"/>
</g>
<path d="M137.27 336.586L126.713 339.588H126.573L116.915 342.35L116.695 342.411L115.254 342.821L82.2301 352.258C78.5285 353.081 74.6523 352.459 71.3933 350.521C68.1342 348.582 65.7383 345.472 64.6947 341.827C63.651 338.181 64.0386 334.275 65.7781 330.905C67.5175 327.536 70.4778 324.957 74.0541 323.697L74.3744 323.607L104.326 315.061L106.268 314.51L108.089 313.99L115.464 311.888L129.164 307.985L137.27 336.586Z" fill="#EFBFA9"/>
<path d="M222.743 320.294C219.01 321.435 211.735 323.296 202.608 325.538C182.143 330.542 152.572 337.317 134.328 341.46C131.666 342.07 129.255 342.621 127.133 343.091C121.329 344.412 117.776 345.203 117.776 345.203L116.906 342.4L115.194 336.936L108.079 313.99L106.918 310.287L112.532 308.446C118.427 306.514 128.414 303.272 139.812 299.649C161.268 292.844 187.737 284.728 201.437 281.636C226.786 275.852 236.693 271.569 245.91 289.192C253.435 303.622 239.425 315.231 222.743 320.294Z" fill="#FA8C16"/>
<path d="M116.685 342.461L115.244 342.871L82.2201 352.308C78.4275 353.388 74.361 352.919 70.9141 351.003C67.4672 349.087 64.9216 345.882 63.8367 342.09C63.6915 341.583 63.5745 341.069 63.4864 340.549C62.8559 336.931 63.5867 333.208 65.5379 330.096C67.489 326.985 70.5226 324.705 74.0541 323.697L74.3744 323.607L83.3209 321.055L87.3239 319.914L104.336 315.061L106.278 314.51L105.057 316.632C105.057 316.632 100.644 319.234 98.5321 323.026C97.9303 324.005 97.5416 325.1 97.3912 326.239C97.2871 328.514 97.7478 330.78 98.7322 332.834C99.5158 334.606 100.496 336.284 101.654 337.837C103.461 339.193 105.547 340.129 107.762 340.578C109.976 341.026 112.262 340.975 114.454 340.429L116.685 342.461Z" fill="#CDE0E3"/>
<path d="M80.8917 345.042L77.9195 334.475C77.731 333.805 77.8165 333.087 78.157 332.48C78.4976 331.873 79.0654 331.426 79.7355 331.237L92.3688 327.684C94.3434 327.129 96.4578 327.381 98.2468 328.384C100.036 329.388 101.353 331.061 101.908 333.036L102.122 333.795C102.677 335.769 102.425 337.884 101.422 339.673C100.418 341.462 98.7449 342.779 96.7703 343.334L84.1082 346.895C83.7754 346.985 83.4281 347.008 83.0863 346.963C82.7445 346.919 82.4148 346.807 82.1162 346.635C81.8175 346.463 81.5556 346.234 81.3455 345.961C81.1354 345.687 80.9812 345.375 80.8917 345.042Z" fill="#B1C2C4"/>
<path d="M97.3512 342.531C97.2734 342.531 97.1965 342.514 97.1269 342.479C97.0573 342.444 96.997 342.393 96.9509 342.33L86.173 327.57C86.1343 327.516 86.1063 327.456 86.0909 327.392C86.0755 327.328 86.0728 327.262 86.083 327.197C86.0932 327.132 86.1161 327.069 86.1505 327.013C86.1848 326.957 86.2299 326.908 86.2831 326.869C86.3363 326.83 86.3967 326.803 86.4607 326.787C86.5247 326.772 86.5911 326.769 86.6562 326.779C86.7212 326.789 86.7836 326.812 86.8398 326.847C86.896 326.881 86.9448 326.926 86.9836 326.979L97.7515 341.74C97.8311 341.846 97.8653 341.98 97.8465 342.111C97.8278 342.242 97.7576 342.361 97.6514 342.441C97.5622 342.499 97.4579 342.53 97.3512 342.531Z" fill="#909FA1"/>
<path d="M91.3068 344.252C91.2414 344.248 91.1775 344.231 91.1188 344.202C91.06 344.174 91.0077 344.133 90.9648 344.084C90.9219 344.034 90.8893 343.977 90.869 343.915C90.8486 343.852 90.841 343.787 90.8464 343.721L92.1774 325.498C92.1812 325.432 92.198 325.368 92.2268 325.309C92.2555 325.25 92.2957 325.197 92.3449 325.153C92.3942 325.109 92.4516 325.076 92.5139 325.054C92.5762 325.033 92.6421 325.024 92.7078 325.028C92.7736 325.033 92.8377 325.051 92.8965 325.081C92.9553 325.111 93.0076 325.152 93.0504 325.202C93.0932 325.252 93.1256 325.311 93.1458 325.373C93.166 325.436 93.1736 325.502 93.1681 325.568L91.8372 343.792C91.8269 343.923 91.7655 344.044 91.6663 344.13C91.5671 344.217 91.4379 344.26 91.3068 344.252Z" fill="#909FA1"/>
<path d="M91.3068 344.252C91.2276 344.253 91.1493 344.235 91.078 344.2C91.0068 344.166 90.9447 344.115 90.8965 344.052L80.1286 329.301C80.0884 329.248 80.0593 329.188 80.043 329.124C80.0267 329.06 80.0236 328.993 80.0339 328.927C80.0442 328.862 80.0676 328.799 80.1028 328.743C80.138 328.687 80.1843 328.638 80.2387 328.6C80.347 328.524 80.4805 328.493 80.6112 328.514C80.7419 328.535 80.8595 328.605 80.9392 328.711L91.7071 343.471C91.7831 343.58 91.8141 343.713 91.7936 343.844C91.7731 343.975 91.7026 344.092 91.597 344.172C91.5103 344.227 91.4093 344.254 91.3068 344.252Z" fill="#909FA1"/>
<path d="M85.2523 345.993C85.1213 345.983 84.9996 345.921 84.9135 345.822C84.8274 345.723 84.7837 345.594 84.792 345.463L86.0629 327.239C86.0653 327.174 86.0812 327.109 86.1096 327.049C86.138 326.99 86.1784 326.937 86.2281 326.894C86.2779 326.851 86.336 326.818 86.3988 326.799C86.4616 326.779 86.5278 326.772 86.5933 326.779C86.6591 326.783 86.7234 326.8 86.7827 326.828C86.8419 326.857 86.8949 326.897 86.9386 326.947C86.9823 326.996 87.0159 327.053 87.0373 327.116C87.0588 327.178 87.0677 327.244 87.0637 327.309L85.7327 345.533C85.723 345.655 85.6687 345.769 85.5801 345.854C85.4916 345.939 85.3749 345.989 85.2523 345.993Z" fill="#909FA1"/>
<path d="M127.163 343.481C127.22 344.231 127.011 344.976 126.574 345.587C126.137 346.198 125.499 346.636 124.771 346.824L120.088 348.045C119.285 348.259 118.431 348.152 117.706 347.747C116.981 347.341 116.443 346.669 116.205 345.873C115.955 345.022 115.645 344.012 115.274 342.871L114.494 340.459C114.084 339.208 113.623 337.857 113.113 336.456C112.362 334.315 111.502 332.003 110.551 329.601C108.69 324.898 106.688 320.304 105.037 316.672L104.316 315.101C103.786 313.94 103.316 312.919 102.905 312.098C102.725 311.715 102.622 311.3 102.603 310.876C102.584 310.453 102.649 310.03 102.794 309.632C102.94 309.234 103.162 308.868 103.449 308.556C103.736 308.245 104.082 307.993 104.466 307.815L107.469 306.454C108.033 306.191 108.663 306.098 109.28 306.187C109.896 306.275 110.474 306.542 110.941 306.955C111.412 307.365 111.942 307.885 112.572 308.526C113.614 309.614 114.59 310.763 115.495 311.968C118.036 315.378 120.172 319.072 121.859 322.976C124.241 328.299 125.9 333.916 126.793 339.679V339.759C126.983 341.07 127.113 342.22 127.193 343.171L127.163 343.481Z" fill="#E6FCFF"/>
<path d="M247.401 342.09C246.316 345.882 243.771 349.087 240.324 351.003C236.877 352.919 232.81 353.388 229.018 352.308L194.502 342.461L173.917 336.586L182.073 307.985L204.97 314.51L237.174 323.697C239.053 324.233 240.808 325.134 242.339 326.349C243.87 327.563 245.147 329.067 246.097 330.775C247.047 332.483 247.651 334.362 247.874 336.303C248.098 338.245 247.937 340.211 247.401 342.09Z" fill="#EFBFA9"/>
<path d="M204.31 310.287L203.719 312.188L202.718 315.521L193.412 345.253L191.08 344.732L179.501 342.11C153.943 336.326 100.984 324.197 88.4347 320.344C71.7625 315.231 57.7523 303.622 65.3178 289.212C74.5346 271.589 84.4418 275.872 109.79 281.656C130.205 286.309 179.021 302.061 197.264 308.025L200.697 309.146L204.31 310.287Z" fill="#FA8C16"/>
<path d="M247.401 342.09C246.316 345.882 243.771 349.087 240.324 351.003C236.877 352.919 232.81 353.388 229.018 352.308L194.502 342.461L196.734 340.459C198.926 341.005 201.212 341.056 203.426 340.608C205.64 340.159 207.727 339.223 209.533 337.867C209.533 337.867 214.317 331.753 213.796 326.279C213.276 320.805 206.191 316.632 206.191 316.632L204.97 314.51L237.174 323.697C239.053 324.233 240.808 325.134 242.339 326.349C243.87 327.563 245.147 329.067 246.097 330.775C247.047 332.483 247.651 334.362 247.874 336.303C248.098 338.245 247.937 340.211 247.401 342.09Z" fill="#CDE0E3"/>
<path d="M208.967 332.131L209.184 331.371C209.748 329.393 211.075 327.72 212.873 326.72C214.67 325.72 216.792 325.476 218.77 326.04L231.425 329.649C232.096 329.841 232.664 330.291 233.003 330.901C233.342 331.511 233.425 332.231 233.234 332.902L230.214 343.488C230.023 344.159 229.572 344.727 228.962 345.066C228.352 345.406 227.633 345.489 226.961 345.297L214.277 341.679C212.312 341.11 210.65 339.788 209.656 337.999C208.661 336.21 208.414 334.101 208.967 332.131Z" fill="#B1C2C4"/>
<path d="M213.836 342.531C213.733 342.53 213.632 342.499 213.546 342.441C213.441 342.361 213.37 342.243 213.35 342.113C213.329 341.982 213.36 341.848 213.436 341.74L224.164 326.979C224.244 326.874 224.361 326.803 224.492 326.783C224.623 326.762 224.756 326.793 224.865 326.869C224.918 326.908 224.963 326.957 224.997 327.013C225.032 327.069 225.055 327.131 225.065 327.197C225.075 327.262 225.073 327.328 225.057 327.392C225.042 327.456 225.014 327.516 224.975 327.57L214.207 342.33C214.163 342.388 214.107 342.436 214.043 342.47C213.979 342.505 213.909 342.526 213.836 342.531Z" fill="#909FA1"/>
<path d="M219.891 344.252C219.765 344.252 219.643 344.205 219.55 344.12C219.458 344.034 219.401 343.917 219.39 343.792L218.06 325.568C218.051 325.436 218.094 325.306 218.18 325.205C218.266 325.104 218.388 325.041 218.52 325.028C218.586 325.022 218.653 325.03 218.717 325.051C218.78 325.072 218.839 325.105 218.889 325.149C218.94 325.193 218.981 325.246 219.01 325.306C219.039 325.366 219.056 325.431 219.06 325.498L220.391 343.721C220.399 343.853 220.356 343.982 220.27 344.081C220.184 344.18 220.062 344.242 219.931 344.252H219.891Z" fill="#909FA1"/>
<path d="M219.891 344.252C219.787 344.253 219.686 344.221 219.601 344.162C219.546 344.124 219.5 344.076 219.465 344.019C219.43 343.963 219.406 343.901 219.396 343.835C219.386 343.77 219.389 343.703 219.405 343.638C219.421 343.574 219.45 343.514 219.491 343.461L230.258 328.7C230.297 328.647 230.346 328.602 230.402 328.568C230.458 328.533 230.521 328.511 230.586 328.5C230.651 328.49 230.717 328.493 230.781 328.508C230.845 328.524 230.906 328.552 230.959 328.59C231.012 328.629 231.057 328.678 231.092 328.734C231.126 328.79 231.149 328.853 231.159 328.918C231.169 328.983 231.167 329.049 231.151 329.113C231.136 329.177 231.108 329.238 231.069 329.291L220.291 344.052C220.245 344.114 220.185 344.165 220.115 344.2C220.046 344.235 219.969 344.253 219.891 344.252Z" fill="#909FA1"/>
<path d="M225.945 345.993C225.819 345.994 225.698 345.946 225.605 345.861C225.512 345.776 225.455 345.658 225.445 345.533L224.164 327.309C224.159 327.244 224.168 327.178 224.189 327.115C224.21 327.053 224.243 326.995 224.286 326.945C224.373 326.845 224.497 326.783 224.629 326.774C224.762 326.765 224.893 326.809 224.993 326.896C225.094 326.983 225.156 327.107 225.165 327.239L226.496 345.463C226.5 345.528 226.491 345.594 226.469 345.657C226.448 345.719 226.414 345.776 226.371 345.826C226.327 345.875 226.274 345.915 226.215 345.944C226.156 345.973 226.091 345.989 226.025 345.993H225.945Z" fill="#909FA1"/>
<g opacity="0.1">
<path d="M203.719 312.228L202.718 315.561C200.907 319.444 198.245 325.368 195.823 331.503C193.822 336.586 192.231 341.26 191.12 344.722L179.541 342.1C180.406 336.14 182.09 330.327 184.545 324.828C188.548 315.761 193.081 310.927 195.463 308.816C195.972 308.361 196.614 308.08 197.294 308.015L200.727 309.136L201.898 309.677C202.395 309.909 202.824 310.266 203.143 310.714C203.462 311.161 203.661 311.682 203.719 312.228Z" fill="black"/>
</g>
<g opacity="0.1">
<path d="M247.401 337.247C246.316 341.038 243.771 344.244 240.324 346.16C236.877 348.075 232.81 348.545 229.018 347.464L194.502 337.617V337.567L193.211 342.08L194.502 342.511L229.018 352.358C231.429 353.05 233.977 353.12 236.423 352.561C238.869 352.002 241.133 350.833 243.005 349.162C244.877 347.491 246.295 345.373 247.126 343.006C247.958 340.639 248.177 338.1 247.761 335.625C247.67 336.172 247.55 336.713 247.401 337.247Z" fill="black"/>
</g>
<path d="M186.416 346.814C185.692 346.624 185.056 346.187 184.619 345.579C184.183 344.97 183.972 344.228 184.025 343.481C184.651 336.363 186.471 329.4 189.409 322.886C193.412 313.88 197.945 308.986 200.327 306.874C200.793 306.461 201.37 306.192 201.987 306.101C202.604 306.011 203.234 306.102 203.799 306.364L206.801 307.735C207.186 307.913 207.532 308.165 207.819 308.476C208.106 308.788 208.328 309.154 208.473 309.552C208.619 309.95 208.683 310.373 208.664 310.796C208.645 311.219 208.543 311.635 208.363 312.018C206.611 315.731 203.499 322.516 200.717 329.561C198.035 336.376 196.094 342.44 195.053 345.873C194.813 346.668 194.274 347.338 193.55 347.743C192.826 348.148 191.972 348.256 191.17 348.045L186.416 346.814Z" fill="#E6FCFF"/>
<path d="M75.7454 277.883C78.1896 276.873 80.8166 276.379 83.461 276.432C86.0999 276.477 88.7306 276.738 91.3268 277.213C96.5106 278.124 101.624 279.364 106.758 280.505C111.892 281.646 117.006 282.897 122.069 284.288C127.133 285.679 132.207 287.11 137.25 288.591C147.318 291.627 157.355 294.749 167.362 297.958C177.37 301.2 187.377 304.513 197.264 307.965L167.122 298.689C157.115 295.606 147.038 292.504 136.96 289.552C126.883 286.6 116.805 283.618 106.568 281.256C101.464 280.025 96.3705 278.694 91.2267 277.693C88.6644 277.14 86.0598 276.806 83.441 276.692C80.822 276.572 78.2054 276.977 75.7454 277.883Z" fill="#FFD591"/>
<g opacity="0.5">
<path d="M82.9307 261.191C82.7997 261.191 82.6739 261.14 82.5804 261.048C82.4868 260.956 82.433 260.832 82.4303 260.701C82.2358 258.107 81.5995 255.565 80.549 253.185C80.5013 253.061 80.5028 252.924 80.553 252.801C80.6032 252.679 80.6984 252.58 80.8192 252.525C80.8802 252.499 80.9458 252.485 81.0123 252.484C81.0787 252.484 81.1446 252.496 81.206 252.521C81.2675 252.547 81.3234 252.584 81.3703 252.631C81.4173 252.678 81.4545 252.733 81.4796 252.795C82.604 255.3 83.2813 257.982 83.4811 260.721C83.4838 260.787 83.4731 260.853 83.4497 260.915C83.4263 260.976 83.3906 261.033 83.3448 261.08C83.299 261.128 83.244 261.166 83.1831 261.192C83.1223 261.218 83.0569 261.231 82.9907 261.231L82.9307 261.191ZM31.5231 246.61C31.4075 246.608 31.2957 246.569 31.2029 246.5C31.0027 246.33 30.8026 246.14 30.6024 245.95C30.2971 245.668 30.0513 245.328 29.8795 244.95C29.7076 244.572 29.6131 244.164 29.6017 243.748C29.6017 242.327 30.7625 240.866 32.9641 239.505C33.076 239.438 33.2098 239.417 33.337 239.447C33.4641 239.477 33.5746 239.555 33.6446 239.665C33.6809 239.721 33.7056 239.783 33.7172 239.848C33.7288 239.913 33.7271 239.98 33.7121 240.045C33.6972 240.109 33.6693 240.17 33.6302 240.224C33.5911 240.277 33.5415 240.322 33.4845 240.356C31.6232 241.507 30.6024 242.708 30.6024 243.748C30.6164 244.032 30.6874 244.311 30.8112 244.567C30.935 244.823 31.109 245.052 31.3229 245.239C31.5031 245.42 31.6832 245.58 31.8533 245.73C31.9308 245.796 31.9861 245.884 32.0121 245.983C32.038 246.081 32.0332 246.185 31.9984 246.281C31.9636 246.377 31.9004 246.46 31.8172 246.518C31.7341 246.577 31.635 246.609 31.5331 246.61H31.5231ZM76.9563 246.61C76.881 246.611 76.8067 246.594 76.739 246.561C76.6713 246.528 76.6121 246.48 76.566 246.42C74.9329 244.359 73.0581 242.501 70.982 240.886C70.8861 240.802 70.8259 240.685 70.8136 240.558C70.8012 240.431 70.8377 240.305 70.9156 240.204C70.9934 240.103 71.1068 240.036 71.2325 240.016C71.3583 239.996 71.487 240.024 71.5924 240.096C73.7356 241.759 75.6709 243.674 77.3566 245.8C77.4379 245.906 77.474 246.041 77.4571 246.174C77.4403 246.306 77.3718 246.427 77.2666 246.51C77.1747 246.57 77.0657 246.598 76.9563 246.59V246.61ZM38.238 245.61C38.1495 245.611 38.0625 245.587 37.9878 245.54C37.8742 245.473 37.7916 245.364 37.7579 245.236C37.7241 245.109 37.742 244.973 37.8077 244.859C38.8239 242.861 39.3065 240.634 39.2087 238.394C39.2087 238.064 39.2087 237.714 39.2087 237.394C39.206 237.328 39.2163 237.262 39.239 237.201C39.2617 237.139 39.2964 237.082 39.341 237.034C39.3856 236.986 39.4393 236.946 39.499 236.919C39.5588 236.891 39.6233 236.876 39.6891 236.873C39.7546 236.868 39.8206 236.876 39.8829 236.897C39.9452 236.918 40.0025 236.951 40.0513 236.996C40.1 237.04 40.1393 237.093 40.1665 237.153C40.1937 237.213 40.2083 237.278 40.2094 237.344C40.2094 237.714 40.2094 238.074 40.2094 238.424C40.3123 240.854 39.7812 243.268 38.6683 245.43C38.6146 245.489 38.5475 245.534 38.4726 245.562C38.3977 245.59 38.3173 245.599 38.238 245.59V245.61ZM40.6097 237.434C40.5002 237.433 40.3938 237.397 40.3071 237.33C40.2203 237.263 40.1579 237.169 40.1294 237.063C40.1111 237.001 40.1054 236.936 40.1127 236.871C40.12 236.806 40.14 236.744 40.1717 236.687C40.2034 236.63 40.246 236.58 40.2972 236.54C40.3483 236.5 40.4069 236.47 40.4696 236.453C43.0736 235.738 45.7307 235.232 48.4155 234.942C48.5482 234.927 48.6812 234.966 48.7854 235.049C48.8895 235.133 48.9563 235.254 48.9709 235.387C48.9855 235.52 48.9467 235.653 48.8632 235.757C48.7797 235.861 48.6582 235.928 48.5255 235.943C45.895 236.228 43.2914 236.723 40.7398 237.424L40.6097 237.434ZM64.3271 237.143H64.167C61.658 236.352 59.0587 235.881 56.4313 235.742C56.3656 235.738 56.3014 235.72 56.2425 235.691C56.1835 235.662 56.131 235.621 56.0878 235.571C56.0446 235.521 56.0116 235.464 55.9907 235.401C55.9698 235.339 55.9614 235.273 55.966 235.207C55.9706 235.141 55.9881 235.077 56.0175 235.018C56.0469 234.959 56.0876 234.907 56.1373 234.864C56.187 234.82 56.2448 234.787 56.3072 234.766C56.3697 234.746 56.4357 234.737 56.5014 234.742C59.2197 234.886 61.9092 235.37 64.5072 236.183C64.5708 236.203 64.6296 236.236 64.6803 236.279C64.7309 236.323 64.7724 236.376 64.8022 236.436C64.8321 236.495 64.8497 236.56 64.854 236.627C64.8583 236.693 64.8493 236.76 64.8275 236.823C64.796 236.93 64.7293 237.022 64.6385 237.086C64.5476 237.149 64.4378 237.18 64.3271 237.174V237.143ZM38.218 229.968C38.111 229.969 38.0066 229.935 37.9202 229.872C37.8337 229.809 37.7697 229.72 37.7376 229.618C37.2103 227.932 36.5786 226.281 35.8463 224.674C35.476 223.854 35.1257 223.023 34.8455 222.203C34.8005 222.078 34.8068 221.94 34.8631 221.82C34.9194 221.7 35.021 221.607 35.1457 221.562C35.2066 221.537 35.2721 221.524 35.338 221.525C35.404 221.526 35.4691 221.541 35.5291 221.568C35.5892 221.595 35.6431 221.634 35.6873 221.683C35.7315 221.732 35.7652 221.79 35.7862 221.852C36.0864 222.653 36.4267 223.463 36.7869 224.264C37.5375 225.907 38.1859 227.595 38.7284 229.318C38.7662 229.445 38.7529 229.582 38.6913 229.7C38.6296 229.818 38.5244 229.907 38.3981 229.948C38.3405 229.969 38.2788 229.976 38.218 229.968ZM33.3344 214.777C33.2136 214.776 33.097 214.733 33.0053 214.654C32.9137 214.575 32.853 214.466 32.8341 214.347C32.4856 211.657 32.462 208.936 32.764 206.241C32.7786 206.108 32.8453 205.987 32.9495 205.903C33.0536 205.82 33.1867 205.781 33.3194 205.796C33.4521 205.81 33.5736 205.877 33.6571 205.981C33.7406 206.085 33.7793 206.218 33.7647 206.351C33.6243 207.56 33.5542 208.776 33.5546 209.994C33.5548 211.406 33.6451 212.816 33.8248 214.217C33.8418 214.348 33.8061 214.481 33.7254 214.586C33.6448 214.691 33.5258 214.76 33.3945 214.777H33.3344ZM35.1858 199.046H35.0056C34.9445 199.021 34.8887 198.985 34.8415 198.939C34.7944 198.894 34.7567 198.839 34.7306 198.778C34.7046 198.718 34.6908 198.653 34.6899 198.587C34.689 198.522 34.7011 198.456 34.7254 198.395C35.1457 197.334 36.1765 194.863 36.7269 194.863C36.8596 194.863 36.9869 194.915 37.0807 195.009C37.1745 195.103 37.2273 195.23 37.2273 195.363C37.228 195.464 37.1964 195.562 37.1372 195.643C36.5516 196.637 36.0496 197.678 35.6361 198.755C35.5953 198.841 35.5316 198.913 35.4521 198.964C35.3726 199.016 35.2804 199.044 35.1858 199.046Z" fill="#40A9FF"/>
</g>
<g opacity="0.53">
<path d="M52.3182 187.767L47.955 181.062L39.9692 181.503L36.3466 188.628L40.7198 195.333L48.7056 194.903L52.3182 187.767Z" fill="#40A9FF"/>
</g>
<g opacity="0.51">
<path d="M236.653 84.732L233.381 79.7084L227.386 80.0286L224.674 85.3825L227.947 90.4062L233.941 90.076L236.653 84.732Z" fill="#FA8C16"/>
</g>
<g opacity="0.51">
<path d="M56.3512 35.496L53.0788 30.4723L47.0844 30.8025L44.3724 36.1464L47.6548 41.1701L53.6392 40.8499L56.3512 35.496Z" fill="#FA8C16"/>
</g>
<g opacity="0.51">
<path d="M19.254 0L16.3919 1.51111L16.2618 4.74347L18.9938 6.47474L21.8659 4.97364L21.996 1.73127L19.254 0Z" fill="#FA8C16"/>
</g>
<g opacity="0.2">
<path d="M44.4826 307.295L37.5775 296.707L24.9483 297.388L19.2241 308.666L26.1292 319.254L38.7584 318.573L44.4826 307.295Z" fill="#40A9FF"/>
</g>
<g opacity="0.2">
<path d="M260.12 10.7178L249.312 8.00586L241.557 16.0117L244.609 26.7296L255.427 29.4415L263.183 21.4357L260.12 10.7178Z" fill="#40A9FF"/>
</g>
<g opacity="0.2">
<path d="M293.004 155.854L283.387 160.337L282.467 170.905L291.153 176.989L300.77 172.506L301.691 161.928L293.004 155.854Z" fill="#FA8C16"/>
</g>
<g opacity="0.41">
<path d="M15.9717 49.9166L11.6085 43.2117L3.62265 43.642L0 50.7772L4.3732 57.4821L12.359 57.0418L15.9717 49.9166Z" fill="#40A9FF"/>
</g>
<path d="M159.377 144.366C177.063 144.366 191.4 126.35 191.4 104.126C191.4 81.9025 177.063 63.8867 159.377 63.8867C141.691 63.8867 127.353 81.9025 127.353 104.126C127.353 126.35 141.691 144.366 159.377 144.366Z" fill="#EFBFA9"/>
<path d="M192.801 82.4804L191.39 104.116C190.44 103.354 189.668 102.393 189.131 101.3C188.593 100.207 188.302 99.0094 188.278 97.7916C188.278 92.7078 188.988 82.0901 184.275 82.0901C183.63 82.1083 182.996 82.2618 182.413 82.5404C180.802 83.9601 178.814 84.8845 176.69 85.2025C174.566 85.5205 172.395 85.2187 170.438 84.3332C168.481 83.4478 166.821 82.0163 165.658 80.2107C164.495 78.4052 163.877 76.3022 163.88 74.1543C163.878 73.3906 163.959 72.6291 164.12 71.8826C156.212 74.4527 147.842 75.2856 139.582 74.3244C139.582 74.3244 134.879 74.4245 133.768 82.8907C133.107 87.8943 132.217 91.3969 131.546 97.5714C131.186 100.924 127.323 104.116 127.323 104.116C127.323 104.116 123.32 81.3996 125.912 71.2221C128.214 62.2155 123.981 65.5079 123.02 62.5458C122.019 59.3334 123.791 58.3327 125.412 58.5428C126.753 58.683 128.034 59.2133 128.414 58.813C129.305 57.9224 126.082 53.4791 128.204 50.4769C131.686 45.5433 135.509 51.2275 134.428 54.1196C134.428 54.1196 134.428 54.0496 134.478 54.0195C134.859 53.3991 136.95 50.4469 143.485 48.2553L144.105 48.0352L145.106 47.7449L145.717 47.5748C148.701 46.7954 151.748 46.2797 154.823 46.0337C155.734 45.9636 156.695 45.9036 157.685 45.8536H161.878C164.16 36.7869 168.183 30.062 177.96 30.062C180.711 30.062 183.436 30.605 185.976 31.66C188.517 32.715 190.825 34.2611 192.767 36.2098C194.709 38.1584 196.248 40.4713 197.294 43.0157C198.341 45.5602 198.875 48.2861 198.865 51.0374C198.86 52.212 198.753 53.3839 198.545 54.5399C201.627 57.5421 204.74 61.6651 204.74 66.2785C204.74 74.7747 201.147 81.7698 192.801 82.4804Z" fill="#3D1A02"/>
<path d="M195.473 97.2211H195.423C194.911 97.0821 194.374 97.0688 193.856 97.1821C193.338 97.2954 192.855 97.5321 192.449 97.8721C192.042 98.212 191.723 98.6451 191.52 99.1346C191.316 99.6241 191.234 100.156 191.28 100.684C191.36 101.818 191.4 102.969 191.4 104.136C191.399 107.31 191.097 110.476 190.499 113.593C193.502 114.284 196.964 111.512 198.375 107.188C199.846 102.685 198.545 98.2318 195.473 97.2211Z" fill="#EFBFA9"/>
<path d="M145.026 109.47C146.806 109.47 148.248 106.683 148.248 103.246C148.248 99.8078 146.806 97.021 145.026 97.021C143.246 97.021 141.804 99.8078 141.804 103.246C141.804 106.683 143.246 109.47 145.026 109.47Z" fill="#010002"/>
<path d="M175.058 109.47C176.838 109.47 178.28 106.683 178.28 103.246C178.28 99.8078 176.838 97.021 175.058 97.021C173.278 97.021 171.836 99.8078 171.836 103.246C171.836 106.683 173.278 109.47 175.058 109.47Z" fill="#010002"/>
<path d="M149.7 89.2853C149.599 88.4047 146.397 87.1037 142.364 87.5441C138.331 87.9844 137.441 90.9465 138.291 91.2167C139.642 91.6471 139.032 91.2167 143.065 90.8164C147.098 90.4162 149.79 90.176 149.7 89.2853Z" fill="#460000"/>
<path d="M169.064 89.2853C169.154 88.4047 172.356 87.1037 176.389 87.5441C180.422 87.9844 181.313 90.9465 180.472 91.2167C179.111 91.6471 179.732 91.2167 175.689 90.8164C171.646 90.4162 168.964 90.176 169.064 89.2853Z" fill="#460000"/>
<path d="M160.047 119.087C156.284 118.537 154.143 117.256 153.692 115.294C153.102 112.723 155.694 109.93 157.025 109.06C158.846 107.819 158.876 104.156 158.876 104.126H159.877C159.877 104.296 159.877 108.349 157.585 109.89C156.384 110.701 154.223 113.133 154.673 115.074C155.013 116.565 156.925 117.616 160.187 118.076L160.047 119.087Z" fill="#E8937F"/>
<path d="M166.642 132.807C164.334 133.752 161.87 134.261 159.377 134.308C157.415 134.291 155.465 134.002 153.582 133.448C149.579 132.277 146.237 129.945 147.148 126.863C147.26 126.449 147.446 126.059 147.698 125.712C149.609 123.1 154.703 125.082 159.377 125.082C164.05 125.082 168.964 123.15 171.015 125.762C171.267 126.096 171.467 126.468 171.606 126.863C172.466 129.245 169.984 131.416 166.642 132.807Z" fill="#E38156"/>
<path d="M166.642 132.807C164.334 133.752 161.87 134.261 159.377 134.308C157.415 134.291 155.465 134.002 153.582 133.448C153.572 133.351 153.572 133.254 153.582 133.157C153.582 131.316 156.524 129.825 160.147 129.825C163.51 129.825 166.292 131.096 166.642 132.807Z" fill="#E39978"/>
<path d="M171.015 125.762C167.268 126.936 163.352 127.484 159.427 127.383C155.451 127.492 151.485 126.927 147.698 125.712C149.609 123.1 154.703 125.082 159.377 125.082C164.05 125.082 168.964 123.15 171.015 125.762Z" fill="#E6FCFF"/>
<g opacity="0.1">
<path d="M176.389 65.4479C176.389 65.4479 164.12 63.2262 160.708 55.1003C157.295 46.9743 145.026 47.7749 145.026 47.7749C149.155 46.6584 153.4 46.0271 157.675 45.8936H161.868C161.868 45.8936 159.707 57.0417 176.389 65.4479Z" fill="black"/>
</g>
<g opacity="0.1">
<path d="M198.545 54.4999C188.618 51.7679 185.616 55.1004 182.063 58.4328C182.063 58.4328 185.156 52.7686 190.499 52.3183C195.843 51.868 198.545 54.4999 198.545 54.4999Z" fill="black"/>
</g>
<g opacity="0.1">
<path d="M192.811 82.4903C190.532 82.2099 188.357 81.3694 186.482 80.0441C184.607 78.7187 183.089 76.9496 182.063 74.8948C182.063 74.8948 183.614 81.4596 192.681 84.5719L192.811 82.4903Z" fill="black"/>
</g>
<g opacity="0.1">
<path d="M175.128 85.3324C172.166 85.3324 169.326 84.1558 167.231 82.0613C165.137 79.9669 163.96 77.1262 163.96 74.1642C163.959 73.4006 164.039 72.639 164.2 71.8926C156.292 74.4627 147.922 75.2956 139.662 74.3344C144.035 78.1071 158.876 75.135 161.758 75.4452C163.76 75.6753 162.039 80.8091 166.372 83.6812C174.378 88.9651 179.752 84.3217 179.752 84.3217C178.302 84.9898 176.724 85.3347 175.128 85.3324Z" fill="black"/>
</g>
<g opacity="0.1">
<path d="M161.688 45.8835C157.413 46.017 153.168 46.6484 149.039 47.7649C140.793 50.1166 140.473 53.5992 138.481 54.0795C136.49 54.5599 135.029 55.1703 134.478 54.0795C134.478 54.0795 134.478 54.0095 134.528 53.9795C134.909 53.359 137 50.4068 143.535 48.2152L144.105 48.0351L145.106 47.7449L145.717 47.5748C148.699 46.785 151.747 46.2691 154.823 46.0336C155.734 45.9636 156.695 45.9036 157.685 45.8535L161.688 45.8835Z" fill="black"/>
</g>
<g opacity="0.1">
<path d="M129.945 71.2321C132.247 62.2255 127.093 65.518 126.132 62.5558C125.492 60.5543 125.932 59.2634 126.733 58.723C126.152 58.6429 126.272 58.5829 125.442 58.5028C123.821 58.3427 122.009 59.3434 123.05 62.5058C124.051 65.5079 128.244 62.1355 125.942 71.1821C123.36 81.3595 127.353 104.076 127.353 104.076C128.691 102.937 129.83 101.585 130.726 100.073C129.715 93.0681 128.094 78.7476 129.945 71.2321Z" fill="black"/>
</g>
<g opacity="0.1">
<path d="M180.012 30.1921C179.347 30.1251 178.679 30.0917 178.01 30.092C168.233 30.092 164.21 36.817 161.928 45.8836H165.931C168.003 37.4474 171.646 31.0227 180.012 30.1921Z" fill="black"/>
</g>
<g opacity="0.1">
<path d="M128.594 58.5328C128.876 58.4924 129.163 58.4924 129.445 58.5328C130.786 58.6729 130.726 58.9131 131.126 58.5328C132.017 57.6422 128.794 53.1989 130.916 50.1967C131.206 49.7764 131.616 49.196 133.157 49.4462C131.897 48.2153 130.035 47.9651 128.254 50.4469C126.282 53.2289 128.934 57.2619 128.594 58.5328Z" fill="black"/>
</g>
<g opacity="0.1">
<path d="M143.615 74.3344C143.271 74.3643 142.934 74.4452 142.614 74.5745C144.616 74.6946 146.447 74.7146 148.218 74.6546C146.717 74.6045 145.186 74.5045 143.615 74.3344Z" fill="black"/>
</g>
<g opacity="0.1">
<path d="M167.913 74.1642C167.911 73.4006 167.992 72.639 168.153 71.8926C166.783 72.3719 165.386 72.7729 163.97 73.0935C163.93 73.449 163.91 73.8065 163.91 74.1642C163.901 75.8058 164.255 77.4291 164.947 78.9179C165.639 80.4066 166.651 81.7241 167.911 82.776C169.171 83.8279 170.649 84.5881 172.237 85.0024C173.826 85.4167 175.486 85.4747 177.1 85.1723C174.519 84.7091 172.184 83.352 170.504 81.3391C168.824 79.3262 167.907 76.786 167.913 74.1642Z" fill="black"/>
</g>
<path d="M127.353 104.126C127.353 102.952 127.393 101.801 127.473 100.674C127.519 100.145 127.437 99.6141 127.233 99.1246C127.03 98.6351 126.711 98.202 126.305 97.8621C125.898 97.5221 125.415 97.2854 124.897 97.1721C124.379 97.0587 123.842 97.0721 123.33 97.2111C120.258 98.2118 118.957 102.675 120.428 107.168C121.839 111.492 125.302 114.264 128.304 113.573C127.69 110.461 127.372 107.298 127.353 104.126Z" fill="#EFBFA9"/>
<g opacity="0.1">
<path d="M155.584 336.606C147.758 338.408 140.413 340.079 134.328 341.46L126.733 339.679H126.573L115.204 336.977L113.083 336.456C107.729 335.165 102.855 333.964 98.7422 332.914C94.2689 331.773 90.7364 330.812 88.4547 330.122C86.8268 329.615 85.229 329.051 83.6612 328.43C81.9676 327.73 80.1317 327.441 78.3048 327.589C76.4779 327.737 74.7123 328.317 73.1535 329.281C67.2892 333.034 63.4464 340.589 63.4464 340.589C62.807 336.96 63.5381 333.222 65.4981 330.101C67.458 326.98 70.5071 324.697 74.0542 323.697L74.3744 323.607L83.3209 321.055L87.3239 319.914L88.5047 320.294C90.7164 320.975 94.1789 321.906 98.5121 323.026C112.472 326.609 135.639 332.023 155.584 336.606Z" fill="black"/>
</g>
<path d="M183.244 286.4C189.939 284.448 196.654 282.477 203.419 280.735C206.801 279.895 210.204 279.094 213.606 278.294C217.009 277.493 220.431 276.772 223.934 276.292C227.47 275.772 231.077 276.015 234.512 277.003C237.883 278.271 240.785 280.541 242.828 283.507L244.309 285.709C244.769 286.46 245.169 287.24 245.6 288.001C246.476 289.535 247.149 291.176 247.601 292.884C248.506 296.326 248.152 299.978 246.6 303.182C247.257 301.568 247.642 299.857 247.741 298.118C247.821 296.393 247.604 294.667 247.101 293.014C246.607 291.361 245.897 289.779 244.989 288.311C244.539 287.57 244.129 286.81 243.658 286.079L242.177 284.008C240.173 281.227 237.386 279.105 234.171 277.913C230.867 276.991 227.403 276.789 224.014 277.323C217.139 278.183 210.374 280.035 203.549 281.486C201.838 281.836 200.147 282.266 198.455 282.697L193.382 283.958C190.029 284.768 186.647 285.619 183.244 286.4Z" fill="#FFD591"/>
<path d="M159.377 265.364C163.798 265.364 167.382 261.78 167.382 257.358C167.382 252.937 163.798 249.352 159.377 249.352C154.955 249.352 151.371 252.937 151.371 257.358C151.371 261.78 154.955 265.364 159.377 265.364Z" fill="#CDE0E3"/>
<path d="M157.485 262.792C159.657 262.792 161.418 261.031 161.418 258.859C161.418 256.687 159.657 254.927 157.485 254.927C155.313 254.927 153.552 256.687 153.552 258.859C153.552 261.031 155.313 262.792 157.485 262.792Z" fill="#B1C2C4"/>
<path d="M161.408 257.448C162.801 257.448 163.93 256.319 163.93 254.927C163.93 253.534 162.801 252.405 161.408 252.405C160.015 252.405 158.886 253.534 158.886 254.927C158.886 256.319 160.015 257.448 161.408 257.448Z" fill="#B1C2C4"/>
<path d="M246.32 135.269C246.098 135.27 245.878 135.222 245.677 135.126C245.476 135.031 245.299 134.892 245.159 134.719L238.785 126.863C238.534 126.554 238.416 126.157 238.457 125.761C238.499 125.365 238.696 125.002 239.005 124.751C239.314 124.5 239.71 124.383 240.106 124.424C240.502 124.465 240.866 124.662 241.116 124.971L246.19 131.216L257.198 114.134C257.299 113.957 257.435 113.802 257.598 113.679C257.76 113.556 257.946 113.468 258.144 113.419C258.342 113.371 258.548 113.363 258.749 113.397C258.95 113.43 259.142 113.504 259.314 113.615C259.485 113.725 259.632 113.869 259.746 114.038C259.86 114.207 259.939 114.397 259.977 114.597C260.015 114.798 260.012 115.003 259.967 115.202C259.923 115.401 259.839 115.589 259.72 115.755L247.581 134.589C247.453 134.788 247.278 134.953 247.073 135.072C246.868 135.19 246.637 135.258 246.4 135.269H246.32Z" fill="#40A9FF"/>
<path d="M246.32 165.451C246.097 165.45 245.877 165.4 245.676 165.303C245.475 165.206 245.299 165.065 245.159 164.891L238.785 157.035C238.66 156.882 238.568 156.706 238.512 156.517C238.455 156.328 238.437 156.13 238.457 155.934C238.478 155.737 238.537 155.547 238.631 155.374C238.725 155.201 238.852 155.048 239.005 154.923C239.158 154.799 239.334 154.706 239.523 154.65C239.712 154.594 239.91 154.576 240.106 154.596C240.302 154.617 240.492 154.675 240.666 154.769C240.839 154.863 240.992 154.99 241.116 155.144L246.19 161.398L257.198 144.306C257.305 144.14 257.444 143.997 257.606 143.885C257.769 143.773 257.951 143.694 258.144 143.653C258.337 143.612 258.536 143.609 258.73 143.644C258.924 143.68 259.109 143.753 259.275 143.86C259.44 143.967 259.583 144.106 259.695 144.268C259.807 144.431 259.886 144.613 259.927 144.806C259.969 144.999 259.972 145.198 259.936 145.392C259.901 145.586 259.827 145.771 259.72 145.937L247.581 164.761C247.453 164.96 247.278 165.125 247.073 165.244C246.868 165.362 246.637 165.43 246.4 165.441L246.32 165.451Z" fill="#40A9FF"/>
</g>
<defs>
<clipPath id="clip0_2777_9105">
<rect width="328" height="352.878" fill="white"/>
</clipPath>
</defs>
</svg>
