<svg width="76" height="91" viewBox="0 0 76 91" fill="none" xmlns="http://www.w3.org/2000/svg">
<g clip-path="url(#clip0_193_1359)">
<path d="M62.1177 60.9476V84.3274C62.1177 85.7839 61.5391 87.1807 60.5092 88.2107C59.4793 89.2406 58.0824 89.8192 56.6259 89.8192H6.54602C5.0895 89.8192 3.69263 89.2406 2.66272 88.2107C1.6328 87.1807 1.0542 85.7839 1.0542 84.3274V20.9132" stroke="white" stroke-width="2" stroke-linecap="round" stroke-linejoin="round"/>
<path d="M1.0542 10.6358V6.54589C1.05699 5.09023 1.63648 3.69498 2.66579 2.66567C3.6951 1.63636 5.09035 1.05686 6.54602 1.05408H56.6259C58.0824 1.05408 59.4793 1.63268 60.5092 2.66259C61.5391 3.69251 62.1177 5.08937 62.1177 6.54589V34.2896" stroke="white" stroke-width="2" stroke-linecap="round" stroke-linejoin="round"/>
<path d="M19.5534 11.4474H11.964C10.4271 11.4474 9.18115 12.6933 9.18115 14.2302V21.8196C9.18115 23.3565 10.4271 24.6025 11.964 24.6025H19.5534C21.0903 24.6025 22.3362 23.3565 22.3362 21.8196V14.2302C22.3362 12.6933 21.0903 11.4474 19.5534 11.4474Z" stroke="white" stroke-width="2" stroke-linecap="round" stroke-linejoin="round"/>
<path d="M51.7139 15.0419H55.5297" stroke="white" stroke-width="2" stroke-linecap="round" stroke-linejoin="round"/>
<path d="M28.7769 15.0419H45.8531" stroke="white" stroke-width="2" stroke-linecap="round" stroke-linejoin="round"/>
<path d="M28.7769 21.0186H55.5297" stroke="white" stroke-width="2" stroke-linecap="round" stroke-linejoin="round"/>
<path d="M12.47 17.8353L14.789 20.9132L19.058 15.1473" stroke="white" stroke-width="2" stroke-linecap="round" stroke-linejoin="round"/>
<path d="M19.5534 38.8644H11.964C10.4271 38.8644 9.18115 40.1103 9.18115 41.6472V49.2366C9.18115 50.7735 10.4271 52.0194 11.964 52.0194H19.5534C21.0903 52.0194 22.3362 50.7735 22.3362 49.2366V41.6472C22.3362 40.1103 21.0903 38.8644 19.5534 38.8644Z" stroke="white" stroke-width="2" stroke-linecap="round" stroke-linejoin="round"/>
<path d="M28.7769 42.4587H55.5297" stroke="white" stroke-width="2" stroke-linecap="round" stroke-linejoin="round"/>
<path d="M28.7769 48.4355H55.5297" stroke="white" stroke-width="2" stroke-linecap="round" stroke-linejoin="round"/>
<path d="M12.47 45.2521L14.789 48.3301L19.058 42.5642" stroke="white" stroke-width="2" stroke-linecap="round" stroke-linejoin="round"/>
<path d="M9.18115 69.0746C9.18115 68.3337 9.47545 67.6233 9.9993 67.0994C10.5232 66.5755 11.2337 66.2813 11.9745 66.2812H19.5534C20.2943 66.2813 21.0048 66.5755 21.5286 67.0994C22.0525 67.6233 22.3468 68.3337 22.3468 69.0746V76.6535C22.3468 77.3944 22.0525 78.1048 21.5286 78.6287C21.0048 79.1526 20.2943 79.4469 19.5534 79.4469H11.9745C11.2337 79.4469 10.5232 79.1526 9.9993 78.6287C9.47545 78.1048 9.18115 77.3944 9.18115 76.6535V72.8693" stroke="white" stroke-width="2" stroke-linecap="round" stroke-linejoin="round"/>
<path d="M28.7769 69.8757H45.8531" stroke="white" stroke-width="2" stroke-linecap="round" stroke-linejoin="round"/>
<path d="M46.064 75.8629H28.7769" stroke="white" stroke-width="2" stroke-linecap="round" stroke-linejoin="round"/>
<path d="M12.47 72.669L14.789 75.747L19.058 69.9811" stroke="white" stroke-width="2" stroke-linecap="round" stroke-linejoin="round"/>
<path d="M67.325 47.4974L53.8116 82.4616L44.8518 78.9936L62.666 32.8982L71.6257 36.3556L69.623 41.5523" stroke="white" stroke-width="2" stroke-linecap="round" stroke-linejoin="round"/>
<path d="M73.2596 32.1245L64.3025 28.6628L62.661 32.9104L71.6181 36.372L73.2596 32.1245Z" stroke="white" stroke-width="2" stroke-linecap="round" stroke-linejoin="round"/>
<path d="M68.8755 23.3597L73.4376 25.1229C73.7261 25.2328 73.99 25.3986 74.2144 25.6106C74.4388 25.8225 74.6192 26.0767 74.7454 26.3584C74.8716 26.6401 74.9411 26.9439 74.9498 27.2525C74.9586 27.5611 74.9065 27.8683 74.7965 28.1568L73.2765 32.0897L64.3096 28.6242L65.8295 24.6913C65.9421 24.4039 66.1102 24.1414 66.3242 23.9189C66.5382 23.6965 66.7939 23.5183 67.0767 23.3947C67.3596 23.271 67.664 23.2043 67.9726 23.1983C68.2813 23.1923 68.5881 23.2472 68.8755 23.3597Z" stroke="white" stroke-width="2" stroke-linecap="round" stroke-linejoin="round"/>
<path d="M58.1648 57.8801L49.3315 80.7328" stroke="white" stroke-width="2" stroke-linecap="round" stroke-linejoin="round"/>
<path d="M67.1457 34.6268L61.1584 50.122" stroke="white" stroke-width="2" stroke-linecap="round" stroke-linejoin="round"/>
<path d="M44.8518 78.9937L46.1483 88.9759L53.8116 82.4616L44.8518 78.9937Z" stroke="white" stroke-width="2" stroke-linecap="round" stroke-linejoin="round"/>
</g>
<defs>
<clipPath id="clip0_193_1359">
<rect width="76" height="90.8943" fill="white"/>
</clipPath>
</defs>
</svg>
