<svg width="2511" height="2363" viewBox="0 0 2511 2363" fill="none" xmlns="http://www.w3.org/2000/svg">
<path d="M1977.36 1834.37C1977.5 1833.85 1977.9 1833.44 1978.41 1833.29L2217.49 1766.36C2218.01 1766.22 2218.56 1766.36 2218.94 1766.73L2396.45 1940.32C2396.83 1940.69 2396.99 1941.24 2396.85 1941.76L2335.28 2182.27C2335.15 2182.79 2334.75 2183.2 2334.23 2183.35L2095.15 2250.28C2094.63 2250.42 2094.08 2250.28 2093.7 2249.91L1916.19 2076.32C1915.81 2075.95 1915.66 2075.4 1915.79 2074.88L1977.36 1834.37Z" stroke="#D9D9D9"/>
<path d="M175.395 814.398C175.528 813.879 175.928 813.47 176.444 813.326L415.522 746.394C416.038 746.249 416.592 746.391 416.975 746.766L594.479 920.348C594.863 920.723 595.017 921.273 594.884 921.792L533.309 1162.31C533.176 1162.83 532.777 1163.23 532.261 1163.38L293.182 1230.31C292.666 1230.46 292.112 1230.31 291.729 1229.94L114.225 1056.36C113.842 1055.98 113.687 1055.43 113.82 1054.91L175.395 814.398Z" stroke="#D9D9D9"/>
<path d="M2146.68 862.859C2146.81 862.34 2147.21 861.931 2147.73 861.787L2275.64 825.978C2276.15 825.833 2276.71 825.975 2277.09 826.35L2372.05 919.217C2372.44 919.592 2372.59 920.142 2372.46 920.661L2339.52 1049.34C2339.38 1049.86 2338.98 1050.27 2338.47 1050.41L2210.56 1086.22C2210.04 1086.36 2209.49 1086.22 2209.11 1085.85L2114.14 992.979C2113.76 992.605 2113.6 992.054 2113.74 991.535L2146.68 862.859Z" stroke="#D9D9D9"/>
<path d="M461.777 519.981C461.954 519.289 462.487 518.744 463.175 518.551L569.853 488.676C570.541 488.484 571.279 488.673 571.79 489.172L651.001 566.62C651.512 567.12 651.718 567.854 651.541 568.546L624.074 675.869C623.897 676.562 623.364 677.107 622.676 677.299L515.998 707.174C515.31 707.367 514.571 707.178 514.06 706.678L434.849 629.23C434.338 628.73 434.133 627.996 434.31 627.304L461.777 519.981Z" fill="url(#paint0_radial_982_4813)" fill-opacity="0.3"/>
<path d="M2163.78 875.981C2163.95 875.289 2164.49 874.744 2165.17 874.551L2271.85 844.676C2272.54 844.484 2273.28 844.673 2273.79 845.172L2353 922.62C2353.51 923.12 2353.72 923.854 2353.54 924.546L2326.07 1031.87C2325.9 1032.56 2325.36 1033.11 2324.68 1033.3L2218 1063.17C2217.31 1063.37 2216.57 1063.18 2216.06 1062.68L2136.85 985.23C2136.34 984.73 2136.13 983.996 2136.31 983.304L2163.78 875.981Z" fill="url(#paint1_radial_982_4813)" fill-opacity="0.3"/>
<path d="M1965.78 1465.98C1965.95 1465.29 1966.49 1464.74 1967.17 1464.55L2073.85 1434.68C2074.54 1434.48 2075.28 1434.67 2075.79 1435.17L2155 1512.62C2155.51 1513.12 2155.72 1513.85 2155.54 1514.55L2128.07 1621.87C2127.9 1622.56 2127.36 1623.11 2126.68 1623.3L2020 1653.17C2019.31 1653.37 2018.57 1653.18 2018.06 1652.68L1938.85 1575.23C1938.34 1574.73 1938.13 1574 1938.31 1573.3L1965.78 1465.98Z" fill="url(#paint2_radial_982_4813)" fill-opacity="0.3"/>
<path d="M1988.54 363.2C1988.72 362.508 1989.25 361.963 1989.94 361.77L2184.46 307.298C2185.14 307.105 2185.88 307.294 2186.39 307.794L2330.82 449.01C2331.33 449.51 2331.54 450.244 2331.36 450.936L2281.28 646.625C2281.1 647.317 2280.57 647.862 2279.88 648.055L2085.37 702.527C2084.68 702.72 2083.94 702.531 2083.43 702.032L1939 560.815C1938.49 560.316 1938.29 559.581 1938.46 558.889L1988.54 363.2Z" fill="url(#paint3_radial_982_4813)" fill-opacity="0.3"/>
<path d="M273.545 1900.2C273.722 1899.51 274.255 1898.96 274.943 1898.77L469.455 1844.3C470.143 1844.11 470.882 1844.29 471.393 1844.79L615.823 1986.01C616.334 1986.51 616.54 1987.24 616.363 1987.94L566.281 2183.63C566.104 2184.32 565.571 2184.86 564.883 2185.06L370.37 2239.53C369.682 2239.72 368.944 2239.53 368.433 2239.03L224.002 2097.82C223.491 2097.32 223.286 2096.58 223.463 2095.89L273.545 1900.2Z" fill="url(#paint4_radial_982_4813)" fill-opacity="0.3"/>
<path d="M2014.54 1866.2C2014.72 1865.51 2015.25 1864.96 2015.94 1864.77L2210.46 1810.3C2211.14 1810.11 2211.88 1810.29 2212.39 1810.79L2356.82 1952.01C2357.33 1952.51 2357.54 1953.24 2357.36 1953.94L2307.28 2149.63C2307.1 2150.32 2306.57 2150.86 2305.88 2151.06L2111.37 2205.53C2110.68 2205.72 2109.94 2205.53 2109.43 2205.03L1965 2063.82C1964.49 2063.32 1964.29 2062.58 1964.46 2061.89L2014.54 1866.2Z" fill="url(#paint5_radial_982_4813)" fill-opacity="0.3"/>
<path d="M201.545 850.2C201.722 849.508 202.255 848.963 202.943 848.77L397.455 794.298C398.143 794.105 398.882 794.294 399.393 794.794L543.823 936.01C544.334 936.51 544.54 937.244 544.363 937.936L494.281 1133.63C494.104 1134.32 493.571 1134.86 492.883 1135.06L298.37 1189.53C297.682 1189.72 296.944 1189.53 296.433 1189.03L152.002 1047.82C151.491 1047.32 151.286 1046.58 151.463 1045.89L201.545 850.2Z" fill="url(#paint6_radial_982_4813)" fill-opacity="0.3"/>
<path opacity="0.5" d="M1987.5 334.577C1988.12 334.22 1988.88 334.22 1989.5 334.577L2026.04 355.673C2026.66 356.03 2027.04 356.69 2027.04 357.405V399.595C2027.04 400.31 2026.66 400.97 2026.04 401.327L1989.5 422.423C1988.88 422.78 1988.12 422.78 1987.5 422.423L1950.96 401.327C1950.34 400.97 1949.96 400.31 1949.96 399.595V357.405C1949.96 356.69 1950.34 356.03 1950.96 355.673L1987.5 334.577Z" fill="url(#paint7_linear_982_4813)"/>
<path d="M292.545 147.2C292.722 146.508 293.255 145.963 293.943 145.77L488.455 91.2981C489.143 91.1054 489.882 91.2945 490.393 91.794L634.823 233.01C635.334 233.51 635.54 234.244 635.363 234.936L585.281 430.625C585.104 431.317 584.571 431.862 583.883 432.055L389.37 486.527C388.682 486.72 387.944 486.531 387.433 486.032L243.002 344.815C242.491 344.316 242.286 343.581 242.463 342.889L292.545 147.2Z" fill="url(#paint8_radial_982_4813)" fill-opacity="0.3"/>
<path opacity="0.5" d="M515.669 36.2869C516.38 36.3528 517.002 36.7933 517.301 37.4424L542.253 91.6676C542.552 92.3167 542.481 93.0758 542.069 93.6591L507.584 142.381C507.171 142.964 506.479 143.283 505.767 143.217L446.331 137.713C445.619 137.647 444.997 137.207 444.698 136.558L419.747 82.3323C419.448 81.6832 419.518 80.924 419.931 80.3408L454.415 31.6193C454.828 31.0361 455.521 30.7174 456.232 30.7832L515.669 36.2869Z" fill="url(#paint9_linear_982_4813)"/>
<path opacity="0.5" d="M1993.09 1581.71C1993.81 1581.78 1994.43 1582.22 1994.73 1582.87L2019.68 1637.09C2019.98 1637.74 2019.91 1638.5 2019.49 1639.08L1985.01 1687.81C1984.6 1688.39 1983.9 1688.71 1983.19 1688.64L1923.76 1683.14C1923.05 1683.07 1922.42 1682.63 1922.12 1681.98L1897.17 1627.76C1896.87 1627.11 1896.94 1626.35 1897.36 1625.77L1931.84 1577.04C1932.25 1576.46 1932.95 1576.14 1933.66 1576.21L1993.09 1581.71Z" fill="url(#paint10_linear_982_4813)"/>
<defs>
<radialGradient id="paint0_radial_982_4813" cx="0" cy="0" r="1" gradientUnits="userSpaceOnUse" gradientTransform="translate(542.925 597.925) rotate(44.3553) scale(113.091)">
<stop stop-color="#D9D9D9" stop-opacity="0"/>
<stop offset="0.744792" stop-color="#D9D9D9" stop-opacity="0.4"/>
<stop offset="1" stop-color="#D9D9D9"/>
</radialGradient>
<radialGradient id="paint1_radial_982_4813" cx="0" cy="0" r="1" gradientUnits="userSpaceOnUse" gradientTransform="translate(2244.93 953.925) rotate(44.3553) scale(113.091)">
<stop stop-color="#D9D9D9" stop-opacity="0"/>
<stop offset="0.744792" stop-color="#D9D9D9" stop-opacity="0.4"/>
<stop offset="1" stop-color="#D9D9D9"/>
</radialGradient>
<radialGradient id="paint2_radial_982_4813" cx="0" cy="0" r="1" gradientUnits="userSpaceOnUse" gradientTransform="translate(2046.93 1543.93) rotate(44.3553) scale(113.091)">
<stop stop-color="#D9D9D9" stop-opacity="0"/>
<stop offset="0.744792" stop-color="#D9D9D9" stop-opacity="0.4"/>
<stop offset="1" stop-color="#D9D9D9"/>
</radialGradient>
<radialGradient id="paint3_radial_982_4813" cx="0" cy="0" r="1" gradientUnits="userSpaceOnUse" gradientTransform="translate(2134.91 504.913) rotate(44.3553) scale(204.305)">
<stop stop-color="#D9D9D9" stop-opacity="0"/>
<stop offset="0.744792" stop-color="#D9D9D9" stop-opacity="0.4"/>
<stop offset="1" stop-color="#D9D9D9"/>
</radialGradient>
<radialGradient id="paint4_radial_982_4813" cx="0" cy="0" r="1" gradientUnits="userSpaceOnUse" gradientTransform="translate(419.913 2041.91) rotate(44.3553) scale(204.305)">
<stop stop-color="#D9D9D9" stop-opacity="0"/>
<stop offset="0.744792" stop-color="#D9D9D9" stop-opacity="0.4"/>
<stop offset="1" stop-color="#D9D9D9"/>
</radialGradient>
<radialGradient id="paint5_radial_982_4813" cx="0" cy="0" r="1" gradientUnits="userSpaceOnUse" gradientTransform="translate(2160.91 2007.91) rotate(44.3553) scale(204.305)">
<stop stop-color="#D9D9D9" stop-opacity="0"/>
<stop offset="0.744792" stop-color="#D9D9D9" stop-opacity="0.4"/>
<stop offset="1" stop-color="#D9D9D9"/>
</radialGradient>
<radialGradient id="paint6_radial_982_4813" cx="0" cy="0" r="1" gradientUnits="userSpaceOnUse" gradientTransform="translate(347.913 991.913) rotate(44.3553) scale(204.305)">
<stop stop-color="#D9D9D9" stop-opacity="0"/>
<stop offset="0.744792" stop-color="#D9D9D9" stop-opacity="0.4"/>
<stop offset="1" stop-color="#D9D9D9"/>
</radialGradient>
<linearGradient id="paint7_linear_982_4813" x1="2016.52" y1="402.123" x2="1959.38" y2="348.009" gradientUnits="userSpaceOnUse">
<stop stop-color="#096DD9"/>
<stop offset="1" stop-color="#1890FF"/>
</linearGradient>
<radialGradient id="paint8_radial_982_4813" cx="0" cy="0" r="1" gradientUnits="userSpaceOnUse" gradientTransform="translate(438.913 288.913) rotate(44.3553) scale(204.305)">
<stop stop-color="#D9D9D9" stop-opacity="0"/>
<stop offset="0.744792" stop-color="#D9D9D9" stop-opacity="0.4"/>
<stop offset="1" stop-color="#D9D9D9"/>
</radialGradient>
<linearGradient id="paint9_linear_982_4813" x1="493.848" y1="136.418" x2="472.429" y2="28.8882" gradientUnits="userSpaceOnUse">
<stop stop-color="#0975D9"/>
<stop offset="1" stop-color="#18C8FF"/>
</linearGradient>
<linearGradient id="paint10_linear_982_4813" x1="1971.27" y1="1681.84" x2="1949.86" y2="1574.31" gradientUnits="userSpaceOnUse">
<stop stop-color="#0975D9"/>
<stop offset="1" stop-color="#18C8FF"/>
</linearGradient>
</defs>
</svg>
