<svg width="528" height="492" viewBox="0 0 528 492" fill="none" xmlns="http://www.w3.org/2000/svg">
<path d="M343.68 134.347H329.572C340.2 114.662 358.28 93.0678 387.565 88.1626C387.565 88.1626 388.086 88.0828 388.943 88.0828C392.026 88.0828 399.45 89.1079 402.607 98.5287C406.637 110.568 384.673 111.293 371.234 116.572C364.735 119.127 354.106 125.511 343.68 134.347Z" fill="#D9E5FC"/>
<path d="M320.06 134.347H314.459C316.123 115.25 323.105 88.4691 347.78 75.0916C347.78 75.0916 349.824 74.0218 352.658 74.0218C355.424 74.0218 358.942 75.0405 362.038 79.0739C368.304 87.2397 351.666 93.5724 342.765 101.154C336.714 106.308 326.415 119.395 320.06 134.347Z" fill="#D9E5FC"/>
<path d="M85.1956 134.548C92.1216 114.87 125.593 123.639 125.593 123.639C125.593 123.639 146.043 160.467 152.683 161.799C159.326 163.127 141.357 126.9 141.357 126.9C154.435 126.6 186.358 144.927 186.358 144.927C186.358 144.927 181.241 185.766 188.006 185.421C194.77 185.076 190.689 149.031 190.689 149.031C202.98 153.719 213.631 169.22 213.631 169.22C226.533 194.139 193.82 209.398 193.82 209.398C193.82 209.398 192.352 223.59 199.948 240.55C199.948 240.55 201.711 243.709 203.351 248.975L199.926 248.722C199.712 247.787 199.469 246.876 199.19 246.001L199.187 245.986L199.174 245.947C198.979 245.401 198.695 244.622 198.343 243.677V243.673L198.34 243.667C197.444 241.543 196.849 239.982 196.481 238.858L196.478 238.848C193.817 232.193 189.915 223.494 187.03 221.517C187.03 221.517 187.449 221.012 187.878 220C187.609 220.485 187.324 220.987 187.03 221.517C180.24 233.633 150.761 233.569 134.67 229.022C118.579 224.474 126.04 220.399 135.389 213.578C144.735 206.757 163.023 210.081 168.684 207.552C174.345 205.023 166.602 201.51 155.651 201.548C144.696 201.583 138.447 212.058 120.731 212.438C103.012 212.818 92.0417 178.788 92.0417 178.788C103.914 183.447 126.191 178.354 127.339 174.234C128.484 170.111 96.1964 168.16 91.2613 166.534C86.3268 164.909 78.2695 154.224 85.1956 134.548Z" fill="#CDE0FB"/>
<path d="M33.9004 443.835C21.7661 422.704 55.0723 399.858 55.0723 399.858C55.0723 399.858 103.284 409.914 109.53 405.066C115.774 400.222 69.9911 388.431 69.9911 388.431C79.7071 376.657 120.296 362.471 120.296 362.471C120.296 362.471 152.545 398.152 157.4 391.918C162.259 385.688 127.233 361.778 127.233 361.778C140.762 354.51 162.614 356.94 162.614 356.94C194.524 364.569 183.067 405.088 183.067 405.088C183.067 405.088 194.511 417.214 215.32 423.454C215.32 423.454 219.462 424.307 225.379 426.881L222.542 429.71C221.547 429.183 220.559 428.704 219.567 428.28L219.551 428.273L219.506 428.254C218.876 428.011 217.971 427.666 216.864 427.255H216.858L216.855 427.251C214.29 426.424 212.451 425.757 211.178 425.22L211.165 425.217C203.243 422.49 192.563 419.293 188.613 420.328C188.613 420.328 188.485 419.574 187.919 418.425C188.14 419.031 188.37 419.664 188.613 420.328C194.156 435.57 171.604 461.54 155.296 472.27C138.991 483.003 141.076 473.305 142.17 459.851C143.267 446.393 160.164 432.789 162.249 425.862C164.331 418.935 155.312 423.09 146.983 432.786C138.655 442.481 143.161 455.99 129.974 471.919C116.791 487.845 78.2919 471.555 78.2919 471.555C91.4756 464.634 103.968 441.086 101.195 436.928C98.4224 432.773 72.0515 459.777 66.8475 462.894C61.6437 466.011 46.0347 464.967 33.9004 443.835Z" fill="#AFCDFB"/>
<path d="M422.078 247.311C404.206 247.311 376.674 240.275 372.833 226.891C371.944 227.236 370.876 228.025 369.705 229.114V158.222C374.707 155.172 380.755 152.285 386.631 151.496C386.631 151.496 373.703 187.563 380.573 189.55C380.727 189.594 380.88 189.617 381.034 189.617C387.648 189.614 392.074 148.322 392.074 148.322C392.074 148.322 419.964 139.99 436.145 139.99C438.662 139.99 440.901 140.194 442.701 140.661C442.701 140.661 415.458 173.56 422.606 173.796C422.632 173.796 422.657 173.799 422.683 173.799C429.969 173.796 459.698 141.114 459.698 141.114C459.698 141.114 459.918 141.108 460.334 141.108C465.212 141.108 496.408 141.9 498.577 162.082C500.931 183.983 490.06 193.021 484.594 193.5C484.376 193.519 484.108 193.529 483.8 193.529C481.219 193.529 475.702 192.887 469.648 192.248C463.59 191.61 456.995 190.968 452.252 190.968C448.27 190.968 445.596 191.421 445.647 192.702C445.813 196.847 464.102 206.137 477.41 206.137C478.594 206.137 479.735 206.063 480.823 205.907C480.823 205.907 463.846 234.029 446.859 234.029C445.631 234.029 444.403 233.882 443.184 233.569C425.062 228.9 421.18 216.624 409.928 213.942C406.211 213.054 402.76 212.652 399.994 212.652C394.387 212.652 391.585 214.309 395.075 216.966C400.281 220.932 419.884 221.932 427.842 231.199C435.799 240.47 442.481 246.461 424.839 247.25C423.949 247.291 423.028 247.311 422.078 247.311ZM372.328 225.128C372.526 226.269 372.833 226.891 372.833 226.891C372.657 226.275 372.488 225.691 372.328 225.128Z" fill="#CDE0FB"/>
<path d="M485.393 442.162C477.49 442.162 471.858 439.291 469.545 436.359C464.917 430.499 446.939 389.364 440.885 389.364C440.632 389.364 440.399 389.434 440.191 389.584C434.965 393.311 439.209 427.242 451.865 441.542C451.865 441.542 450.828 441.584 449.021 441.584C442.02 441.584 423.45 440.996 408.719 435.267C411.639 433.52 414.754 431.827 416.008 428.65C416.008 428.65 421.573 410.105 405.36 409.559C405.274 409.556 405.188 409.556 405.105 409.556C403.624 409.556 402.053 409.984 400.425 410.766C398.913 409.393 396.651 408.486 393.36 408.374C393.277 408.374 393.194 408.371 393.111 408.371C391.412 408.371 389.557 408.949 387.597 409.994C387.712 408.429 387.638 406.889 387.437 405.098C392.154 403.105 395.087 398.551 395.087 398.551C395.087 398.551 389.183 394.93 386.602 394.221C387.411 382.577 390.635 373.428 387.152 363.784C383.132 352.645 377.359 344.811 374.212 344.811C373.006 344.811 372.184 345.967 372.001 348.535C371.403 356.892 382.806 377.267 381.481 393.394C380.013 393.212 379.131 393.148 379.115 393.148C380.413 394.09 379.825 395.179 378.27 395.569C378.187 395.591 378.12 395.604 378.085 395.61C377.893 395.648 377.685 395.668 377.461 395.668C375.488 395.668 372.408 394.269 369.705 392.797V278.961C375.788 271.239 384.593 265.315 397.31 265.315C399.127 265.315 401.03 265.437 403.01 265.689C403.01 265.689 430.333 272.715 443.248 287.59C443.248 287.59 390.319 300.335 393.303 310.024C393.741 311.445 395.298 312.052 397.643 312.052C411.249 312.052 451.254 291.575 451.254 291.575C451.254 291.575 493.469 327.062 499.754 345.603C499.754 345.603 477.529 343.141 461.246 343.141C450.71 343.141 442.657 344.172 444.732 347.573C450.01 356.228 512.436 366.096 512.436 366.096C512.436 366.096 541.963 408.659 517.764 428.484C505.182 438.796 493.955 442.162 485.393 442.162Z" fill="#DFEBFA"/>
<path d="M145.787 279.718C144.639 282.803 142.646 286.383 140.558 287.271C138.188 288.28 137.199 289.708 137.199 289.708L135.287 288.599L133.003 287.271C133.003 287.271 133.058 287.019 133.169 286.607C133.278 286.195 133.451 285.623 133.681 284.988C133.681 284.988 134.382 284.09 133.953 282.96C133.525 281.829 133.611 280.086 134.343 279.022C135.076 277.959 135.783 275.337 136.224 275.417C137.292 275.599 135.699 279.201 136.157 279.868C136.569 280.472 137.087 280.264 137.183 280.22L137.199 280.21C140.196 278.894 143.833 271.798 145.442 272.756C146.043 273.114 146.276 278.406 145.787 279.718Z" fill="#FFB27D"/>
<path d="M135.418 284.013L139.173 286.648C139.438 286.836 139.806 286.769 139.992 286.504L149.612 272.839C149.798 272.574 149.734 272.204 149.468 272.019L145.714 269.384C145.448 269.199 145.08 269.263 144.892 269.528L135.274 283.193C135.089 283.458 135.152 283.828 135.418 284.013Z" fill="#2B478B"/>
<path d="M138.853 286.425L141.057 287.97C141.258 288.114 141.54 288.063 141.68 287.862L151.461 273.967C151.605 273.762 151.554 273.481 151.352 273.341L149.152 271.795C148.95 271.655 148.669 271.703 148.528 271.907L138.744 285.802C138.603 286.003 138.651 286.284 138.853 286.425Z" fill="#233862"/>
<path d="M81.5466 264.402C81.5466 264.402 100.655 297.678 107.586 303.8L133.003 284.882C133.003 284.882 136.691 286.009 138.306 289.707C138.306 289.707 122.871 321.106 107.675 322.437C92.4767 323.766 71.1487 284.802 71.1487 284.802L81.5466 264.402Z" fill="#94B0ED"/>
<path d="M38.3073 490.729H27.2671C25.8774 489.975 24.639 488.25 24.2476 485.676C23.7086 482.125 19.7222 480.19 18.8596 477.284C17.9986 474.381 22.4162 470.293 22.4162 470.293L23.1553 469.342L23.9242 468.355L31.2517 470.076C31.2517 470.076 31.4333 471.82 31.543 474.039C31.623 475.639 31.6649 477.491 31.575 479.114C31.3595 482.987 32.6593 487.158 36.1065 487.912C38.6546 488.468 38.5411 489.978 38.3073 490.729Z" fill="#233862"/>
<path d="M102.379 490.729H77.1311C75.9167 489.25 76.3642 483.789 76.5481 482.007C76.5858 481.646 76.6117 481.439 76.6117 481.439C76.6117 481.439 85.2332 474.553 86.4176 479.826C86.4537 479.989 86.4975 480.152 86.5455 480.311C88.0372 485.242 94.7282 487.484 98.5951 488.107C101.106 488.515 102.036 489.818 102.379 490.729Z" fill="#233862"/>
<path d="M97.5685 350.013C97.5685 350.013 96.2603 366.322 94.7187 385.927C92.6302 412.555 90.1131 445.266 89.8652 451.464C89.4353 462.223 87.7092 479.436 87.7092 479.436C87.7092 479.436 83.6169 483.524 75.4262 481.803C75.4262 481.803 68.1271 457.232 66.0424 431.234C66.0101 430.809 65.9775 430.378 65.9456 429.95C64.0061 403.485 60.99 347.756 60.99 347.756L97.5685 350.013Z" fill="#F99746"/>
<path d="M97.5685 350.013C97.5685 350.013 96.2603 366.322 94.7187 385.927L66.0424 431.233C66.0101 430.809 65.9775 430.378 65.9456 429.95C64.0061 403.485 60.99 347.755 60.99 347.755L97.5685 350.013Z" fill="#ED7D2B"/>
<path d="M91.5907 351.952C91.5907 351.952 67.9931 411.012 52.4775 438.77C36.9619 466.525 32.1132 474.272 32.1132 474.272C32.1132 474.272 23.2242 470.721 22.416 468.301C22.416 468.301 28.3493 414.717 38.7399 401.656C44.6111 394.272 51.5077 372.122 51.8311 364.378C52.1544 356.63 53.9321 341.302 53.9321 341.302L91.5907 351.952Z" fill="#F99746"/>
<path d="M85.7155 265.849C76.4949 268.755 60.5398 260.915 60.5398 260.915C60.5398 260.915 69.0414 254.544 68.5962 241.297L75.726 247.033L80.5687 250.929C80.5687 250.929 80.5488 253.228 80.0198 257.252C79.88 258.312 81.0766 260.647 82.1131 261.963C84.9085 265.501 85.7155 265.849 85.7155 265.849Z" fill="#FFB27D"/>
<path d="M80.5687 250.929C80.5687 250.929 80.5489 253.228 80.0199 257.252C74.6533 256.335 68.5662 247.675 68.5662 247.675C71.2982 246.886 73.6909 246.745 75.726 247.033L80.5687 250.929Z" fill="#ED975D"/>
<path d="M83.3888 250.712C83.3888 250.712 68.1582 253.238 66.7285 243.744C65.2988 234.249 62.3698 228.182 72.034 226.167C81.6982 224.152 84.1373 227.492 85.3865 230.545C86.6358 233.598 87.3139 249.811 83.3888 250.712Z" fill="#FFB27D"/>
<path d="M98.5856 351.374C98.3073 351.604 97.9843 351.741 97.6165 351.741C94.1527 351.693 84.0563 353.616 75.5125 352.738C68.3098 352.048 61.9348 349.918 55.0884 346.855C54.1794 346.447 52.0871 345.332 52.1341 344.316C52.1645 343.205 52.2751 341.596 52.4139 339.565C52.8985 332.51 53.7428 320.375 52.9196 306.375C52.7715 303.765 52.6938 301.179 52.6845 298.633C52.6138 279.658 56.3822 262.968 63.9546 257.319C64.6013 256.856 68.5721 258.795 72.2205 260.593C75.5915 262.253 78.9623 262.435 82.1473 261.79L85.3325 264.604C89.2115 268.199 93.4586 273.086 95.3073 280.507C96.8777 286.824 97.7988 298.212 98.3073 310.015C98.5376 315.364 98.7231 320.758 98.7711 325.877V326.059C98.8159 326.567 98.8159 327.123 98.8159 327.63C99.0014 340.768 98.8159 351.186 98.5856 351.374Z" fill="#AEC3FF"/>
<path d="M52.4138 339.564C52.8984 332.51 53.7427 320.375 52.9195 306.374C52.7714 303.765 52.6937 301.179 52.6844 298.633C55.839 290.995 58.4168 285.454 58.4168 285.454H66.3676C66.3676 285.454 72.197 325.206 52.4138 339.564Z" fill="#94B0ED"/>
<path d="M11.6856 384.621L45.5957 389.447C50.0088 390.073 54.1344 386.981 54.7632 382.574L56.8575 367.903C57.486 363.496 54.39 359.377 49.9765 358.751L16.0665 353.926C11.6533 353.296 7.52808 356.388 6.89896 360.795L4.80499 375.469C4.17619 379.873 7.27253 383.992 11.6856 384.621Z" fill="#233862"/>
<path d="M25.4042 351.984C25.4682 351.54 25.8155 351.205 26.2367 351.137C26.3346 351.122 26.4344 351.118 26.5383 351.134L28.0441 351.348L33.624 352.143L36.6657 352.575C37.2129 352.654 37.5945 353.162 37.5164 353.705L37.0651 356.873L24.9529 355.149L25.4042 351.984ZM51.8918 363.123C50.939 360.74 48.8822 358.859 46.2739 358.224H46.272L46.2659 358.221C46.0103 358.16 45.7506 358.106 45.4829 358.067L38.7309 357.109L39.1822 353.945C39.2839 353.236 39.1022 352.53 38.6707 351.958C38.2396 351.383 37.6105 351.013 36.9033 350.911L35.142 350.662L28.0525 349.653L26.7741 349.47C25.3102 349.263 23.9464 350.282 23.7385 351.744L23.2872 354.912L11.632 353.255C7.2026 352.622 3.06263 355.727 2.42935 360.15L0.312679 374.993C-0.31868 379.416 2.78885 383.548 7.21827 384.181L41.0673 388.996C41.6647 389.083 42.2558 389.099 42.8328 389.054H42.8347H42.8388C43.7654 388.984 44.6561 388.75 45.481 388.386C47.9693 387.291 49.8586 384.973 50.2699 382.098L52.3889 367.258C52.5945 365.808 52.401 364.397 51.8918 363.123Z" fill="#2B478B"/>
<path d="M37.4723 340.931C37.4723 340.931 35.6911 343.301 35.6208 344.246C35.142 350.662 38.0775 351.549 30.4775 355.11C30.4775 355.11 27.2328 356.346 27.1777 353.833C27.1224 351.316 29.4294 351.275 29.0075 347.756C28.5211 343.693 28.57 343.655 31.2397 341.535L33.0074 338.616L37.4723 340.931Z" fill="#FFB27D"/>
<path d="M32.9435 342.748C35.8067 343.304 38.9104 343.077 38.9104 343.077C38.9104 343.077 47.4104 316.862 48.5042 314.467C49.5984 312.072 73.7521 283.723 73.7521 283.723L63.6901 258.581C63.6901 258.581 37.5651 302.153 34.9124 308.275C30.529 318.392 29.0076 341.075 29.0076 341.075C29.0076 341.075 30.6947 342.311 32.9435 342.748Z" fill="#AEC3FF"/>
<path d="M66.7159 242.83C66.7159 242.83 68.2789 242.568 68.0266 240.419C67.7745 238.27 67.7777 235.46 69.5282 235.983C71.2783 236.507 71.3653 237.906 72.0846 237.088C72.804 236.274 72.8171 232.831 78.025 232.592C83.2329 232.349 85.3496 234.16 87.7714 233.096C90.1929 232.033 90.3208 228.373 90.3208 228.373C90.3208 228.373 89.6325 229.682 88.5921 230.098C88.5921 230.098 92.6332 224.579 87.9546 220.795C83.2764 217.011 78.5066 219.489 75.7989 219.652C69.8343 220.013 65.9812 220.37 64.0327 224.282C62.0843 228.197 62.8884 239.062 66.7159 242.83Z" fill="#2B478B"/>
<path d="M34.6632 343.751C34.6632 343.751 36.3779 345.536 36.4863 346.28C36.8336 348.662 37.6307 349.694 37.2312 349.953C36.4009 350.492 35.3016 348.726 34.7767 347.142C34.2516 345.558 34.6632 343.751 34.6632 343.751Z" fill="#FFB27D"/>
<path d="M350.879 488.008H185.405C175.007 488.008 166.58 479.59 166.58 469.208V153.147C166.58 142.765 175.007 134.347 185.405 134.347H350.879C361.277 134.347 369.705 142.765 369.705 153.147V469.208C369.705 479.59 361.277 488.008 350.879 488.008Z" fill="#6376E5"/>
<path d="M185.405 136.707C176.328 136.707 168.943 144.084 168.943 153.147V469.208C168.943 478.274 176.328 485.648 185.405 485.648H350.879C359.956 485.648 367.345 478.274 367.345 469.208V153.147C367.345 144.084 359.956 136.707 350.879 136.707H185.405ZM350.879 490.368H185.405C173.722 490.368 164.216 480.877 164.216 469.208V153.147C164.216 141.481 173.722 131.99 185.405 131.99H350.879C362.563 131.99 372.069 141.481 372.069 153.147V469.208C372.069 480.877 362.563 490.368 350.879 490.368Z" fill="#2B478B"/>
<path d="M201.343 360.808H334.942V227.409H201.343V360.808Z" fill="#F0F2FC"/>
<path d="M220.044 352.111H214.734V346.807H220.044V352.111Z" fill="#2B478B"/>
<path d="M225.353 352.111H220.044V346.807H225.353V352.111Z" fill="#2B478B"/>
<path d="M230.662 352.111H225.353V346.807H230.662V352.111Z" fill="#2B478B"/>
<path d="M235.971 352.111H230.662V346.807H235.971V352.111Z" fill="#2B478B"/>
<path d="M241.281 352.111H235.971V346.807H241.281V352.111Z" fill="#2B478B"/>
<path d="M251.899 352.111H246.59V346.807H251.899V352.111Z" fill="#2B478B"/>
<path d="M257.209 352.111H251.899V346.807H257.209V352.111Z" fill="#2B478B"/>
<path d="M273.136 352.111H267.827V346.807H273.136V352.111Z" fill="#2B478B"/>
<path d="M284.072 352.111H278.446V346.807H284.072V352.111Z" fill="#2B478B"/>
<path d="M289.381 352.111H284.072V346.807H289.381V352.111Z" fill="#2B478B"/>
<path d="M300 352.111H294.69V346.807H300V352.111Z" fill="#2B478B"/>
<path d="M305.309 352.111H300V346.807H305.309V352.111Z" fill="#2B478B"/>
<path d="M310.618 352.111H305.309V346.807H310.618V352.111Z" fill="#2B478B"/>
<path d="M315.927 352.111H310.618V346.807H315.927V352.111Z" fill="#2B478B"/>
<path d="M321.237 352.111H315.927V346.807H321.237V352.111Z" fill="#2B478B"/>
<path d="M326.86 352.111H321.237V346.807H326.86V352.111Z" fill="#2B478B"/>
<path d="M214.734 352.111H209.425V346.807H214.734V352.111Z" fill="#2B478B"/>
<path d="M241.281 346.807H235.971V341.506H241.281V346.807Z" fill="#2B478B"/>
<path d="M257.209 346.807H251.899V341.506H257.209V346.807Z" fill="#2B478B"/>
<path d="M267.827 346.807H262.518V341.506H267.827V346.807Z" fill="#2B478B"/>
<path d="M273.136 346.807H267.827V341.506H273.136V346.807Z" fill="#2B478B"/>
<path d="M278.446 346.807H273.136V341.506H278.446V346.807Z" fill="#2B478B"/>
<path d="M284.072 346.807H278.446V341.506H284.072V346.807Z" fill="#2B478B"/>
<path d="M300 346.807H294.69V341.506H300V346.807Z" fill="#2B478B"/>
<path d="M326.86 346.807H321.237V341.506H326.86V346.807Z" fill="#2B478B"/>
<path d="M214.734 346.807H209.425V341.506H214.734V346.807Z" fill="#2B478B"/>
<path d="M225.353 341.506H220.044V336.205H225.353V341.506Z" fill="#2B478B"/>
<path d="M230.662 341.506H225.353V336.205H230.662V341.506Z" fill="#2B478B"/>
<path d="M241.281 341.506H235.971V336.205H241.281V341.506Z" fill="#2B478B"/>
<path d="M251.899 341.506H246.59V336.205H251.899V341.506Z" fill="#2B478B"/>
<path d="M257.209 341.506H251.899V336.205H257.209V341.506Z" fill="#2B478B"/>
<path d="M262.518 341.506H257.209V336.205H262.518V341.506Z" fill="#2B478B"/>
<path d="M273.136 341.506H267.827V336.205H273.136V341.506Z" fill="#2B478B"/>
<path d="M278.446 341.506H273.136V336.205H278.446V341.506Z" fill="#2B478B"/>
<path d="M284.072 341.506H278.446V336.205H284.072V341.506Z" fill="#2B478B"/>
<path d="M289.381 341.506H284.072V336.205H289.381V341.506Z" fill="#2B478B"/>
<path d="M300 341.506H294.69V336.205H300V341.506Z" fill="#2B478B"/>
<path d="M310.618 341.506H305.309V336.205H310.618V341.506Z" fill="#2B478B"/>
<path d="M315.927 341.506H310.618V336.205H315.927V341.506Z" fill="#2B478B"/>
<path d="M326.86 341.506H321.237V336.205H326.86V341.506Z" fill="#2B478B"/>
<path d="M214.734 341.506H209.425V336.205H214.734V341.506Z" fill="#2B478B"/>
<path d="M225.353 336.205H220.044V330.903H225.353V336.205Z" fill="#2B478B"/>
<path d="M230.662 336.205H225.353V330.903H230.662V336.205Z" fill="#2B478B"/>
<path d="M241.281 336.205H235.971V330.903H241.281V336.205Z" fill="#2B478B"/>
<path d="M251.899 336.205H246.59V330.903H251.899V336.205Z" fill="#2B478B"/>
<path d="M262.518 336.205H257.209V330.903H262.518V336.205Z" fill="#2B478B"/>
<path d="M273.136 336.205H267.827V330.903H273.136V336.205Z" fill="#2B478B"/>
<path d="M300 336.205H294.69V330.903H300V336.205Z" fill="#2B478B"/>
<path d="M310.618 336.205H305.309V330.903H310.618V336.205Z" fill="#2B478B"/>
<path d="M315.927 336.205H310.618V330.903H315.927V336.205Z" fill="#2B478B"/>
<path d="M326.86 336.205H321.237V330.903H326.86V336.205Z" fill="#2B478B"/>
<path d="M214.734 336.205H209.425V330.903H214.734V336.205Z" fill="#2B478B"/>
<path d="M241.281 330.903H235.971V325.602H241.281V330.903Z" fill="#2B478B"/>
<path d="M251.899 330.903H246.59V325.602H251.899V330.903Z" fill="#2B478B"/>
<path d="M257.209 330.903H251.899V325.602H257.209V330.903Z" fill="#2B478B"/>
<path d="M262.518 330.903H257.209V325.602H262.518V330.903Z" fill="#2B478B"/>
<path d="M273.136 330.903H267.827V325.602H273.136V330.903Z" fill="#2B478B"/>
<path d="M278.446 330.903H273.136V325.602H278.446V330.903Z" fill="#2B478B"/>
<path d="M289.381 330.903H284.072V325.602H289.381V330.903Z" fill="#2B478B"/>
<path d="M300 330.903H294.69V325.602H300V330.903Z" fill="#2B478B"/>
<path d="M326.86 330.903H321.237V325.602H326.86V330.903Z" fill="#2B478B"/>
<path d="M214.734 330.903H209.425V325.602H214.734V330.903Z" fill="#2B478B"/>
<path d="M220.044 325.603H214.734V320.301H220.044V325.603Z" fill="#2B478B"/>
<path d="M225.353 325.603H220.044V320.301H225.353V325.603Z" fill="#2B478B"/>
<path d="M230.662 325.603H225.353V320.301H230.662V325.603Z" fill="#2B478B"/>
<path d="M235.971 325.603H230.662V320.301H235.971V325.603Z" fill="#2B478B"/>
<path d="M241.281 325.603H235.971V320.301H241.281V325.603Z" fill="#2B478B"/>
<path d="M251.899 325.603H246.59V320.301H251.899V325.603Z" fill="#2B478B"/>
<path d="M262.518 325.603H257.209V320.301H262.518V325.603Z" fill="#2B478B"/>
<path d="M267.827 325.603H262.518V320.301H267.827V325.603Z" fill="#2B478B"/>
<path d="M278.446 325.603H273.136V320.301H278.446V325.603Z" fill="#2B478B"/>
<path d="M300 325.603H294.69V320.301H300V325.603Z" fill="#2B478B"/>
<path d="M305.309 325.603H300V320.301H305.309V325.603Z" fill="#2B478B"/>
<path d="M310.618 325.603H305.309V320.301H310.618V325.603Z" fill="#2B478B"/>
<path d="M315.927 325.603H310.618V320.301H315.927V325.603Z" fill="#2B478B"/>
<path d="M321.237 325.603H315.927V320.301H321.237V325.603Z" fill="#2B478B"/>
<path d="M326.86 325.603H321.237V320.301H326.86V325.603Z" fill="#2B478B"/>
<path d="M214.734 325.603H209.425V320.301H214.734V325.603Z" fill="#2B478B"/>
<path d="M267.827 320.301H262.518V315H267.827V320.301Z" fill="#2B478B"/>
<path d="M273.136 320.301H267.827V315H273.136V320.301Z" fill="#2B478B"/>
<path d="M278.446 320.301H273.136V315H278.446V320.301Z" fill="#2B478B"/>
<path d="M289.381 320.301H284.072V315H289.381V320.301Z" fill="#2B478B"/>
<path d="M220.044 315H214.734V309.699H220.044V315Z" fill="#2B478B"/>
<path d="M225.353 315H220.044V309.699H225.353V315Z" fill="#2B478B"/>
<path d="M230.662 315H225.353V309.699H230.662V315Z" fill="#2B478B"/>
<path d="M235.971 315H230.662V309.699H235.971V315Z" fill="#2B478B"/>
<path d="M251.899 315H246.59V309.699H251.899V315Z" fill="#2B478B"/>
<path d="M257.209 315H251.899V309.699H257.209V315Z" fill="#2B478B"/>
<path d="M262.518 315H257.209V309.699H262.518V315Z" fill="#2B478B"/>
<path d="M273.136 315H267.827V309.699H273.136V315Z" fill="#2B478B"/>
<path d="M278.446 315H273.136V309.699H278.446V315Z" fill="#2B478B"/>
<path d="M284.072 315H278.446V309.699H284.072V315Z" fill="#2B478B"/>
<path d="M289.381 315H284.072V309.699H289.381V315Z" fill="#2B478B"/>
<path d="M294.69 315H289.381V309.699H294.69V315Z" fill="#2B478B"/>
<path d="M300 315H294.69V309.699H300V315Z" fill="#2B478B"/>
<path d="M305.309 315H300V309.699H305.309V315Z" fill="#2B478B"/>
<path d="M310.618 315H305.309V309.699H310.618V315Z" fill="#2B478B"/>
<path d="M321.237 315H315.927V309.699H321.237V315Z" fill="#2B478B"/>
<path d="M326.86 315H321.237V309.699H326.86V315Z" fill="#2B478B"/>
<path d="M225.353 309.699H220.044V304.398H225.353V309.699Z" fill="#2B478B"/>
<path d="M230.662 309.699H225.353V304.398H230.662V309.699Z" fill="#2B478B"/>
<path d="M246.59 309.699H241.281V304.398H246.59V309.699Z" fill="#2B478B"/>
<path d="M251.899 309.699H246.59V304.398H251.899V309.699Z" fill="#2B478B"/>
<path d="M262.518 309.699H257.209V304.398H262.518V309.699Z" fill="#2B478B"/>
<path d="M278.446 309.699H273.136V304.398H278.446V309.699Z" fill="#2B478B"/>
<path d="M289.381 309.699H284.072V304.398H289.381V309.699Z" fill="#2B478B"/>
<path d="M294.69 309.699H289.381V304.398H294.69V309.699Z" fill="#2B478B"/>
<path d="M305.309 309.699H300V304.398H305.309V309.699Z" fill="#2B478B"/>
<path d="M310.618 309.699H305.309V304.398H310.618V309.699Z" fill="#2B478B"/>
<path d="M220.044 304.397H214.734V299.096H220.044V304.397Z" fill="#2B478B"/>
<path d="M230.662 304.397H225.353V299.096H230.662V304.397Z" fill="#2B478B"/>
<path d="M235.971 304.397H230.662V299.096H235.971V304.397Z" fill="#2B478B"/>
<path d="M241.281 304.397H235.971V299.096H241.281V304.397Z" fill="#2B478B"/>
<path d="M246.59 304.397H241.281V299.096H246.59V304.397Z" fill="#2B478B"/>
<path d="M257.209 304.397H251.899V299.096H257.209V304.397Z" fill="#2B478B"/>
<path d="M262.518 304.397H257.209V299.096H262.518V304.397Z" fill="#2B478B"/>
<path d="M267.827 304.397H262.518V299.096H267.827V304.397Z" fill="#2B478B"/>
<path d="M273.136 304.397H267.827V299.096H273.136V304.397Z" fill="#2B478B"/>
<path d="M278.446 304.397H273.136V299.096H278.446V304.397Z" fill="#2B478B"/>
<path d="M284.072 304.397H278.446V299.096H284.072V304.397Z" fill="#2B478B"/>
<path d="M310.618 304.397H305.309V299.096H310.618V304.397Z" fill="#2B478B"/>
<path d="M315.927 304.397H310.618V299.096H315.927V304.397Z" fill="#2B478B"/>
<path d="M326.86 304.397H321.237V299.096H326.86V304.397Z" fill="#2B478B"/>
<path d="M214.734 304.397H209.425V299.096H214.734V304.397Z" fill="#2B478B"/>
<path d="M220.044 299.096H214.734V293.795H220.044V299.096Z" fill="#2B478B"/>
<path d="M225.353 299.096H220.044V293.795H225.353V299.096Z" fill="#2B478B"/>
<path d="M230.662 299.096H225.353V293.795H230.662V299.096Z" fill="#2B478B"/>
<path d="M251.899 299.096H246.59V293.795H251.899V299.096Z" fill="#2B478B"/>
<path d="M257.209 299.096H251.899V293.795H257.209V299.096Z" fill="#2B478B"/>
<path d="M278.446 299.096H273.136V293.795H278.446V299.096Z" fill="#2B478B"/>
<path d="M294.69 299.096H289.381V293.795H294.69V299.096Z" fill="#2B478B"/>
<path d="M300 299.096H294.69V293.795H300V299.096Z" fill="#2B478B"/>
<path d="M310.618 299.096H305.309V293.795H310.618V299.096Z" fill="#2B478B"/>
<path d="M315.927 299.096H310.618V293.795H315.927V299.096Z" fill="#2B478B"/>
<path d="M321.237 299.096H315.927V293.795H321.237V299.096Z" fill="#2B478B"/>
<path d="M326.86 299.096H321.237V293.795H326.86V299.096Z" fill="#2B478B"/>
<path d="M214.734 299.096H209.425V293.795H214.734V299.096Z" fill="#2B478B"/>
<path d="M230.662 293.795H225.353V288.494H230.662V293.795Z" fill="#2B478B"/>
<path d="M235.971 293.795H230.662V288.494H235.971V293.795Z" fill="#2B478B"/>
<path d="M241.281 293.795H235.971V288.494H241.281V293.795Z" fill="#2B478B"/>
<path d="M246.59 293.795H241.281V288.494H246.59V293.795Z" fill="#2B478B"/>
<path d="M251.899 293.795H246.59V288.494H251.899V293.795Z" fill="#2B478B"/>
<path d="M257.209 293.795H251.899V288.494H257.209V293.795Z" fill="#2B478B"/>
<path d="M273.136 293.795H267.827V288.494H273.136V293.795Z" fill="#2B478B"/>
<path d="M289.381 293.795H284.072V288.494H289.381V293.795Z" fill="#2B478B"/>
<path d="M294.69 293.795H289.381V288.494H294.69V293.795Z" fill="#2B478B"/>
<path d="M315.927 293.795H310.618V288.494H315.927V293.795Z" fill="#2B478B"/>
<path d="M214.734 293.795H209.425V288.494H214.734V293.795Z" fill="#2B478B"/>
<path d="M220.044 288.494H214.734V283.193H220.044V288.494Z" fill="#2B478B"/>
<path d="M225.353 288.494H220.044V283.193H225.353V288.494Z" fill="#2B478B"/>
<path d="M230.662 288.494H225.353V283.193H230.662V288.494Z" fill="#2B478B"/>
<path d="M235.971 288.494H230.662V283.193H235.971V288.494Z" fill="#2B478B"/>
<path d="M246.59 288.494H241.281V283.193H246.59V288.494Z" fill="#2B478B"/>
<path d="M257.209 288.494H251.899V283.193H257.209V288.494Z" fill="#2B478B"/>
<path d="M262.518 288.494H257.209V283.193H262.518V288.494Z" fill="#2B478B"/>
<path d="M273.136 288.494H267.827V283.193H273.136V288.494Z" fill="#2B478B"/>
<path d="M278.446 288.494H273.136V283.193H278.446V288.494Z" fill="#2B478B"/>
<path d="M284.072 288.494H278.446V283.193H284.072V288.494Z" fill="#2B478B"/>
<path d="M289.381 288.494H284.072V283.193H289.381V288.494Z" fill="#2B478B"/>
<path d="M300 288.494H294.69V283.193H300V288.494Z" fill="#2B478B"/>
<path d="M305.309 288.494H300V283.193H305.309V288.494Z" fill="#2B478B"/>
<path d="M310.618 288.494H305.309V283.193H310.618V288.494Z" fill="#2B478B"/>
<path d="M315.927 288.494H310.618V283.193H315.927V288.494Z" fill="#2B478B"/>
<path d="M326.86 288.494H321.237V283.193H326.86V288.494Z" fill="#2B478B"/>
<path d="M220.044 283.193H214.734V277.892H220.044V283.193Z" fill="#2B478B"/>
<path d="M230.662 283.193H225.353V277.892H230.662V283.193Z" fill="#2B478B"/>
<path d="M241.281 283.193H235.971V277.892H241.281V283.193Z" fill="#2B478B"/>
<path d="M246.59 283.193H241.281V277.892H246.59V283.193Z" fill="#2B478B"/>
<path d="M262.518 283.193H257.209V277.892H262.518V283.193Z" fill="#2B478B"/>
<path d="M267.827 283.193H262.518V277.892H267.827V283.193Z" fill="#2B478B"/>
<path d="M273.136 283.193H267.827V277.892H273.136V283.193Z" fill="#2B478B"/>
<path d="M284.072 283.193H278.446V277.892H284.072V283.193Z" fill="#2B478B"/>
<path d="M289.381 283.193H284.072V277.892H289.381V283.193Z" fill="#2B478B"/>
<path d="M294.69 283.193H289.381V277.892H294.69V283.193Z" fill="#2B478B"/>
<path d="M305.309 283.193H300V277.892H305.309V283.193Z" fill="#2B478B"/>
<path d="M315.927 283.193H310.618V277.892H315.927V283.193Z" fill="#2B478B"/>
<path d="M321.237 283.193H315.927V277.892H321.237V283.193Z" fill="#2B478B"/>
<path d="M326.86 283.193H321.237V277.892H326.86V283.193Z" fill="#2B478B"/>
<path d="M214.734 283.193H209.425V277.892H214.734V283.193Z" fill="#2B478B"/>
<path d="M220.044 277.892H214.734V272.59H220.044V277.892Z" fill="#2B478B"/>
<path d="M241.281 277.892H235.971V272.59H241.281V277.892Z" fill="#2B478B"/>
<path d="M246.59 277.892H241.281V272.59H246.59V277.892Z" fill="#2B478B"/>
<path d="M257.209 277.892H251.899V272.59H257.209V277.892Z" fill="#2B478B"/>
<path d="M262.518 277.892H257.209V272.59H262.518V277.892Z" fill="#2B478B"/>
<path d="M273.136 277.892H267.827V272.59H273.136V277.892Z" fill="#2B478B"/>
<path d="M278.446 277.892H273.136V272.59H278.446V277.892Z" fill="#2B478B"/>
<path d="M289.381 277.892H284.072V272.59H289.381V277.892Z" fill="#2B478B"/>
<path d="M294.69 277.892H289.381V272.59H294.69V277.892Z" fill="#2B478B"/>
<path d="M300 277.892H294.69V272.59H300V277.892Z" fill="#2B478B"/>
<path d="M305.309 277.892H300V272.59H305.309V277.892Z" fill="#2B478B"/>
<path d="M310.618 277.892H305.309V272.59H310.618V277.892Z" fill="#2B478B"/>
<path d="M315.927 277.892H310.618V272.59H315.927V277.892Z" fill="#2B478B"/>
<path d="M214.734 277.892H209.425V272.59H214.734V277.892Z" fill="#2B478B"/>
<path d="M257.209 272.59H251.899V267.289H257.209V272.59Z" fill="#2B478B"/>
<path d="M267.827 272.59H262.518V267.289H267.827V272.59Z" fill="#2B478B"/>
<path d="M273.136 272.59H267.827V267.289H273.136V272.59Z" fill="#2B478B"/>
<path d="M284.072 272.59H278.446V267.289H284.072V272.59Z" fill="#2B478B"/>
<path d="M289.381 272.59H284.072V267.289H289.381V272.59Z" fill="#2B478B"/>
<path d="M294.69 272.59H289.381V267.289H294.69V272.59Z" fill="#2B478B"/>
<path d="M220.044 267.289H214.734V261.988H220.044V267.289Z" fill="#2B478B"/>
<path d="M225.353 267.289H220.044V261.988H225.353V267.289Z" fill="#2B478B"/>
<path d="M230.662 267.289H225.353V261.988H230.662V267.289Z" fill="#2B478B"/>
<path d="M235.971 267.289H230.662V261.988H235.971V267.289Z" fill="#2B478B"/>
<path d="M241.281 267.289H235.971V261.988H241.281V267.289Z" fill="#2B478B"/>
<path d="M251.899 267.289H246.59V261.988H251.899V267.289Z" fill="#2B478B"/>
<path d="M257.209 267.289H251.899V261.988H257.209V267.289Z" fill="#2B478B"/>
<path d="M273.136 267.289H267.827V261.988H273.136V267.289Z" fill="#2B478B"/>
<path d="M294.69 267.289H289.381V261.988H294.69V267.289Z" fill="#2B478B"/>
<path d="M300 267.289H294.69V261.988H300V267.289Z" fill="#2B478B"/>
<path d="M310.618 267.289H305.309V261.988H310.618V267.289Z" fill="#2B478B"/>
<path d="M326.86 267.289H321.237V261.988H326.86V267.289Z" fill="#2B478B"/>
<path d="M214.734 267.289H209.425V261.988H214.734V267.289Z" fill="#2B478B"/>
<path d="M241.281 261.988H235.971V256.687H241.281V261.988Z" fill="#2B478B"/>
<path d="M284.072 261.988H278.446V256.687H284.072V261.988Z" fill="#2B478B"/>
<path d="M289.381 261.988H284.072V256.687H289.381V261.988Z" fill="#2B478B"/>
<path d="M300 261.988H294.69V256.687H300V261.988Z" fill="#2B478B"/>
<path d="M305.309 261.988H300V256.687H305.309V261.988Z" fill="#2B478B"/>
<path d="M315.927 261.988H310.618V256.687H315.927V261.988Z" fill="#2B478B"/>
<path d="M321.237 261.988H315.927V256.687H321.237V261.988Z" fill="#2B478B"/>
<path d="M326.86 261.988H321.237V256.687H326.86V261.988Z" fill="#2B478B"/>
<path d="M214.734 261.988H209.425V256.687H214.734V261.988Z" fill="#2B478B"/>
<path d="M225.353 256.687H220.044V251.385H225.353V256.687Z" fill="#2B478B"/>
<path d="M230.662 256.687H225.353V251.385H230.662V256.687Z" fill="#2B478B"/>
<path d="M241.281 256.687H235.971V251.385H241.281V256.687Z" fill="#2B478B"/>
<path d="M251.899 256.687H246.59V251.385H251.899V256.687Z" fill="#2B478B"/>
<path d="M257.209 256.687H251.899V251.385H257.209V256.687Z" fill="#2B478B"/>
<path d="M267.827 256.687H262.518V251.385H267.827V256.687Z" fill="#2B478B"/>
<path d="M273.136 256.687H267.827V251.385H273.136V256.687Z" fill="#2B478B"/>
<path d="M284.072 256.687H278.446V251.385H284.072V256.687Z" fill="#2B478B"/>
<path d="M305.309 256.687H300V251.385H305.309V256.687Z" fill="#2B478B"/>
<path d="M310.618 256.687H305.309V251.385H310.618V256.687Z" fill="#2B478B"/>
<path d="M315.927 256.687H310.618V251.385H315.927V256.687Z" fill="#2B478B"/>
<path d="M214.734 256.687H209.425V251.385H214.734V256.687Z" fill="#2B478B"/>
<path d="M225.353 251.385H220.044V246.081H225.353V251.385Z" fill="#2B478B"/>
<path d="M230.662 251.385H225.353V246.081H230.662V251.385Z" fill="#2B478B"/>
<path d="M241.281 251.385H235.971V246.081H241.281V251.385Z" fill="#2B478B"/>
<path d="M251.899 251.385H246.59V246.081H251.899V251.385Z" fill="#2B478B"/>
<path d="M262.518 251.385H257.209V246.081H262.518V251.385Z" fill="#2B478B"/>
<path d="M267.827 251.385H262.518V246.081H267.827V251.385Z" fill="#2B478B"/>
<path d="M273.136 251.385H267.827V246.081H273.136V251.385Z" fill="#2B478B"/>
<path d="M278.446 251.385H273.136V246.081H278.446V251.385Z" fill="#2B478B"/>
<path d="M284.072 251.385H278.446V246.081H284.072V251.385Z" fill="#2B478B"/>
<path d="M294.69 251.385H289.381V246.081H294.69V251.385Z" fill="#2B478B"/>
<path d="M300 251.385H294.69V246.081H300V251.385Z" fill="#2B478B"/>
<path d="M305.309 251.385H300V246.081H305.309V251.385Z" fill="#2B478B"/>
<path d="M315.927 251.385H310.618V246.081H315.927V251.385Z" fill="#2B478B"/>
<path d="M321.237 251.385H315.927V246.081H321.237V251.385Z" fill="#2B478B"/>
<path d="M326.86 251.385H321.237V246.081H326.86V251.385Z" fill="#2B478B"/>
<path d="M214.734 251.385H209.425V246.081H214.734V251.385Z" fill="#2B478B"/>
<path d="M241.281 246.081H235.971V240.78H241.281V246.081Z" fill="#2B478B"/>
<path d="M262.518 246.081H257.209V240.78H262.518V246.081Z" fill="#2B478B"/>
<path d="M267.827 246.081H262.518V240.78H267.827V246.081Z" fill="#2B478B"/>
<path d="M278.446 246.081H273.136V240.78H278.446V246.081Z" fill="#2B478B"/>
<path d="M284.072 246.081H278.446V240.78H284.072V246.081Z" fill="#2B478B"/>
<path d="M289.381 246.081H284.072V240.78H289.381V246.081Z" fill="#2B478B"/>
<path d="M294.69 246.081H289.381V240.78H294.69V246.081Z" fill="#2B478B"/>
<path d="M321.237 246.081H315.927V240.78H321.237V246.081Z" fill="#2B478B"/>
<path d="M214.734 246.081H209.425V240.78H214.734V246.081Z" fill="#2B478B"/>
<path d="M220.044 240.78H214.734V235.479H220.044V240.78Z" fill="#2B478B"/>
<path d="M225.353 240.78H220.044V235.479H225.353V240.78Z" fill="#2B478B"/>
<path d="M230.662 240.78H225.353V235.479H230.662V240.78Z" fill="#2B478B"/>
<path d="M235.971 240.78H230.662V235.479H235.971V240.78Z" fill="#2B478B"/>
<path d="M241.281 240.78H235.971V235.479H241.281V240.78Z" fill="#2B478B"/>
<path d="M251.899 240.78H246.59V235.479H251.899V240.78Z" fill="#2B478B"/>
<path d="M257.209 240.78H251.899V235.479H257.209V240.78Z" fill="#2B478B"/>
<path d="M284.072 240.78H278.446V235.479H284.072V240.78Z" fill="#2B478B"/>
<path d="M294.69 240.78H289.381V235.479H294.69V240.78Z" fill="#2B478B"/>
<path d="M305.309 240.78H300V235.479H305.309V240.78Z" fill="#2B478B"/>
<path d="M310.618 240.78H305.309V235.479H310.618V240.78Z" fill="#2B478B"/>
<path d="M326.86 240.78H321.237V235.479H326.86V240.78Z" fill="#2B478B"/>
<path d="M214.734 240.78H209.425V235.479H214.734V240.78Z" fill="#2B478B"/>
<path d="M189.79 245.921H219.548V216.438H189.79V245.921Z" fill="#E0E4FA"/>
<path d="M344.607 246.037C343.561 246.037 342.717 245.19 342.717 244.149V220.093H318.854C317.811 220.093 316.967 219.25 316.967 218.208C316.967 217.167 317.811 216.321 318.854 216.321H344.607C345.65 216.321 346.494 217.167 346.494 218.208V244.149C346.494 245.19 345.65 246.037 344.607 246.037Z" fill="#E0E4FA"/>
<path d="M344.607 375.245H318.624C317.581 375.245 316.737 374.399 316.737 373.358C316.737 372.317 317.581 371.474 318.624 371.474H342.717V347.647C342.717 346.606 343.562 345.76 344.607 345.76C345.65 345.76 346.494 346.606 346.494 347.647V373.358C346.494 374.399 345.65 375.245 344.607 375.245Z" fill="#E0E4FA"/>
<path d="M217.431 375.36H191.677C190.635 375.36 189.79 374.514 189.79 373.473V347.532C189.79 346.491 190.635 345.645 191.677 345.645C192.72 345.645 193.568 346.491 193.568 347.532V371.589H217.431C218.473 371.589 219.318 372.432 219.318 373.473C219.318 374.514 218.473 375.36 217.431 375.36Z" fill="#E0E4FA"/>
<path d="M334.942 411.016V414.621C334.942 416.585 333.333 418.195 331.363 418.195H204.922C202.952 418.195 201.343 416.585 201.343 414.621V411.016C201.343 409.052 202.952 407.442 204.922 407.442H331.363C333.333 407.442 334.942 409.052 334.942 411.016Z" fill="white"/>
<path d="M294.69 407.442V418.195H204.922C202.952 418.195 201.343 416.585 201.343 414.621V411.016C201.343 409.052 202.952 407.442 204.922 407.442H294.69Z" fill="#ED7D2B"/>
<path d="M275.986 407.442L266.052 418.195H247.469L257.4 407.442H275.986Z" fill="#F99746"/>
<path d="M294.69 407.442V418.195H277.464L287.398 407.442H294.69Z" fill="#F99746"/>
<path d="M246.062 407.442L236.131 418.195H217.546L227.48 407.442H246.062Z" fill="#F99746"/>
<path d="M216.141 407.442L206.211 418.195H204.848C202.878 418.195 201.266 416.585 201.266 414.621V411.016C201.266 409.052 202.878 407.442 204.848 407.442H216.141Z" fill="#F99746"/>
<path d="M254.439 401.307L255.146 400.467C255.785 401.02 256.425 401.336 257.254 401.336C257.98 401.336 258.437 401.001 258.437 400.477C258.437 400.001 258.171 399.743 256.93 399.449C255.507 399.113 254.708 398.695 254.708 397.446C254.708 396.303 255.661 395.514 256.988 395.514C257.96 395.514 258.734 395.808 259.409 396.351L258.782 397.239C258.181 396.792 257.58 396.552 256.969 396.552C256.281 396.552 255.881 396.904 255.881 397.363C255.881 397.878 256.185 398.104 257.465 398.411C258.875 398.753 259.611 399.257 259.611 400.381C259.611 401.63 258.629 402.374 257.225 402.374C256.204 402.374 255.242 402.02 254.439 401.307Z" fill="white"/>
<path d="M260.698 398.944C260.698 397.047 262.121 395.495 264.143 395.495C265.374 395.495 266.119 395.923 266.759 396.533L266.004 397.398C265.47 396.903 264.897 396.571 264.133 396.571C262.857 396.571 261.929 397.619 261.929 398.944C261.929 400.247 262.857 401.317 264.133 401.317C264.955 401.317 265.48 400.982 266.052 400.448L266.807 401.211C266.11 401.933 265.345 402.393 264.095 402.393C262.15 402.393 260.698 400.876 260.698 398.944Z" fill="white"/>
<path d="M272.084 399.631L270.93 396.961L269.785 399.631H272.084ZM270.405 395.562H271.493L274.429 402.278H273.191L272.513 400.669H269.353L268.668 402.278H267.466L270.405 395.562Z" fill="white"/>
<path d="M275.577 395.61H276.664L280.24 400.219V395.61H281.395V402.278H280.413L276.732 397.533V402.278H275.577V395.61Z" fill="white"/>
<path d="M368.323 348.733C374.483 346.941 381.44 348.998 385.786 353.711C396.543 365.374 388.611 374.364 393.993 382.526C397.246 387.457 399.978 396.096 389.903 401.205C385.243 403.568 371.368 415.914 368.525 416.208C339.73 419.159 339.215 389.993 348.919 381.54C362.563 369.66 350.099 354.04 368.323 348.733Z" fill="#233862"/>
<path d="M383.371 393.825C383.371 393.825 409.649 406.538 414.572 406.324C419.494 406.111 450.262 395.291 450.262 395.291L449.491 400.5C449.491 400.5 426.083 413.941 417.898 414.704C409.841 415.455 382.29 407.484 379.633 405.801C376.972 404.118 375.641 395.53 383.371 393.825Z" fill="#ED985F"/>
<path d="M386.263 405.817C383.883 407.468 380.896 408.828 377.148 409.69C363.094 412.932 357.708 401.074 355.687 392.934C357.602 391.839 359.406 391.596 360.446 391.472C361.463 391.353 362.531 391.274 363.417 391.229C364.994 390.022 367.345 385.085 367.866 377.414L368.525 377.593L379.601 380.62C379.601 380.62 379.095 384.133 378.846 387.457C378.654 390.057 378.622 392.541 379.115 393.148C379.981 393.337 380.5 393.458 380.5 393.458L380.506 393.467C380.653 393.713 383.867 398.989 386.263 405.817Z" fill="#FFB27D"/>
<path d="M379.601 380.62C379.601 380.62 379.092 384.133 378.846 387.457C372.571 386.831 369.66 380.866 368.525 377.596L379.601 380.62Z" fill="#ED985F"/>
<path d="M381.475 383.919C381.475 383.919 366.583 383.101 367.236 373.847C367.891 364.595 366.411 358.256 375.945 358.39C385.482 358.521 387.078 362.184 387.612 365.323C388.147 368.466 385.367 383.897 381.475 383.919Z" fill="#FFB27D"/>
<path d="M387.539 360.15C385.441 357.202 383.659 357.687 382.626 358.454C374.816 353.408 369.1 359.632 369.1 359.632C367.629 366.198 362.563 369.66 362.563 369.66C362.563 369.66 365.202 371.767 371.518 370.369C379.601 368.58 382.377 361.58 382.754 360.507C383.605 361.385 384.702 361.944 385.543 363.851C386.541 366.118 387.171 367.434 387.187 371.154C387.187 371.154 390.689 364.569 387.539 360.15Z" fill="#233862"/>
<path d="M351.442 436.049C350.099 429.186 345.714 401.757 350.099 392.931C351.673 389.763 357.855 389.475 364.636 389.753C366.743 391.114 374.784 396.252 378.085 395.61C378.12 395.604 378.187 395.591 378.27 395.568C379.825 395.179 380.413 394.09 379.115 393.148C379.115 393.148 382.092 393.359 386.263 394.141C388.62 394.585 395.087 398.551 395.087 398.551C395.087 398.551 392.154 403.105 387.437 405.098C388.24 412.264 387.047 415.426 379.601 431.974C373.31 445.965 380.448 458.56 380.448 458.56C380.448 458.56 343.418 488.288 343.21 473.151C343.056 461.757 353.163 444.825 351.442 436.049Z" fill="#F99746"/>
<path d="M382.284 490.885C384.299 490.658 386.113 489.556 387.239 487.873C387.418 487.608 387.61 487.321 387.811 487.014C392.027 480.643 393.667 461.131 403.147 440.341C405.46 435.28 413.747 434.37 416.008 428.65C416.008 428.65 421.573 410.105 405.36 409.559C389.145 409.013 361.939 461.153 361.508 466.624C361.092 471.922 350.79 494.433 382.284 490.885Z" fill="#94B0ED"/>
<path d="M446.725 490.78H423.649C423.649 490.78 422.785 487.005 424.301 484.437C425.641 482.167 425.13 480.874 424.135 478.993C425.181 479.43 426.534 479.829 428.021 479.743C429.172 479.676 430.388 479.139 431.453 478.507C432.447 479.666 436.701 484.607 438.029 485.587C439.538 486.698 446.261 486.303 446.725 490.78Z" fill="#0D2644"/>
<path d="M416.536 414.918C417.927 425.319 423.351 458.152 432.924 474.167C436.01 479.331 425.149 482.227 425.091 482.211C423.633 481.831 421.205 479.513 420.089 478.507C412.317 471.513 396.543 451.71 396.543 435.835C396.543 428.094 396.405 413.312 402.044 409.556C405.514 407.241 415.985 410.789 416.536 414.918Z" fill="#94B0ED"/>
<path d="M352.351 405.801C352.351 405.801 357.033 415.314 378.894 422.036C400.755 428.755 388.249 411.868 388.249 411.868L357.689 401.205L352.351 405.801Z" fill="#ED7D2B"/>
<path d="M371.016 490.911C371.016 490.911 372.187 489.157 372.929 486.558C374.167 482.211 374.611 479.05 376.994 472.28C379.495 465.171 382.463 456.427 386.177 447.329C387.322 444.519 388.537 441.676 389.829 438.841C392.138 433.779 398.493 434.478 400.755 428.756C400.755 428.756 409.573 408.924 393.36 408.375C377.148 407.829 346.338 461.431 344.569 466.624C342.631 472.305 335.665 496.355 371.016 490.911Z" fill="#AEC3FF"/>
<path d="M429.787 490.78H406.71C406.71 490.78 405.847 487.005 407.363 484.437C408.703 482.167 408.188 480.874 407.196 478.993C408.242 479.43 409.592 479.829 411.082 479.743C412.231 479.676 413.449 479.139 414.514 478.507C415.509 479.666 419.76 484.607 421.09 485.587C422.597 486.698 429.323 486.303 429.787 490.78Z" fill="#163560"/>
<path d="M376.994 472.28C371.074 458.353 379.601 431.975 379.601 431.975C383.116 434.405 385.207 440.434 386.176 447.329C382.463 456.427 379.495 465.171 376.994 472.28Z" fill="#A1B9F6"/>
<path d="M403.064 414.183C404.455 424.585 406.413 458.152 415.985 474.167C419.069 479.331 408.21 482.227 408.149 482.211C406.694 481.831 404.266 479.513 403.147 478.507C395.378 471.513 379.601 451.71 379.601 435.835C379.601 428.094 388.7 413.934 394.336 410.176C397.809 407.86 402.514 410.051 403.064 414.183Z" fill="#AEC3FF"/>
<path d="M453.019 381.885L429.387 379.381C428.696 379.307 428.047 379.707 427.797 380.352L419.344 402.537C418.973 403.508 419.667 404.558 420.706 404.6L444.157 405.545C444.793 405.571 445.382 405.197 445.628 404.609L454.264 383.989C454.657 383.047 454.033 381.993 453.019 381.885Z" fill="#DB6B3A"/>
<path d="M455.069 382.102L431.44 379.595C430.749 379.521 430.097 379.92 429.85 380.566L421.397 402.751C421.026 403.725 421.72 404.772 422.76 404.814L446.21 405.759C446.846 405.785 447.432 405.411 447.678 404.823L456.317 384.203C456.71 383.261 456.087 382.207 455.069 382.102Z" fill="#F78248"/>
<path d="M441.972 392.458C442.26 391.666 441.851 391.024 441.057 391.024C440.264 391.024 439.388 391.666 439.1 392.458C438.812 393.25 439.218 393.892 440.012 393.892C440.805 393.892 441.684 393.25 441.972 392.458Z" fill="#EBF3FA"/>
<path d="M454.363 384.197C454.506 383.807 454.305 383.494 453.915 383.494C453.525 383.494 453.093 383.807 452.952 384.197C452.811 384.586 453.013 384.902 453.4 384.902C453.79 384.902 454.222 384.586 454.363 384.197Z" fill="#EBF3FA"/>
<path d="M355.686 392.934C355.686 392.934 388.438 404.977 393.36 404.731C396.542 404.571 422.98 395.291 422.98 395.291L425.353 399.775C425.353 399.775 399.619 416.288 392.544 416.205C378.577 416.046 355.008 407.484 352.35 405.801C349.689 404.118 347.956 394.636 355.686 392.934Z" fill="#FFB27D"/>
<path d="M422.98 395.291C422.98 395.291 425.353 391.644 427.717 391.535C430.081 391.43 434.165 393.145 435.559 393.413C436.957 393.681 440.933 394.968 439.749 396.9C438.569 398.829 433.09 399.26 430.727 398.829C428.363 398.401 425.353 399.774 425.353 399.774L422.98 395.291Z" fill="#FFB27D"/>
<path d="M427.074 391.647C427.074 391.647 430.832 389.926 431.907 389.606C432.982 389.284 432.767 389.61 432.444 390.625C432.121 391.644 430.189 392.615 430.189 392.934C430.189 393.253 427.074 391.647 427.074 391.647Z" fill="#FFB27D"/>
<path d="M452.635 393.359C452.635 393.359 451.139 388.428 449.492 389.977C447.777 391.589 448.817 393.202 449.028 395.259C449.428 399.19 450.224 399.021 450.729 398.845C451.231 398.666 453.195 395.335 452.635 393.359Z" fill="#FFB27D"/>
<path d="M452.725 394.109C452.725 394.109 453.483 398.309 449.491 400.5L450.672 397.609L452.725 394.109Z" fill="#FFB27D"/>
<path d="M384.264 378.598C384.264 378.598 382.857 378.043 378.894 378.365C378.894 378.365 379.105 379.908 382.025 380.061C383.682 380.147 384.264 378.598 384.264 378.598Z" fill="white"/>
<path d="M372.561 398.871C372.561 398.871 369.631 408.132 359.569 410.24C359.569 410.24 342.957 405.127 351.228 393.825C351.228 393.825 359.406 387.758 372.561 398.871Z" fill="#F99746"/>
<path d="M452.725 394.703C452.725 394.703 453.416 392.394 453.457 391.992C453.496 391.593 453.448 391.391 453.093 391.672C452.735 391.954 452.194 392.694 452.354 393.394C452.514 394.096 452.725 394.703 452.725 394.703Z" fill="#FFB27D"/>
<path d="M236.902 186.909C236.234 187.672 236.147 188.528 236.48 189.441L236.486 189.454C237.097 191.14 239.119 193.028 241.466 194.909C241.767 195.151 242.032 195.368 242.266 195.573C242.327 195.627 242.387 195.681 242.445 195.732C242.493 195.774 242.538 195.819 242.582 195.857C244.773 197.872 243.948 198.335 247.882 202.423C252.366 207.082 255.453 207.165 256.332 206.744C257.074 206.38 255.565 203.908 253.892 201.133C253.812 200.999 253.732 200.861 253.649 200.727C253.425 200.357 253.204 199.983 252.983 199.613C251.023 196.269 251.525 194.701 251.992 189.726C252.369 185.686 258.29 167.144 258.29 167.144L249.696 165.666C249.696 165.666 247.108 180.429 244.255 182.703C242.73 183.917 241.025 183.929 239.56 184.83C239.454 184.891 239.352 184.954 239.253 185.022C238.421 185.574 237.574 186.142 236.902 186.909Z" fill="#FFC49C"/>
<path d="M236.902 186.909C236.234 187.672 236.147 188.528 236.48 189.441L236.486 189.454C237.235 191.14 239.205 193.015 241.476 194.889C241.77 195.135 242.032 195.362 242.266 195.573C242.327 195.627 242.387 195.681 242.445 195.732C242.493 195.774 242.538 195.819 242.582 195.857C244.773 197.872 243.948 198.335 247.882 202.423C252.366 207.082 255.453 207.165 256.332 206.744C257.074 206.38 255.565 203.908 253.892 201.133C253.019 200.813 248.963 199.169 245.899 195.25C243.2 191.811 241.396 187.391 239.56 184.83C239.454 184.891 239.352 184.954 239.253 185.022C238.421 185.574 237.574 186.142 236.902 186.909Z" fill="#233862"/>
<path d="M306.198 181.55C306.729 184.197 310.509 183.757 314.734 182.725C318.959 181.694 317.955 182.92 323.968 182.256C329.981 181.591 331.801 179.353 331.986 178.459C332.15 177.667 329.178 177.389 325.993 177.022C325.59 176.977 325.19 176.926 324.787 176.878C321.189 176.428 318.553 174.109 315.285 172.206C312.189 170.401 307.57 163.056 307.57 163.056L299.325 163.708C299.325 163.708 303.652 170.267 305.325 173.122C306.31 174.799 306.259 177.018 306.134 178.733C306.07 179.663 306.009 180.617 306.198 181.55Z" fill="#FFC49C"/>
<path d="M314.734 182.725C318.96 181.694 317.955 182.92 323.968 182.256C329.981 181.591 331.801 179.353 331.987 178.459C332.15 177.667 329.178 177.389 325.993 177.022L325.961 177.082C325.961 177.082 322.356 179.634 317.351 179.755C313.273 179.854 308.952 178.689 306.134 178.733C306.07 179.663 306.009 180.617 306.198 181.55C306.729 184.197 310.509 183.757 314.734 182.725Z" fill="#233862"/>
<path d="M274.598 128.906L266.89 149.615L256.828 176.658C256.828 176.658 254.097 176.92 251.48 176.169C249.075 175.473 246.312 173.656 246.312 173.656C246.312 173.656 249.107 144.621 254.317 127.954C255.654 123.675 257.151 120.216 258.805 118.268C266.884 108.732 274.598 128.906 274.598 128.906Z" fill="#ED7D2B"/>
<path d="M266.762 96.0154C261.952 94.4666 248.656 96.2869 234.903 98.9055C233.662 99.145 232.402 98.583 231.746 97.5036L229.811 94.3165L198.56 91.8798C198.56 91.8798 190.494 110.179 193.926 125.402C194.767 129.132 199.334 133.964 206.316 134.395C225.89 135.612 239.096 128.825 259.415 121.691C262.95 120.449 264.558 128.295 268.23 135.995C271.905 143.698 302.763 170.108 302.763 170.108C302.763 170.108 307.506 170.156 309.467 169.421C311.571 168.632 312.342 167.607 312.342 167.607C312.342 167.607 278.152 99.6847 266.762 96.0154Z" fill="#F99746"/>
<path d="M228.583 3.45821C224.579 1.36008 218.489 1.07583 217.498 0.941704C205.657 -0.645462 198.528 16.5356 198.109 21.741C197.338 31.3374 192.253 32.8 185.098 38.8102C170.747 50.8593 174.956 64.8628 182.802 70.065C187.51 73.185 195.806 70.065 195.806 70.065C195.925 70.1448 218.499 57.4634 229.629 51.3447C246.312 48.9783 238.783 8.80731 228.583 3.45821Z" fill="#233862"/>
<path d="M220.303 46.1363C220.351 46.1682 214.827 48.0524 211.133 46.4173C207.656 44.8844 205.024 39.1777 205.075 39.1745C206.658 39.101 208.392 37.7214 209.729 28.6647L210.4 28.9074L221.72 32.9727C221.72 32.9727 220.901 36.6005 220.37 40.0527C219.922 42.9492 219.682 45.7275 220.303 46.1363Z" fill="#FFB27D"/>
<path d="M221.719 32.9727C221.719 32.9727 221.153 35.5467 220.526 39.0659C214.027 37.8971 211.318 32.4171 210.4 28.9074L221.719 32.9727Z" fill="#ED975D"/>
<path d="M223.405 36.5717C223.405 36.5717 207.922 34.4959 209.364 24.8898C210.807 15.2806 209.78 8.53915 219.727 9.45888C229.674 10.3786 231.04 14.3321 231.34 17.6566C231.641 20.981 227.47 36.8655 223.405 36.5717Z" fill="#FFB27D"/>
<path d="M230.777 12.3874C230.777 12.3874 220.862 20.9172 214.12 21.607C207.378 22.2936 204.826 20.1316 204.826 20.1316C204.826 20.1316 208.798 16.8391 211.19 11.522C211.897 9.95395 213.385 8.87773 215.099 8.73083C219.916 8.31568 229.041 8.12407 230.777 12.3874Z" fill="#233862"/>
<path d="M224.579 11.6241C224.579 11.6241 227.896 14.8272 228.941 17.2C229.949 19.4929 230.25 24.9729 229.447 27.1509C229.447 27.1509 234.615 17.1169 231.689 12.2436C228.586 7.07653 224.579 11.6241 224.579 11.6241Z" fill="#233862"/>
<path d="M233.339 68.9122C234.529 96.8234 232.648 95.2841 229.783 96.6414C228.794 97.1108 226.635 97.7814 223.578 97.9826C213.967 98.6213 197.07 97.0405 196.427 95.2649C194.21 89.1302 195.774 87.2237 193.926 77.8284C193.734 76.8289 193.494 75.7463 193.216 74.5679C191.671 68.117 190.171 65.9199 195.643 55.5538C200.604 46.1617 205.76 38.5421 206.223 38.8167C219.314 46.5769 220.37 40.0526 220.37 40.0526C220.37 40.0526 232.693 53.6601 233.339 68.9122Z" fill="#AEC3FF"/>
<path d="M266.89 149.615L256.828 176.658C256.828 176.658 254.097 176.92 251.48 176.169C249.075 175.473 246.312 173.656 246.312 173.656C246.312 173.656 249.107 144.621 254.317 127.954L266.89 149.615Z" fill="#F99746"/>
<path d="M220.37 40.0526C220.37 40.0526 233.838 42.3328 235.421 48.1226C237.005 53.9124 246.312 87.9551 246.312 87.9551C246.312 87.9551 239.464 89.1846 236.301 86.0262C233.138 82.8678 225.292 56.7227 225.292 56.7227L220.37 40.0526Z" fill="#AEC3FF"/>
<path d="M223.578 97.9826C213.967 98.6213 197.07 97.0405 196.427 95.2649C194.21 89.1302 195.774 87.2237 193.926 77.8285L198.56 64.7926C198.56 64.7926 197.796 79.3071 202.082 83.1265C206.364 86.9427 219.634 90.4939 221.72 93.6842C222.724 95.217 223.386 96.7499 223.578 97.9826Z" fill="#94B0ED"/>
<path d="M212.566 91.8799C212.566 91.8799 222.049 89.7721 223.578 90.612C225.107 91.4519 228.846 94.5113 229.316 95.5779C229.783 96.6414 225.91 94.7668 224.649 94.4315C223.834 94.2111 221.684 94.9584 220.619 95.3129C216.145 96.801 213.404 96.0346 213.404 96.0346L212.566 91.8799Z" fill="#FFB27D"/>
<path d="M206.214 38.8103C206.214 38.8103 193.481 39.5927 189.074 45.7306C182.869 54.3722 170.562 91.1964 177.614 96.108C185.559 101.639 213.772 97.5546 213.772 97.5546C213.772 97.5546 214.709 93.1732 213.404 91.0527C212.096 88.9354 190.871 85.5088 189.889 84.5316C188.911 83.5544 202.136 65.4568 202.136 62.522C202.136 59.5872 206.214 38.8103 206.214 38.8103Z" fill="#AEC3FF"/>
<path d="M224.035 93.2466C224.035 93.2466 226.025 95.8046 226.674 96.1112C227.326 96.4177 227.745 96.3411 227.745 96.3411L226.408 93.9332L224.035 93.2466Z" fill="#FFB27D"/>
<path d="M223.578 90.6121L229.354 93.4128C229.354 93.4128 229.108 93.8152 228.398 93.7801C227.684 93.7481 225.89 93.0935 225.89 93.0935L223.578 90.6121Z" fill="#FFB27D"/>
<path d="M226.674 100.033H272.369L286.116 65.9009H240.491L226.674 100.033Z" fill="#2B478B"/>
<path d="M272.906 98.7013H212.566V100.033H272.369L272.906 98.7013Z" fill="#2B478B"/>
<path d="M260.835 82.9668C261.178 81.7661 260.484 80.7953 259.281 80.7953C258.082 80.7953 256.828 81.7661 256.482 82.9668C256.137 84.1644 256.834 85.1384 258.034 85.1384C259.236 85.1384 260.49 84.1644 260.835 82.9668Z" fill="#EBF3FA"/>
</svg>
