<svg width="88" height="72" viewBox="0 0 88 72" fill="none" xmlns="http://www.w3.org/2000/svg">
<g clip-path="url(#clip0_193_1383)">
<path d="M1.00001 28.92V7.57001C0.989658 7.10492 1.14177 6.65077 1.43015 6.28573C1.71853 5.92069 2.12515 5.66759 2.58001 5.57001H2.69001L5.00001 5.14001" stroke="white" stroke-width="2" stroke-linecap="round" stroke-linejoin="round"/>
<path d="M35.28 6V28.45H33C32.4866 28.4477 31.9876 28.6194 31.5844 28.9373C31.1812 29.2551 30.8976 29.7002 30.78 30.2C30.78 30.2 30.78 30.2 30.78 30.25C30.7447 30.4111 30.7246 30.5751 30.72 30.74V46.54C21.673 44.921 12.3974 45.0773 3.41 47C3.27366 47.0134 3.13634 47.0134 3 47C2.46957 47 1.96086 46.7893 1.58579 46.4142C1.21071 46.0391 1 45.5304 1 45V37.83" stroke="white" stroke-width="2" stroke-linecap="round" stroke-linejoin="round"/>
<path d="M35.28 2.60001V28.45H33C32.4866 28.4477 31.9876 28.6194 31.5844 28.9373C31.1812 29.2551 30.8976 29.7002 30.78 30.2C30.78 30.2 30.78 30.2 30.78 30.25C30.7447 30.4111 30.7246 30.5752 30.72 30.74V42.41C23.0855 41.2918 15.3216 41.3964 7.72003 42.72C7.38796 42.7835 7.04596 42.7727 6.71858 42.6883C6.3912 42.6039 6.08656 42.4481 5.82653 42.2321C5.5665 42.016 5.35753 41.7451 5.21463 41.4387C5.07173 41.1323 4.99844 40.7981 5.00003 40.46V4.46001C5.00218 3.92887 5.18889 3.41499 5.5282 3.00635C5.86752 2.59772 6.33833 2.31974 6.86003 2.22001C11.1621 1.42873 15.5258 1.02047 19.9 1.00001C25.0695 0.974599 30.2265 1.51108 35.28 2.60001V2.60001Z" stroke="white" stroke-width="2" stroke-linecap="round" stroke-linejoin="round"/>
<path d="M20.05 7.64997C23.7419 7.64369 27.4202 8.09718 31 8.99997" stroke="white" stroke-width="2" stroke-linecap="round" stroke-linejoin="round"/>
<path d="M9.25 9C10.991 8.55756 12.7577 8.22359 14.54 8" stroke="white" stroke-width="2" stroke-linecap="round" stroke-linejoin="round"/>
<path d="M27.5601 13.59C28.8301 13.8 29.9701 14.05 30.9901 14.3" stroke="white" stroke-width="2" stroke-linecap="round" stroke-linejoin="round"/>
<path d="M9.25 14.3C12.7842 13.4316 16.4107 12.9951 20.05 13C21.47 13 22.82 13.06 24.05 13.17" stroke="white" stroke-width="2" stroke-linecap="round" stroke-linejoin="round"/>
<path d="M9.25 19.62C16.3865 17.8334 23.8535 17.8334 30.99 19.62" stroke="white" stroke-width="2" stroke-linecap="round" stroke-linejoin="round"/>
<path d="M20.05 23.6C23.7415 23.5905 27.4198 24.0406 31 24.94" stroke="white" stroke-width="2" stroke-linecap="round" stroke-linejoin="round"/>
<path d="M9.25 24.9401C10.991 24.4976 12.7577 24.1637 14.54 23.9401" stroke="white" stroke-width="2" stroke-linecap="round" stroke-linejoin="round"/>
<path d="M9.25 30.2501C12.7657 29.3699 16.3758 28.9233 20 28.9201C23.6285 28.911 27.2447 29.3407 30.77 30.2001" stroke="white" stroke-width="2" stroke-linecap="round" stroke-linejoin="round"/>
<path d="M19.1899 34.24H19.9999C23.6045 34.2252 27.1975 34.6483 30.6999 35.5" stroke="white" stroke-width="2" stroke-linecap="round" stroke-linejoin="round"/>
<path d="M9.25 35.57C10.19 35.33 11.25 35.11 12.38 34.9" stroke="white" stroke-width="2" stroke-linecap="round" stroke-linejoin="round"/>
<path d="M69.5601 7.59002V28.45H65.5601V5.15002C66.3601 5.29002 67.1501 5.44002 67.9401 5.61002C68.3989 5.6988 68.8121 5.94544 69.108 6.30713C69.404 6.66882 69.5639 7.12272 69.5601 7.59002V7.59002Z" stroke="white" stroke-width="2" stroke-linecap="round" stroke-linejoin="round"/>
<path d="M54.8 1.12997C53.47 1.04997 52.09 0.999967 50.67 0.999967C45.4973 0.975175 40.3371 1.51165 35.28 2.59997V28.45H65.58V4.44997C65.5821 3.91397 65.3961 3.39422 65.0544 2.98126C64.7127 2.56829 64.2369 2.28827 63.71 2.18997C61.92 1.85997 59.96 1.56997 57.85 1.34997" stroke="white" stroke-width="2" stroke-linecap="round" stroke-linejoin="round"/>
<path d="M50.5201 7.64995C46.8282 7.6446 43.1501 8.09808 39.5701 8.99995" stroke="white" stroke-width="2" stroke-linecap="round" stroke-linejoin="round"/>
<path d="M61.32 9C59.5693 8.55588 57.7925 8.2219 56 8" stroke="white" stroke-width="2" stroke-linecap="round" stroke-linejoin="round"/>
<path d="M43.0001 13.59C41.7401 13.8 40.5901 14.05 39.5701 14.3" stroke="white" stroke-width="2" stroke-linecap="round" stroke-linejoin="round"/>
<path d="M61.32 14.3C57.7858 13.4316 54.1593 12.9951 50.52 13C49.1 13 47.75 13.06 46.52 13.17" stroke="white" stroke-width="2" stroke-linecap="round" stroke-linejoin="round"/>
<path d="M61.3201 19.62C54.1801 17.8334 46.71 17.8334 39.5701 19.62" stroke="white" stroke-width="2" stroke-linecap="round" stroke-linejoin="round"/>
<path d="M50.52 23.6C46.8119 23.5872 43.1166 24.0374 39.52 24.94" stroke="white" stroke-width="2" stroke-linecap="round" stroke-linejoin="round"/>
<path d="M61.32 24.94C59.568 24.5161 57.7912 24.2021 56 24" stroke="white" stroke-width="2" stroke-linecap="round" stroke-linejoin="round"/>
<path d="M83.9799 62.6H29.1799C27.9152 62.6 26.8899 63.6252 26.8899 64.89V68.11C26.8899 69.3747 27.9152 70.4 29.1799 70.4H83.9799C85.2446 70.4 86.2699 69.3747 86.2699 68.11V64.89C86.2699 63.6252 85.2446 62.6 83.9799 62.6Z" stroke="white" stroke-width="2" stroke-linecap="round" stroke-linejoin="round"/>
<path d="M82.45 37.63V60.31C82.45 60.9173 82.2087 61.4998 81.7792 61.9292C81.3498 62.3587 80.7673 62.5999 80.16 62.5999H33C32.3934 62.5973 31.8125 62.3552 31.3836 61.9263C30.9547 61.4974 30.7126 60.9165 30.71 60.31V30.74C30.7126 30.1334 30.9547 29.5525 31.3836 29.1236C31.8125 28.6947 32.3934 28.4526 33 28.45H80.16C80.7673 28.45 81.3498 28.6912 81.7792 29.1207C82.2087 29.5501 82.45 30.1326 82.45 30.74V32.3699" stroke="white" stroke-width="2" stroke-linecap="round" stroke-linejoin="round"/>
<path d="M72.0799 33H75.5799C76.1872 33 76.7697 33.2413 77.1992 33.6707C77.6286 34.1002 77.8699 34.6827 77.8699 35.29V55.69C77.8712 55.992 77.813 56.2914 77.6987 56.5709C77.5843 56.8505 77.416 57.1048 77.2033 57.3193C76.9907 57.5338 76.7379 57.7043 76.4593 57.8211C76.1808 57.9379 75.8819 57.9987 75.5799 58H37.5799C36.9734 57.9974 36.3924 57.7553 35.9635 57.3264C35.5346 56.8975 35.2925 56.3165 35.2899 55.71V35.33C35.2846 35.0268 35.3396 34.7255 35.4517 34.4437C35.5637 34.1619 35.7307 33.9051 35.9428 33.6884C36.1549 33.4716 36.408 33.2991 36.6873 33.181C36.9666 33.0628 37.2666 33.0013 37.5699 33H68.6299" stroke="white" stroke-width="2" stroke-linecap="round" stroke-linejoin="round"/>
<path d="M61.6901 45.5301L54.0701 41.5601V49.4901L61.6901 45.5301Z" stroke="white" stroke-width="2" stroke-linecap="round" stroke-linejoin="round"/>
<path d="M51 62.6C51 62.6 51.32 65.37 56.59 65.37C61.86 65.37 62.26 62.6 62.26 62.6" stroke="white" stroke-width="2" stroke-linecap="round" stroke-linejoin="round"/>
</g>
<defs>
<clipPath id="clip0_193_1383">
<rect width="87.27" height="71.4" fill="white"/>
</clipPath>
</defs>
</svg>
