<svg width="30" height="30" viewBox="0 0 30 30" fill="none" xmlns="http://www.w3.org/2000/svg">
<path fill-rule="evenodd" clip-rule="evenodd" d="M10.3952 0H19.6048C28.0099 0 30 1.99012 30 10.3952V19.6048C30 28.0099 28.0099 30 19.6048 30H10.3952C1.99012 30 0 28.0099 0 19.6048V10.3952C0 1.99012 1.99012 0 10.3952 0Z" fill="#1890FF"/>
<path d="M6.25888 14.6031C8.01238 13.6372 9.96975 12.8311 11.7986 12.0208C14.945 10.6937 18.1039 9.38959 21.2946 8.17547C21.9154 7.96861 23.0309 7.76633 23.1403 8.68629C23.0803 9.98854 22.834 11.2832 22.665 12.5778C22.2361 15.4248 21.7403 18.262 21.2569 21.0997C21.0903 22.0449 19.9062 22.5342 19.1486 21.9293C17.3279 20.6995 15.4931 19.4815 13.6956 18.2232C13.1068 17.6249 13.6528 16.7657 14.1787 16.3384C15.6783 14.8605 17.2687 13.6049 18.6899 12.0507C19.0733 11.1249 17.9405 11.9051 17.5669 12.1442C15.5139 13.5589 13.5112 15.0601 11.3467 16.3034C10.241 16.912 8.9524 16.3919 7.84728 16.0523C6.85641 15.6421 5.4044 15.2287 6.25878 14.6032L6.25888 14.6031Z" fill="white"/>
</svg>
