<svg width="30" height="30" viewBox="0 0 30 30" fill="none" xmlns="http://www.w3.org/2000/svg">
<path fill-rule="evenodd" clip-rule="evenodd" d="M10.3952 0H19.6048C28.0099 0 30 1.99012 30 10.3952V19.6048C30 28.0099 28.0099 30 19.6048 30H10.3952C1.99012 30 0 28.0099 0 19.6048V10.3952C0 1.99012 1.99012 0 10.3952 0Z" fill="#1890FF"/>
<path fill-rule="evenodd" clip-rule="evenodd" d="M24.5589 10.3315C24.7071 9.86577 24.5589 9.52703 23.9026 9.52703H21.722C21.1715 9.52703 20.9174 9.82343 20.7692 10.141C20.7692 10.141 19.6471 12.851 18.0805 14.6082C17.5723 15.1163 17.3395 15.2857 17.0642 15.2857C16.916 15.2857 16.7255 15.1163 16.7255 14.6505V10.3104C16.7255 9.75992 16.5561 9.50586 16.0903 9.50586H12.6606C12.3218 9.50586 12.1101 9.75992 12.1101 10.014C12.1101 10.5433 12.8934 10.6703 12.9781 12.1523V15.3704C12.9781 16.069 12.8511 16.196 12.5759 16.196C11.8349 16.196 10.0353 13.4649 8.95554 10.3527C8.74383 9.73875 8.53211 9.50586 7.98166 9.50586H5.77982C5.14468 9.50586 5.03882 9.80226 5.03882 10.1198C5.03882 10.6915 5.77982 13.5708 8.48977 17.3817C10.2893 19.9857 12.8511 21.3831 15.1588 21.3831C16.5561 21.3831 16.7255 21.0655 16.7255 20.5362V18.5673C16.7255 17.9321 16.8525 17.8263 17.2971 17.8263C17.6147 17.8263 18.1863 17.9956 19.4778 19.2447C20.9598 20.7267 21.2138 21.4042 22.0395 21.4042H24.2202C24.8553 21.4042 25.1517 21.0867 24.9824 20.4727C24.7918 19.8587 24.072 18.9695 23.1404 17.9109C22.6323 17.3181 21.8702 16.6618 21.6373 16.3443C21.3197 15.9208 21.4044 15.7514 21.6373 15.3704C21.6161 15.3704 24.2837 11.6018 24.5589 10.3315Z" fill="white"/>
</svg>
