<svg width="328" height="315" viewBox="0 0 328 315" fill="none" xmlns="http://www.w3.org/2000/svg">
<g clip-path="url(#clip0_2777_9736)">
<path d="M229.062 311.576L242.819 243.826L248.452 311.576H281.683L273.949 200.016L211.935 200.285L195.442 311.576H229.062Z" fill="#40A9FF"/>
<path opacity="0.1" d="M252.568 311.576L242.819 243.826L248.452 311.576H252.568Z" fill="black"/>
<path opacity="0.1" d="M201.848 311.576L218.283 201.545L211.935 200.285L195.442 311.576H201.848Z" fill="black"/>
<path d="M118.498 155.616C118.498 155.616 114.646 213.326 114.136 225.027C113.627 236.728 111.995 257.033 111.995 257.033L107.954 235.737L99.4871 209.519L103.099 168.531L107.679 154.763L118.498 155.616Z" fill="#EFBFA9"/>
<path d="M40.547 311.513C40.547 311.513 34.4447 241.674 43.6268 222.462C48.0519 213.222 50.5765 211.614 50.5765 211.614L102.349 202.455C102.349 202.455 112.385 240.889 117.508 277.773C122.631 314.656 122.168 311.547 122.168 311.547H90.0645L81.8898 267.274L75.7187 311.547L40.547 311.513Z" fill="#3D1A02"/>
<path d="M291.603 187.823C289.102 191.538 287.19 193.702 285.787 194.961C285.201 195.439 284.51 195.772 283.771 195.932C283.032 196.092 282.265 196.075 281.534 195.883C279.765 195.517 277.95 195.934 276.863 196.003C274.155 196.175 267.612 193.169 268.064 195.31C268.705 198.333 275.506 196.993 274.183 199.85C273.273 201.814 260.891 204.046 261.463 205.718C262.036 207.389 270.68 203.651 271.195 204.859C271.71 206.067 260.828 210.629 262.036 212.501C263.009 213.995 272.02 207.143 272.987 208.632C273.954 210.12 263.999 214.413 265.602 216.073C266.747 217.258 274.973 210.475 276.17 211.522C277.366 212.57 270.239 215.421 271.453 217.579C272.254 219.016 287.23 207.137 288.054 204.275C288.272 203.508 291.088 201.27 295.067 198.201L291.603 187.823Z" fill="#EFBFA9"/>
<path d="M193.353 188.246C195.86 191.962 197.766 194.131 199.175 195.385C199.76 195.863 200.449 196.196 201.188 196.356C201.926 196.516 202.692 196.499 203.422 196.307C205.191 195.94 207.006 196.358 208.099 196.427C210.801 196.598 217.35 193.593 216.892 195.734C216.251 198.762 209.45 197.417 210.773 200.274C211.688 202.237 224.071 204.47 223.492 206.141C222.914 207.813 214.282 204.075 213.761 205.283C213.24 206.491 224.128 211.053 222.92 212.925C221.953 214.419 212.942 207.567 211.975 209.055C211.007 210.543 220.962 214.837 219.359 216.497C218.214 217.682 209.988 210.898 208.792 211.946C207.595 212.994 214.711 215.816 213.526 218.003C212.725 219.434 197.749 207.555 196.925 204.693C196.702 203.926 193.885 201.688 189.906 198.619L193.353 188.246Z" fill="#EFBFA9"/>
<path d="M202.329 195.024L200.766 191.876L192.597 203.119L196.06 205.403L202.329 195.024Z" fill="white"/>
<path opacity="0.1" d="M194.864 200.857L192.597 203.119L196.06 205.403L197.686 202.718L194.864 200.857Z" fill="black"/>
<path d="M273.061 103.889C283.537 109.705 326.615 138.019 327.971 149.073C329.168 158.805 299.291 197.159 292.433 203.456C292.25 203.625 292.034 203.753 291.798 203.833C291.562 203.913 291.313 203.942 291.065 203.919C290.817 203.896 290.577 203.82 290.36 203.698C290.143 203.576 289.954 203.41 289.806 203.21L281.648 192.345C281.425 192.05 281.3 191.693 281.29 191.324C281.279 190.954 281.385 190.591 281.591 190.284C284.579 185.836 286.228 177.616 301.867 155.399L277.996 138.431L262.877 114.348L273.061 103.889Z" fill="white"/>
<path d="M280.916 195.305L282.244 191.876L290.413 203.119L287.882 205.214L280.916 195.305Z" fill="white"/>
<path opacity="0.1" d="M282.667 191.504C282.215 190.897 282.347 190.359 282.765 189.7C285.753 185.252 287.945 175.893 303.585 153.67L277.876 133.783C277.407 134.436 276.797 134.975 276.09 135.357L278.007 138.408L301.879 155.376C286.239 177.593 284.591 185.813 281.602 190.261C281.396 190.568 281.291 190.932 281.301 191.301C281.311 191.67 281.437 192.028 281.66 192.322L289.8 203.199C290.43 204.058 282.667 191.504 282.667 191.504Z" fill="black"/>
<path d="M275.763 105.796C274.361 104.25 270.754 102.59 268.808 102.573C267.24 102.573 260.485 102.063 257.456 101.828L255.974 101.72L240.254 103.689L224.592 101.737L223.109 101.846C220.081 102.08 206.204 104.279 204.79 105.853C201.63 109.328 205.306 197.474 211.923 200.308C220.235 203.869 270.045 201.877 273.937 200.039C280.463 196.925 278.923 109.265 275.763 105.796Z" fill="white"/>
<path opacity="0.1" d="M238.966 112.562L235.262 108.858L234.289 109.831L237.993 113.535L232.491 164.713L239.241 171.971V172.006L239.258 171.989L239.275 172.006V171.971L240.197 170.981L233.465 163.739L238.966 112.562Z" fill="black"/>
<path d="M250.301 96.8136L240.248 102.584L230.196 96.825L231.364 84.0879L249.121 84.0764L250.301 96.8136Z" fill="#EFBFA9"/>
<path d="M245.204 108.858L240.233 103.888L235.263 108.858L240.233 113.829L245.204 108.858Z" fill="#FA8C16"/>
<path d="M240.248 170.998L246.998 163.74L241.399 111.669H240.248H240.214H239.063L233.465 163.74L240.214 170.998V171.033L240.231 171.015L240.248 171.033V170.998Z" fill="#FA8C16"/>
<path opacity="0.1" d="M249.116 84.0764H231.369L230.7 91.1291C239.785 97.6035 249.293 86.1373 249.293 86.1373L249.116 84.0764Z" fill="black"/>
<path opacity="0.1" d="M255.229 101.685C255.174 101.997 255.029 102.285 254.811 102.515L247.501 110.289C247.149 110.663 246.665 110.886 246.151 110.911C245.638 110.935 245.135 110.76 244.748 110.421L239.149 105.498L233.562 110.427C233.175 110.765 232.672 110.941 232.159 110.916C231.645 110.892 231.161 110.669 230.808 110.295L223.487 102.533C223.308 102.337 223.178 102.101 223.109 101.846L224.592 101.737L240.254 103.689C240.254 103.689 251.64 101.697 255.229 101.685Z" fill="black"/>
<path d="M256.163 99.859L253.352 94.5123C253.226 94.2735 253.053 94.0629 252.843 93.8934C252.633 93.724 252.39 93.5993 252.13 93.5269C251.87 93.4545 251.598 93.436 251.331 93.4726C251.063 93.5092 250.806 93.6 250.575 93.7395L240.271 99.9563L229.938 93.7509C229.708 93.6109 229.451 93.5198 229.183 93.4833C228.916 93.4467 228.644 93.4656 228.384 93.5386C228.124 93.6116 227.882 93.7372 227.673 93.9077C227.464 94.0781 227.292 94.2898 227.168 94.5295L224.357 99.8762C224.2 100.174 224.141 100.514 224.187 100.848C224.233 101.181 224.383 101.492 224.614 101.737L231.925 109.505C232.277 109.879 232.762 110.102 233.276 110.125C233.79 110.149 234.293 109.972 234.678 109.631L240.277 104.708L245.875 109.625C246.261 109.966 246.765 110.144 247.279 110.119C247.793 110.095 248.278 109.87 248.629 109.493L255.888 101.725C256.123 101.482 256.277 101.171 256.326 100.836C256.375 100.502 256.318 100.16 256.163 99.859Z" fill="white"/>
<path d="M240.231 87.9004C250.348 87.9004 258.55 77.5947 258.55 64.882C258.55 52.1692 250.348 41.8635 240.231 41.8635C230.114 41.8635 221.912 52.1692 221.912 64.882C221.912 77.5947 230.114 87.9004 240.231 87.9004Z" fill="#EFBFA9"/>
<path opacity="0.1" d="M223.985 64.802C223.985 52.6545 221.907 52.208 221.912 64.8879C221.918 77.5678 230.127 87.9006 240.231 87.9006C240.678 87.9006 241.118 87.872 241.553 87.8319C232.068 87.0133 223.99 76.9552 223.985 64.802Z" fill="black"/>
<path d="M259.322 52.4884L258.527 64.8649C257.982 64.4296 257.54 63.8799 257.231 63.2547C256.923 62.6295 256.755 61.9441 256.741 61.247C256.741 58.3389 257.141 52.2651 254.451 52.2651C254.082 52.2756 253.719 52.3633 253.386 52.5227C252.228 53.5553 250.73 54.124 249.179 54.1199C247.484 54.1199 245.858 53.447 244.659 52.2491C243.46 51.0511 242.786 49.4262 242.784 47.7313C242.783 47.2945 242.829 46.8588 242.922 46.4318C238.399 47.906 233.611 48.3864 228.885 47.8401C228.885 47.8401 226.194 47.8973 225.565 52.7403C225.187 55.6026 224.677 57.6062 224.294 61.1382C224.088 63.0559 221.884 64.8821 221.884 64.8821C221.884 64.8821 219.594 51.8873 221.065 46.0654C222.382 40.9133 219.96 42.7967 219.411 41.1023C218.838 39.2647 219.846 38.6922 220.773 38.8124C221.54 38.8926 222.273 39.196 222.491 38.967C223 38.4575 221.157 35.9158 222.37 34.1984C224.363 31.3762 226.549 34.6278 225.931 36.2822C225.931 36.2822 225.931 36.2421 225.96 36.2249C226.177 35.87 227.374 34.1813 231.112 32.9219L231.404 32.8303L231.976 32.6643L232.325 32.5669C234.046 32.1207 235.803 31.8276 237.575 31.6911C238.096 31.651 238.645 31.6167 239.212 31.588H241.611C242.91 26.4016 245.211 22.5547 250.804 22.5547C252.375 22.5539 253.93 22.8625 255.381 23.4628C256.832 24.0631 258.151 24.9433 259.262 26.0532C260.373 27.1632 261.254 28.481 261.856 29.9316C262.458 31.3822 262.768 32.9371 262.769 34.5076C262.766 35.1795 262.704 35.8499 262.585 36.5112C264.349 38.2285 266.129 40.5813 266.135 43.2203C266.192 48.0862 264.125 52.0934 259.322 52.4884Z" fill="#3D1A02"/>
<path d="M260.88 60.9206H260.851C260.558 60.8411 260.251 60.8335 259.955 60.8983C259.658 60.9631 259.382 61.0985 259.149 61.293C258.917 61.4874 258.735 61.7352 258.618 62.0152C258.502 62.2952 258.455 62.5992 258.481 62.9013C258.527 63.5539 258.55 64.2122 258.55 64.8763C258.551 66.6934 258.38 68.5066 258.04 70.2917C259.758 70.681 261.732 69.0953 262.54 66.6222C263.381 64.0462 262.637 61.4988 260.88 60.9206Z" fill="#EFBFA9"/>
<path d="M232.022 67.9446C233.04 67.9446 233.865 66.3504 233.865 64.3839C233.865 62.4174 233.04 60.8232 232.022 60.8232C231.004 60.8232 230.179 62.4174 230.179 64.3839C230.179 66.3504 231.004 67.9446 232.022 67.9446Z" fill="#010002"/>
<path d="M249.201 67.9334C250.219 67.9334 251.045 66.3392 251.045 64.3727C251.045 62.4062 250.219 60.812 249.201 60.812C248.183 60.812 247.358 62.4062 247.358 64.3727C247.358 66.3392 248.183 67.9334 249.201 67.9334Z" fill="#010002"/>
<path d="M234.707 56.3983C234.65 55.8945 232.824 55.1503 230.511 55.4022C228.198 55.6541 227.7 57.3485 228.181 57.5031C228.954 57.7493 228.605 57.5031 230.917 57.2684C233.23 57.0337 234.747 56.902 234.707 56.3983Z" fill="#460000"/>
<path d="M245.767 56.3925C245.824 55.8887 247.65 55.1388 249.963 55.3907C252.276 55.6425 252.779 57.337 252.293 57.4916C251.52 57.7377 251.869 57.4916 249.562 57.2626C247.255 57.0336 245.715 56.8962 245.767 56.3925Z" fill="#460000"/>
<path d="M240.231 64.8821C240.231 64.8821 240.231 67.1376 239.046 67.939C237.861 68.7404 234.896 72.3126 240.66 73.1541" stroke="#E8937F" stroke-miterlimit="10"/>
<path d="M244.399 81.2886C243.078 81.8279 241.669 82.1209 240.243 82.153C239.12 82.1432 238.005 81.9775 236.928 81.6606C234.638 80.9909 232.726 79.6571 233.247 77.8939C233.311 77.6571 233.418 77.434 233.562 77.2356C234.65 75.7415 237.569 76.8749 240.243 76.8749C242.916 76.8749 245.721 75.7644 246.9 77.2585C247.044 77.4498 247.158 77.6621 247.238 77.8882C247.73 79.2449 246.311 80.4871 244.399 81.2886Z" fill="#E38156"/>
<path d="M244.399 81.2886C243.078 81.828 241.669 82.1209 240.243 82.153C239.12 82.1433 238.005 81.9776 236.928 81.6607C236.922 81.6055 236.922 81.5499 236.928 81.4947C236.928 80.4414 238.611 79.5884 240.683 79.5884C242.607 79.5713 244.198 80.3212 244.399 81.2886Z" fill="#E39978"/>
<path d="M246.9 77.2815C244.756 77.9526 242.517 78.2678 240.271 78.2146C237.995 78.2674 235.727 77.9345 233.562 77.2299C234.65 75.7358 237.569 76.8693 240.243 76.8693C242.916 76.8693 245.721 75.7587 246.9 77.2815Z" fill="#E6FCFF"/>
<path opacity="0.1" d="M249.957 42.7509C249.957 42.7509 242.962 41.4801 241.004 36.8375C239.046 32.1949 232.011 32.6299 232.011 32.6299C234.373 31.9913 236.801 31.6301 239.246 31.5537H241.645C241.645 31.5537 240.431 37.9194 249.957 42.7509Z" fill="black"/>
<path opacity="0.1" d="M262.626 36.4825C256.947 34.9197 255.229 36.8317 253.197 38.738C253.197 38.738 254.966 35.4922 258.023 35.2403C261.08 34.9884 262.626 36.4825 262.626 36.4825Z" fill="black"/>
<path opacity="0.1" d="M259.351 52.4942C258.048 52.3334 256.805 51.8531 255.733 51.0961C254.66 50.3391 253.791 49.3288 253.203 48.155C253.203 48.155 254.09 51.9103 259.277 53.6849L259.351 52.4942Z" fill="black"/>
<path opacity="0.1" d="M249.213 54.1256C247.518 54.1256 245.892 53.4527 244.693 52.2547C243.494 51.0568 242.82 49.4319 242.819 47.737C242.818 47.3001 242.864 46.8645 242.956 46.4375C238.433 47.9117 233.645 48.3921 228.919 47.8457C231.421 49.9982 239.911 48.298 241.559 48.4754C242.704 48.6014 241.719 51.5438 244.204 53.181C248.784 56.2036 251.852 53.5474 251.852 53.5474C251.024 53.9288 250.124 54.1261 249.213 54.1256Z" fill="black"/>
<path opacity="0.1" d="M241.542 31.5594C239.097 31.6364 236.669 31.9956 234.306 32.6299C229.589 33.9752 229.406 35.9673 228.267 36.2478C227.128 36.5284 226.292 36.8718 225.977 36.2478C225.977 36.2478 225.977 36.2078 226.006 36.1906C226.223 35.8357 227.42 34.1469 231.158 32.8875L231.45 32.7959L232.022 32.6299L232.371 32.5326C234.091 32.0803 235.848 31.7872 237.621 31.6568C238.142 31.6167 238.691 31.5823 239.258 31.5537L241.542 31.5594Z" fill="black"/>
<path opacity="0.1" d="M223.389 46.0712C224.706 40.9191 221.752 42.8025 221.203 41.108C220.836 39.9631 221.088 39.2304 221.546 38.9155C221.214 38.8754 221.283 38.8411 220.808 38.7896C219.88 38.698 218.844 39.2704 219.445 41.0794C220.018 42.7968 222.416 40.8676 221.1 46.0426C219.623 51.8645 221.918 64.8592 221.918 64.8592C222.68 64.2065 223.33 63.4329 223.842 62.5694C223.258 58.5736 222.302 50.3761 223.389 46.0712Z" fill="black"/>
<path opacity="0.1" d="M252.018 22.5834C251.628 22.5441 251.236 22.525 250.844 22.5262C245.252 22.5262 242.95 26.3731 241.651 31.5595H243.941C245.148 26.7337 247.232 23.07 252.018 22.5834Z" fill="black"/>
<path opacity="0.1" d="M222.611 38.8067C222.772 38.7836 222.936 38.7836 223.097 38.8067C223.865 38.8868 223.83 39.0242 224.059 38.8067C224.569 38.2972 222.72 35.7555 223.933 34.0381C224.105 33.7977 224.34 33.4657 225.221 33.6088C224.5 32.9047 223.43 32.7616 222.416 34.1813C221.289 35.7727 222.806 38.0854 222.611 38.8067Z" fill="black"/>
<path opacity="0.1" d="M231.209 47.8401C231.013 47.8611 230.82 47.9093 230.637 47.9832C231.782 48.0519 232.829 48.0576 233.842 48.0233C232.989 48.0004 232.108 47.9431 231.209 47.8401Z" fill="black"/>
<path opacity="0.1" d="M245.108 47.737C245.108 47.3001 245.154 46.8645 245.246 46.4375C244.462 46.7146 243.663 46.9459 242.853 47.1302C242.83 47.3316 242.818 47.5342 242.819 47.737C242.814 48.6763 243.018 49.6049 243.414 50.4565C243.81 51.3081 244.39 52.0617 245.111 52.6633C245.833 53.2649 246.678 53.6997 247.587 53.9367C248.496 54.1736 249.446 54.2069 250.369 54.034C248.892 53.7702 247.555 52.9944 246.593 51.8428C245.631 50.6913 245.105 49.2375 245.108 47.737Z" fill="black"/>
<path d="M221.912 64.8877C221.912 64.2237 221.935 63.5654 221.981 62.9128C222.007 62.6107 221.96 62.3067 221.844 62.0267C221.728 61.7467 221.545 61.4989 221.313 61.3045C221.08 61.11 220.804 60.9746 220.508 60.9098C220.211 60.8449 219.904 60.8526 219.611 60.9321H219.583C217.825 61.5045 217.081 64.0577 217.928 66.6566C218.735 69.1296 220.716 70.7153 222.433 70.3203C222.086 68.5304 221.911 66.7111 221.912 64.8877Z" fill="#EFBFA9"/>
<path opacity="0.1" d="M221.912 64.8877C221.912 64.2237 221.935 63.5654 221.981 62.9128C222.007 62.6107 221.96 62.3067 221.844 62.0267C221.728 61.7467 221.545 61.4989 221.313 61.3045C221.08 61.11 220.804 60.9746 220.508 60.9098C220.211 60.8449 219.904 60.8526 219.611 60.9321H219.583C217.825 61.5045 217.081 64.0577 217.928 66.6566C218.735 69.1296 220.716 70.7153 222.433 70.3203C222.086 68.5304 221.911 66.7111 221.912 64.8877Z" fill="black"/>
<path opacity="0.1" d="M204.149 142.421C205.248 168.296 208.093 198.642 211.935 200.285C213.194 200.829 215.415 201.241 218.283 201.544C212.415 201.104 204.161 142.49 204.149 142.421Z" fill="black"/>
<path d="M205.14 105.572C194.664 111.388 156.401 138.019 155.044 149.079C153.847 158.811 183.724 197.165 190.576 203.462C190.76 203.631 190.977 203.759 191.213 203.839C191.449 203.919 191.699 203.948 191.948 203.925C192.196 203.902 192.437 203.827 192.654 203.704C192.871 203.582 193.061 203.416 193.21 203.216L201.35 192.339C201.57 192.044 201.694 191.687 201.705 191.318C201.715 190.949 201.611 190.586 201.407 190.279C198.419 185.831 196.77 177.61 181.131 155.393L205.002 138.426L220.121 114.342L205.14 105.572Z" fill="white"/>
<path d="M100.838 88.1981C100.838 87.4482 100.809 86.704 100.758 85.9655C100.728 85.6229 100.78 85.2781 100.912 84.9603C101.043 84.6425 101.25 84.3611 101.513 84.1402C101.777 83.9193 102.09 83.7654 102.426 83.6915C102.762 83.6176 103.111 83.6259 103.443 83.7158H103.471C105.464 84.3627 106.305 87.2536 105.355 90.1674C104.445 92.9667 101.92 94.8672 99.9508 94.4207C100.44 92.3788 100.737 90.2955 100.838 88.1981Z" fill="#EFBFA9"/>
<path opacity="0.62" d="M125.093 21.862L167.254 17.6201C168.21 17.5212 169.175 17.6118 170.096 17.8867C171.016 18.1616 171.873 18.6155 172.618 19.2223C173.362 19.8291 173.98 20.5769 174.434 21.4228C174.889 22.2688 175.173 23.1962 175.269 24.1519L175.469 26.1268C175.567 27.0825 175.476 28.0482 175.2 28.9685C174.925 29.8889 174.47 30.7458 173.863 31.4903C173.256 32.2347 172.508 32.8521 171.661 33.307C170.815 33.7619 169.888 34.0454 168.932 34.1412L130.921 37.948L129.615 40.8447C129.57 40.9475 129.499 41.0366 129.408 41.1029C129.318 41.1691 129.211 41.2102 129.099 41.2218C128.988 41.2334 128.875 41.2153 128.772 41.1691C128.67 41.123 128.582 41.0505 128.516 40.9592L126.753 38.3545C125.798 38.4535 124.832 38.3629 123.912 38.0879C122.992 37.813 122.135 37.3591 121.39 36.7523C120.646 36.1455 120.028 35.3977 119.573 34.5518C119.118 33.7059 118.835 32.7785 118.739 31.8228L118.538 29.8478C118.444 28.893 118.539 27.9291 118.818 27.011C119.096 26.093 119.553 25.2388 120.162 24.4972C120.77 23.7556 121.519 23.1412 122.365 22.6891C123.211 22.2369 124.138 21.9559 125.093 21.862Z" fill="#40A9FF"/>
<path opacity="0.52" d="M167.884 23.1443L127.194 27.2373" stroke="white" stroke-width="4" stroke-linecap="round" stroke-linejoin="round"/>
<path opacity="0.52" d="M152.64 30.1741L127.738 32.6814" stroke="white" stroke-width="4" stroke-linecap="round" stroke-linejoin="round"/>
<path opacity="0.52" d="M168.428 28.5828L157.843 29.6533" stroke="white" stroke-width="4" stroke-linecap="round" stroke-linejoin="round"/>
<path opacity="0.62" d="M321.445 10.1038L278.397 0.194562C277.421 -0.0299997 276.411 -0.0600118 275.424 0.106244C274.437 0.272499 273.492 0.631758 272.644 1.16346C271.796 1.69517 271.061 2.38889 270.482 3.20492C269.902 4.02095 269.489 4.94327 269.266 5.91912L268.802 7.93417C268.579 8.90922 268.549 9.9188 268.716 10.9052C268.883 11.8916 269.242 12.8355 269.774 13.683C270.305 14.5304 270.999 15.2647 271.814 15.844C272.63 16.4233 273.552 16.8362 274.527 17.0591L313.316 25.9894L314.29 29.1608C314.321 29.2772 314.384 29.3828 314.471 29.4662C314.559 29.5496 314.667 29.6077 314.785 29.6342C314.902 29.6606 315.025 29.6546 315.14 29.6165C315.254 29.5785 315.356 29.51 315.435 29.4184L317.598 26.9683C318.576 27.1971 319.589 27.2304 320.579 27.0661C321.57 26.9019 322.518 26.5435 323.369 26.0114C324.22 25.4794 324.958 24.7842 325.539 23.966C326.121 23.1478 326.535 22.2226 326.758 21.2438L327.221 19.2287C327.444 18.2502 327.47 17.2374 327.3 16.2485C327.13 15.2596 326.766 14.3141 326.229 13.4662C325.693 12.6183 324.994 11.8848 324.173 11.3078C323.352 10.7308 322.425 10.3216 321.445 10.1038Z" fill="#FA8C16"/>
<path opacity="0.52" d="M277.023 5.82764L318.566 15.3876" stroke="white" stroke-width="4" stroke-linecap="round" stroke-linejoin="round"/>
<path opacity="0.52" d="M291.867 15.0957L317.289 20.9462" stroke="white" stroke-width="4" stroke-linecap="round" stroke-linejoin="round"/>
<path opacity="0.52" d="M275.746 11.386L286.554 13.8704" stroke="white" stroke-width="4" stroke-linecap="round" stroke-linejoin="round"/>
<g opacity="0.1">
<path d="M105.332 89.0111C104.456 91.7073 102.063 93.5621 100.18 93.2987C100.107 93.6804 100.033 94.062 99.9565 94.4437C101.903 94.8902 104.45 92.9896 105.36 90.1903C105.681 89.2386 105.806 88.2319 105.727 87.2307C105.664 87.8374 105.532 88.4348 105.332 89.0111Z" fill="black"/>
</g>
<g opacity="0.1">
<path d="M192.843 201.195C185.974 194.898 156.114 156.544 157.311 146.812C157.66 143.95 160.448 140.103 164.57 135.826C159.223 140.979 155.45 145.747 155.044 149.079C153.847 158.811 183.724 197.165 190.576 203.462C190.76 203.631 190.977 203.759 191.213 203.839C191.449 203.919 191.699 203.948 191.948 203.925C192.196 203.902 192.437 203.826 192.654 203.704C192.871 203.582 193.061 203.416 193.21 203.216L194.4 201.624C194.125 201.681 193.841 201.672 193.57 201.597C193.299 201.523 193.05 201.385 192.843 201.195Z" fill="black"/>
</g>
<g opacity="0.1">
<path d="M213.766 205.282C213.698 205.437 213.841 205.66 214.127 205.924C216.64 206.233 222.187 208.316 222.645 206.988C222.663 206.916 222.663 206.84 222.644 206.768C222.625 206.696 222.588 206.63 222.536 206.576C220.149 206.656 214.19 204.286 213.766 205.282Z" fill="black"/>
<path d="M212.65 218.85C212.433 219.239 211.15 218.638 209.387 217.487L209.576 216.205C210.563 216.922 211.626 217.527 212.747 218.008C212.824 218.291 212.789 218.592 212.65 218.85Z" fill="black"/>
<path d="M218.495 217.338C217.648 218.22 212.891 214.705 210.011 213.263L210.183 212.118C212.473 213.074 216.755 216.199 218.592 216.6C218.658 216.717 218.683 216.852 218.666 216.985C218.648 217.118 218.588 217.242 218.495 217.338Z" fill="black"/>
<path d="M211.963 209.055C211.837 209.244 211.895 209.479 212.078 209.748C214.671 210.32 221.237 215.037 222.061 213.755C222.121 213.653 222.152 213.538 222.152 213.42C222.152 213.302 222.121 213.187 222.061 213.085C219.571 212.661 212.793 207.801 211.963 209.055Z" fill="black"/>
</g>
<g opacity="0.1">
<path d="M271.916 209.696C271.967 209.798 271.986 209.911 271.972 210.023C271.957 210.135 271.91 210.241 271.836 210.326C272.712 209.628 273.233 209.027 272.981 208.609C272.014 207.12 263.003 213.973 262.03 212.479C261.858 212.215 261.933 211.906 262.179 211.54C261.2 212.324 260.639 213.034 260.971 213.543C261.956 215.055 270.966 208.202 271.916 209.696Z" fill="black"/>
<path d="M270.13 205.918C270.142 205.961 270.142 206.007 270.13 206.05C270.857 205.529 271.275 205.111 271.184 204.859C270.669 203.651 262.024 207.389 261.452 205.718C260.702 206.101 260.273 206.462 260.393 206.805C260.983 208.454 269.627 204.716 270.13 205.918Z" fill="black"/>
<path d="M274.813 212.478C272.93 212.341 265.625 218.237 264.549 217.132C264.057 216.623 264.658 215.862 265.694 215.014C265.408 215.427 265.339 215.787 265.614 216.068C266.53 217.018 272.008 212.839 274.773 211.694L274.813 212.478Z" fill="black"/>
<path d="M275.076 216.32C272.615 218.037 270.674 219.131 270.4 218.638C269.93 217.797 270.72 216.852 271.791 215.953C271.361 216.526 271.172 217.064 271.459 217.579C271.693 217.997 273.124 217.287 275.059 216.005L275.076 216.32Z" fill="black"/>
</g>
<path d="M89.7897 119.34L101.811 122.494L78.4837 136.147L64.0635 121.561L71.723 119.254L72.8393 104.221L88.7879 106.597L89.7897 119.34Z" fill="#EFBFA9"/>
<path d="M98.2906 67.624C102.682 67.624 106.242 64.064 106.242 59.6726C106.242 55.2812 102.682 51.7212 98.2906 51.7212C93.8992 51.7212 90.3392 55.2812 90.3392 59.6726C90.3392 64.064 93.8992 67.624 98.2906 67.624Z" fill="#3D1A02"/>
<path opacity="0.1" d="M89.4634 115.235L88.7879 106.597L72.8393 104.216L72.5759 107.742C72.5759 107.742 79.2622 116.197 85.17 116.518C86.6998 116.549 88.2011 116.1 89.4634 115.235Z" fill="black"/>
<path d="M103.809 88.6333C103.511 101.994 93.9057 110.856 86.7671 110.856C79.6286 110.856 65.26 101.966 65.2943 88.599C65.3287 75.2322 73.9384 64.4127 84.5689 64.4185C95.1994 64.4242 104.221 69.9541 103.809 88.6333Z" fill="#EFBFA9"/>
<path d="M77.8998 89.9156C78.6965 89.9156 79.3424 88.6674 79.3424 87.1277C79.3424 85.588 78.6965 84.3398 77.8998 84.3398C77.1031 84.3398 76.4572 85.588 76.4572 87.1277C76.4572 88.6674 77.1031 89.9156 77.8998 89.9156Z" fill="#010002"/>
<path d="M96.1439 89.9156C96.9407 89.9156 97.5865 88.6674 97.5865 87.1277C97.5865 85.588 96.9407 84.3398 96.1439 84.3398C95.3472 84.3398 94.7014 85.588 94.7014 87.1277C94.7014 88.6674 95.3472 89.9156 96.1439 89.9156Z" fill="#010002"/>
<path opacity="0.1" d="M101.325 66.7999C99.5346 66.8016 97.7964 66.1988 96.3918 65.0892C94.9871 63.9796 93.9982 62.4282 93.5855 60.6863C93.1727 58.9445 93.3602 57.1143 94.1176 55.4924C94.8749 53.8704 96.1578 52.5517 97.7583 51.75C95.7017 51.8854 93.7782 52.8146 92.3938 54.3415C91.0095 55.8684 90.2726 57.8734 90.3387 59.9334C90.4048 61.9934 91.2688 63.9471 92.7482 65.382C94.2276 66.817 96.2068 67.621 98.2678 67.6242C99.5072 67.625 100.729 67.3328 101.834 66.7712C101.691 66.7827 101.519 66.7999 101.325 66.7999Z" fill="black"/>
<path d="M92.9497 78.9987C93.0012 78.4663 93.0241 77.6306 95.9608 77.9111C98.8975 78.1916 101.874 80.052 101.267 80.2009C100.294 80.4528 100.729 80.2009 97.7926 79.9376C94.8559 79.6742 92.8981 79.5025 92.9497 78.9987Z" fill="#460000"/>
<path d="M80.5331 78.787C80.4243 78.2661 80.3098 77.436 77.4189 78.0371C74.528 78.6382 71.7688 80.8078 72.3928 80.8994C73.3888 81.0425 72.9251 80.8593 75.8275 80.2582C78.7298 79.6571 80.6418 79.3079 80.5331 78.787Z" fill="#460000"/>
<path d="M87.2022 88.6162C87.2022 88.6162 87.7002 92.1998 88.9196 93.047C90.1389 93.8942 92.4001 96.3844 86.7385 96.8309" stroke="#E8937F" stroke-miterlimit="10"/>
<path d="M65.5347 88.4844C65.5347 87.6772 65.5347 86.8815 65.6149 86.0972C65.6442 85.7328 65.5857 85.3666 65.4445 85.0294C65.3033 84.6921 65.0834 84.3936 64.8031 84.1588C64.5229 83.924 64.1905 83.7596 63.8338 83.6796C63.477 83.5995 63.1063 83.6061 62.7526 83.6987H62.724C60.5944 84.3913 59.6957 87.4711 60.7089 90.5681C61.6821 93.5621 64.407 95.5886 66.4793 95.1134C66.0786 93.0354 65.529 90.7399 65.5347 88.4844Z" fill="#EFBFA9"/>
<path d="M77.6422 93.0469C80.9113 93.0469 83.5614 90.3968 83.5614 87.1277C83.5614 83.8586 80.9113 81.2085 77.6422 81.2085C74.3731 81.2085 71.723 83.8586 71.723 87.1277C71.723 90.3968 74.3731 93.0469 77.6422 93.0469Z" stroke="#F0F2F5" stroke-miterlimit="10"/>
<path d="M95.8921 93.0469C99.1612 93.0469 101.811 90.3968 101.811 87.1277C101.811 83.8586 99.1612 81.2085 95.8921 81.2085C92.623 81.2085 89.9729 83.8586 89.9729 87.1277C89.9729 90.3968 92.623 93.0469 95.8921 93.0469Z" stroke="#F0F2F5" stroke-miterlimit="10"/>
<path d="M90.0186 87.8949C90.0186 87.8949 89.4462 86.6755 86.7671 86.6755C84.088 86.6755 83.5098 87.8949 83.5098 87.8949" stroke="#F0F2F5" stroke-miterlimit="10"/>
<path d="M65.6092 85.1356C65.6092 85.1356 52.8835 57.4688 83.5786 56.2151C103.838 55.3908 104.319 78.2604 102.716 77.5277C101.113 76.7949 93.11 75.0432 90.4652 70.3319C90.4652 70.3319 88.0151 72.3813 78.6784 72.8621C68.1223 73.4002 65.6092 85.1356 65.6092 85.1356Z" fill="#3D1A02"/>
<path d="M79.932 100.117C79.932 100.117 80.6361 100.626 85.3474 101.325C90.0587 102.023 90.448 101.674 90.448 101.674C90.448 101.674 88.0838 104.639 84.9238 104.17C81.7639 103.7 79.932 100.117 79.932 100.117Z" fill="#F0F2F5"/>
<g opacity="0.1">
<path d="M60.7089 89.3488C60.5066 88.7287 60.3779 88.0869 60.3254 87.4368C60.2414 88.5032 60.3718 89.5757 60.7089 90.591C61.6821 93.5849 64.407 95.6114 66.4793 95.1363C66.4049 94.7356 66.319 94.3349 66.2388 93.9227C64.2009 94.2032 61.6478 92.2282 60.7089 89.3488Z" fill="black"/>
</g>
<g opacity="0.1">
<path d="M50.5764 211.614C50.5764 211.614 48.0519 213.223 43.6268 222.462C34.4675 241.645 40.547 311.513 40.547 311.513H45.3671C45.3671 311.513 39.2647 241.674 48.4469 222.462C52.872 213.223 55.3965 211.614 55.3965 211.614H50.5764Z" fill="black"/>
</g>
<path d="M42.2072 154.752C42.2072 154.752 41.0623 163.184 18.4159 177.684C18.4159 177.684 20.9233 179.877 27.5752 191.876C30.1226 196.455 34.2901 205.111 35.9445 206.559C37.3127 207.75 37.6619 208.717 39.4136 208.334C41.4744 207.881 43.5925 208.334 44.8634 208.408C48.0233 208.568 55.6026 204.973 55.1046 207.469C54.4234 211.007 46.4662 209.519 48.0863 212.85C49.1797 215.14 63.6456 217.545 62.9701 219.502C62.2946 221.46 52.208 217.213 51.6241 218.644C51.0402 220.075 63.2564 226.692 61.8596 228.908C60.749 230.66 50.6852 221.317 49.5747 223.069C48.4641 224.82 58.2359 230.579 56.3926 232.531C55.076 233.928 47.2906 225.233 45.911 226.475C44.5313 227.717 52.3282 232.417 50.0326 234.186C48.6931 235.205 35.2747 224.202 31.9488 218.203C30.2314 215.1 -3.43474 186.483 0.291947 175.171C4.01863 163.86 25.9151 142.433 25.9151 142.433L42.2072 154.752Z" fill="#EFBFA9"/>
<path d="M17.3511 148.34C17.3511 148.34 38.532 121.046 50.1071 120.565C61.6821 120.084 67.6986 119.368 67.6986 119.368C67.6986 119.368 68.9008 130.938 82.1589 130.697C95.4169 130.457 92.526 119.374 92.526 119.374C92.526 119.374 110.644 119.449 113.776 124.269C116.907 129.089 122.156 154.815 122.156 154.815L111.984 157.62L104.542 212.043H49.8208C49.2347 212.044 48.6706 211.82 48.2446 211.418C47.8186 211.015 47.5632 210.465 47.531 209.879L45.0523 158.484L33.1108 169.865L17.3511 148.34Z" fill="#40A9FF"/>
<path opacity="0.1" d="M95.892 311.513L81.8898 267.24L90.0644 311.513H95.892Z" fill="black"/>
<path opacity="0.1" d="M45.0522 158.484L47.5825 209.862C47.6147 210.447 47.8701 210.998 48.2961 211.401C48.7221 211.803 49.2862 212.027 49.8723 212.026H53.5704L45.0522 158.484Z" fill="black"/>
<path opacity="0.1" d="M15.9028 152.972L30.8325 168.697L31.7141 167.953L18.5819 150.023C17.7461 150.951 16.8245 151.941 15.9028 152.972Z" fill="black"/>
<g opacity="0.1">
<path d="M49.4888 234.203C49.511 234.382 49.4845 234.564 49.4119 234.729C49.3394 234.895 49.2235 235.037 49.0766 235.142C48.4298 235.629 44.9779 233.327 41.1996 230.127C41.3027 229.623 41.4172 229.137 41.5374 228.656C44.9206 231.57 48.155 233.871 49.4888 234.203Z" fill="black"/>
<path d="M51.6241 218.644C51.5554 218.798 51.6699 219.033 51.9046 219.319C54.7668 219.571 61.4932 222.038 62.0199 220.464C62.0395 220.388 62.0409 220.309 62.024 220.232C62.0071 220.156 61.9723 220.084 61.9225 220.023C59.1748 220.189 52.0935 217.47 51.6241 218.644Z" fill="black"/>
<path d="M45.911 226.475C45.6591 226.704 45.7163 227.047 45.9625 227.477C48.5214 228.57 54.3203 234.672 55.4366 233.487C55.5425 233.373 55.6162 233.233 55.6504 233.081C55.6846 232.93 55.678 232.771 55.6313 232.623C53.2384 231.936 47.1188 225.387 45.911 226.475Z" fill="black"/>
<path d="M49.5747 223.069C49.5117 223.2 49.4834 223.345 49.4924 223.491C49.5014 223.636 49.5475 223.776 49.6262 223.899C52.4885 224.769 59.9304 231.341 60.9093 229.864C60.9736 229.738 61.0072 229.599 61.0072 229.457C61.0072 229.316 60.9736 229.177 60.9093 229.051C58.1329 228.284 50.5307 221.54 49.5747 223.069Z" fill="black"/>
</g>
<g opacity="0.1">
<path d="M68.8321 60.4456C57.9554 68.5 65.6091 85.1356 65.6091 85.1356C66.0694 83.2937 66.7924 81.5277 67.7559 79.8919C66.3533 75.7759 64.1723 66.8513 68.8321 60.4456Z" fill="black"/>
</g>
<path d="M65.2943 70.7612C70.3528 70.7612 74.4536 66.6605 74.4536 61.6019C74.4536 56.5434 70.3528 52.4426 65.2943 52.4426C60.2358 52.4426 56.135 56.5434 56.135 61.6019C56.135 66.6605 60.2358 70.7612 65.2943 70.7612Z" fill="#3D1A02"/>
<path opacity="0.1" d="M67.773 68.2824C66.1114 68.2825 64.481 67.8305 63.0566 66.9749C61.6321 66.1194 60.4673 64.8924 59.6867 63.4255C58.9062 61.9585 58.5395 60.3069 58.6258 58.6475C58.712 56.9881 59.2481 55.3834 60.1766 54.0054C59.056 54.7605 58.1164 55.7543 57.4252 56.9154C56.734 58.0765 56.3082 59.3761 56.1784 60.7211C56.0487 62.0661 56.2181 63.4232 56.6746 64.695C57.1311 65.9668 57.8633 67.1219 58.8188 68.0774C59.7743 69.0329 60.9293 69.7651 62.2012 70.2216C63.473 70.6781 64.8301 70.8475 66.1751 70.7177C67.5201 70.5879 68.8197 70.1622 69.9808 69.471C71.1419 68.7797 72.1356 67.8402 72.8908 66.7196C71.3797 67.7409 69.5969 68.2853 67.773 68.2824Z" fill="black"/>
<path d="M64.5158 92.6748V93.2759C64.6589 93.3274 65.0482 94.1059 65.0482 95.6459C65.0482 97.1858 64.6589 97.97 64.5043 98.0215C64.3669 97.97 63.9777 97.1858 63.9777 95.6459C63.9777 95.5314 63.9777 95.4226 63.9777 95.3138C63.9777 95.102 64.012 94.9017 64.0349 94.707C63.8377 94.6077 63.6466 94.4968 63.4625 94.375C63.4625 94.5582 63.3823 95.0963 63.3709 95.2852C63.3594 95.4741 63.3709 95.5256 63.3709 95.6459C63.3709 97.077 63.7258 98.6226 64.5158 98.6226C65.3058 98.6226 65.6607 97.077 65.6607 95.6459C65.6607 94.2147 65.2943 92.6748 64.5158 92.6748Z" fill="#FA8C16"/>
<path opacity="0.7" d="M24.7918 75.9756L31.5624 71.6231L33.0091 73.8735C33.3764 74.4449 33.5016 75.1387 33.3574 75.8024C33.2131 76.4662 32.811 77.0454 32.2397 77.4127L29.7536 79.0109C29.1824 79.3691 28.4929 79.4877 27.8348 79.3407C27.1767 79.1938 26.6031 78.7932 26.2385 78.226L24.7918 75.9756Z" fill="#FA8C16"/>
<path opacity="0.5" d="M15.1357 69.4159C17.4256 73.2628 21.6159 74.3333 23.5737 75.713C23.8268 75.8857 24.126 75.9782 24.4324 75.9782C24.7388 75.9782 25.0381 75.8857 25.2911 75.713L31.4679 71.7058C31.723 71.5446 31.9238 71.3106 32.0442 71.034C32.1646 70.7573 32.1992 70.4509 32.1434 70.1544C31.6912 67.8016 32.3037 63.6341 29.8536 59.8502C28.5831 57.9102 26.5955 56.5527 24.3261 56.0753C22.0568 55.5978 19.6907 56.0392 17.7461 57.3028C13.1665 60.2509 13.4241 66.5422 15.1357 69.4159Z" fill="#FA8C16"/>
<path opacity="0.7" d="M27.5752 66.3533C27.3619 66.4073 27.1789 66.5437 27.0661 66.7326C26.9534 66.9216 26.9203 67.1475 26.9741 67.3608C27.1044 67.8715 27.0708 68.4103 26.878 68.9009C26.6853 69.3914 26.3432 69.809 25.9001 70.0945C25.457 70.38 24.9354 70.5189 24.409 70.4916C23.8826 70.4644 23.3781 70.2723 22.9669 69.9426C22.7938 69.8059 22.5736 69.7436 22.3546 69.7694C22.1355 69.7952 21.9357 69.9069 21.7991 70.0799C21.6625 70.253 21.6002 70.4733 21.6259 70.6923C21.6517 70.9113 21.7634 71.1111 21.9365 71.2478C22.5089 71.6991 23.1896 71.9926 23.9107 72.099C24.6319 72.2055 25.3683 72.1212 26.0467 71.8546L27.5809 74.2303L28.9777 73.3315L27.4779 70.9501C28.0041 70.4417 28.387 69.8036 28.588 69.1001C28.7891 68.3966 28.801 67.6525 28.6228 66.9429C28.5951 66.8339 28.5457 66.7317 28.4773 66.6425C28.409 66.5532 28.3233 66.4787 28.2253 66.4236C28.1274 66.3685 28.0192 66.3338 27.9075 66.3217C27.7957 66.3096 27.6827 66.3204 27.5752 66.3533Z" fill="#FA8C16"/>
<path d="M323.478 311.576H4.5281C3.73138 311.576 3.08551 312.222 3.08551 313.019C3.08551 313.815 3.73138 314.461 4.5281 314.461H323.478C324.274 314.461 324.92 313.815 324.92 313.019C324.92 312.222 324.274 311.576 323.478 311.576Z" fill="white"/>
</g>
<defs>
<clipPath id="clip0_2777_9736">
<rect width="328" height="314.461" fill="white"/>
</clipPath>
</defs>
</svg>
