<svg width="424" height="200" viewBox="0 0 424 200" fill="none" xmlns="http://www.w3.org/2000/svg">
<g clip-path="url(#clip0_2777_9574)">
<path d="M319.156 170.594L315.322 188.989H375.977V169.187L319.156 170.594Z" fill="#3D1A02"/>
<g opacity="0.1">
<path d="M375.977 169.187L370.965 169.312V188.989H375.977V169.187Z" fill="black"/>
</g>
<path d="M399.127 113.664C399.127 113.664 406.097 130.668 407.101 140.747L393.919 115.115L399.127 113.664Z" fill="#EFBFA9"/>
<path d="M295.307 157.822C298.459 157.576 302.239 156.638 304.709 152.963C308.079 147.956 309.726 140.038 310.981 134.42C313.162 124.653 312.071 122.81 312.071 122.81C312.071 122.81 309.067 119.123 308.527 119.341C307.987 119.559 297.827 113.68 297.827 113.68L295.307 157.822Z" fill="#EFBFA9"/>
<path d="M376.969 74.8015C374.553 82.033 371.259 75.3087 369.88 78.9845C368.5 82.6602 369.242 88.1192 366.58 88.1192C364.121 88.1192 364.006 77.632 362.076 76.9285C361.988 76.8928 361.894 76.8772 361.799 76.8829C361.705 76.8886 361.613 76.9153 361.53 76.9612C359.076 78.101 357.424 48.9242 357.042 48.417C356.889 48.2152 355.193 44.7467 353.224 40.7056C352.172 38.5242 351.043 36.2009 350.029 34.1177L346.904 27.6224C346.904 27.6224 352.483 15.8154 367.322 20.7727C382.161 25.73 379.374 67.5701 376.969 74.8015Z" fill="#3D1A02"/>
<g opacity="0.1">
<path d="M362.059 76.9285C361.972 76.8928 361.877 76.8773 361.783 76.8829C361.688 76.8886 361.597 76.9153 361.514 76.9612C359.06 78.101 357.407 48.9242 357.026 48.417C356.873 48.2152 355.177 44.7468 353.208 40.7056C353.312 39.4949 353.377 38.8023 353.377 38.8023L353.824 31.5327L354.501 28.2605C354.501 28.2605 361.956 26.259 368.347 35.0939C372.617 40.9783 376.566 56.8865 362.059 76.9285Z" fill="black"/>
</g>
<path d="M366.057 53.8379C365.086 47.5063 359.256 52.54 359.256 52.54C359.256 52.54 359 35.6338 346.064 35.6338C333.128 35.6338 328.067 37.7771 326.469 53.4889C325.144 66.3049 329.474 76.3395 336.226 76.3395C339.356 76.3395 339.558 76.2031 339.558 76.2031L338.832 86.6195C338.832 86.6195 340.103 85.8615 342.006 84.6726L343.495 86.6195C343.495 86.6195 356.159 84.2199 356.371 84.149C356.584 84.0782 359.256 78.4446 359.256 78.4446V72.1402C359.256 72.1402 359.638 66.3049 361.438 64.7833C363.237 63.2617 367.257 61.6857 366.057 53.8379Z" fill="#EFBFA9"/>
<path d="M359.256 72.1403L362.757 63.769C362.014 64.2246 361.187 64.5286 360.325 64.6634C360.009 64.7692 359.734 64.9712 359.538 65.2411C359.343 65.511 359.236 65.8353 359.234 66.1686L359.256 72.1403Z" fill="#3D1A02"/>
<path d="M324.059 48.3898C326.409 49.246 332.495 45.9248 332.495 45.9248C332.369 46.487 332.186 47.0351 331.95 47.5609C331.904 47.6744 331.884 47.797 331.893 47.9192C331.902 48.0415 331.939 48.16 332.002 48.2655C332.064 48.3711 332.15 48.4608 332.252 48.5278C332.355 48.5947 332.472 48.6371 332.593 48.6516C336.825 49.1969 339.465 45.4939 340.49 43.6779C340.541 43.5887 340.613 43.5138 340.701 43.4604C340.789 43.4069 340.888 43.3765 340.991 43.3722C341.093 43.3678 341.195 43.3896 341.287 43.4354C341.379 43.4813 341.457 43.5497 341.516 43.6343C343.642 46.6774 348.273 47.4027 351.637 46.012C354.691 44.7468 354.424 53.8816 354.244 57.0229C354.236 57.156 354.255 57.2894 354.301 57.4149C354.346 57.5403 354.417 57.6551 354.508 57.7522C354.6 57.8493 354.71 57.9267 354.832 57.9794C354.955 58.0322 355.087 58.0593 355.22 58.059C355.422 58.0598 355.618 57.9984 355.783 57.8832C355.948 57.7681 356.074 57.6047 356.142 57.4155L359.24 48.9297C359.24 48.9297 363.401 46.8792 366.1 48.7934C368.516 41.551 364.579 30.3765 352.145 27.6225C334.977 23.805 331.345 35.612 331.345 35.612C331.345 35.612 328.716 34.3359 325.127 38.017C321.539 41.6982 323.197 48.0735 324.059 48.3898Z" fill="#3D1A02"/>
<path d="M341.739 61.2494C342.51 61.2494 343.135 59.9431 343.135 58.3317C343.135 56.7204 342.51 55.4141 341.739 55.4141C340.968 55.4141 340.343 56.7204 340.343 58.3317C340.343 59.9431 340.968 61.2494 341.739 61.2494Z" fill="#010002"/>
<path d="M331.235 60.5187C332.007 60.5187 332.632 59.2124 332.632 57.601C332.632 55.9896 332.007 54.6833 331.235 54.6833C330.464 54.6833 329.839 55.9896 329.839 57.601C329.839 59.2124 330.464 60.5187 331.235 60.5187Z" fill="#010002"/>
<g opacity="0.1">
<path d="M371.434 23.4504C379.211 36.2555 376.948 66.1085 374.952 72.1129C372.541 79.3444 369.242 72.6201 367.862 76.2959C366.504 79.8789 367.191 85.1416 364.77 85.4143C365.217 86.9631 365.773 88.0975 366.58 88.0975C369.242 88.0975 368.484 82.6438 369.88 78.9627C371.276 75.2815 374.57 82.0112 376.969 74.7798C379.124 68.3281 381.583 34.134 371.434 23.4504Z" fill="black"/>
<path d="M360.118 74.2998C360.516 75.9741 360.947 77.0266 361.405 76.9884C361.056 75.6305 360.663 74.5725 360.118 74.2998Z" fill="black"/>
</g>
<path d="M340.07 67.9519L332.779 68.5245C332.779 68.5245 334.748 72.582 336.967 72.7129C339.187 72.8438 340.07 67.9519 340.07 67.9519Z" fill="#FCF7F3"/>
<path d="M337.234 65.1652C336.372 65.1434 335.532 64.889 334.802 64.429C334.153 64.0363 333.401 63.48 333.313 62.662C333.31 62.3229 333.385 61.9876 333.534 61.6828C333.683 61.3779 333.9 61.112 334.17 60.9059C335.92 59.2699 336.106 54.9506 336.106 54.907H336.651C336.651 55.0924 336.455 59.4716 334.54 61.2822C334.335 61.4321 334.167 61.6271 334.049 61.8521C333.931 62.0771 333.866 62.3262 333.859 62.5802C333.919 63.1692 334.589 63.6382 335.086 63.9436C335.768 64.3829 336.565 64.6088 337.376 64.5926L337.431 65.1379L337.234 65.1652Z" fill="#E8937F"/>
<g opacity="0.1">
<path d="M350.263 70.3516C346.898 75.2925 339.558 76.1978 339.558 76.1978L339.012 83.8329C339.716 83.8929 338.729 82.7694 339.847 82.5349C347.831 80.8497 350.263 70.3516 350.263 70.3516Z" fill="black"/>
</g>
<path d="M340.245 52.8073C340.321 52.3819 341.925 51.8584 343.877 52.2128C345.829 52.5673 346.151 54.0398 345.731 54.1434C345.06 54.3016 345.371 54.1434 343.419 53.778C341.467 53.4126 340.169 53.2381 340.245 52.8073Z" fill="#460000"/>
<g opacity="0.1">
<path d="M295.307 157.822C298.459 157.576 302.239 156.638 304.709 152.963C308.079 147.956 309.726 140.038 310.981 134.42C313.162 124.653 312.071 122.81 312.071 122.81C312.071 122.81 309.067 119.123 308.527 119.341C307.987 119.559 297.827 113.68 297.827 113.68L295.307 157.822Z" fill="black"/>
</g>
<path d="M334.039 52.3545C334.039 51.9182 332.566 51.1111 330.581 51.1002C328.596 51.0893 328.007 52.4799 328.4 52.6544C329.032 52.938 328.754 52.7144 330.739 52.7253C332.724 52.7362 334.039 52.7853 334.039 52.3545Z" fill="#460000"/>
<g opacity="0.1">
<path d="M399.127 113.664C399.127 113.664 406.097 130.668 407.101 140.747L393.919 115.115L399.127 113.664Z" fill="black"/>
</g>
<path d="M362.059 63.1036C362.707 63.1036 363.232 62.5786 363.232 61.9311C363.232 61.2835 362.707 60.7585 362.059 60.7585C361.412 60.7585 360.887 61.2835 360.887 61.9311C360.887 62.5786 361.412 63.1036 362.059 63.1036Z" fill="#40A9FF"/>
<path d="M316.162 86.5977C306.094 90.8569 299.583 108.527 299.583 108.527L313.217 117.138L323.748 109.23L316.162 86.5977Z" fill="#FA8C16"/>
<path d="M297.347 114.008C298.132 109.001 299.943 107.611 299.943 107.611L312.601 116.805L312.055 122.804C312.055 122.804 297.025 116.031 297.347 114.008Z" fill="#E6FCFF"/>
<path d="M337.796 84.2583C337.796 84.2583 324.986 83.5166 316.162 86.5979C313.244 87.6177 313.778 96.0708 313.62 108.56C313.56 113.059 312.306 116.664 312.082 121.621C311.668 131.012 314.52 136.509 314.667 139.721C315.36 154.681 316.407 165.473 316.849 169.836C316.912 170.423 317.191 170.966 317.631 171.36C318.071 171.754 318.641 171.971 319.232 171.969H376.173C376.893 171.969 377.585 171.687 378.1 171.183C378.614 170.68 378.911 169.994 378.927 169.274C379.505 146.991 386.453 94.8055 382.777 90.8571C378.96 86.7342 361.508 83.6638 361.508 83.6638C361.508 83.6638 358.296 86.0743 347.929 85.938C337.562 85.8016 337.796 84.2583 337.796 84.2583Z" fill="#FA8C16"/>
<path d="M373.201 122.93L363.444 108.298L354.173 122.439L344.668 108.156L335.468 122.226L326.027 108.047L316.533 122.564L326.393 138.554L335.495 123.175L345.033 138.647L354.184 123.175L363.81 138.783L373.201 122.93ZM326.382 137.654L317.111 122.613L326.033 108.979L335.178 122.695L335.211 122.75L326.382 137.654ZM345.022 137.747L335.751 122.744L335.724 122.712L344.668 109.072L353.846 122.832L345.022 137.747ZM354.528 122.843L363.45 109.208L372.628 122.973L363.799 137.889L354.528 122.843Z" fill="#FFA940"/>
<path d="M378.529 88.2776C389.071 91.1516 396.526 107.627 396.526 107.627L385.248 117.078L372.699 111.554L378.529 88.2776Z" fill="#FA8C16"/>
<path d="M399.504 112.759C398.059 107.9 396.073 106.76 396.073 106.76L384.539 116.745L384.484 123.426C384.484 123.426 400.093 114.722 399.504 112.759Z" fill="#E6FCFF"/>
<g opacity="0.1">
<path d="M372.214 171.968H376.173C376.893 171.976 377.586 171.698 378.102 171.197C378.618 170.695 378.914 170.01 378.927 169.291C379.26 156.491 381.692 133.815 383.007 116.08L384.539 116.756L384.485 123.437C384.485 123.437 400.093 114.711 399.504 112.759C398.244 108.532 396.581 107.125 396.172 106.831C394.536 103.515 387.686 90.7697 378.529 88.2883C372.039 85.5288 361.514 83.6746 361.514 83.6746C361.514 83.6746 360.216 84.6453 356.606 85.3106C357.017 85.5342 357.487 85.6256 357.953 85.5724C367.071 85.5724 380.743 96.8614 383.705 104.475C386.666 112.088 377.935 113.135 375.753 123.519C373.572 133.902 372.214 171.968 372.214 171.968Z" fill="black"/>
</g>
<path d="M321.43 103.733C321.499 103.887 321.557 104.046 321.605 104.208C321.79 104.84 321.943 105.953 321.103 106.634C319.876 107.638 311.341 108.707 309.503 109.667C309.503 109.667 305.893 122.515 305.14 129.807C304.387 137.098 300.232 158.427 294.702 157.811C289.172 157.195 284.04 141.543 290.481 123.453C292.815 116.909 295.934 110.659 297.614 105.375C299.834 98.3394 301.884 96.976 302.375 93.8402C303.144 88.932 303.782 87.8413 302.599 85.338L301.672 82.9875C301.623 82.8878 301.599 82.7778 301.601 82.6668C301.604 82.5558 301.633 82.4471 301.687 82.3498C301.74 82.2525 301.816 82.1695 301.909 82.1077C302.001 82.046 302.107 82.0073 302.217 81.995C304.578 81.7441 307.212 85.4471 307.212 88.6702V91.7624C307.213 91.9594 307.255 92.1542 307.335 92.3339C307.416 92.5136 307.534 92.6741 307.681 92.805C307.829 92.9358 308.002 93.034 308.19 93.0931C308.378 93.1521 308.576 93.1707 308.772 93.1476C311.308 92.8422 316.276 92.3296 318.311 92.6677C320.197 92.9731 320.285 94.1293 320.138 94.8491C320.099 95.0569 320.033 95.2587 319.941 95.449C320.196 95.5145 320.44 95.6155 320.666 95.749C321.003 95.9275 321.278 96.2026 321.457 96.5388C321.636 96.8751 321.71 97.2572 321.67 97.6359C321.635 98.2261 321.547 98.8119 321.408 99.3865C321.372 99.5634 321.315 99.7354 321.239 99.8992C321.416 100.018 321.576 100.162 321.714 100.325C322.089 100.749 322.306 101.291 322.324 101.857C322.325 102.337 322.174 102.804 321.894 103.193C321.758 103.389 321.603 103.57 321.43 103.733Z" fill="#EFBFA9"/>
<path d="M406.501 155.161C402.4 158.907 387.266 149.969 383.437 131.77C381.73 123.666 374.913 110.125 374.913 110.125C373.005 109.312 364.415 108.887 363.117 107.981C362.168 107.327 362.31 106.105 362.457 105.489C362.487 105.361 362.525 105.235 362.572 105.113C362.349 104.926 362.151 104.712 361.983 104.475C361.727 104.132 361.574 103.723 361.541 103.297C361.519 102.676 361.729 102.069 362.13 101.595C362.231 101.47 362.347 101.356 362.474 101.257C362.362 101.058 362.278 100.846 362.223 100.625C362.07 100.104 361.953 99.574 361.874 99.0375C361.805 98.6255 361.868 98.202 362.055 97.8285C362.243 97.4549 362.544 97.1507 362.916 96.9597C363.08 96.8637 363.253 96.7851 363.434 96.7252C363.309 96.4988 363.215 96.2567 363.155 96.0053C363.003 95.2909 363.106 94.2492 364.852 93.8239C366.858 93.3276 371.849 93.4639 374.401 93.573C374.598 93.5829 374.794 93.5507 374.978 93.4786C375.161 93.4064 375.327 93.2959 375.465 93.1544C375.602 93.013 375.707 92.8438 375.774 92.6583C375.841 92.4728 375.867 92.2752 375.851 92.0787C375.802 91.3643 375.721 90.3663 375.617 88.9974C375.377 85.7853 377.717 81.9077 380.094 81.9677C380.205 81.9711 380.313 82.0012 380.41 82.0553C380.506 82.1095 380.588 82.1862 380.648 82.2788C380.709 82.3714 380.746 82.4773 380.757 82.5874C380.768 82.6975 380.752 82.8086 380.711 82.9112L379.969 85.3272C378.971 87.8958 379.696 88.9483 380.836 93.7802C381.545 96.8179 384.015 99.7792 387.675 105.915C389.856 109.558 393.979 115.556 397.9 121.545C406.615 134.857 411.518 150.569 406.501 155.161Z" fill="#EFBFA9"/>
<path d="M320.672 95.7326C319.036 96.0216 314.013 96.5561 311.723 96.7361L311.641 96.387C313.713 96.2125 318.256 95.1654 320.143 94.8328C320.104 95.0406 320.038 95.2423 319.947 95.4327C320.201 95.4981 320.445 95.5991 320.672 95.7326Z" fill="#E8937F"/>
<path d="M321.708 100.308L320.121 100.57C317.721 100.973 314.089 101.263 312.093 101.475L311.99 101.181C313.953 100.973 317.569 100.008 319.963 99.6101L321.403 99.3701C321.366 99.547 321.31 99.719 321.234 99.8827C321.411 100.002 321.57 100.145 321.708 100.308Z" fill="#E8937F"/>
<path d="M321.43 103.733C321.499 103.887 321.557 104.046 321.604 104.207C319.908 104.453 317.029 104.753 315.011 105.031L314.869 104.78C317.051 104.469 320.274 103.411 321.888 103.177C321.755 103.378 321.602 103.564 321.43 103.733Z" fill="#E8937F"/>
<path d="M372.274 97.156V97.5105C369.793 97.4723 364.034 97.0906 362.932 96.9651C363.096 96.8691 363.27 96.7905 363.45 96.7306C363.325 96.5043 363.232 96.2621 363.172 96.0107C364.513 96.158 369.956 97.1178 372.274 97.156Z" fill="#E8937F"/>
<path d="M372.214 101.906V102.261C370.212 102.179 366.531 102.042 364.104 101.792L362.152 101.595C362.253 101.47 362.369 101.356 362.496 101.257C362.384 101.058 362.299 100.846 362.245 100.625L364.203 100.821C366.597 101.066 370.245 101.83 372.214 101.906Z" fill="#E8937F"/>
<path d="M369.558 105.254L369.487 105.729C367.306 105.56 364.093 105.614 362.457 105.489C362.487 105.361 362.525 105.235 362.572 105.113C362.349 104.926 362.151 104.712 361.983 104.475C363.324 104.578 367.082 105.064 369.558 105.254Z" fill="#E8937F"/>
<path d="M358.798 78.3737C356.996 79.85 355.028 81.1128 352.935 82.1367C348.916 83.9582 339.509 84.3999 339.225 80.9369L339.307 79.8462C339.307 79.8462 337.311 80.1625 336.804 81.984C336.296 83.8055 335.495 86.3469 338.44 88.1466C341.265 89.8372 344.122 89.7172 348.605 89.3954C353.088 89.0737 358.422 86.2323 360.881 84.8471C361.084 84.7175 361.251 84.5383 361.365 84.3265C361.48 84.1147 361.538 83.8772 361.536 83.6364C361.607 81.5641 360.696 76.8958 358.798 78.3737Z" fill="#E6FCFF"/>
<g opacity="0.1">
<path d="M362.626 63.8617L360.325 64.6634C360.009 64.7684 359.733 64.9702 359.537 65.2403C359.342 65.5104 359.236 65.835 359.234 66.1685V78.1283C360.821 77.6593 361.579 81.7331 361.541 83.6201C361.546 83.8604 361.488 84.0978 361.373 84.309C361.258 84.5202 361.091 84.6981 360.887 84.8253C360.467 85.0653 359.954 85.3707 359.376 85.6597C359.376 85.6597 359.643 83.9309 357.795 81.4114C357.427 80.912 357.026 80.4382 356.595 79.9934C356.595 79.9934 356.469 66.7793 357.991 64.8924C359.512 63.0055 364.666 60.9767 366.22 55.5286C366.564 60.6004 364.366 62.5637 362.626 63.8617Z" fill="black"/>
</g>
<path d="M248.166 144.013C244.774 140.256 232.351 136.258 225.866 134.66L217.288 140.196L208.704 134.666C202.236 136.264 189.796 140.261 186.404 144.019C184.621 145.993 177.035 155.602 170.676 165.026C168.56 168.167 166.58 171.287 164.999 174.095C162.272 178.905 160.734 182.821 161.645 184.375C164.672 189.584 186.153 189.016 186.153 189.016H217.097H248.428C248.428 189.016 269.91 189.562 272.969 184.37C276.029 179.178 251.564 147.793 248.166 144.013Z" fill="#EFBFA9"/>
<g opacity="0.1">
<path d="M186.633 170.594C186.633 170.594 186.72 173.157 180.089 175.759C178.491 175.966 175.988 176.113 172.792 176.697C170.065 176.462 165.157 174.183 164.971 174.09C166.553 171.281 168.533 168.162 170.649 165.021L186.633 170.594Z" fill="black"/>
</g>
<g opacity="0.1">
<path d="M247.954 170.616C247.954 170.616 247.866 173.174 254.471 175.775C256.069 175.988 258.572 176.13 261.768 176.713C264.494 176.484 269.403 174.205 269.588 174.112C268.006 171.303 266.027 168.184 263.911 165.042L247.954 170.616Z" fill="black"/>
</g>
<path d="M217.31 146.811C211.082 146.811 203.13 135.833 203.13 135.833C203.13 135.833 189.071 137.3 184.621 141.325C180.171 145.35 164.29 167.889 164.29 167.889C164.29 167.889 174.995 176.07 187.435 177.22C199.875 178.371 217.31 146.811 217.31 146.811Z" fill="#40A9FF"/>
<path d="M217.31 146.811C223.543 146.811 231.489 135.833 231.489 135.833C231.489 135.833 245.548 137.3 249.999 141.325C254.449 145.35 270.33 167.889 270.33 167.889C270.33 167.889 259.591 176.059 247.174 177.242C234.756 178.426 217.31 146.811 217.31 146.811Z" fill="#40A9FF"/>
<path d="M180.116 175.759C180.116 175.759 188.597 174.941 193.947 175.759C199.297 176.577 189.333 180.498 189.333 180.498L182.483 179.691L180.116 175.759Z" fill="#EFBFA9"/>
<path d="M254.481 175.775C254.481 175.775 246.028 174.941 240.673 175.775C235.318 176.61 245.292 180.514 245.292 180.514L252.142 179.707L254.481 175.775Z" fill="#EFBFA9"/>
<path d="M225.916 134.742L217.288 140.196L208.704 134.66L209.773 122.531L224.967 122.602L225.916 134.742Z" fill="#EFBFA9"/>
<path d="M233.752 85.8451C238.571 85.8451 242.478 81.9384 242.478 77.1193C242.478 72.3002 238.571 68.3936 233.752 68.3936C228.933 68.3936 225.027 72.3002 225.027 77.1193C225.027 81.9384 228.933 85.8451 233.752 85.8451Z" fill="#3D1A02"/>
<g opacity="0.1">
<path d="M209.26 128.356C212.063 130.287 214.97 131.361 217.31 131.361C219.649 131.361 222.594 130.27 225.414 128.323L224.967 122.602L209.773 122.531L209.26 128.356Z" fill="black"/>
</g>
<path d="M200.872 85.8451C205.692 85.8451 209.598 81.9384 209.598 77.1193C209.598 72.3002 205.692 68.3936 200.872 68.3936C196.053 68.3936 192.147 72.3002 192.147 77.1193C192.147 81.9384 196.053 85.8451 200.872 85.8451Z" fill="#3D1A02"/>
<path d="M235.656 105.489C235.656 118.218 224.116 127.271 217.31 127.271C210.504 127.271 198.958 118.191 198.969 105.456C198.98 92.7223 207.199 82.415 217.332 82.4204C227.464 82.4259 235.667 92.755 235.656 105.489Z" fill="#EFBFA9"/>
<path d="M208.622 106.711C209.381 106.711 209.996 105.522 209.996 104.055C209.996 102.588 209.381 101.399 208.622 101.399C207.863 101.399 207.248 102.588 207.248 104.055C207.248 105.522 207.863 106.711 208.622 106.711Z" fill="#010002"/>
<g opacity="0.1">
<path d="M233.752 81.9677C231.773 81.97 229.851 81.2992 228.303 80.0654C226.755 78.8316 225.673 77.1081 225.234 75.178C224.939 76.457 224.936 77.7862 225.225 79.0666C225.515 80.3469 226.09 81.5453 226.907 82.5726C227.724 83.6 228.763 84.4297 229.945 85C231.128 85.5703 232.423 85.8664 233.736 85.8664C235.049 85.8664 236.344 85.5703 237.527 85C238.709 84.4297 239.748 83.6 240.565 82.5726C241.382 81.5453 241.957 80.3469 242.247 79.0666C242.536 77.7862 242.533 76.457 242.238 75.178C241.8 77.1027 240.723 78.822 239.181 80.0552C237.64 81.2884 235.726 81.9626 233.752 81.9677Z" fill="black"/>
</g>
<g opacity="0.1">
<path d="M200.873 81.9677C198.895 81.9676 196.976 81.2956 195.43 80.062C193.885 78.8284 192.804 77.1063 192.365 75.178C192.072 76.4564 192.07 77.7846 192.361 79.0636C192.652 80.3426 193.228 81.5396 194.045 82.5656C194.862 83.5915 195.9 84.42 197.082 84.9894C198.263 85.5589 199.558 85.8546 200.87 85.8546C202.181 85.8546 203.476 85.5589 204.658 84.9894C205.84 84.42 206.878 83.5915 207.695 82.5656C208.512 81.5396 209.088 80.3426 209.378 79.0636C209.669 77.7846 209.668 76.4564 209.375 75.178C208.936 77.1054 207.856 78.8268 206.312 80.0603C204.767 81.2938 202.849 81.9663 200.873 81.9677Z" fill="black"/>
</g>
<path d="M226.003 106.711C226.762 106.711 227.377 105.522 227.377 104.055C227.377 102.588 226.762 101.399 226.003 101.399C225.244 101.399 224.628 102.588 224.628 104.055C224.628 105.522 225.244 106.711 226.003 106.711Z" fill="#010002"/>
<path d="M222.349 96.7904C222.349 96.2832 222.349 95.4816 225.152 95.5906C227.955 95.6997 230.9 97.2922 230.327 97.4776C229.417 97.7721 229.82 97.5267 227.006 97.4176C224.192 97.3085 222.327 97.2976 222.349 96.7904Z" fill="#460000"/>
<path d="M212.276 96.7904C212.276 96.2832 212.276 95.4816 209.467 95.5906C206.659 95.6997 203.725 97.2922 204.297 97.4776C205.208 97.7721 204.805 97.5267 207.619 97.4176C210.433 97.3085 212.292 97.2976 212.276 96.7904Z" fill="#460000"/>
<path d="M217.708 113.571C215.445 113.391 214.228 112.862 213.988 111.935C213.667 110.724 215.308 109.574 215.494 109.448C216.388 108.843 216.917 106.329 217.042 105.413L217.588 105.489C217.588 105.631 217.081 109.034 215.804 109.895C215.199 110.31 214.348 111.155 214.517 111.799C214.616 112.159 215.166 112.802 217.757 113.004L217.708 113.571Z" fill="#E8937F"/>
<path d="M199.346 105.074C199.346 104.36 199.373 103.651 199.422 102.948C199.451 102.621 199.401 102.293 199.275 101.99C199.15 101.687 198.953 101.419 198.702 101.209C198.451 100.998 198.153 100.852 197.833 100.781C197.513 100.711 197.18 100.719 196.864 100.804H196.837C194.939 101.421 194.137 104.175 195.043 106.951C195.91 109.617 198.342 111.428 200.191 111.003C199.724 109.057 199.441 107.073 199.346 105.074Z" fill="#EFBFA9"/>
<path d="M208.622 109.966C207.453 109.966 206.31 109.62 205.338 108.97C204.366 108.321 203.608 107.397 203.16 106.317C202.713 105.237 202.596 104.048 202.824 102.901C203.052 101.755 203.615 100.701 204.442 99.8746C205.269 99.0478 206.322 98.4848 207.469 98.2567C208.616 98.0286 209.804 98.1456 210.884 98.5931C211.965 99.0405 212.888 99.7982 213.538 100.77C214.187 101.743 214.534 102.886 214.534 104.055C214.531 105.622 213.907 107.124 212.799 108.232C211.691 109.34 210.189 109.964 208.622 109.966ZM208.622 98.6884C207.561 98.6884 206.523 99.0032 205.641 99.5928C204.758 100.182 204.07 101.021 203.664 102.001C203.258 102.982 203.152 104.061 203.359 105.102C203.566 106.143 204.077 107.099 204.828 107.849C205.578 108.6 206.534 109.111 207.575 109.318C208.616 109.525 209.695 109.419 210.676 109.013C211.656 108.606 212.494 107.919 213.084 107.036C213.674 106.154 213.989 105.116 213.989 104.055C213.981 102.636 213.413 101.277 212.407 100.276C211.402 99.2745 210.041 98.7117 208.622 98.7102V98.6884Z" fill="#F0F2F5"/>
<path d="M226.003 109.966C224.834 109.966 223.691 109.62 222.718 108.97C221.746 108.321 220.989 107.397 220.541 106.317C220.094 105.237 219.977 104.048 220.205 102.901C220.433 101.755 220.996 100.701 221.823 99.8746C222.649 99.0478 223.703 98.4848 224.849 98.2567C225.996 98.0286 227.185 98.1456 228.265 98.5931C229.345 99.0405 230.269 99.7982 230.918 100.77C231.568 101.743 231.914 102.886 231.914 104.055C231.912 105.622 231.288 107.124 230.18 108.232C229.072 109.34 227.57 109.964 226.003 109.966ZM226.003 98.6884C224.941 98.6884 223.904 99.0032 223.021 99.5928C222.139 100.182 221.451 101.021 221.045 102.001C220.639 102.982 220.532 104.061 220.74 105.102C220.947 106.143 221.458 107.099 222.208 107.849C222.959 108.6 223.915 109.111 224.956 109.318C225.997 109.525 227.076 109.419 228.056 109.013C229.037 108.606 229.875 107.919 230.465 107.036C231.054 106.154 231.369 105.116 231.369 104.055C231.362 102.636 230.794 101.277 229.788 100.276C228.783 99.2745 227.422 98.7117 226.003 98.7102V98.6884Z" fill="#F0F2F5"/>
<path d="M220.167 104.906C220.167 104.906 219.622 103.897 217.31 103.897C214.997 103.897 214.463 104.895 214.457 104.906L213.961 104.671C213.988 104.617 214.605 103.351 217.31 103.351C220.015 103.351 220.636 104.617 220.658 104.671L220.167 104.9L220.413 104.786L220.167 104.906Z" fill="#F0F2F5"/>
<path d="M199.057 103.482C199.057 103.482 188.149 76.1814 217.31 76.1814C244.905 76.1814 235.59 103.509 235.59 103.509C235.59 103.509 234.14 95.04 232.613 94.3364C231.086 93.6329 223.025 90.6443 222.851 87.2031C222.851 87.2031 220.364 91.3315 211.464 91.7896C201.413 92.3022 199.057 103.482 199.057 103.482Z" fill="#3D1A02"/>
<g opacity="0.1">
<path d="M272.887 181.316C269.692 186.448 248.423 185.886 248.423 185.886H221.073C220.583 186.31 220.009 186.626 219.389 186.814C218.769 187.002 218.116 187.058 217.473 186.977V189.038H248.417C248.417 189.038 269.899 189.584 272.958 184.392C273.313 183.721 273.264 182.696 272.887 181.316Z" fill="black"/>
</g>
<g opacity="0.1">
<path d="M214.872 185.903H186.175C186.175 185.903 164.906 186.448 161.716 181.338C161.339 182.685 161.29 183.743 161.667 184.386C164.693 189.595 186.175 189.027 186.175 189.027H217.119V186.911C216.296 186.772 215.523 186.424 214.872 185.903Z" fill="black"/>
</g>
<path d="M212.036 117.967C212.036 117.967 212.778 118.354 217.31 118.354C221.842 118.354 222.169 117.967 222.169 117.967C222.169 117.967 220.358 121.092 217.31 121.092C214.261 121.092 212.036 117.967 212.036 117.967Z" fill="#F0F2F5"/>
<path d="M235.274 105.074C235.274 104.36 235.274 103.651 235.203 102.948C235.174 102.621 235.224 102.293 235.35 101.99C235.475 101.687 235.672 101.419 235.923 101.209C236.174 100.998 236.472 100.852 236.792 100.781C237.112 100.711 237.444 100.719 237.761 100.804C239.659 101.421 240.488 104.175 239.555 106.951C238.682 109.617 236.256 111.428 234.407 111.003C234.788 109.137 235.279 107.087 235.274 105.074Z" fill="#EFBFA9"/>
<g opacity="0.1">
<path d="M195.043 105.849C194.86 105.303 194.743 104.737 194.694 104.164C194.619 105.115 194.736 106.072 195.037 106.978C195.904 109.645 198.337 111.455 200.185 111.03C200.12 110.675 200.044 110.315 199.973 109.939C198.157 110.163 195.877 108.418 195.043 105.849Z" fill="black"/>
</g>
<g opacity="0.1">
<path d="M239.582 105.849C238.742 108.418 236.468 110.185 234.647 109.934C234.57 110.297 234.5 110.661 234.434 111.025C236.283 111.45 238.71 109.639 239.582 106.973C239.883 106.067 240 105.11 239.926 104.158C239.879 104.734 239.764 105.301 239.582 105.849Z" fill="black"/>
</g>
<path d="M235.203 111.586C235.203 111.406 235.203 111.232 235.247 111.041C235.446 111.026 235.644 110.989 235.836 110.932C235.808 111.145 235.786 111.363 235.776 111.597C235.776 111.701 235.776 111.804 235.776 111.914C235.776 113.386 236.146 114.128 236.277 114.177C236.425 114.128 236.795 113.386 236.795 111.914C236.795 110.441 236.425 109.705 236.288 109.656V109.11C237.03 109.11 237.379 110.577 237.379 111.941C237.379 113.304 237.041 114.777 236.288 114.777C235.536 114.777 235.198 113.304 235.198 111.941C235.198 111.799 235.198 111.701 235.203 111.586Z" fill="#FA8C16"/>
<path d="M192.321 143.43H242.255C243.24 143.43 244.184 143.821 244.881 144.517C245.577 145.214 245.968 146.159 245.968 147.144V188.995H188.602V147.165C188.599 146.675 188.693 146.19 188.879 145.736C189.065 145.283 189.338 144.87 189.684 144.523C190.03 144.176 190.441 143.901 190.893 143.713C191.346 143.525 191.831 143.429 192.321 143.43Z" fill="#E6FCFF"/>
<g opacity="0.1">
<path d="M188.602 172.536C188.602 172.536 195.899 179.805 217.288 179.805C238.677 179.805 245.957 173.316 245.957 173.316V189.016H188.602V172.536Z" fill="black"/>
</g>
<path d="M217.288 170.594C219.697 170.594 221.651 168.641 221.651 166.231C221.651 163.822 219.697 161.868 217.288 161.868C214.878 161.868 212.925 163.822 212.925 166.231C212.925 168.641 214.878 170.594 217.288 170.594Z" fill="#CDE0E3"/>
<path d="M216.252 169.187C217.435 169.187 218.395 168.228 218.395 167.044C218.395 165.86 217.435 164.901 216.252 164.901C215.068 164.901 214.108 165.86 214.108 167.044C214.108 168.228 215.068 169.187 216.252 169.187Z" fill="#B1C2C4"/>
<path d="M218.395 166.28C219.154 166.28 219.769 165.665 219.769 164.906C219.769 164.147 219.154 163.532 218.395 163.532C217.636 163.532 217.021 164.147 217.021 164.906C217.021 165.665 217.636 166.28 218.395 166.28Z" fill="#B1C2C4"/>
<path d="M69.3207 165.359L68.6663 191.236H125.411L124.118 158.716L69.3207 165.359Z" fill="#3D1A02"/>
<path d="M118.954 76.525C117.471 75.1998 113.888 73.9836 112.044 74.1581C110.555 74.2945 104.104 74.4908 101.213 74.5671L99.7955 74.6053L85.0762 77.9865L70.0461 77.6757L68.65 77.9266C65.8032 78.4446 52.8672 81.8859 51.6947 83.4892C49.0388 87.0941 61.7948 172.247 68.65 172.514C72.0857 172.639 122.057 170 125.395 169.165C132.064 167.518 122.286 79.5081 118.954 76.525Z" fill="#69C0FF"/>
<path d="M93.9438 70.5096L84.9835 76.9667L74.8889 72.4947L74.7526 60.3059L91.5715 58.5608L93.9438 70.5096Z" fill="#EFBFA9"/>
<g opacity="0.1">
<path d="M91.5715 58.5608L74.7526 60.3059L74.8289 67.0466C84.0728 72.293 91.9587 60.5023 91.9587 60.5023L91.5715 58.5608Z" fill="black"/>
</g>
<g opacity="0.1">
<path d="M99.0865 74.6489C99.0663 74.9497 98.9582 75.238 98.7756 75.4779L92.613 83.5547C92.3168 83.9452 91.8802 84.2051 91.3957 84.2794C90.9112 84.3537 90.4168 84.2366 90.0171 83.9528L84.2254 79.8353L79.4044 85.0762C79.0713 85.4356 78.6118 85.6518 78.1225 85.6792C77.6333 85.7067 77.1524 85.5433 76.7812 85.2235L69.0916 78.581C68.9013 78.4159 68.7551 78.206 68.6663 77.9702L70.0624 77.7193L85.0762 77.9865C85.0762 77.9865 95.6889 75.0089 99.0865 74.6489Z" fill="black"/>
</g>
<path d="M99.801 72.8219L96.6161 68.0336C96.4729 67.8175 96.2868 67.6331 96.0693 67.4919C95.8519 67.3507 95.6078 67.2556 95.3521 67.2127C95.0964 67.1697 94.8346 67.1798 94.583 67.2422C94.3314 67.3046 94.0952 67.418 93.8893 67.5755L84.7163 74.4743L74.3163 69.6042C74.0834 69.4961 73.831 69.4365 73.5744 69.429C73.3178 69.4215 73.0623 69.4663 72.8235 69.5607C72.5848 69.6551 72.3677 69.7971 72.1855 69.978C72.0034 70.1589 71.86 70.375 71.764 70.6132L69.6262 75.9577C69.5065 76.2558 69.4832 76.5838 69.5595 76.8959C69.6358 77.2079 69.8079 77.4881 70.0516 77.6974L77.7411 84.3399C78.1115 84.6594 78.5914 84.8226 79.0798 84.7952C79.5681 84.7677 80.0267 84.5517 80.3589 84.1926L85.1799 78.9735L90.9716 83.091C91.371 83.3741 91.8646 83.4913 92.3487 83.4181C92.8328 83.3448 93.2696 83.0869 93.5675 82.6983L99.7301 74.6161C99.9268 74.3615 100.039 74.0519 100.052 73.7303C100.065 73.4088 99.977 73.0912 99.801 72.8219Z" fill="#A1DBFF"/>
<path d="M83.5379 63.0509C93.1246 62.0552 99.8818 51.4826 98.6305 39.4364C97.3793 27.3901 88.5935 18.432 79.0068 19.4277C69.4202 20.4235 62.663 30.9961 63.9142 43.0423C65.1655 55.0885 73.9513 64.0467 83.5379 63.0509Z" fill="#EFBFA9"/>
<g opacity="0.1">
<path d="M65.8687 42.7617C64.6689 31.2437 62.662 30.9983 63.9163 43.0398C65.1706 55.0814 73.9509 64.0471 83.5493 63.0491C83.9692 63.0055 84.3837 62.9346 84.7981 62.8582C75.7015 62.9837 67.0794 54.2743 65.8687 42.7617Z" fill="black"/>
</g>
<path d="M98.1649 27.6225L98.623 39.4296C98.0628 39.0677 97.5892 38.5869 97.2358 38.0214C96.8823 37.4559 96.6577 36.8195 96.5779 36.1574C96.2888 33.4034 96.0762 27.6116 93.5348 27.8734C93.1868 27.9201 92.8525 28.039 92.5531 28.2224C91.7596 29.0833 90.7344 29.6967 89.6006 29.9891C88.4669 30.2815 87.2729 30.2403 86.162 29.8706C85.0511 29.5009 84.0705 28.8183 83.3381 27.9048C82.6057 26.9914 82.1526 25.8859 82.0331 24.7212C81.9895 24.3079 81.9895 23.8911 82.0331 23.4778C77.8936 25.3219 73.4051 26.252 68.8736 26.2046C68.8736 26.2046 66.3268 26.5209 66.2013 31.1728C66.1304 33.9433 65.8414 35.8738 65.825 39.2551C65.825 41.0929 63.9054 43.0399 63.9054 43.0399C63.9054 43.0399 60.4587 30.9547 61.2876 25.2884C62.0239 20.2602 59.9188 22.2998 59.2316 20.751C58.4845 19.0658 59.4116 18.4223 60.3223 18.4169C61.0586 18.4169 61.7784 18.635 61.9584 18.4169C62.3893 17.8715 60.3932 15.6573 61.3749 13.9122C63.011 11.0381 65.3778 13.9122 64.9524 15.5483C64.9539 15.5283 64.9539 15.5082 64.9524 15.4883C65.127 15.1283 66.0922 13.4104 69.528 11.8562C69.6146 11.8124 69.7039 11.7742 69.7952 11.7416C69.9589 11.6653 70.1279 11.5998 70.297 11.529L70.6187 11.4035C72.2109 10.8077 73.8537 10.3568 75.527 10.0565C76.0124 9.96377 76.5304 9.87651 77.0649 9.79471L79.339 9.5602C80.0644 4.51562 81.8695 0.643561 87.165 0.0927471C88.8169 -0.0929236 90.4895 0.0878145 92.0636 0.622098C93.6378 1.15638 95.0748 2.03108 96.2724 3.18393C97.4701 4.33678 98.3989 5.73944 98.9927 7.29209C99.5866 8.84474 99.8309 10.5092 99.7083 12.167C101.546 13.6013 103.471 15.6791 103.728 18.166C104.207 22.7743 102.664 26.7663 98.1649 27.6225Z" fill="#3D1A02"/>
<path d="M100.45 35.4484H100.423C100.137 35.4019 99.8453 35.425 99.571 35.5156C99.2967 35.6062 99.0483 35.7618 98.847 35.969C98.6456 36.1762 98.4973 36.429 98.4146 36.7058C98.332 36.9826 98.3174 37.2753 98.3721 37.559C98.4811 38.1752 98.5629 38.797 98.6284 39.4241C98.8079 41.1457 98.8243 42.8804 98.6775 44.605C100.341 44.8068 102.059 43.1108 102.582 40.6894C103.128 38.1752 102.173 35.8356 100.45 35.4484Z" fill="#EFBFA9"/>
<path d="M73.7913 44.9462C74.756 44.846 75.3811 43.2542 75.1875 41.3908C74.994 39.5274 74.0551 38.098 73.0904 38.1982C72.1258 38.2984 71.5007 39.8902 71.6942 41.7536C71.8878 43.617 72.8267 45.0464 73.7913 44.9462Z" fill="#010002"/>
<path d="M90.0704 43.257C91.035 43.1568 91.6601 41.565 91.4666 39.7016C91.273 37.8382 90.3341 36.4088 89.3695 36.509C88.4048 36.6092 87.7797 38.201 87.9733 40.0644C88.1668 41.9278 89.1057 43.3572 90.0704 43.257Z" fill="#010002"/>
<path d="M75.1889 33.7415C75.0853 33.2725 73.2801 32.7435 71.115 33.1961C68.95 33.6488 68.6391 35.3176 69.1136 35.4158C69.8716 35.5685 69.5171 35.4158 71.6822 34.9249C73.8473 34.4341 75.2925 34.216 75.1889 33.7415Z" fill="#460000"/>
<path d="M85.687 32.6508C85.687 32.1709 87.3231 31.2819 89.5591 31.2928C91.7951 31.3037 92.4222 32.8635 91.975 33.0543C91.2661 33.3652 91.5769 33.1143 89.3628 33.1034C87.1486 33.0925 85.6816 33.1361 85.687 32.6508Z" fill="#460000"/>
<path d="M82.4748 49.3115C80.4079 49.2242 79.2026 48.6516 78.8209 47.6154C78.3573 46.252 79.6226 44.5941 80.2716 44.0488C81.1932 43.2689 81.0023 41.2892 81.0023 41.2674L81.5477 41.2129C81.5477 41.3056 81.7713 43.5034 80.6315 44.4851C80.0261 44.9922 78.9954 46.4374 79.3444 47.4627C79.6117 48.2535 80.7078 48.7116 82.5075 48.7879L82.4748 49.3115Z" fill="#E8937F"/>
<path d="M86.8268 56.3739C85.629 57.018 84.3213 57.4323 82.9711 57.5955C81.9083 57.6988 80.8363 57.6529 79.7862 57.4592C77.5448 57.0502 75.6033 55.9758 75.9251 54.2525C75.9613 54.0215 76.0408 53.7995 76.1596 53.598C77.0485 52.071 79.9062 52.8618 82.453 52.5946C84.9999 52.3274 87.5412 51.0076 88.801 52.311C88.9546 52.4728 89.0833 52.6566 89.1828 52.8564C89.7827 54.1161 88.5611 55.4359 86.8268 56.3739Z" fill="#E38156"/>
<path d="M86.8268 56.3739C85.6289 57.018 84.3212 57.4323 82.9711 57.5955C81.9083 57.6988 80.8362 57.6529 79.7862 57.4592C79.7695 57.4078 79.7586 57.3548 79.7534 57.301C79.6498 56.303 81.1605 55.3323 83.1238 55.1196C84.9616 54.9342 86.5432 55.485 86.8268 56.3739Z" fill="#E39978"/>
<path d="M88.801 52.311C86.8355 53.157 84.7444 53.6747 82.6112 53.8435C80.4621 54.1251 78.281 54.0421 76.1595 53.598C77.0485 52.071 79.9062 52.8618 82.453 52.5946C84.9998 52.3274 87.5412 51.0076 88.801 52.311Z" fill="#E6FCFF"/>
<g opacity="0.1">
<path d="M88.3156 19.3167C88.3156 19.3167 81.564 18.7714 79.2354 14.5884C76.9067 10.4055 70.3514 11.5017 70.3514 11.5017C72.5271 10.6639 74.7929 10.0819 77.103 9.76746L79.3772 9.53296C79.3772 9.53296 78.7991 15.6683 88.3156 19.3167Z" fill="black"/>
</g>
<g opacity="0.1">
<path d="M99.7082 12.1343C94.1728 11.2127 92.7385 13.1869 90.9824 15.1993C90.9824 15.1993 92.3404 11.9271 95.2144 11.409C98.0885 10.8909 99.7082 12.1343 99.7082 12.1343Z" fill="black"/>
</g>
<g opacity="0.1">
<path d="M98.1648 27.6278C96.9136 27.603 95.6878 27.2694 94.5965 26.6566C93.5052 26.0439 92.5822 25.1711 91.9095 24.1157C91.9095 24.1157 93.1202 27.5897 98.2085 28.7676L98.1648 27.6278Z" fill="black"/>
</g>
<g opacity="0.1">
<path d="M88.7247 30.1694C87.9277 30.2516 87.1223 30.1756 86.3547 29.9457C85.5871 29.7159 84.8725 29.3368 84.2518 28.8301C83.6311 28.3234 83.1166 27.6991 82.7377 26.9931C82.3589 26.2871 82.1231 25.5132 82.0441 24.7158C82.0004 24.3025 82.0004 23.8857 82.0441 23.4724C77.9045 25.3166 73.416 26.2466 68.8845 26.1992C71.4641 27.9989 79.3391 25.5502 80.9261 25.5611C82.0168 25.5611 81.3787 28.4516 83.8874 29.7604C88.5284 32.1764 91.1734 29.3514 91.1734 29.3514C90.4262 29.7986 89.5907 30.0777 88.7247 30.1694Z" fill="black"/>
</g>
<g opacity="0.1">
<path d="M79.2464 9.53833C76.9361 9.85205 74.6703 10.4341 72.4948 11.2726C68.1319 13.0068 68.181 14.9156 67.1285 15.2864C66.0759 15.6573 65.3179 16.0717 64.947 15.5155C64.9485 15.4955 64.9485 15.4755 64.947 15.4555C65.1215 15.0956 66.0868 13.3777 69.5226 11.8234C69.6092 11.7797 69.6984 11.7414 69.7898 11.7089C69.9534 11.6325 70.1225 11.5671 70.2916 11.4962L70.6133 11.3707C72.2036 10.7691 73.8469 10.3181 75.5216 10.0237C76.0069 9.93099 76.525 9.84373 77.0595 9.76193L79.2464 9.53833Z" fill="black"/>
</g>
<g opacity="0.1">
<path d="M63.469 25.0867C64.2053 20.053 61.5985 22.1526 60.9113 20.5983C60.4477 19.5676 60.6168 18.8314 61.0258 18.4878C60.6986 18.4878 60.764 18.4387 60.3114 18.4387C59.4225 18.4387 58.4953 19.0877 59.2207 20.7729C59.9078 22.3217 62.0129 20.282 61.2767 25.3103C60.4477 30.9766 63.8944 43.0617 63.8944 43.0617C64.5544 42.3626 65.0943 41.5592 65.4923 40.684C64.5761 36.9264 62.8582 29.2478 63.469 25.0867Z" fill="black"/>
</g>
<g opacity="0.1">
<path d="M88.2939 0C87.9285 0 87.5522 0 87.1759 0.0599896C81.8805 0.60535 80.0862 4.48286 79.35 9.52744L81.5314 9.30385C82.1968 4.60829 83.8056 0.932566 88.2939 0Z" fill="black"/>
</g>
<g opacity="0.1">
<path d="M62.0184 18.2586C62.169 18.2146 62.3251 18.1926 62.4819 18.1931C63.2127 18.1931 63.1909 18.3294 63.3872 18.0895C63.8181 17.5441 61.822 15.33 62.8037 13.5848C62.94 13.3394 63.1255 12.9958 63.9762 13.0395C63.2291 12.445 62.2038 12.4123 61.3803 13.8793C60.4696 15.5154 62.1329 17.555 62.0184 18.2586Z" fill="black"/>
</g>
<g opacity="0.1">
<path d="M71.055 25.9756C70.8645 26.0137 70.6807 26.0799 70.5096 26.1719C71.6004 26.1229 72.5984 26.0247 73.5528 25.8938C72.7456 25.9538 71.9167 25.9811 71.055 25.9756Z" fill="black"/>
</g>
<g opacity="0.1">
<path d="M84.2145 24.5411C84.1711 24.126 84.1711 23.7074 84.2145 23.2922C83.5045 23.6306 82.7763 23.9292 82.0331 24.1866C82.0331 24.3775 82.0331 24.5684 82.0658 24.7647C82.1449 25.5621 82.3806 26.3359 82.7594 27.042C83.1383 27.748 83.6528 28.3722 84.2735 28.8789C84.8942 29.3856 85.6089 29.7648 86.3765 29.9946C87.144 30.2245 87.9494 30.3005 88.7465 30.2183C89.1157 30.1775 89.4807 30.1045 89.8372 30.0002C88.4067 29.8993 87.058 29.2961 86.0291 28.2972C85.0003 27.2983 84.3576 25.9679 84.2145 24.5411Z" fill="black"/>
</g>
<path d="M63.9162 43.0398C63.8508 42.4126 63.8071 41.7854 63.7853 41.1637C63.7794 40.8752 63.7041 40.5924 63.5656 40.3392C63.4271 40.086 63.2296 39.87 62.9898 39.7094C62.75 39.5488 62.475 39.4485 62.1882 39.4168C61.9014 39.3852 61.6111 39.4232 61.3421 39.5276C59.706 40.2421 59.2752 42.7344 60.3277 45.0849C61.3366 47.3481 63.3708 48.657 64.9578 48.1171C64.4475 46.4622 64.0987 44.7619 63.9162 43.0398Z" fill="#EFBFA9"/>
<g opacity="0.1">
<path d="M63.9162 43.0398C63.8508 42.4126 63.8071 41.7854 63.7853 41.1637C63.7794 40.8752 63.7041 40.5924 63.5656 40.3392C63.4271 40.086 63.2296 39.87 62.9898 39.7094C62.75 39.5488 62.475 39.4485 62.1882 39.4168C61.9014 39.3852 61.6111 39.4232 61.3421 39.5276C59.706 40.2421 59.2752 42.7344 60.3277 45.0849C61.3366 47.3481 63.3708 48.657 64.9578 48.1171C64.4475 46.4622 64.0987 44.7619 63.9162 43.0398Z" fill="black"/>
</g>
<path d="M16.279 186.001C18.6841 184.768 23.3687 183.945 31.6364 183.705L41.5619 124.021L49.5351 127.773L42.2109 183.787C42.2109 183.787 43.3016 188.537 40.7002 188.967H17.0316C16.684 188.961 16.3482 188.84 16.0759 188.624C15.8036 188.408 15.6098 188.108 15.5243 187.771C15.4388 187.434 15.4664 187.078 15.6027 186.758C15.7391 186.439 15.9767 186.172 16.279 186.001Z" fill="#EFBFA9"/>
<path d="M51.711 83.511C37.8262 94.9908 37.3681 135.424 31.8272 169.509C31.7748 169.83 31.8426 170.16 32.0176 170.434C32.1927 170.709 32.4627 170.909 32.7761 170.998L45.4939 174.553C45.6626 174.601 45.8391 174.615 46.0131 174.594C46.1872 174.573 46.3553 174.517 46.5076 174.43C46.6599 174.344 46.7934 174.227 46.9002 174.088C47.0071 173.949 47.0852 173.79 47.13 173.621L56.1721 125.793L51.711 83.511Z" fill="#69C0FF"/>
<g opacity="0.1">
<path d="M32.8361 176.5L31.6309 183.705C23.3414 183.945 18.684 184.768 16.2735 186.001C15.9601 186.167 15.7115 186.434 15.5675 186.758C15.4235 187.082 15.3923 187.446 15.479 187.79C15.5656 188.134 15.7651 188.439 16.0456 188.656C16.326 188.874 16.6713 188.991 17.0261 188.989H18.8749C18.6562 188.831 18.4814 188.62 18.367 188.376C18.2525 188.132 18.2022 187.862 18.2207 187.593C18.2393 187.324 18.3261 187.064 18.473 186.838C18.6199 186.612 18.8221 186.427 19.0603 186.3C21.4708 185.068 26.15 184.244 34.4177 184.01L35.6829 176.413C34.7655 176.734 33.7715 176.765 32.8361 176.5Z" fill="black"/>
</g>
<path d="M32.9507 171.041L31.6364 178.431L44.0269 180.978L45.4885 174.553L32.9507 171.041Z" fill="#69C0FF"/>
<path d="M112.066 76.4922C112.066 76.4922 128.912 78.5155 147.073 91.3751C147.989 83.5829 150.009 75.9607 153.072 68.7372C155.013 64.1562 155.869 61.0695 156.191 58.9971C156.453 57.2956 155.684 55.7249 154.473 54.487C153.061 53.0581 152.352 51.1166 151.746 50.0641C150.263 47.4409 143.506 43.1707 145.747 42.2982C148.954 41.0602 151.828 48.2153 153.682 45.2431C154.953 43.2035 149.532 30.3275 151.441 29.853C153.35 29.3786 155.095 39.6695 156.529 39.4241C157.964 39.1787 155.668 26.2864 158.154 26.2864C160.129 26.2864 159.212 38.8297 161.181 38.8297C163.15 38.8297 161.116 26.9626 163.63 27.4534C165.424 27.8025 164.093 39.5659 165.811 40.0458C167.529 40.5257 165.844 32.1654 168.593 31.9854C170.409 31.8654 168.429 52.9927 166.264 55.4959C164.099 57.9991 164.699 109.072 153.699 111.799C142.699 114.526 114.82 95.4708 114.82 95.4708L112.066 76.4922Z" fill="#EFBFA9"/>
<path d="M112.933 74.1691C123.257 76.1215 136.509 84.7982 145.551 89.5319C145.551 89.5319 148.523 75.1616 151.397 68.012C151.531 67.6733 151.786 67.3968 152.113 67.2364C152.44 67.076 152.815 67.0434 153.164 67.1449L165.277 70.6406C165.597 70.7323 165.877 70.9312 166.069 71.2042C166.26 71.4772 166.352 71.8076 166.329 72.1404C165.92 78.5756 163.548 109.405 155.738 113.222C147.013 117.487 112.933 96.567 112.933 96.567L109.525 76.9668L112.933 74.1691Z" fill="#69C0FF"/>
<path d="M155.133 60.606L153.077 67.123L165.517 70.7115L165.795 62.4875L155.133 60.606Z" fill="#69C0FF"/>
<g opacity="0.71">
<path d="M154.337 46.0339C155 46.08 155.643 46.2818 156.213 46.6229C156.796 46.9628 157.305 47.4173 157.707 47.9591C158.103 48.5028 158.39 49.1175 158.553 49.7697C158.631 50.0905 158.686 50.4168 158.716 50.7458C158.735 51.0728 158.735 51.4006 158.716 51.7275C158.613 51.4112 158.558 51.1003 158.465 50.7949C158.373 50.4895 158.28 50.1732 158.154 49.9005C158.094 49.7587 158.034 49.6115 157.98 49.4697L157.767 49.0607C157.703 48.9215 157.626 48.7883 157.538 48.6626C157.459 48.5299 157.372 48.4024 157.276 48.2808C156.909 47.7838 156.47 47.3445 155.973 46.9774C155.47 46.595 154.92 46.278 154.337 46.0339Z" fill="#E8937F"/>
</g>
<g opacity="0.1">
<path d="M68.5081 172.514C68.5608 172.516 68.6136 172.516 68.6663 172.514H69.1407L68.7154 189.016H76.2413L76.6667 172.263L75.9523 172.296H75.5978C72.042 169.88 59.8914 148.643 56.2484 127.031C59.9514 149.243 64.9742 171.723 68.5081 172.514Z" fill="black"/>
</g>
<g opacity="0.1">
<path d="M161.056 104.911C159.649 109.023 157.904 112.159 155.739 113.217C150.214 115.943 134.524 108.521 123.759 102.735C124.479 103.057 148.6 113.806 157.195 109.606C158.667 108.887 159.943 107.207 161.056 104.911Z" fill="black"/>
</g>
<g opacity="0.1">
<path d="M153.164 67.1449C152.815 67.0434 152.44 67.076 152.113 67.2364C151.786 67.3968 151.531 67.6733 151.398 68.012C148.523 75.1616 145.551 89.5319 145.551 89.5319C145.82 89.9373 146.143 90.3042 146.511 90.6226C146.563 90.6704 146.626 90.7037 146.694 90.7192C146.763 90.7346 146.834 90.7317 146.901 90.7107C146.968 90.6896 147.028 90.6512 147.076 90.5994C147.123 90.5475 147.156 90.484 147.171 90.4154C147.771 87.6177 150.367 75.7779 152.892 69.5008C153.17 68.7973 154.157 67.4284 154.882 67.6357L153.164 67.1449Z" fill="black"/>
</g>
<g opacity="0.1">
<path d="M156.993 60.9332L155.133 60.606L153.077 67.123L154.882 67.6411L156.993 60.9332Z" fill="black"/>
</g>
<g opacity="0.1">
<path d="M36.3265 170.992L46.9719 173.97L46.8737 174.106L46.7592 174.232C46.7214 174.272 46.6793 174.309 46.6338 174.341C46.5528 174.416 46.4584 174.475 46.3556 174.515C46.3105 174.537 46.2629 174.554 46.2138 174.564H46.1757L46.0448 174.592C45.8623 174.616 45.6768 174.603 45.4994 174.553L32.7762 170.992C32.4637 170.903 32.195 170.702 32.021 170.427C31.8471 170.153 31.7801 169.824 31.8327 169.503C32.2635 166.837 32.6671 164.126 33.0434 161.399C37.5208 129.25 38.9115 94.0856 51.7111 83.511C52.131 82.9657 54.0507 82.1313 56.4721 81.3296C37.9298 100.739 40.4603 138.271 35.3775 169.525C35.3321 169.843 35.4031 170.167 35.5775 170.436C35.7519 170.706 36.0179 170.903 36.3265 170.992Z" fill="black"/>
</g>
<g opacity="0.1">
<path d="M35.1866 178.431L36.3319 171.99L32.9507 171.041L31.6364 178.431L44.0269 180.978L44.1851 180.28L35.1866 178.431Z" fill="black"/>
</g>
<path d="M418.46 189.016H5.49178C2.45875 189.016 0 191.475 0 194.508C0 197.541 2.45875 200 5.49178 200H418.46C421.493 200 423.952 197.541 423.952 194.508C423.952 191.475 421.493 189.016 418.46 189.016Z" fill="white"/>
</g>
<defs>
<clipPath id="clip0_2777_9574">
<rect width="423.952" height="200" fill="white"/>
</clipPath>
</defs>
</svg>
