<svg width="20" height="19" viewBox="0 0 20 19" fill="none" xmlns="http://www.w3.org/2000/svg">
<g clip-path="url(#clip0_446_7602)">
<path d="M8.99044 1.09519L0.838061 6.18091C0.72567 6.24871 0.632703 6.3444 0.56817 6.4587C0.503637 6.573 0.469727 6.70203 0.469727 6.83329C0.469727 6.96455 0.503637 7.09358 0.56817 7.20788C0.632703 7.32218 0.72567 7.41787 0.838061 7.48567L8.99044 12.5809C9.29317 12.7701 9.64297 12.8704 9.99997 12.8704C10.357 12.8704 10.7068 12.7701 11.0095 12.5809L19.1619 7.48567C19.2743 7.41787 19.3672 7.32218 19.4318 7.20788C19.4963 7.09358 19.5302 6.96455 19.5302 6.83329C19.5302 6.70203 19.4963 6.573 19.4318 6.4587C19.3672 6.3444 19.2743 6.24871 19.1619 6.18091L11.0095 1.09519C10.7068 0.905987 10.357 0.805664 9.99997 0.805664C9.64297 0.805664 9.29317 0.905987 8.99044 1.09519V1.09519Z" stroke="#1890FF" stroke-linecap="round" stroke-linejoin="round"/>
<path d="M19.5237 6.83789V15.276" stroke="#1890FF" stroke-linecap="round" stroke-linejoin="round"/>
<path d="M11.0095 12.5812C10.7067 12.7704 10.3569 12.8707 9.99993 12.8707C9.64294 12.8707 9.29314 12.7704 8.99041 12.5812L3.27612 9.00977V15.5621C3.27612 16.1541 3.51061 16.7219 3.92828 17.1414C4.34594 17.5608 4.91277 17.7977 5.50469 17.8002H14.5142C15.1045 17.7952 15.6689 17.5572 16.0845 17.138C16.5001 16.7188 16.7333 16.1524 16.7333 15.5621V9.00977L11.0095 12.5812Z" stroke="#1890FF" stroke-linecap="round" stroke-linejoin="round"/>
</g>
<defs>
<clipPath id="clip0_446_7602">
<rect width="20" height="17.9143" fill="white" transform="translate(0 0.324219)"/>
</clipPath>
</defs>
</svg>
