<svg width="23" height="24" viewBox="0 0 23 24" fill="none" xmlns="http://www.w3.org/2000/svg">
<path fill-rule="evenodd" clip-rule="evenodd" d="M7.96965 0.78125H15.0303C21.4742 0.78125 23 2.30701 23 8.7509V15.8116C23 22.2555 21.4742 23.7813 15.0303 23.7813H7.96965C1.52576 23.7813 0 22.2555 0 15.8116V8.7509C0 2.30701 1.52576 0.78125 7.96965 0.78125Z" fill="#40A9FF"/>
<path fill-rule="evenodd" clip-rule="evenodd" d="M18.8285 8.70139C18.9421 8.34429 18.8285 8.08459 18.3253 8.08459H16.6534C16.2314 8.08459 16.0366 8.31183 15.923 8.5553C15.923 8.5553 15.0628 10.6329 13.8616 11.9801C13.4721 12.3697 13.2935 12.4996 13.0825 12.4996C12.9689 12.4996 12.8228 12.3697 12.8228 12.0126V8.68515C12.8228 8.26314 12.693 8.06836 12.3359 8.06836H9.70637C9.44666 8.06836 9.28435 8.26314 9.28435 8.45791C9.28435 8.8637 9.88491 8.96109 9.94984 10.0973V12.5645C9.94984 13.1001 9.85245 13.1975 9.64144 13.1975C9.07334 13.1975 7.69366 11.1036 6.86586 8.71762C6.70354 8.24691 6.54123 8.06836 6.11921 8.06836H4.43114C3.94419 8.06836 3.86304 8.2956 3.86304 8.53907C3.86304 8.97732 4.43114 11.1848 6.50877 14.1065C7.88844 16.1029 9.85245 17.1742 11.6217 17.1742C12.693 17.1742 12.8228 16.9307 12.8228 16.525V15.0154C12.8228 14.5285 12.9202 14.4473 13.2611 14.4473C13.5045 14.4473 13.9428 14.5772 14.9329 15.5348C16.0691 16.671 16.2639 17.1904 16.8969 17.1904H18.5688C19.0557 17.1904 19.2829 16.947 19.1531 16.4763C19.007 16.0055 18.4551 15.3238 17.7409 14.5123C17.3514 14.0578 16.7671 13.5546 16.5885 13.3111C16.345 12.9865 16.41 12.8566 16.5885 12.5645C16.5723 12.5645 18.6174 9.67527 18.8285 8.70139Z" fill="white"/>
</svg>
