<svg width="18" height="19" viewBox="0 0 18 19" fill="none" xmlns="http://www.w3.org/2000/svg">
<path d="M0.850098 3.13086L3.22733 0.755859C3.51751 0.465681 3.9059 0.302734 4.31662 0.302734C4.72733 0.302734 5.11572 0.463449 5.4059 0.755859L7.96617 3.31166C8.25635 3.60184 8.41929 3.99247 8.41929 4.40318C8.41929 4.81613 8.25858 5.20229 7.96617 5.4947L5.96617 7.49693C6.42179 8.55851 7.07643 9.52304 7.89474 10.3384C8.71394 11.1621 9.67153 11.8117 10.734 12.2715L12.734 10.2693C13.0242 9.97907 13.4126 9.81613 13.8233 9.81613C14.0259 9.81538 14.2266 9.85507 14.4136 9.93288C14.6007 10.0107 14.7703 10.125 14.9126 10.2693L17.4751 12.8251C17.7653 13.1152 17.9282 13.5059 17.9282 13.9166C17.9282 14.3295 17.7675 14.7157 17.4751 15.0081L15.1001 17.3831C14.6046 17.8786 13.9215 18.1621 13.2206 18.1621C13.0755 18.1621 12.9349 18.151 12.7921 18.1264C9.8367 17.6398 6.90367 16.0661 4.53537 13.7001C2.16929 11.3295 0.597864 8.39649 0.106792 5.4389C-0.0338326 4.59961 0.247419 3.73577 0.850098 3.13086ZM1.68938 5.17327C2.12465 7.80497 3.53983 10.43 5.67153 12.5617C7.80322 14.6934 10.426 16.1085 13.0577 16.5438C13.388 16.5996 13.7273 16.488 13.9684 16.2492L16.301 13.9166L13.8278 11.4411L11.1537 14.1197L11.1336 14.1398L10.6514 13.9612C9.18954 13.4237 7.86201 12.5748 6.76083 11.4732C5.65966 10.3717 4.81118 9.04383 4.2742 7.58175L4.09563 7.09961L6.79206 4.40541L4.31885 1.92997L1.98626 4.26256C1.74519 4.50363 1.63358 4.84291 1.68938 5.17327Z" fill="#1890FF"/>
</svg>
