<svg width="20" height="17" viewBox="0 0 20 17" fill="none" xmlns="http://www.w3.org/2000/svg">
<path d="M19.2857 0.367188H0.714286C0.319196 0.367188 0 0.686384 0 1.08147V15.3672C0 15.7623 0.319196 16.0815 0.714286 16.0815H19.2857C19.6808 16.0815 20 15.7623 20 15.3672V1.08147C20 0.686384 19.6808 0.367188 19.2857 0.367188ZM18.3929 2.8404V14.4743H1.60714V2.8404L0.991071 2.36049L1.8683 1.23326L2.82366 1.97656H17.1786L18.1339 1.23326L19.0112 2.36049L18.3929 2.8404ZM17.1786 1.97433L10 7.55469L2.82143 1.97433L1.86607 1.23103L0.988839 2.35826L1.60491 2.83817L9.22991 8.76674C9.44919 8.9371 9.71897 9.02958 9.99665 9.02958C10.2743 9.02958 10.5441 8.9371 10.7634 8.76674L18.3929 2.8404L19.0089 2.36049L18.1317 1.23326L17.1786 1.97433Z" fill="#1890FF"/>
</svg>
