<svg width="18" height="21" viewBox="0 0 18 21" fill="none" xmlns="http://www.w3.org/2000/svg">
<path d="M16.6477 5.7154C16.2274 4.74638 15.6215 3.86902 14.8642 3.13281C14.1043 2.38995 13.2086 1.80035 12.2258 1.39621C11.2035 0.972098 10.1187 0.757812 9.00035 0.757812C7.88205 0.757812 6.79722 0.972098 5.7749 1.39397C4.78606 1.80246 3.8999 2.38728 3.13651 3.13058C2.37964 3.8672 1.77382 4.74446 1.35303 5.71317C0.917759 6.71763 0.696777 7.7846 0.696777 8.88281C0.696777 10.4587 1.07401 12.0279 1.81508 13.5413C2.41106 14.7578 3.24365 15.9431 4.29276 17.0703C6.08517 18.9944 7.96463 20.1708 8.49812 20.4855C8.64955 20.5749 8.82225 20.622 8.99812 20.6217C9.17222 20.6217 9.3441 20.577 9.49812 20.4855C10.0316 20.1708 11.9111 18.9944 13.7035 17.0703C14.7526 15.9453 15.5852 14.7578 16.1812 13.5413C16.9267 12.0301 17.3039 10.4632 17.3039 8.88504C17.3039 7.78683 17.0829 6.71987 16.6477 5.7154ZM9.00035 18.9096C7.52937 17.9743 2.30392 14.2712 2.30392 8.88504C2.30392 7.1462 2.99812 5.51228 4.25928 4.28013C5.5249 3.04576 7.20794 2.36496 9.00035 2.36496C10.7928 2.36496 12.4758 3.04576 13.7414 4.28237C15.0026 5.51228 15.6968 7.1462 15.6968 8.88504C15.6968 14.2712 10.4713 17.9743 9.00035 18.9096ZM9.00035 5.13281C6.83071 5.13281 5.07178 6.89174 5.07178 9.06138C5.07178 11.231 6.83071 12.99 9.00035 12.99C11.17 12.99 12.9289 11.231 12.9289 9.06138C12.9289 6.89174 11.17 5.13281 9.00035 5.13281ZM10.7682 10.8292C10.5363 11.0618 10.2608 11.2462 9.95738 11.3718C9.65398 11.4975 9.32873 11.5619 9.00035 11.5614C8.33294 11.5614 7.70571 11.3002 7.23249 10.8292C6.99995 10.5974 6.81556 10.3218 6.68991 10.0184C6.56426 9.71502 6.49984 9.38977 6.50035 9.06138C6.50035 8.39397 6.76151 7.76674 7.23249 7.29353C7.70571 6.82031 8.33294 6.56138 9.00035 6.56138C9.66776 6.56138 10.295 6.82031 10.7682 7.29353C11.2414 7.76674 11.5003 8.39397 11.5003 9.06138C11.5003 9.72879 11.2414 10.356 10.7682 10.8292Z" fill="#1890FF"/>
</svg>
