<svg width="20" height="21" viewBox="0 0 20 21" fill="none" xmlns="http://www.w3.org/2000/svg">
<g clip-path="url(#clip0_446_8429)">
<path d="M19.2095 16.9423L16.4857 19.6566C16.3786 19.7665 16.2493 19.8523 16.1064 19.9081C15.9635 19.9639 15.8103 19.9886 15.6571 19.9804C13.5267 19.8596 11.4417 19.3157 9.52377 18.3804C6.27038 16.7959 3.64162 14.1671 2.0571 10.9137C1.12664 8.98831 0.589194 6.89679 0.476151 4.76134C0.467942 4.60813 0.492588 4.45493 0.548435 4.31203C0.604283 4.16912 0.690042 4.03981 0.79996 3.93277L2.70472 2.07562L3.4952 1.228C3.70154 1.02672 3.97837 0.914062 4.26663 0.914062C4.55488 0.914062 4.83172 1.02672 5.03806 1.228L7.61901 3.81848C7.81969 4.02321 7.93209 4.29847 7.93209 4.58515C7.93209 4.87183 7.81969 5.14708 7.61901 5.35181L5.01901 7.95181C4.84705 8.11738 4.73502 8.33541 4.70054 8.57161C4.66606 8.80781 4.71109 9.04876 4.82853 9.25658C6.39262 11.9124 8.68232 14.0667 11.4285 15.4661C11.6313 15.5704 11.8623 15.6063 12.0871 15.5686C12.312 15.5308 12.5186 15.4214 12.6762 15.2566L14.8857 13.0471C15.5428 12.3899 16.2285 12.3994 16.6476 12.8185L19.2476 15.3994C19.4438 15.6107 19.5497 15.8903 19.5426 16.1786C19.5355 16.4669 19.4159 16.741 19.2095 16.9423V16.9423Z" stroke="#1890FF" stroke-miterlimit="10"/>
</g>
<defs>
<clipPath id="clip0_446_8429">
<rect width="20" height="20.019" fill="white" transform="translate(0 0.4375)"/>
</clipPath>
</defs>
</svg>
