<svg width="20" height="19" viewBox="0 0 20 19" fill="none" xmlns="http://www.w3.org/2000/svg">
<g clip-path="url(#clip0_446_8466)">
<path d="M17.7427 0.932617H2.25703C1.27343 0.932617 0.476074 1.72998 0.476074 2.71357V16.2755C0.476074 17.2591 1.27343 18.0564 2.25703 18.0564H17.7427C18.7263 18.0564 19.5237 17.2591 19.5237 16.2755V2.71357C19.5237 1.72998 18.7263 0.932617 17.7427 0.932617Z" stroke="#1890FF" stroke-linecap="round" stroke-linejoin="round"/>
<path d="M19.5237 3.49443L11.3618 11.6563C11.1971 11.8222 11.0013 11.9538 10.7855 12.0437C10.5698 12.1335 10.3384 12.1797 10.1046 12.1797C9.87093 12.1797 9.63953 12.1335 9.42377 12.0437C9.20801 11.9538 9.01216 11.8222 8.8475 11.6563L0.476074 3.31348" stroke="#1890FF" stroke-linecap="round" stroke-linejoin="round"/>
</g>
<defs>
<clipPath id="clip0_446_8466">
<rect width="20" height="18.0762" fill="white" transform="translate(0 0.456543)"/>
</clipPath>
</defs>
</svg>
