<svg width="20" height="18" viewBox="0 0 20 18" fill="none" xmlns="http://www.w3.org/2000/svg">
<path d="M20 6.41992C20.0018 6.18543 19.9419 5.95459 19.8264 5.75054C19.7108 5.54649 19.5436 5.37642 19.3416 5.25737L11.1111 0.329388C10.8038 0.133411 10.4468 0.0292969 10.0823 0.0292969C9.7178 0.0292969 9.36086 0.133411 9.05351 0.329388L0.658449 5.25737C0.45809 5.37691 0.292193 5.5464 0.176989 5.74928C0.0617855 5.95216 0.0012207 6.18147 0.0012207 6.41478C0.0012207 6.64809 0.0617855 6.8774 0.176989 7.08028C0.292193 7.28315 0.45809 7.45265 0.658449 7.57219L2.86009 8.88906V15.2368C2.8628 15.9181 3.13465 16.5707 3.61641 17.0525C4.09817 17.5343 4.7508 17.8061 5.43211 17.8088H14.5679C15.2492 17.8061 15.9019 17.5343 16.3836 17.0525C16.8654 16.5707 17.1372 15.9181 17.1399 15.2368V8.88906L18.3436 8.16889V14.5475C18.3664 14.7512 18.4634 14.9394 18.6162 15.0761C18.769 15.2128 18.9668 15.2884 19.1718 15.2884C19.3768 15.2884 19.5746 15.2128 19.7274 15.0761C19.8802 14.9394 19.9773 14.7512 20 14.5475V6.41992ZM15.4836 15.2368C15.4836 15.4796 15.3871 15.7125 15.2154 15.8842C15.0437 16.056 14.8108 16.1524 14.5679 16.1524H5.43211C5.18927 16.1524 4.95637 16.056 4.78466 15.8842C4.61294 15.7125 4.51647 15.4796 4.51647 15.2368V9.87671L8.94034 12.5207L9.53705 12.9117C9.67458 13.002 9.8355 13.0501 10 13.0501C10.1645 13.0501 10.3254 13.002 10.463 12.9117L15.4321 9.89729H15.4836V15.2368ZM15.8848 7.70593L10.1955 11.101C10.1498 11.1315 10.0961 11.1478 10.0412 11.1478C9.98623 11.1478 9.93252 11.1315 9.88684 11.101L1.94446 6.41992L9.84569 1.70799C9.89658 1.67117 9.95778 1.65135 10.0206 1.65135C10.0834 1.65135 10.1446 1.67117 10.1955 1.70799L18.0453 6.39935L15.8848 7.70593Z" fill="#1890FF"/>
</svg>
