<svg width="20" height="24" viewBox="0 0 20 24" fill="none" xmlns="http://www.w3.org/2000/svg">
<g clip-path="url(#clip0_446_8330)">
<path d="M19.3193 11.4396C19.3193 11.4396 19.3193 11.3503 19.3193 11.3057C19.3869 10.8883 19.4279 10.4671 19.442 10.0445C19.442 7.54034 18.4473 5.13874 16.6765 3.36803C14.9058 1.59731 12.5042 0.602539 10.0001 0.602539C7.49591 0.602539 5.0943 1.59731 3.32359 3.36803C1.55288 5.13874 0.558105 7.54034 0.558105 10.0445C0.562954 10.4815 0.596509 10.9177 0.658552 11.3503C0.658552 11.3503 0.658552 11.4396 0.658552 11.4842C0.779846 12.2996 1.00878 13.0952 1.33936 13.8503C2.96882 17.8124 6.67418 20.9932 8.66078 22.4887C9.04307 22.768 9.50428 22.9186 9.97775 22.9186C10.4512 22.9186 10.9124 22.768 11.2947 22.4887C13.2813 20.9932 16.9867 17.8124 18.6161 13.8503C18.9582 13.0821 19.1947 12.2712 19.3193 11.4396V11.4396Z" stroke="#1890FF" stroke-miterlimit="10"/>
<path d="M10.0002 13.2142C11.7754 13.2142 13.2145 11.7751 13.2145 9.99993C13.2145 8.22473 11.7754 6.78564 10.0002 6.78564C8.22497 6.78564 6.78589 8.22473 6.78589 9.99993C6.78589 11.7751 8.22497 13.2142 10.0002 13.2142Z" stroke="#1890FF" stroke-miterlimit="10"/>
</g>
<defs>
<clipPath id="clip0_446_8330">
<rect width="20" height="23.4375" fill="white"/>
</clipPath>
</defs>
</svg>
