<svg width="1259" height="716" viewBox="0 0 1259 716" fill="none" xmlns="http://www.w3.org/2000/svg">
<path opacity="0.3" d="M470.443 498.659C471.158 498.659 471.818 499.04 472.176 499.659L519.68 581.939C520.037 582.558 520.037 583.32 519.68 583.939L472.176 666.219C471.818 666.837 471.158 667.219 470.443 667.219L375.435 667.219C374.72 667.219 374.06 666.837 373.703 666.219L326.199 583.939C325.841 583.32 325.841 582.558 326.199 581.939L373.703 499.659C374.06 499.04 374.72 498.659 375.435 498.659L470.443 498.659Z" fill="url(#paint0_linear_2115_7365)"/>
<path opacity="0.3" d="M949.5 388.577C950.119 388.22 950.881 388.22 951.5 388.577L1054.72 448.173C1055.34 448.53 1055.72 449.19 1055.72 449.905V569.095C1055.72 569.81 1055.34 570.47 1054.72 570.827L951.5 630.423C950.881 630.78 950.119 630.78 949.5 630.423L846.278 570.827C845.659 570.47 845.278 569.81 845.278 569.095V449.905C845.278 449.19 845.659 448.53 846.278 448.173L949.5 388.577Z" fill="url(#paint1_linear_2115_7365)"/>
<path opacity="0.5" d="M1144.38 489.796C1144.57 489.106 1145.11 488.567 1145.8 488.382L1196.4 474.821C1197.09 474.636 1197.83 474.834 1198.34 475.339L1235.38 512.387C1235.89 512.892 1236.09 513.628 1235.9 514.319L1222.34 564.927C1222.16 565.617 1221.62 566.156 1220.93 566.341L1170.32 579.901C1169.63 580.086 1168.89 579.889 1168.39 579.384L1131.34 542.336C1130.83 541.831 1130.64 541.094 1130.82 540.404L1144.38 489.796Z" fill="url(#paint2_linear_2115_7365)"/>
<path opacity="0.3" d="M1073.04 688.136C1073.23 687.446 1073.77 686.907 1074.46 686.722L1100.01 679.875C1100.7 679.69 1101.44 679.887 1101.94 680.392L1120.65 699.1C1121.15 699.605 1121.35 700.341 1121.17 701.032L1114.32 726.586C1114.13 727.276 1113.6 727.816 1112.91 728.001L1087.35 734.848C1086.66 735.033 1085.92 734.835 1085.42 734.33L1066.71 715.623C1066.21 715.118 1066.01 714.381 1066.19 713.691L1073.04 688.136Z" fill="url(#paint3_linear_2115_7365)"/>
<path opacity="0.5" d="M165.577 476.5C165.22 475.881 165.22 475.119 165.577 474.5L181.673 446.622C182.03 446.003 182.69 445.622 183.405 445.622L215.595 445.622C216.31 445.622 216.97 446.003 217.327 446.622L233.423 474.5C233.78 475.119 233.78 475.881 233.423 476.5L217.327 504.378C216.97 504.997 216.31 505.378 215.595 505.378L183.405 505.378C182.69 505.378 182.03 504.997 181.673 504.378L165.577 476.5Z" fill="url(#paint4_linear_2115_7365)"/>
<path opacity="0.3" d="M0.577349 604.5C0.220084 603.881 0.220084 603.119 0.577349 602.5L12.6726 581.55C13.0299 580.932 13.6902 580.55 14.4047 580.55L38.5953 580.55C39.3098 580.55 39.9701 580.932 40.3274 581.55L52.4227 602.5C52.7799 603.119 52.7799 603.881 52.4227 604.5L40.3274 625.45C39.9701 626.068 39.3098 626.45 38.5953 626.45L14.4047 626.45C13.6902 626.45 13.0299 626.068 12.6727 625.45L0.577349 604.5Z" fill="url(#paint5_linear_2115_7365)"/>
<path opacity="0.3" d="M1078.83 44.7571C1078.47 45.3759 1077.81 45.7571 1077.1 45.7571L1058.91 45.7571C1058.19 45.7571 1057.53 45.3759 1057.18 44.7571L1048.08 29.0036C1047.72 28.3848 1047.72 27.6224 1048.08 27.0036L1057.18 11.25C1057.53 10.6312 1058.19 10.25 1058.91 10.25L1077.1 10.25C1077.81 10.25 1078.47 10.6312 1078.83 11.25L1087.93 27.0036C1088.28 27.6224 1088.28 28.3848 1087.93 29.0036L1078.83 44.7571Z" fill="url(#paint6_linear_2115_7365)"/>
<path opacity="0.5" d="M917.5 152.423C916.881 152.78 916.119 152.78 915.5 152.423L874.632 128.827C874.013 128.47 873.632 127.81 873.632 127.095L873.632 79.9047C873.632 79.1902 874.013 78.5299 874.632 78.1727L915.5 54.5773C916.119 54.2201 916.881 54.2201 917.5 54.5773L958.368 78.1726C958.987 78.5299 959.368 79.1902 959.368 79.9047L959.368 127.095C959.368 127.81 958.987 128.47 958.368 128.827L917.5 152.423Z" fill="url(#paint7_linear_2115_7365)"/>
<defs>
<linearGradient id="paint0_linear_2115_7365" x1="450.173" y1="658.317" x2="401.134" y2="493.353" gradientUnits="userSpaceOnUse">
<stop stop-color="#099BD9"/>
<stop offset="1" stop-color="#18C8FF"/>
</linearGradient>
<linearGradient id="paint1_linear_2115_7365" x1="1027" y1="574" x2="871" y2="426.25" gradientUnits="userSpaceOnUse">
<stop stop-color="#099BD9"/>
<stop offset="1" stop-color="#18C8FF"/>
</linearGradient>
<linearGradient id="paint2_linear_2115_7365" x1="1228.25" y1="523.541" x2="1131.55" y2="526.167" gradientUnits="userSpaceOnUse">
<stop stop-color="#096DD9"/>
<stop offset="1" stop-color="#1890FF"/>
</linearGradient>
<linearGradient id="paint3_linear_2115_7365" x1="1117.29" y1="705.352" x2="1066.43" y2="706.734" gradientUnits="userSpaceOnUse">
<stop stop-color="#099BD9"/>
<stop offset="1" stop-color="#18C8FF"/>
</linearGradient>
<linearGradient id="paint4_linear_2115_7365" x1="217.815" y1="453.778" x2="175.861" y2="498.074" gradientUnits="userSpaceOnUse">
<stop stop-color="#099BD9"/>
<stop offset="1" stop-color="#18C8FF"/>
</linearGradient>
<linearGradient id="paint5_linear_2115_7365" x1="40.5679" y1="586.815" x2="8.3426" y2="620.84" gradientUnits="userSpaceOnUse">
<stop stop-color="#096DD9"/>
<stop offset="1" stop-color="#1890FF"/>
</linearGradient>
<linearGradient id="paint6_linear_2115_7365" x1="1051.38" y1="25.0326" x2="1086.64" y2="33.4612" gradientUnits="userSpaceOnUse">
<stop stop-color="#096DD9"/>
<stop offset="1" stop-color="#1890FF"/>
</linearGradient>
<linearGradient id="paint7_linear_2115_7365" x1="885.333" y1="77.2222" x2="948.889" y2="137.417" gradientUnits="userSpaceOnUse">
<stop stop-color="#096DD9"/>
<stop offset="1" stop-color="#1890FF"/>
</linearGradient>
</defs>
</svg>
