<svg width="373" height="288" viewBox="0 0 373 288" fill="none" xmlns="http://www.w3.org/2000/svg">
<g clip-path="url(#clip0_2011_7190)">
<path d="M259.258 137.642C259.577 137.818 259.905 137.982 260.242 138.133C272.261 142.81 285.133 144.914 298.021 144.308C317.762 143.478 346.384 135.819 370.678 104.062C371.583 102.88 372.245 101.532 372.627 100.095C373.009 98.6585 373.104 97.1607 372.905 95.6874C372.706 94.2141 372.219 92.7942 371.47 91.5089C370.721 90.2235 369.726 89.0978 368.54 88.196C367.355 87.2942 366.003 86.634 364.562 86.2531C363.121 85.8722 361.619 85.778 360.141 85.9759C358.663 86.1739 357.239 86.6601 355.95 87.4068C354.661 88.1535 353.532 89.146 352.628 90.3278C316.942 136.963 271.266 118.198 269.374 117.368C266.697 116.167 263.656 116.046 260.892 117.032C258.127 118.018 255.853 120.034 254.547 122.656C253.241 125.278 253.005 128.303 253.888 131.095C254.771 133.887 256.705 136.229 259.283 137.63L259.258 137.642Z" fill="#1890FF"/>
<g opacity="0.1">
<path d="M269.337 117.381C269.59 117.494 270.599 117.896 272.125 118.412C271.738 120.706 272.069 123.063 273.073 125.163C274.078 127.263 275.707 129.003 277.738 130.146C278.058 130.323 278.386 130.486 278.722 130.637C290.737 135.316 303.605 137.42 316.489 136.812C323.442 136.527 330.338 135.434 337.037 133.555C325.026 140.061 311.68 143.739 298.022 144.308C285.134 144.914 272.262 142.81 260.242 138.133C259.898 137.982 259.57 137.818 259.259 137.642C256.68 136.242 254.747 133.899 253.864 131.107C252.98 128.315 253.217 125.291 254.523 122.668C255.829 120.046 258.103 118.031 260.867 117.045C263.632 116.059 266.672 116.179 269.35 117.381H269.337Z" fill="black"/>
</g>
<path d="M290.024 121.695L286.24 144.056C286.657 144.056 287.085 144.132 287.502 144.145L291.286 121.758L290.024 121.695Z" fill="#AFC4DB"/>
<path d="M308.617 120.198L312.263 142.572L313.524 142.308L309.879 119.921C309.437 120.022 309.046 120.122 308.617 120.198Z" fill="#AFC4DB"/>
<path d="M327.186 113.079L333.329 135.454L334.489 134.888L328.333 112.438C327.968 112.652 327.577 112.878 327.186 113.079Z" fill="#AFC4DB"/>
<path d="M343.104 101.056L354.457 121.481L355.416 120.638L344.063 100.138C343.76 100.452 343.445 100.754 343.104 101.056Z" fill="#AFC4DB"/>
<path d="M50.4562 220.198V56.4706C50.4562 55.1036 50.186 53.75 49.6609 52.4873C49.1359 51.2246 48.3664 50.0774 47.3963 49.1114C46.4263 48.1454 45.2748 47.3795 44.0077 46.8575C42.7406 46.3356 41.3827 46.0678 40.0117 46.0694H294.035C297.046 46.0694 299.934 47.262 302.063 49.3847C304.192 51.5075 305.388 54.3866 305.388 57.3887V219.292C305.388 222.294 304.192 225.173 302.063 227.296C299.934 229.419 297.046 230.611 294.035 230.611H40.0369C41.4069 230.61 42.7631 230.339 44.0281 229.815C45.2931 229.29 46.4422 228.523 47.4097 227.556C48.3772 226.589 49.1443 225.441 49.667 224.179C50.1897 222.916 50.4579 221.563 50.4562 220.198Z" fill="#BED0E3"/>
<path d="M225.818 288H204.071C202.398 288 200.794 287.337 199.611 286.158C198.429 284.979 197.764 283.379 197.764 281.712V230.599H232.125V281.712C232.125 283.379 231.46 284.979 230.278 286.158C229.095 287.337 227.491 288 225.818 288Z" fill="#1890FF"/>
<path d="M124.161 288H102.389C100.716 288 99.1117 287.337 97.9289 286.158C96.7461 284.979 96.0816 283.379 96.0816 281.712V230.599H130.468V281.712C130.468 283.379 129.803 284.979 128.62 286.158C127.438 287.337 125.833 288 124.161 288Z" fill="#1890FF"/>
<path d="M79.9734 176.065L275.909 176.065C279.392 176.065 282.216 173.249 282.216 169.776V74.858C282.216 71.3849 279.392 68.5695 275.909 68.5695L79.9734 68.5695C76.4901 68.5695 73.6663 71.3849 73.6663 74.858V169.776C73.6663 173.249 76.4901 176.065 79.9734 176.065Z" fill="#1890FF"/>
<path d="M14.7708 230.611H40.0369C45.8053 230.611 50.4814 225.949 50.4814 220.198L50.4814 56.4706C50.4814 50.7192 45.8053 46.0569 40.0369 46.0569H14.7708C9.00249 46.0569 4.32632 50.7192 4.32632 56.4706L4.32632 220.198C4.32632 225.949 9.00249 230.611 14.7708 230.611Z" fill="#BED0E3"/>
<path d="M195.128 144.409H160.364C159.862 144.409 159.381 144.21 159.026 143.856C158.671 143.502 158.472 143.023 158.472 142.522C158.472 142.022 158.671 141.542 159.026 141.188C159.381 140.834 159.862 140.636 160.364 140.636H195.128C195.63 140.636 196.111 140.834 196.466 141.188C196.821 141.542 197.02 142.022 197.02 142.522C197.02 143.023 196.821 143.502 196.466 143.856C196.111 144.21 195.63 144.409 195.128 144.409Z" fill="#00408F"/>
<path d="M239.643 136.749C240.96 136.749 242.027 135.685 242.027 134.372C242.027 133.059 240.96 131.995 239.643 131.995C238.326 131.995 237.259 133.059 237.259 134.372C237.259 135.685 238.326 136.749 239.643 136.749Z" fill="white"/>
<path d="M220.773 136.749C222.089 136.749 223.157 135.685 223.157 134.372C223.157 133.059 222.089 131.995 220.773 131.995C219.456 131.995 218.389 133.059 218.389 134.372C218.389 135.685 219.456 136.749 220.773 136.749Z" fill="white"/>
<path d="M230.208 148.861C231.525 148.861 232.592 147.797 232.592 146.484C232.592 145.171 231.525 144.107 230.208 144.107C228.892 144.107 227.824 145.171 227.824 146.484C227.824 147.797 228.892 148.861 230.208 148.861Z" fill="white"/>
<path d="M116.227 136.749C117.544 136.749 118.611 135.685 118.611 134.372C118.611 133.059 117.544 131.995 116.227 131.995C114.91 131.995 113.843 133.059 113.843 134.372C113.843 135.685 114.91 136.749 116.227 136.749Z" fill="white"/>
<path d="M135.097 136.749C136.414 136.749 137.481 135.685 137.481 134.372C137.481 133.059 136.414 131.995 135.097 131.995C133.78 131.995 132.713 133.059 132.713 134.372C132.713 135.685 133.78 136.749 135.097 136.749Z" fill="white"/>
<path d="M125.662 148.861C126.979 148.861 128.046 147.797 128.046 146.484C128.046 145.171 126.979 144.107 125.662 144.107C124.346 144.107 123.278 145.171 123.278 146.484C123.278 147.797 124.346 148.861 125.662 148.861Z" fill="white"/>
<path d="M130.468 240.082H96.082V241.339H130.468V240.082Z" fill="#AFC4DB"/>
<path d="M130.468 258.67H96.082V259.928H130.468V258.67Z" fill="#AFC4DB"/>
<path d="M130.468 277.272H96.082V278.53H130.468V277.272Z" fill="#AFC4DB"/>
<path d="M232.125 240.082H197.739V241.339H232.125V240.082Z" fill="#AFC4DB"/>
<path d="M232.125 258.67H197.739V259.928H232.125V258.67Z" fill="#AFC4DB"/>
<path d="M232.125 277.272H197.739V278.53H232.125V277.272Z" fill="#AFC4DB"/>
<path d="M96.082 278.53H130.468V281.724C130.468 283.392 129.804 284.991 128.621 286.171C127.438 287.35 125.834 288.013 124.161 288.013H102.389C100.716 288.013 99.1121 287.35 97.9293 286.171C96.7465 284.991 96.082 283.392 96.082 281.724V278.53Z" fill="#096DD9"/>
<path d="M197.739 278.53H232.1V281.724C232.1 283.392 231.436 284.991 230.253 286.171C229.07 287.35 227.466 288.013 225.793 288.013H204.046C202.374 288.013 200.769 287.35 199.587 286.171C198.404 284.991 197.739 283.392 197.739 281.724V278.53Z" fill="#096DD9"/>
<path d="M78.4224 207.18C81.0558 207.18 83.1906 205.052 83.1906 202.426C83.1906 199.801 81.0558 197.672 78.4224 197.672C75.7891 197.672 73.6543 199.801 73.6543 202.426C73.6543 205.052 75.7891 207.18 78.4224 207.18Z" fill="#FA8C16"/>
<path d="M94.1138 207.18C96.7472 207.18 98.882 205.052 98.882 202.426C98.882 199.801 96.7472 197.672 94.1138 197.672C91.4805 197.672 89.3457 199.801 89.3457 202.426C89.3457 205.052 91.4805 207.18 94.1138 207.18Z" fill="#CC442D"/>
<path d="M109.819 207.18C112.452 207.18 114.587 205.052 114.587 202.426C114.587 199.801 112.452 197.672 109.819 197.672C107.186 197.672 105.051 199.801 105.051 202.426C105.051 205.052 107.186 207.18 109.819 207.18Z" fill="white"/>
<g opacity="0.1">
<path d="M277.347 174.619V79.7002C277.347 78.0324 276.682 76.4329 275.499 75.2536C274.317 74.0743 272.712 73.4117 271.04 73.4117H75.1042C74.6802 73.4163 74.2576 73.4626 73.8428 73.5501C74.1331 72.1318 74.9053 70.8568 76.0291 69.9403C77.1528 69.0238 78.5593 68.5219 80.0111 68.5193H275.909C277.581 68.5193 279.186 69.1818 280.368 70.3611C281.551 71.5405 282.216 73.14 282.216 74.8078V169.789C282.213 171.237 281.71 172.639 280.79 173.759C279.871 174.88 278.593 175.65 277.17 175.939C277.275 175.506 277.334 175.064 277.347 174.619Z" fill="black"/>
</g>
<g opacity="0.1">
<path d="M232.125 230.611H197.739V251.061H232.125V230.611Z" fill="black"/>
</g>
<g opacity="0.1">
<path d="M130.468 230.611H96.082V251.061H130.468V230.611Z" fill="black"/>
</g>
<path d="M124.136 46.0694L156.415 45.755L188.644 45.5789L253.09 45.4406H285.319H293.367C294.769 45.3946 296.169 45.5686 297.517 45.9562C299.542 46.5683 301.367 47.7061 302.806 49.2531C304.244 50.8002 305.244 52.7008 305.704 54.7601C305.93 56.1186 306.015 57.4969 305.956 58.8728V62.8848L305.779 95.019L305.477 127.141L305.161 95.019L304.985 62.8848V58.8728C305.039 57.5716 304.95 56.2684 304.72 54.9865C304.154 52.4745 302.709 50.2453 300.645 48.698C298.565 47.1536 296.007 46.3878 293.417 46.5348H285.37L253.14 46.5977L188.581 46.5348L156.415 46.3713L124.136 46.0694Z" fill="#DAE6F2"/>
<path d="M73.6534 142.522C73.9183 150.068 74.0319 157.615 74.1328 165.161V167.978C74.1073 168.893 74.141 169.809 74.2337 170.72C74.4456 172.003 75.0921 173.174 76.0653 174.039C77.0385 174.904 78.2798 175.411 79.5821 175.474C80.4525 175.474 81.449 175.474 82.3824 175.474H88.0588C95.6273 175.474 103.196 175.474 110.764 175.612L122.117 175.788C125.901 175.889 129.685 175.952 133.47 176.103C129.685 176.241 125.901 176.304 122.117 176.405L110.764 176.581C103.196 176.681 95.6273 176.681 88.0588 176.732H82.3824C81.4237 176.732 80.5281 176.732 79.5064 176.732C78.4728 176.671 77.4671 176.374 76.5673 175.864C75.6686 175.357 74.8958 174.656 74.3062 173.811C73.7166 172.966 73.3253 172 73.1615 170.984C73.0621 170.015 73.0368 169.039 73.0858 168.066V165.249C73.275 157.602 73.4012 150.068 73.6534 142.522Z" fill="#B8E4FF"/>
<path d="M135.098 120.99C140.713 120.99 145.265 116.452 145.265 110.853C145.265 105.255 140.713 100.716 135.098 100.716C129.483 100.716 124.931 105.255 124.931 110.853C124.931 116.452 129.483 120.99 135.098 120.99Z" fill="#00408F"/>
<path d="M220.773 116.563C223.936 116.563 226.5 114.007 226.5 110.853C226.5 107.7 223.936 105.143 220.773 105.143C217.61 105.143 215.046 107.7 215.046 110.853C215.046 114.007 217.61 116.563 220.773 116.563Z" fill="#00408F"/>
<g opacity="0.2">
<path d="M339.08 52.4081C351.968 52.4081 362.416 41.991 362.416 29.1407C362.416 16.2905 351.968 5.87335 339.08 5.87335C326.192 5.87335 315.744 16.2905 315.744 29.1407C315.744 41.991 326.192 52.4081 339.08 52.4081Z" fill="#69C0FF"/>
</g>
<path d="M343.004 56.0782L351.774 53.2387L366.279 97.7736C366.657 98.9347 366.557 100.198 366.001 101.286C365.445 102.373 364.478 103.196 363.314 103.573C362.149 103.95 360.882 103.851 359.791 103.296C358.7 102.742 357.875 101.778 357.497 100.617L342.992 56.0821L343.004 56.0782Z" fill="#BED0E3"/>
<path d="M330.049 1.43366C324.553 3.21405 319.711 6.5795 316.133 11.1043C312.556 15.6292 310.405 21.1101 309.952 26.854C309.499 32.5979 310.765 38.3466 313.59 43.3731C316.414 48.3996 320.67 52.4781 325.819 55.0927C330.969 57.7073 336.78 58.7405 342.518 58.0618C348.257 57.383 353.664 55.0227 358.057 51.2794C362.45 47.5362 365.631 42.578 367.197 37.0322C368.764 31.4863 368.645 25.6018 366.857 20.123C364.46 12.779 359.236 6.68472 352.334 3.18002C345.432 -0.324681 337.416 -0.952836 330.049 1.43366ZM346.284 51.2636C341.894 52.6853 337.18 52.7771 332.738 51.5276C328.296 50.278 324.325 47.7432 321.328 44.2436C318.331 40.744 316.442 36.4369 315.9 31.8668C315.358 27.2968 316.187 22.6692 318.283 18.5691C320.379 14.469 323.647 11.0806 327.674 8.83246C331.701 6.5843 336.307 5.57732 340.908 5.93886C345.509 6.30039 349.899 8.01421 353.524 10.8636C357.148 13.713 359.843 17.5699 361.269 21.9467C363.181 27.8157 362.676 34.2016 359.866 39.6996C357.056 45.1976 352.17 49.3573 346.284 51.2636Z" fill="#BED0E3"/>
<path opacity="0.1" d="M86.3685 202.489C54.9719 179.851 50.4561 146.496 50.4561 146.484V56.4706C50.4561 55.1036 50.1858 53.75 49.6608 52.4873C49.1357 51.2246 48.3662 50.0774 47.3962 49.1114C46.4262 48.1454 45.2747 47.3795 44.0075 46.8575C42.7404 46.3356 41.3826 46.0678 40.0116 46.0694H14.7833C13.4117 46.0678 12.0532 46.3355 10.7854 46.8573C9.51757 47.3791 8.36525 48.1448 7.39421 49.1106C6.42318 50.0765 5.65245 51.2235 5.12604 52.4863C4.59962 53.7492 4.32783 55.103 4.32617 56.4706V220.198C4.32617 222.959 5.42657 225.608 7.3853 227.561C9.34402 229.514 12.0006 230.611 14.7707 230.611H294.035C297.046 230.611 299.934 229.419 302.063 227.296C304.192 225.173 305.388 222.294 305.388 219.292V215.192C305.388 215.192 117.765 225.128 86.3685 202.489Z" fill="#00113B"/>
<path d="M1.01402e-05 254.055C1.01402e-05 253.753 -0.290115 223.468 1.26142 192.616C4.28882 129.731 11.3527 120.751 19.0347 116.526C21.6685 115.082 24.7689 114.739 27.656 115.571C30.5432 116.404 32.9816 118.343 34.4366 120.965C37.1739 125.883 34.4366 131.153 31.5606 135.328C28.6846 139.504 25.7833 149.666 23.702 198.326C22.4406 226.838 22.7307 253.589 22.7307 253.854C22.7457 255.34 22.4668 256.815 21.9101 258.194C21.3534 259.573 20.5297 260.829 19.486 261.891C18.4423 262.952 17.1991 263.799 15.8274 264.381C14.4557 264.964 12.9824 265.271 11.4915 265.286H11.3527C8.35704 265.286 5.48273 264.106 3.3562 262.002C1.22968 259.898 0.02331 257.042 1.01402e-05 254.055Z" fill="#1890FF"/>
<path d="M11.0752 125.38L30.501 137.19C30.6712 136.809 30.865 136.439 31.0812 136.083L11.6428 124.26C11.4536 124.613 11.2644 124.99 11.0752 125.38Z" fill="#AFC4DB"/>
<path d="M4.55371 152.244L26.1743 159.79C26.1743 159.363 26.25 158.935 26.3005 158.533L4.73031 150.986C4.66724 151.401 4.61678 151.817 4.55371 152.244Z" fill="#AFC4DB"/>
<path d="M1.8291 181.825L24.3327 185.284C24.3327 184.856 24.3327 184.441 24.3958 184.026L1.9174 180.555C1.87956 180.97 1.85433 181.398 1.8291 181.825Z" fill="#AFC4DB"/>
<path d="M0.529297 211.457L23.2347 211.834C23.2347 211.419 23.2347 211.004 23.2347 210.576L0.529297 210.199C0.541911 210.614 0.529297 211.042 0.529297 211.457Z" fill="#AFC4DB"/>
<path d="M0 239.377L22.7054 239.189V237.931L0 238.12C0 238.547 0 238.962 0 239.377Z" fill="#AFC4DB"/>
<g opacity="0.1">
<path d="M1.26142 192.641C4.28882 129.757 11.3527 120.777 19.0347 116.551C21.6655 115.105 24.7635 114.758 27.6503 115.586C30.537 116.413 32.9773 118.348 34.4366 120.965C37.1739 125.883 34.4366 131.153 31.5606 135.328C30.0595 137.491 28.571 141.239 27.1961 151.012C25.476 151.103 23.7987 151.58 22.2892 152.408C14.6576 156.621 7.56849 165.626 4.51587 228.486C3.94823 240.333 3.63288 252.08 3.4689 262.091C2.38478 261.048 1.51973 259.801 0.924176 258.421C0.328617 257.041 0.0144583 255.557 9.22196e-06 254.055C9.22196e-06 253.778 -0.264888 223.493 1.26142 192.641Z" fill="black"/>
</g>
</g>
<defs>
<clipPath id="clip0_2011_7190">
<rect width="373" height="288" fill="white"/>
</clipPath>
</defs>
</svg>
