<svg width="485" height="322" viewBox="0 0 485 322" fill="none" xmlns="http://www.w3.org/2000/svg">
<g clip-path="url(#clip0_2266_7931)">
<path d="M459.135 240.34L443.555 286.655H478.444L462.864 240.34C462.73 239.951 462.478 239.614 462.144 239.375C461.81 239.136 461.41 239.008 460.999 239.008C460.589 239.008 460.189 239.136 459.855 239.375C459.52 239.614 459.269 239.951 459.135 240.34Z" fill="#FA8C16"/>
<path d="M482.518 286.655H439.482C438.111 286.655 437 287.77 437 289.145V290.511C437 291.885 438.111 293 439.482 293H482.518C483.889 293 485 291.885 485 290.511V289.145C485 287.77 483.889 286.655 482.518 286.655Z" fill="#FA8C16"/>
<path d="M450.861 264.94H471.138L469.725 260.728H452.274L450.861 264.94Z" fill="white"/>
<path d="M454.565 253.936H467.434L466.021 249.723H455.978L454.565 253.936Z" fill="white"/>
<path opacity="0.1" d="M482.989 286.706C483.008 286.867 483.008 287.03 482.989 287.191V288.468C482.989 289.145 482.721 289.795 482.243 290.273C481.766 290.752 481.118 291.021 480.443 291.021H437.534C437.374 291.041 437.211 291.041 437.051 291.021C437.181 291.586 437.499 292.09 437.952 292.449C438.406 292.809 438.968 293.003 439.546 293H482.569C483.244 293 483.891 292.731 484.369 292.252C484.846 291.773 485.114 291.124 485.114 290.447V289.157C485.099 288.565 484.878 287.996 484.49 287.549C484.103 287.102 483.572 286.804 482.989 286.706Z" fill="#00113B"/>
<path opacity="0.1" d="M469.025 286.655H478.444L462.864 240.34L469.025 286.655Z" fill="#00113B"/>
<path d="M437 289.157C436.986 288.564 437.18 287.984 437.547 287.518C437.914 287.052 438.432 286.729 439.011 286.604C439.398 286.544 439.79 286.514 440.182 286.515L444.777 286.425L453.98 286.349L463.183 286.425C466.25 286.425 469.318 286.553 472.385 286.668C469.318 286.796 466.25 286.872 463.183 286.923H453.98L444.777 286.847L440.182 286.808C439.809 286.783 439.435 286.783 439.062 286.808C438.694 286.86 438.345 287 438.043 287.217C437.73 287.436 437.473 287.726 437.292 288.063C437.11 288.4 437.01 288.775 437 289.157Z" fill="#FAA346"/>
</g>
<g clip-path="url(#clip1_2266_7931)">
<path d="M31.3564 247.888L9.28906 313.075H58.7105L36.6432 247.888C36.4549 247.338 36.0988 246.861 35.6248 246.523C35.1508 246.185 34.5826 246.004 33.9998 246.004C33.417 246.004 32.8488 246.185 32.3748 246.523C31.9008 246.861 31.5447 247.338 31.3564 247.888Z" fill="#FA8C16"/>
<path d="M64.4791 313.075H3.52093C1.57637 313.075 0 314.645 0 316.583V318.492C0 320.429 1.57637 322 3.52093 322H64.4791C66.4236 322 68 320.429 68 318.492V316.583C68 314.645 66.4236 313.075 64.4791 313.075Z" fill="#FA8C16"/>
<path d="M19.6377 282.513H48.3616L46.3497 276.583H21.6497L19.6377 282.513Z" fill="white"/>
<path d="M24.8818 267.018H43.1179L41.1059 261.1H26.8938L24.8818 267.018Z" fill="white"/>
<path opacity="0.1" d="M65.1526 313.181C65.1992 313.402 65.2243 313.627 65.2275 313.853V315.751C65.2275 316.684 64.8554 317.579 64.1931 318.239C63.5308 318.899 62.6325 319.27 61.6958 319.27H0.748399C0.518232 319.267 0.288891 319.242 0.0634766 319.195C0.219917 319.994 0.650329 320.714 1.28097 321.232C1.91161 321.749 2.70323 322.032 3.5202 322.032H64.5211C65.4485 322.018 66.3331 321.641 66.9839 320.983C67.6347 320.324 67.9994 319.437 67.9993 318.513V316.594C67.9921 315.785 67.7048 315.004 67.1861 314.382C66.6674 313.76 65.949 313.336 65.1526 313.181Z" fill="#00113B"/>
<path opacity="0.1" d="M45.3646 313.075H58.7099L36.6318 247.888L45.3646 313.075Z" fill="#00113B"/>
<path d="M-0.000391144 316.594C-0.0104048 316.044 0.108168 315.5 0.345935 315.004C0.583701 314.508 0.934128 314.074 1.36945 313.736C1.80509 313.387 2.31929 313.149 2.86772 313.043C3.41021 312.969 3.95765 312.936 4.50512 312.947L11.0226 312.872L24.0575 312.808L37.0925 312.872C41.4374 312.872 45.7789 312.94 50.1167 313.075C45.786 313.181 41.4446 313.252 37.0925 313.288H24.0575L11.0226 313.277L4.50512 313.181C3.97089 313.138 3.43406 313.138 2.89983 313.181C2.37256 313.264 1.87318 313.472 1.44437 313.789C0.998177 314.11 0.634588 314.531 0.383443 315.018C0.132297 315.506 0.00075353 316.046 -0.000391144 316.594Z" fill="#FAA346"/>
</g>
<g clip-path="url(#clip2_2266_7931)">
<path d="M75.2443 200.631C72.7483 200.635 70.332 199.754 68.4253 198.144C66.5186 196.534 65.2453 194.3 64.8321 191.84C57.465 147.851 107.605 127.589 109.737 126.746C112.323 125.765 115.191 125.84 117.723 126.953C120.254 128.066 122.247 130.129 123.27 132.697C124.294 135.265 124.267 138.133 123.194 140.681C122.122 143.229 120.09 145.253 117.537 146.318C117.069 146.505 81.159 161.231 85.7151 188.305C85.9449 189.67 85.9033 191.067 85.5926 192.416C85.282 193.765 84.7083 195.04 83.9045 196.167C83.1006 197.295 82.0824 198.252 80.9079 198.986C79.7335 199.72 78.4258 200.215 77.0597 200.444C76.4607 200.556 75.8535 200.618 75.2443 200.631Z" fill="#1890FF"/>
<path opacity="0.1" d="M98.3415 151.351C88.9717 158.374 79.2622 169.565 81.7686 184.454C82.729 190.19 86.6175 194.076 85.6571 188.34C83.3966 174.891 91.115 164.485 99.5245 157.403C107.934 150.321 105.99 145.569 98.3415 151.351Z" fill="#00113B"/>
<path d="M351.702 230V65.41C351.702 62.6346 352.805 59.9728 354.769 58.0103C356.732 56.0478 359.396 54.9453 362.173 54.9453H107.465C104.446 54.9453 101.55 56.144 99.4155 58.2778C97.2805 60.4115 96.0811 63.3054 96.0811 66.323V229.087C96.0811 232.104 97.2805 234.998 99.4155 237.132C101.55 239.266 104.446 240.465 107.465 240.465H362.173C359.396 240.465 356.732 239.362 354.769 237.4C352.805 235.437 351.702 232.775 351.702 230Z" fill="#BED0E3"/>
<path d="M169.54 240.465H204.021V291.828C204.021 293.504 203.355 295.112 202.169 296.298C200.982 297.483 199.374 298.149 197.696 298.149H175.865C174.187 298.149 172.579 297.483 171.392 296.298C170.206 295.112 169.54 293.504 169.54 291.828V240.465Z" fill="#1890FF"/>
<path d="M271.495 240.465H305.976V291.828C305.976 293.504 305.31 295.112 304.124 296.298C302.938 297.483 301.329 298.149 299.651 298.149H277.82C276.142 298.149 274.534 297.483 273.348 296.298C272.161 295.112 271.495 293.504 271.495 291.828V240.465Z" fill="#1890FF"/>
<path d="M322.139 77.5603H125.642C122.149 77.5603 119.317 80.3903 119.317 83.8812V179.304C119.317 182.795 122.149 185.625 125.642 185.625H322.139C325.632 185.625 328.464 182.795 328.464 179.304V83.8812C328.464 80.3903 325.632 77.5603 322.139 77.5603Z" fill="#1890FF"/>
<path d="M387.517 54.9453H362.172C356.389 54.9453 351.701 59.6305 351.701 65.41V230C351.701 235.779 356.389 240.465 362.172 240.465H387.517C393.3 240.465 397.988 235.779 397.988 230V65.41C397.988 59.6305 393.3 54.9453 387.517 54.9453Z" fill="#ACBFD4"/>
<path d="M206.645 151.913H241.512" stroke="#00408F" stroke-width="3" stroke-linecap="round" stroke-linejoin="round"/>
<path d="M161.998 146.107C163.317 146.107 164.387 145.038 164.387 143.719C164.387 142.4 163.317 141.331 161.998 141.331C160.678 141.331 159.608 142.4 159.608 143.719C159.608 145.038 160.678 146.107 161.998 146.107Z" fill="white"/>
<path d="M180.936 146.107C182.256 146.107 183.325 145.038 183.325 143.719C183.325 142.4 182.256 141.331 180.936 141.331C179.617 141.331 178.547 142.4 178.547 143.719C178.547 145.038 179.617 146.107 180.936 146.107Z" fill="white"/>
<path d="M171.472 158.281C172.792 158.281 173.862 157.212 173.862 155.893C173.862 154.574 172.792 153.505 171.472 153.505C170.153 153.505 169.083 154.574 169.083 155.893C169.083 157.212 170.153 158.281 171.472 158.281Z" fill="white"/>
<path d="M285.785 146.107C287.104 146.107 288.174 145.038 288.174 143.719C288.174 142.4 287.104 141.331 285.785 141.331C284.465 141.331 283.396 142.4 283.396 143.719C283.396 145.038 284.465 146.107 285.785 146.107Z" fill="white"/>
<path d="M266.845 146.107C268.165 146.107 269.235 145.038 269.235 143.719C269.235 142.4 268.165 141.331 266.845 141.331C265.526 141.331 264.456 142.4 264.456 143.719C264.456 145.038 265.526 146.107 266.845 146.107Z" fill="white"/>
<path d="M276.309 158.281C277.629 158.281 278.699 157.212 278.699 155.893C278.699 154.574 277.629 153.505 276.309 153.505C274.99 153.505 273.92 154.574 273.92 155.893C273.92 157.212 274.99 158.281 276.309 158.281Z" fill="white"/>
<path d="M305.976 249.981H271.495V251.245H305.976V249.981Z" fill="#AFC4DB"/>
<path d="M305.976 268.675H271.495V269.939H305.976V268.675Z" fill="#AFC4DB"/>
<path d="M305.976 287.368H271.495V288.632H305.976V287.368Z" fill="#AFC4DB"/>
<path d="M204.033 249.981H169.552V251.245H204.033V249.981Z" fill="#AFC4DB"/>
<path d="M204.033 268.675H169.552V269.939H204.033V268.675Z" fill="#AFC4DB"/>
<path d="M204.033 287.368H169.552V288.632H204.033V287.368Z" fill="#AFC4DB"/>
<path d="M305.976 288.633H271.495V291.828C271.495 293.505 272.161 295.112 273.348 296.298C274.534 297.483 276.142 298.149 277.82 298.149H299.651C301.329 298.149 302.938 297.483 304.124 296.298C305.31 295.112 305.976 293.505 305.976 291.828V288.633Z" fill="#096DD9"/>
<path d="M204.033 288.633H169.552V291.828C169.55 292.659 169.713 293.481 170.03 294.249C170.347 295.016 170.813 295.714 171.401 296.301C171.988 296.888 172.686 297.354 173.454 297.671C174.222 297.988 175.045 298.151 175.876 298.149H197.708C199.386 298.149 200.994 297.483 202.18 296.298C203.366 295.112 204.033 293.505 204.033 291.828V288.633Z" fill="#096DD9"/>
<path d="M323.686 216.902C326.325 216.902 328.464 214.764 328.464 212.126C328.464 209.488 326.325 207.35 323.686 207.35C321.047 207.35 318.907 209.488 318.907 212.126C318.907 214.764 321.047 216.902 323.686 216.902Z" fill="#FA8C16"/>
<path d="M307.945 216.902C310.584 216.902 312.723 214.764 312.723 212.126C312.723 209.488 310.584 207.35 307.945 207.35C305.305 207.35 303.166 209.488 303.166 212.126C303.166 214.764 305.305 216.902 307.945 216.902Z" fill="#CC442D"/>
<path d="M292.202 216.902C294.842 216.902 296.981 214.764 296.981 212.126C296.981 209.488 294.842 207.35 292.202 207.35C289.563 207.35 287.424 209.488 287.424 212.126C287.424 214.764 289.563 216.902 292.202 216.902Z" fill="white"/>
<path opacity="0.1" d="M124.19 184.185V88.7624C124.19 87.086 124.856 85.4782 126.042 84.2928C127.228 83.1074 128.837 82.4415 130.514 82.4415H327.023C327.46 82.4406 327.896 82.4877 328.323 82.5819C328.025 81.163 327.248 79.8897 326.122 78.9755C324.996 78.0612 323.59 77.5616 322.139 77.5603H125.642C123.965 77.5603 122.356 78.2263 121.17 79.4117C119.984 80.5971 119.317 82.2048 119.317 83.8812V179.304C119.318 180.752 119.816 182.156 120.729 183.281C121.641 184.406 122.913 185.184 124.33 185.484C124.242 185.057 124.195 184.622 124.19 184.185Z" fill="black"/>
<path opacity="0.1" d="M204.021 240.465H169.54V261.019H204.021V240.465Z" fill="black"/>
<path opacity="0.1" d="M305.976 240.465H271.495V261.019H305.976V240.465Z" fill="black"/>
<path d="M277.844 54.9454L245.529 55.238L213.215 55.4019L148.575 55.5307H116.261H108.168C105.561 55.379 102.984 56.1544 100.894 57.7196C98.8165 59.2799 97.3631 61.5292 96.795 64.0639C96.5766 65.3274 96.4942 66.6106 96.5491 67.8916V71.93L96.3851 104.225L96.104 136.521L95.8112 104.225L95.6472 71.93V67.8916C95.579 66.5094 95.6614 65.1239 95.8932 63.7596C96.352 61.6905 97.353 59.7806 98.7937 58.2256C100.234 56.6706 102.063 55.5264 104.092 54.9103C105.416 54.5337 106.792 54.3716 108.168 54.4304H116.237L148.552 54.3718L213.192 54.5123L245.506 54.6762L277.844 54.9454Z" fill="#DAE6F2"/>
<path opacity="0.1" d="M107.465 240.465H362.173C359.396 240.465 356.732 239.362 354.769 237.4C352.805 235.437 351.702 232.775 351.702 230V155.893C351.702 155.893 347.204 189.37 315.722 212.079C284.239 234.787 96.0811 224.955 96.0811 224.955V229.087C96.0811 232.104 97.2805 234.998 99.4155 237.132C101.55 239.266 104.446 240.465 107.465 240.465Z" fill="#00113B"/>
<path d="M328.464 151.913C328.71 159.486 328.815 167.072 328.909 174.657V177.489C328.951 178.466 328.923 179.444 328.827 180.416C328.664 181.43 328.273 182.395 327.685 183.238C327.097 184.081 326.326 184.781 325.431 185.285C324.532 185.785 323.53 186.07 322.502 186.116C321.495 186.116 320.593 186.116 319.633 186.116H313.941H291.219L279.846 185.952C276.051 185.847 272.257 185.789 268.474 185.66C272.257 185.531 276.051 185.473 279.846 185.379L291.219 185.215L313.976 185.075H319.668C320.593 185.075 321.589 185.075 322.479 185.075C323.345 185.031 324.19 184.79 324.95 184.372C325.714 183.949 326.373 183.36 326.88 182.649C327.387 181.938 327.728 181.123 327.878 180.264C327.97 179.346 328.001 178.423 327.972 177.501V174.668C328.113 167.072 328.218 159.486 328.464 151.913Z" fill="#B8E4FF"/>
<path d="M180.937 127.144C184.844 127.144 188.011 123.979 188.011 120.074C188.011 116.17 184.844 113.004 180.937 113.004C177.03 113.004 173.862 116.17 173.862 120.074C173.862 123.979 177.03 127.144 180.937 127.144Z" fill="#00408F"/>
<path d="M266.846 127.144C270.753 127.144 273.92 123.979 273.92 120.074C273.92 116.17 270.753 113.004 266.846 113.004C262.939 113.004 259.771 116.17 259.771 120.074C259.771 123.979 262.939 127.144 266.846 127.144Z" fill="#00408F"/>
<path d="M106.13 165.468C101.246 175.687 92.2155 181.856 85.7269 179.245L51 165.047C51.3291 174.558 54.3372 183.784 59.6787 191.663C65.0202 199.542 72.4781 205.755 81.1949 209.587C89.9118 213.419 99.5337 214.714 108.955 213.325C118.375 211.935 127.213 207.917 134.45 201.731L340.294 299.998C342.727 301.158 345.366 301.827 348.058 301.966C350.751 302.106 353.445 301.714 355.986 300.813C358.526 299.912 360.865 298.519 362.867 296.714C364.869 294.909 366.495 292.728 367.653 290.295C370 285.388 370.3 279.751 368.488 274.623C366.676 269.495 362.9 265.297 357.991 262.951L152.147 164.707C152.41 155.194 149.982 145.8 145.141 137.605C140.3 129.41 133.244 122.746 124.783 118.38C116.322 114.014 106.8 112.122 97.3117 112.923C87.8233 113.724 78.7535 117.185 71.1451 122.907L104.033 140.969C110.17 144.328 111.014 155.249 106.13 165.468ZM353.119 271.859C358.858 274.598 361.505 281.024 359.033 286.198C356.562 291.372 349.898 293.361 344.147 290.622C338.396 287.883 335.761 281.457 338.291 276.272C340.821 271.086 347.368 269.12 353.119 271.859Z" fill="#6F849C"/>
<path d="M322.351 272.151L322.245 272.093C319.6 270.642 317.638 268.201 316.793 265.306C315.947 262.411 316.287 259.299 317.736 256.653C317.865 256.419 330.783 232.821 343.234 206.964C364.503 162.811 366.764 152.498 366.178 147.43C365.592 142.361 365.698 136.403 370.453 133.383C371.709 132.572 373.112 132.017 374.583 131.748C376.054 131.479 377.563 131.502 379.025 131.816C380.486 132.13 381.872 132.729 383.102 133.579C384.332 134.428 385.383 135.511 386.194 136.766C390.938 144.117 392.952 155.495 365.803 212.606C352.475 240.699 337.846 267.364 337.694 267.621C336.246 270.241 333.824 272.186 330.953 273.034C328.081 273.882 324.99 273.565 322.351 272.151Z" fill="#1890FF"/>
<path d="M389.017 148.296L366.236 149.572C366.259 149.155 366.259 148.737 366.236 148.32L389.028 147.032C389.04 147.488 389.028 147.863 389.017 148.296Z" fill="#AFC4DB"/>
<path d="M382.036 175.183L359.35 171.672C359.525 171.274 359.689 170.876 359.842 170.501L382.47 174.013C382.329 174.411 382.235 174.774 382.036 175.183Z" fill="#AFC4DB"/>
<path d="M370.406 202.691L348.867 195.118C349.055 194.732 349.23 194.357 349.406 193.947L370.921 201.497C370.769 201.907 370.582 202.305 370.406 202.691Z" fill="#AFC4DB"/>
<path d="M357.487 229.567L337.248 219.172C337.435 218.81 337.623 218.435 337.81 218.002L358.061 228.408C357.873 228.818 357.639 229.204 357.487 229.567Z" fill="#AFC4DB"/>
<path d="M344.685 254.558L324.681 243.649L325.278 242.478L345.271 253.387C345.072 253.809 344.873 254.183 344.685 254.558Z" fill="#AFC4DB"/>
<path opacity="0.1" d="M365.838 212.559C392.987 155.401 390.973 144.07 386.229 136.719C385.418 135.464 384.367 134.381 383.137 133.532C381.907 132.682 380.521 132.084 379.06 131.769C377.598 131.455 376.089 131.432 374.618 131.701C373.147 131.97 371.744 132.526 370.488 133.337C365.733 136.403 365.627 142.35 366.213 147.383C366.517 149.993 366.049 154.02 362.629 163.338C364.105 164.215 365.363 165.415 366.307 166.849C371.05 174.2 373.065 185.519 345.916 242.677C340.797 253.446 335.492 264.004 330.889 272.959C332.326 272.557 333.671 271.875 334.844 270.953C336.018 270.032 336.998 268.887 337.729 267.586C337.846 267.317 352.474 240.617 365.838 212.559Z" fill="black"/>
<path opacity="0.1" d="M367.653 281.305C365.306 286.211 361.105 289.985 355.974 291.796C350.844 293.607 345.203 293.307 340.294 290.962L134.45 192.695C127.839 198.354 119.877 202.212 111.336 203.894C102.796 205.577 93.9649 205.027 85.6992 202.298C77.4334 199.569 70.0126 194.753 64.1552 188.318C58.2978 181.882 54.2022 174.043 52.2649 165.562L51 165.047C51.3291 174.558 54.3372 183.784 59.6787 191.663C65.0202 199.542 72.4781 205.755 81.1949 209.587C89.9118 213.419 99.5337 214.714 108.955 213.325C118.375 211.935 127.213 207.917 134.45 201.731L340.294 299.999C342.727 301.158 345.366 301.827 348.058 301.966C350.751 302.106 353.445 301.714 355.986 300.813C358.526 299.912 360.865 298.519 362.867 296.714C364.869 294.909 366.495 292.728 367.653 290.295C369.646 286.143 370.17 281.439 369.141 276.951C368.813 278.454 368.314 279.915 367.653 281.305Z" fill="#00113B"/>
<path opacity="0.1" d="M108.836 148.179C110.159 140.875 108.519 134.39 104.034 131.932L78.8873 118.12C76.1663 119.477 73.5749 121.079 71.1455 122.907L104.034 140.969C105.303 141.758 106.388 142.81 107.216 144.054C108.044 145.298 108.597 146.704 108.836 148.179Z" fill="#00113B"/>
<path d="M140.962 131.592C137.256 127.333 132.91 123.676 128.079 120.753C126.907 120.039 125.631 119.372 124.378 118.728C123.124 118.084 121.824 117.558 120.548 116.996C117.938 115.963 115.252 115.137 112.513 114.526C109.782 113.908 107.005 113.516 104.209 113.355C101.401 113.213 98.5866 113.275 95.7879 113.543C90.167 114.133 84.6692 115.578 79.4844 117.827C82.0048 116.506 84.6293 115.394 87.3316 114.502C90.0653 113.664 92.8617 113.045 95.6942 112.653C101.413 111.907 107.218 112.152 112.853 113.379C118.45 114.668 123.786 116.905 128.629 119.992C131.01 121.553 133.255 123.311 135.34 125.248C137.398 127.193 139.279 129.316 140.962 131.592Z" fill="#94AAC4"/>
<path d="M99.524 174.762C98.0073 176.389 96.235 177.757 94.2769 178.812C92.2659 179.909 89.9786 180.398 87.6946 180.217C86.5633 180.063 85.4617 179.739 84.4269 179.257L81.3583 178.086L75.2327 175.581C71.1686 173.873 67.0927 172.21 63.0519 170.455L57.0084 167.809C55.0056 166.884 52.9911 165.995 51 165.035C53.0848 165.749 55.1462 166.533 57.2192 167.271L63.3916 169.612C67.5026 171.192 71.5902 172.866 75.6661 174.493L81.7682 177.045L84.8134 178.309C85.7643 178.774 86.7724 179.113 87.8117 179.316C89.9407 179.575 92.0994 179.217 94.031 178.285C96.0217 177.381 97.8717 176.194 99.524 174.762Z" fill="#94AAC4"/>
<path d="M359.759 280.111C360.127 281.315 360.238 282.583 360.087 283.833C359.916 285.109 359.494 286.338 358.846 287.45C357.48 289.697 355.297 291.328 352.755 292.004C350.241 292.674 347.576 292.506 345.166 291.524C343.988 291.048 342.887 290.401 341.898 289.604C340.933 288.798 340.109 287.837 339.462 286.76C341.086 288.576 343.164 289.929 345.482 290.681C347.738 291.414 350.159 291.479 352.451 290.868C354.778 290.285 356.81 288.866 358.158 286.882C359.506 284.898 360.076 282.488 359.759 280.111Z" fill="#94AAC4"/>
<path opacity="0.1" d="M353.118 269.225C347.368 266.474 340.703 268.452 338.232 273.638C337.428 275.332 337.139 277.224 337.401 279.081C337.53 278.111 337.81 277.167 338.232 276.283C340.703 271.109 347.368 269.131 353.118 271.87C354.891 272.683 356.435 273.922 357.612 275.477C358.789 277.031 359.563 278.852 359.865 280.778C360.101 278.388 359.577 275.983 358.365 273.909C357.154 271.834 355.317 270.195 353.118 269.225Z" fill="#00113B"/>
<path d="M84.579 208.556C83.6069 211.424 76.9777 214.151 72.2343 211.693C69.2986 209.97 67.0386 207.299 65.8276 204.119C65.0127 202.402 64.8423 200.45 65.3474 198.618C65.3474 198.618 69.1891 188.867 78.4066 191.466C79.6659 191.804 80.842 192.398 81.8618 193.21C87.0152 197.389 85.4106 206.121 84.579 208.556Z" fill="#1890FF"/>
<path d="M94.9443 161.722C94.6514 162.015 94.3821 162.319 94.101 162.635L84.1689 142.736L85.0708 141.94L94.9443 161.722Z" fill="#AFC4DB"/>
<path d="M88.5144 170.653C88.327 171.005 88.1514 171.356 87.9874 171.707L70.4189 159.369C70.6063 159.03 70.7937 158.691 70.9928 158.351L88.5144 170.653Z" fill="#AFC4DB"/>
<path opacity="0.1" d="M84.5795 208.556C83.6074 211.424 76.9782 214.151 72.2347 211.693C69.2991 209.971 67.0391 207.299 65.8281 204.119C65.8281 204.119 75.3854 211.143 79.4964 205.43C80.7066 203.664 81.5392 201.667 81.9423 199.564C82.3453 197.462 82.3101 195.298 81.8388 193.21C87.0157 197.389 85.4111 206.121 84.5795 208.556Z" fill="#00113B"/>
<path d="M256.808 1.68568C258.291 2.48987 259.471 3.75566 260.169 5.29096L250.507 4.19065L246.853 3.32444C246.853 3.32444 250.589 0.421498 250.94 0.608785C251.291 0.796072 256.187 1.29941 256.808 1.68568Z" fill="#D46B08"/>
<path d="M271.929 57.5089C277.182 55.8529 282.653 54.9889 288.162 54.9455C296.981 54.9455 273.65 49.4907 273.65 49.4907L271.929 57.5089Z" fill="#FA8C16"/>
<path d="M296.982 54.9454H193.129C193.334 41.3167 198.895 28.3155 208.61 18.7502C218.326 9.18477 231.417 3.823 245.055 3.823C258.694 3.823 271.784 9.18477 281.5 18.7502C291.216 28.3155 296.777 41.3167 296.982 54.9454Z" fill="#FA8C16"/>
<path d="M256.774 1.66216C256.024 2.00162 255.134 3.93301 254.337 3.88619C253.917 3.78336 253.479 3.77844 253.057 3.8718C252.634 3.96516 252.239 4.15431 251.901 4.42464C231.744 18.1785 231.498 49.947 231.498 50.3333H226.813C226.813 49.9353 227.036 15.7438 249.196 0.596968C250.081 0.592881 250.965 0.534243 251.843 0.421387C253.029 0.439051 254.209 0.600198 255.356 0.901309C255.861 1.08977 256.338 1.34572 256.774 1.66216Z" fill="#D46B08"/>
<path d="M255.368 0.901296C254.356 0.830396 253.35 1.08916 252.498 1.63874C229.155 14.0465 228.898 49.0808 228.898 49.4788H224.213C224.213 49.1042 224.412 18.4243 243.245 2.31765C245.201 0.60866 247.86 0.187265 250.484 -2.21542e-05C252.155 -0.0175233 253.813 0.288551 255.368 0.901296Z" fill="#FA8C16"/>
<path d="M224.295 47.2782C224.645 37.5959 226.814 28.0659 230.69 19.1852C232.669 14.792 235.255 10.6981 238.373 7.02324C239.967 5.19651 241.702 3.49788 243.562 1.94309C245.633 0.641107 248.037 -0.0337577 250.484 -1.44851e-05C248.075 0.0379683 245.729 0.76954 243.726 2.10696C242.824 2.86781 241.992 3.75743 241.125 4.5651C240.686 4.96559 240.276 5.39581 239.896 5.8527L238.724 7.22223C235.68 10.9288 233.154 15.0321 231.217 19.4193C229.252 23.7974 227.707 28.3516 226.602 33.021C226.052 35.3621 225.56 37.7032 225.197 40.0442C224.834 42.3853 224.494 44.8786 224.295 47.2782Z" fill="#FAA346"/>
<path d="M273.651 54.9454C273.651 60.1192 253.74 62.2379 229.144 62.2379C204.549 62.2379 184.638 60.1192 184.638 54.9454C184.638 49.7716 204.549 45.5811 229.144 45.5811C253.74 45.5811 273.651 49.7833 273.651 54.9454Z" fill="#FA8C16"/>
<path opacity="0.1" d="M296.982 54.9453H288.162C282.654 54.9904 277.183 55.8544 271.929 57.5088V57.345C266.623 60.7864 249.453 62.2378 229.097 62.2378C215.195 62.2378 202.78 61.5589 194.616 60.0372C196.08 60.0957 262.138 62.4368 266.342 56.3734C266.694 55.8668 267.085 55.3893 267.514 54.9453C268.688 53.6532 270.235 52.7575 271.941 52.3819C272.327 52.2882 272.702 52.218 273.112 52.1595C275.068 51.8434 276.79 51.8668 277.879 50.5207C280.128 47.7114 285.293 25.8691 265.312 7.14038C274.706 11.1174 282.72 17.7725 288.353 26.2745C293.985 34.7766 296.986 44.7487 296.982 54.9453Z" fill="#00113B"/>
<path d="M185.633 52.9438C187.858 50.8837 190.821 49.9121 193.656 48.9991C196.536 48.1716 199.461 47.5072 202.417 47.0092C208.333 46.0486 214.301 45.4427 220.289 45.1948C226.274 44.9841 232.271 44.9841 238.244 45.3353C244.221 45.6474 250.169 46.367 256.047 47.4891C253.084 47.1496 250.109 46.857 247.134 46.6697C244.159 46.4824 241.184 46.3068 238.209 46.2366C232.248 46.0727 226.286 46.061 220.336 46.3654C214.387 46.5599 208.452 47.0718 202.557 47.8988C199.612 48.2838 196.691 48.8349 193.808 49.5492C190.88 50.1128 188.098 51.2679 185.633 52.9438Z" fill="#FAA346"/>
</g>
<defs>
<clipPath id="clip0_2266_7931">
<rect width="48" height="54" fill="white" transform="translate(437 239)"/>
</clipPath>
<clipPath id="clip1_2266_7931">
<rect width="68" height="76" fill="white" transform="translate(0 246)"/>
</clipPath>
<clipPath id="clip2_2266_7931">
<rect width="347" height="302" fill="white" transform="translate(51)"/>
</clipPath>
</defs>
</svg>
