<svg width="307" height="1000" viewBox="0 0 307 1000" fill="none" xmlns="http://www.w3.org/2000/svg">
<g clip-path="url(#clip0_2011_7269)">
<path d="M167.029 344.417H159.805V226.945C159.805 225.044 160.179 223.161 160.905 221.405C161.631 219.648 162.695 218.052 164.037 216.708C165.379 215.364 166.971 214.297 168.724 213.57C170.477 212.842 172.356 212.468 174.253 212.468H253.714C257.367 212.361 260.835 210.831 263.382 208.203C265.928 205.576 267.353 202.057 267.353 198.395C267.353 194.732 265.928 191.213 263.382 188.586C260.835 185.958 257.367 184.429 253.714 184.321H128.455C122.814 184.315 117.407 182.067 113.419 178.07C109.43 174.074 107.187 168.655 107.181 163.003V158.757C107.19 153.107 109.435 147.691 113.423 143.697C117.411 139.704 122.816 137.457 128.455 137.451H152.534C154.449 137.451 156.287 136.688 157.641 135.331C158.996 133.973 159.757 132.132 159.757 130.212V0H166.981V130.212C166.981 134.052 165.459 137.734 162.749 140.449C160.04 143.164 156.365 144.689 152.534 144.689H128.455C124.731 144.693 121.161 146.175 118.527 148.812C115.893 151.45 114.411 155.026 114.404 158.757V163.003C114.411 166.735 115.893 170.313 118.527 172.952C121.16 175.591 124.73 177.076 128.455 177.083H253.738C259.291 177.215 264.572 179.518 268.452 183.501C272.333 187.483 274.506 192.828 274.506 198.395C274.506 203.961 272.333 209.306 268.452 213.288C264.572 217.271 259.291 219.574 253.738 219.706H174.277C172.361 219.706 170.524 220.469 169.169 221.827C167.814 223.184 167.053 225.025 167.053 226.945L167.029 344.417Z" fill="#FA8C16"/>
<path d="M109.685 383.566H217.15C220.024 383.566 222.78 384.71 224.812 386.747C226.844 388.783 227.986 391.545 227.986 394.424V422.704H98.8496V394.424C98.8496 391.545 99.9912 388.783 102.023 386.747C104.055 384.71 106.811 383.566 109.685 383.566Z" fill="#ACBFD4"/>
<path d="M228.865 422.704H97.9709C94.121 422.704 91 425.831 91 429.689V430.015C91 433.873 94.121 437 97.9709 437H228.865C232.714 437 235.835 433.873 235.835 430.015V429.689C235.835 425.831 232.714 422.704 228.865 422.704Z" fill="#BED0E3"/>
<path d="M121.629 357.471H205.195C208.069 357.471 210.825 358.615 212.857 360.651C214.889 362.687 216.03 365.449 216.03 368.329V383.566H110.793V368.329C110.793 365.449 111.935 362.687 113.967 360.651C115.999 358.615 118.755 357.471 121.629 357.471Z" fill="#BED0E3"/>
<path d="M163.418 331.375C166.161 331.375 168.791 332.467 170.731 334.411C172.67 336.354 173.76 338.99 173.76 341.739V357.423H153.076V341.739C153.076 338.99 154.166 336.354 156.105 334.411C158.045 332.467 160.675 331.375 163.418 331.375Z" fill="#ACBFD4"/>
<path opacity="0.1" d="M104.846 384.713C103.04 385.61 101.521 386.995 100.457 388.71C99.3937 390.426 98.8289 392.405 98.8262 394.424V422.704H168.896C111.937 420.472 104.846 384.713 104.846 384.713Z" fill="black"/>
<path opacity="0.1" d="M114.068 360.559C113.032 361.57 112.209 362.778 111.647 364.112C111.084 365.447 110.794 366.88 110.793 368.329V383.566H162.238C126.119 383.566 114.068 360.559 114.068 360.559Z" fill="black"/>
<path opacity="0.1" d="M234.379 431.643H103.473C101.626 431.643 99.855 430.909 98.548 429.602C97.2411 428.294 96.5053 426.521 96.5021 424.67V424.332C96.5032 423.829 96.5598 423.327 96.6706 422.836C95.0787 423.142 93.6422 423.992 92.6076 425.242C91.573 426.493 91.0047 428.065 91 429.689V430.027C91 430.943 91.1804 431.851 91.5309 432.698C91.8813 433.545 92.395 434.314 93.0425 434.962C93.6899 435.61 94.4585 436.123 95.3042 436.473C96.1498 436.822 97.056 437.002 97.9709 437H228.865C230.453 436.998 231.993 436.453 233.23 435.455C234.467 434.457 235.327 433.065 235.667 431.511C235.243 431.597 234.811 431.642 234.379 431.643Z" fill="black"/>
<path opacity="0.1" d="M157.146 333.511C155.88 334.475 154.854 335.719 154.148 337.147C153.442 338.574 153.075 340.146 153.076 341.739V357.423H163.418C156.014 357.471 157.146 333.523 157.146 333.511Z" fill="black"/>
</g>
<g clip-path="url(#clip1_2011_7269)">
<path d="M167.206 1000H159.982V869.405C159.982 865.554 161.504 861.861 164.214 859.138C166.923 856.415 170.598 854.885 174.429 854.885H198.508C202.233 854.885 205.805 853.399 208.439 850.753C211.074 848.108 212.555 844.519 212.559 840.776V836.517C212.555 832.773 211.074 829.183 208.44 826.536C205.806 823.888 202.234 822.399 198.508 822.396H73.2975C70.462 822.464 67.6416 821.961 65.0022 820.918C62.3629 819.874 59.9578 818.31 57.9285 816.319C55.8992 814.327 54.2867 811.948 53.1857 809.321C52.0847 806.694 51.5176 803.872 51.5176 801.022C51.5176 798.171 52.0847 795.349 53.1857 792.722C54.2867 790.095 55.8992 787.716 57.9285 785.724C59.9578 783.733 62.3629 782.169 65.0022 781.126C67.6416 780.082 70.462 779.579 73.2975 779.647H152.758C154.674 779.647 156.512 778.882 157.866 777.521C159.221 776.159 159.982 774.312 159.982 772.387V654.569H167.206V772.387C167.206 776.238 165.684 779.931 162.974 782.654C160.265 785.377 156.59 786.907 152.758 786.907H73.2975C71.4186 786.852 69.5477 787.176 67.7957 787.86C66.0438 788.545 64.4462 789.576 63.0978 790.892C61.7493 792.208 60.6773 793.782 59.9453 795.522C59.2133 797.262 58.8361 799.132 58.8361 801.022C58.8361 802.911 59.2133 804.781 59.9453 806.521C60.6773 808.261 61.7493 809.835 63.0978 811.151C64.4462 812.468 66.0438 813.498 67.7957 814.183C69.5477 814.867 71.4186 815.192 73.2975 815.136H198.545C204.185 815.143 209.592 817.397 213.58 821.406C217.569 825.414 219.812 830.848 219.818 836.517V840.776C219.809 846.443 217.564 851.874 213.576 855.88C209.588 859.885 204.183 862.138 198.545 862.145H174.466C172.55 862.145 170.712 862.91 169.358 864.271C168.003 865.633 167.242 867.479 167.242 869.405L167.206 1000Z" fill="#FA8C16"/>
<path d="M99.0135 600.966H228.149V555.966H99.0135V600.966Z" fill="#ACBFD4"/>
<path d="M98.1355 615.317H229.029C232.879 615.317 236 612.18 236 608.311V607.984C236 604.115 232.879 600.978 229.029 600.978H98.1355C94.2855 600.978 91.1646 604.115 91.1646 607.984V608.311C91.1646 612.18 94.2855 615.317 98.1355 615.317Z" fill="#BED0E3"/>
<path d="M205.347 641.489H121.781C118.907 641.489 116.151 640.342 114.119 638.299C112.087 636.257 110.945 633.487 110.945 630.599V615.317H216.183V630.599C216.183 633.487 215.041 636.257 213.009 638.299C210.977 640.342 208.221 641.489 205.347 641.489Z" fill="#BED0E3"/>
<path d="M163.582 667.661C160.839 667.661 158.208 666.566 156.269 664.617C154.329 662.668 153.24 660.024 153.24 657.268V641.538H173.936V657.268C173.936 658.633 173.668 659.986 173.147 661.248C172.627 662.51 171.864 663.656 170.902 664.621C169.941 665.587 168.799 666.352 167.543 666.874C166.287 667.395 164.941 667.663 163.582 667.661Z" fill="#ACBFD4"/>
<path d="M131.881 516C133.443 516 134.94 516.623 136.044 517.733C137.149 518.843 137.769 520.348 137.769 521.917V555.93H125.994V521.917C125.994 520.348 126.614 518.843 127.718 517.733C128.823 516.623 130.32 516 131.881 516Z" fill="#BED0E3"/>
<path d="M195.27 516C196.832 516 198.329 516.623 199.433 517.733C200.537 518.843 201.157 520.348 201.157 521.917V555.93H189.383V521.917C189.383 520.348 190.003 518.843 191.107 517.733C192.211 516.623 193.709 516 195.27 516Z" fill="#BED0E3"/>
<path opacity="0.1" d="M104.011 555.93H99.0264V600.966H163.594C123.635 600.966 104.011 555.93 104.011 555.93Z" fill="black"/>
<path opacity="0.1" d="M235.638 608.674H104.732C103.816 608.677 102.909 608.499 102.062 608.149C101.215 607.798 100.445 607.284 99.7961 606.634C99.1473 605.984 98.6326 605.212 98.2814 604.362C97.9301 603.512 97.7494 602.601 97.7494 601.68V601.341C97.7494 601.22 97.7494 601.099 97.7494 600.99C95.9745 601.086 94.3037 601.862 93.0809 603.159C91.8581 604.455 91.1763 606.174 91.1758 607.96V608.299C91.1758 609.217 91.3558 610.127 91.7055 610.975C92.0552 611.824 92.5678 612.595 93.214 613.244C93.8602 613.894 94.6273 614.409 95.4716 614.76C96.3159 615.112 97.2208 615.293 98.1346 615.293H229.04C230.826 615.295 232.544 614.606 233.837 613.369C235.131 612.132 235.9 610.442 235.987 608.65L235.638 608.674Z" fill="black"/>
<path opacity="0.1" d="M216.207 621.851V615.305H110.993V630.587C110.993 633.475 112.135 636.245 114.167 638.287C116.199 640.33 118.955 641.477 121.829 641.477H130.75C127.876 641.477 125.12 640.33 123.088 638.287C121.056 636.245 119.914 633.475 119.914 630.587V629.97C119.913 628.904 120.12 627.849 120.525 626.864C120.93 625.879 121.524 624.984 122.273 624.23C123.022 623.475 123.912 622.877 124.891 622.469C125.871 622.061 126.921 621.851 127.981 621.851H216.207Z" fill="black"/>
<path opacity="0.1" d="M173.935 645.918V641.477H153.24V656.191C153.226 658.14 153.697 660.061 154.61 661.781C155.522 663.501 156.847 664.965 158.465 666.04C159.479 666.731 160.619 667.212 161.82 667.455C163.021 667.698 164.259 667.698 165.46 667.456C163.091 667.003 160.954 665.734 159.415 663.867C157.877 662.001 157.034 659.655 157.032 657.231V651.181C157.035 649.784 157.59 648.445 158.574 647.459C159.558 646.472 160.891 645.918 162.281 645.918H173.935Z" fill="black"/>
<path opacity="0.1" d="M134.747 555.192C132.929 554.726 131.318 553.664 130.168 552.173C129.019 550.683 128.397 548.85 128.402 546.964V519.497C128.408 518.527 128.657 517.574 129.124 516.726C128.181 517.222 127.391 517.968 126.84 518.883C126.288 519.798 125.996 520.847 125.994 521.917V555.93H137.769L134.747 555.192Z" fill="black"/>
<path opacity="0.1" d="M198.159 555.192C196.341 554.726 194.73 553.664 193.58 552.173C192.431 550.683 191.81 548.85 191.814 546.964V519.497C191.82 518.527 192.069 517.574 192.537 516.726C191.594 517.222 190.803 517.968 190.252 518.883C189.7 519.798 189.408 520.847 189.406 521.917V555.93H201.181L198.159 555.192Z" fill="black"/>
</g>
<path opacity="0.7" d="M89.5773 499.5C89.2201 498.881 89.2201 498.119 89.5773 497.5L95.1726 487.809C95.5299 487.19 96.1902 486.809 96.9047 486.809L108.095 486.809C108.81 486.809 109.47 487.19 109.827 487.809L115.423 497.5C115.78 498.119 115.78 498.881 115.423 499.5L109.827 509.191C109.47 509.81 108.81 510.191 108.095 510.191L96.9047 510.191C96.1902 510.191 95.5299 509.81 95.1727 509.191L89.5773 499.5Z" fill="url(#paint0_linear_2011_7269)"/>
<path opacity="0.5" d="M46.1741 422.116C46.1741 421.402 46.5553 420.742 47.1741 420.384L54.1358 416.365C54.7546 416.008 55.517 416.008 56.1358 416.365L63.0975 420.384C63.7163 420.742 64.0975 421.402 64.0975 422.116L64.0975 430.155C64.0975 430.87 63.7163 431.53 63.0975 431.887L56.1358 435.907C55.517 436.264 54.7546 436.264 54.1358 435.907L47.1741 431.887C46.5553 431.53 46.1741 430.87 46.1741 430.155L46.1741 422.116Z" fill="url(#paint1_linear_2011_7269)"/>
<path opacity="0.3" d="M12.1924 586.627C12.5496 586.009 13.2099 585.627 13.9244 585.627L26.3602 585.627C27.0747 585.627 27.735 586.009 28.0923 586.627L34.3101 597.397C34.6674 598.016 34.6674 598.778 34.3101 599.397L28.0923 610.167C27.735 610.786 27.0747 611.167 26.3602 611.167L13.9244 611.167C13.2099 611.167 12.5496 610.786 12.1924 610.167L5.97447 599.397C5.6172 598.778 5.6172 598.016 5.97446 597.397L12.1924 586.627Z" fill="url(#paint2_linear_2011_7269)"/>
<path opacity="0.3" d="M277.473 404.388C277.473 403.673 277.854 403.013 278.473 402.656L287.685 397.337C288.304 396.98 289.066 396.98 289.685 397.337L298.896 402.656C299.515 403.013 299.896 403.673 299.896 404.388L299.896 415.025C299.896 415.739 299.515 416.399 298.896 416.757L289.685 422.075C289.066 422.432 288.304 422.432 287.685 422.075L278.473 416.757C277.854 416.399 277.473 415.739 277.473 415.025L277.473 404.388Z" fill="url(#paint3_linear_2011_7269)"/>
<path opacity="0.3" d="M275.17 598.377C275.17 597.663 275.551 597.002 276.17 596.645L281.392 593.63C282.011 593.273 282.774 593.273 283.392 593.63L288.615 596.645C289.234 597.002 289.615 597.663 289.615 598.377L289.615 604.407C289.615 605.122 289.234 605.782 288.615 606.14L283.392 609.155C282.774 609.512 282.011 609.512 281.392 609.155L276.17 606.14C275.551 605.782 275.17 605.122 275.17 604.407L275.17 598.377Z" fill="url(#paint4_linear_2011_7269)"/>
<path opacity="0.5" d="M232.17 509.377C232.17 508.663 232.551 508.002 233.17 507.645L238.392 504.63C239.011 504.273 239.774 504.273 240.392 504.63L245.615 507.645C246.234 508.002 246.615 508.663 246.615 509.377L246.615 515.407C246.615 516.122 246.234 516.782 245.615 517.14L240.392 520.155C239.774 520.512 239.011 520.512 238.392 520.155L233.17 517.14C232.551 516.782 232.17 516.122 232.17 515.407L232.17 509.377Z" fill="url(#paint5_linear_2011_7269)"/>
<path opacity="0.7" d="M238.045 472.455C238.045 473.17 237.664 473.83 237.045 474.187L228.552 479.091C227.933 479.448 227.171 479.448 226.552 479.091L218.058 474.187C217.44 473.83 217.058 473.17 217.058 472.455L217.058 462.648C217.058 461.934 217.44 461.273 218.058 460.916L226.552 456.012C227.171 455.655 227.933 455.655 228.552 456.012L237.045 460.916C237.664 461.273 238.045 461.934 238.045 462.648L238.045 472.455Z" fill="url(#paint6_linear_2011_7269)"/>
<defs>
<linearGradient id="paint0_linear_2011_7269" x1="109.667" y1="490" x2="93.25" y2="507.333" gradientUnits="userSpaceOnUse">
<stop stop-color="#096DD9"/>
<stop offset="1" stop-color="#1890FF"/>
</linearGradient>
<linearGradient id="paint1_linear_2011_7269" x1="63.151" y1="423.24" x2="45.6099" y2="428.454" gradientUnits="userSpaceOnUse">
<stop stop-color="#099BD9"/>
<stop offset="1" stop-color="#18C8FF"/>
</linearGradient>
<linearGradient id="paint2_linear_2011_7269" x1="32.0963" y1="600.534" x2="6.73522" y2="594.472" gradientUnits="userSpaceOnUse">
<stop stop-color="#099BD9"/>
<stop offset="1" stop-color="#18C8FF"/>
</linearGradient>
<linearGradient id="paint3_linear_2011_7269" x1="298.712" y1="406.083" x2="276.767" y2="412.607" gradientUnits="userSpaceOnUse">
<stop stop-color="#099BD9"/>
<stop offset="1" stop-color="#18C8FF"/>
</linearGradient>
<linearGradient id="paint4_linear_2011_7269" x1="288.852" y1="599.058" x2="274.715" y2="603.261" gradientUnits="userSpaceOnUse">
<stop stop-color="#099BD9"/>
<stop offset="1" stop-color="#18C8FF"/>
</linearGradient>
<linearGradient id="paint5_linear_2011_7269" x1="245.852" y1="510.058" x2="231.715" y2="514.261" gradientUnits="userSpaceOnUse">
<stop stop-color="#099BD9"/>
<stop offset="1" stop-color="#18C8FF"/>
</linearGradient>
<linearGradient id="paint6_linear_2011_7269" x1="218.167" y1="470.943" x2="238.706" y2="464.837" gradientUnits="userSpaceOnUse">
<stop stop-color="#096DD9"/>
<stop offset="1" stop-color="#1890FF"/>
</linearGradient>
<clipPath id="clip0_2011_7269">
<rect width="184" height="437" fill="white" transform="translate(91)"/>
</clipPath>
<clipPath id="clip1_2011_7269">
<rect width="184" height="484" fill="white" transform="translate(52 516)"/>
</clipPath>
</defs>
</svg>
