<svg width="450" height="283" viewBox="0 0 450 283" fill="none" xmlns="http://www.w3.org/2000/svg">
<g clip-path="url(#clip0_2022_6856)">
<path d="M130.591 113.634V138.649H76.3962V174.261H127.403V199.314H76.3962V265.011H45.7822V113.634H130.591Z" fill="#FA8C16"/>
<path d="M225.405 113.634L265.582 265.011H233.703L226.682 233.008H186.302L179.281 265.011H147.402L187.58 113.634H225.405ZM221.382 207.955L206.707 139.923H206.277L191.615 207.955H221.382Z" fill="#FA8C16"/>
<path d="M359.651 264.973C353.039 266.649 346.232 267.434 339.411 267.307C327.941 267.307 318.803 265.47 311.997 261.795C305.283 258.213 299.83 252.666 296.374 245.9C292.514 238.138 290.133 229.728 289.353 221.099C288.241 210.54 287.709 199.927 287.759 189.31C287.729 178.747 288.274 168.189 289.391 157.685C290.163 149.018 292.544 140.57 296.412 132.771C299.921 125.962 305.352 120.327 312.035 116.561C318.841 112.675 327.979 110.733 339.449 110.733C350.918 110.733 360.056 112.654 366.862 116.497C373.545 120.264 378.976 125.899 382.485 132.707C386.361 140.526 388.742 148.996 389.506 157.685C390.623 168.21 391.16 178.789 391.113 189.373C391.182 201.064 390.467 212.746 388.975 224.341C387.558 234.803 384.37 243.633 379.411 250.832L395.781 266.727L377.716 283.05H368.127L359.651 264.973ZM319.17 215.271C319.44 221.165 320.439 227.004 322.143 232.654C323.636 237.112 325.744 240.362 328.468 242.406C331.763 244.418 335.553 245.484 339.417 245.484C343.281 245.484 347.071 244.418 350.366 242.406C353.124 240.362 355.232 237.112 356.691 232.654C358.389 227.003 359.387 221.165 359.664 215.271C360.153 208.148 360.402 199.494 360.41 189.31C360.419 179.126 360.17 170.506 359.664 163.45C359.39 157.56 358.409 151.724 356.742 146.067C355.249 141.55 353.141 138.266 350.416 136.214C347.121 134.202 343.332 133.136 339.468 133.136C335.603 133.136 331.814 134.202 328.519 136.214C325.761 138.258 323.652 141.542 322.193 146.067C320.503 151.72 319.505 157.557 319.221 163.45C318.715 170.514 318.466 179.134 318.474 189.31C318.483 199.486 318.71 208.14 319.157 215.271H319.17Z" fill="#FA8C16"/>
<path d="M121.04 113.634V138.649H66.8328V174.261H117.852V199.314H66.8328V265.011H36.2314V113.634H121.04Z" fill="#FFA940"/>
<path d="M215.854 113.634L256.032 265.011H224.14L217.132 233.008H176.739L169.731 265.011H137.89L178.067 113.634H215.854ZM211.819 207.955L197.144 139.923H196.727L182.052 207.955H211.819Z" fill="#FFA940"/>
<path d="M350.088 264.973C343.476 266.65 336.668 267.435 329.847 267.307C318.377 267.307 309.235 265.47 302.421 261.795C295.71 258.209 290.258 252.663 286.798 245.9C282.948 238.135 280.571 229.726 279.79 221.099C278.678 210.54 278.146 199.928 278.196 189.31C278.17 178.746 278.719 168.189 279.84 157.685C280.614 149.02 282.99 140.573 286.848 132.771C290.351 125.942 295.782 120.284 302.472 116.498C309.278 112.612 318.42 110.669 329.898 110.669C341.376 110.669 350.514 112.612 357.311 116.498C363.998 120.259 369.43 125.896 372.934 132.708C376.81 140.526 379.191 148.996 379.955 157.685C381.062 168.211 381.594 178.789 381.549 189.373C381.622 201.063 380.912 212.745 379.424 224.341C378.007 234.803 374.819 243.633 369.86 250.832L386.23 266.727L368.127 283L350.088 264.973ZM309.607 215.271C309.883 221.165 310.882 227.003 312.579 232.654C314.072 237.112 316.181 240.362 318.905 242.406C322.197 244.419 325.985 245.484 329.847 245.484C333.71 245.484 337.497 244.419 340.79 242.406C343.564 240.362 345.673 237.112 347.115 232.654C348.818 227.003 349.82 221.165 350.1 215.271C350.598 208.148 350.843 199.494 350.834 189.31C350.826 179.126 350.581 170.506 350.1 163.45C349.807 157.557 348.804 151.721 347.115 146.067C345.639 141.55 343.531 138.266 340.79 136.214C337.497 134.201 333.71 133.136 329.847 133.136C325.985 133.136 322.197 134.201 318.905 136.214C316.138 138.258 314.03 141.542 312.579 146.067C310.895 151.722 309.897 157.558 309.607 163.45C309.117 170.514 308.869 179.134 308.86 189.31C308.852 199.486 309.096 208.14 309.594 215.271H309.607Z" fill="#FFA940"/>
<g opacity="0.51">
<path d="M44.1632 91.7095C43.7824 92.0579 43.4879 92.4897 43.3029 92.9709C43.2777 93.066 43.2777 93.166 43.3029 93.2611V93.3494V93.4377C43.4325 93.6347 43.5196 93.8564 43.5588 94.0888C43.598 94.3211 43.5884 94.559 43.5307 94.7875C43.412 95.2469 43.1165 95.6412 42.7084 95.885C42.3038 96.1263 41.8198 96.198 41.3623 96.0846C40.9048 95.9711 40.511 95.6816 40.2669 95.2794C39.9024 94.7242 39.6845 94.0862 39.6337 93.4245C39.5828 92.7629 39.7005 92.0991 39.9759 91.495C40.1794 91.0101 40.4429 90.5524 40.7602 90.1326L41.1777 89.6406L41.3674 89.4262L41.5066 89.2622C41.8754 88.9289 42.1279 88.487 42.2277 88.0007C42.2385 87.8631 42.2169 87.7248 42.1644 87.597V87.4583L42.0759 87.3069C41.8534 86.9953 41.5379 86.7617 41.1745 86.6394C40.811 86.5171 40.4181 86.5123 40.0518 86.6257C39.238 86.7887 38.4616 87.1009 37.7621 87.5466C36.5162 88.2209 35.5586 89.3238 35.0675 90.6498C35.0133 90.8778 34.9092 91.0911 34.7627 91.2742C34.6162 91.4574 34.4308 91.6061 34.22 91.7095C33.7938 91.9269 33.2998 91.9721 32.8411 91.8356C32.6194 91.7687 32.414 91.6568 32.2376 91.507C32.0613 91.3573 31.9179 91.1728 31.8164 90.9652C31.7051 90.7557 31.6366 90.5264 31.6149 90.2903C31.5932 90.0543 31.6187 89.8163 31.6899 89.5902C32.4203 87.4429 33.9267 85.644 35.9151 84.5443C37.4948 83.4875 39.3808 82.9819 41.2789 83.1062C42.0597 83.1662 42.8138 83.4161 43.4754 83.8339C44.1369 84.2517 44.6858 84.8248 45.074 85.503C45.2896 85.8427 45.4637 86.2069 45.5927 86.5879C45.7443 87.0519 45.8169 87.538 45.8077 88.0259C45.7457 89.4168 45.1581 90.7328 44.1632 91.7095ZM43.2903 96.7554C43.4892 96.6308 43.7113 96.5475 43.9433 96.5105C44.1752 96.4735 44.4123 96.4836 44.6403 96.5401C44.8682 96.5967 45.0824 96.6985 45.27 96.8395C45.4575 96.9806 45.6146 97.1579 45.7318 97.3609C45.9665 97.737 46.0437 98.19 45.9469 98.6224C45.8951 98.8527 45.7966 99.0701 45.6573 99.261C45.5181 99.4519 45.3411 99.6124 45.1373 99.7325C44.9394 99.8556 44.7178 99.9361 44.4869 99.9687C44.2559 100.001 44.0207 99.9853 43.7963 99.9217C43.5675 99.8773 43.3509 99.7845 43.161 99.6496C42.9712 99.5147 42.8125 99.3408 42.6957 99.1396C42.452 98.7357 42.3777 98.2523 42.489 97.7942C42.6003 97.3361 42.8882 96.9402 43.2903 96.6923V96.7554Z" fill="#FA8C16"/>
</g>
<path opacity="0.62" d="M182.723 65.5969L117.485 75.9031C116.007 76.1379 114.591 76.6607 113.317 77.4415C112.042 78.2223 110.935 79.2458 110.057 80.4536C109.18 81.6614 108.549 83.0298 108.202 84.4806C107.855 85.9314 107.798 87.4362 108.035 88.909L108.515 91.9491C108.751 93.422 109.275 94.8342 110.058 96.1051C110.841 97.3759 111.867 98.4804 113.079 99.3555C114.29 100.231 115.662 100.859 117.117 101.205C118.572 101.551 120.081 101.608 121.558 101.372L180.344 92.0879L183.431 95.8723C183.541 96.0081 183.684 96.1124 183.847 96.1747C184.011 96.2369 184.187 96.2548 184.36 96.2266C184.532 96.1984 184.694 96.125 184.829 96.014C184.963 95.903 185.066 95.7583 185.126 95.5948L186.758 91.003C189.739 90.5287 192.408 88.8936 194.18 86.4571C195.952 84.0207 196.682 80.9823 196.208 78.0098L195.727 74.9696C195.239 72.0118 193.598 69.3665 191.162 67.6106C188.726 65.8547 185.692 65.1308 182.723 65.5969Z" fill="#40A9FF"/>
<path opacity="0.52" d="M118.737 84.456L181.698 74.4651" stroke="white" stroke-width="2" stroke-linecap="round" stroke-linejoin="round"/>
<path opacity="0.52" d="M144.519 88.9847L183.039 82.8665" stroke="white" stroke-width="2" stroke-linecap="round" stroke-linejoin="round"/>
<path opacity="0.52" d="M120.078 92.8574L136.46 90.2588" stroke="white" stroke-width="2" stroke-linecap="round" stroke-linejoin="round"/>
<path opacity="0.62" d="M444.839 122.023L405.395 101.335C403.128 100.147 400.481 99.9058 398.036 100.663C395.591 101.419 393.547 103.113 392.352 105.371L389.304 111.161C388.113 113.422 387.871 116.061 388.63 118.499C389.389 120.938 391.087 122.976 393.352 124.167L394.009 124.508L394.212 129.453C394.218 129.626 394.27 129.795 394.363 129.942C394.455 130.089 394.585 130.209 394.739 130.29C394.894 130.371 395.066 130.409 395.24 130.402C395.414 130.394 395.583 130.341 395.73 130.248L399.93 127.611L432.821 144.843C433.943 145.432 435.171 145.796 436.433 145.912C437.696 146.028 438.97 145.895 440.181 145.52C441.392 145.145 442.518 144.536 443.493 143.727C444.468 142.918 445.273 141.926 445.863 140.806L448.912 135.029C450.101 132.765 450.339 130.124 449.575 127.685C448.812 125.246 447.108 123.209 444.839 122.023Z" fill="#40A9FF"/>
<path opacity="0.52" d="M423.03 120.509L402.625 109.812" stroke="white" stroke-width="2" stroke-linecap="round" stroke-linejoin="round"/>
<path opacity="0.52" d="M437.161 127.927L430.102 124.218" stroke="white" stroke-width="2" stroke-linecap="round" stroke-linejoin="round"/>
<path opacity="0.52" d="M433.188 135.445L398.665 117.343" stroke="white" stroke-width="2" stroke-linecap="round" stroke-linejoin="round"/>
<path opacity="0.4" d="M370.458 30.867L360.566 29L354 36.5941L357.314 46.0552L367.194 47.9348L373.76 40.3407L370.458 30.867Z" fill="#40A9FF"/>
<path opacity="0.4" d="M380.942 0L379.158 3.07801L380.942 6.1434H384.497L386.28 3.07801L384.497 0H380.942Z" fill="#40A9FF"/>
<path opacity="0.4" d="M93.9292 0L92.1455 3.07801L93.9292 6.1434H97.484L99.2677 3.07801L97.484 0H93.9292Z" fill="#40A9FF"/>
<path opacity="0.4" d="M11.8414 216.684L10.0703 219.762L11.8414 222.827H15.4088L17.1798 219.762L15.4088 216.684H11.8414Z" fill="#40A9FF"/>
<path opacity="0.2" d="M342.801 17.7742L346.052 25.2674L354.199 26.2135L359.082 19.6538L355.831 12.148L347.684 11.2145L342.801 17.7742Z" fill="#FA8C16"/>
<path opacity="0.2" d="M63.9102 6.29477L62.2656 14.3052L68.4011 19.7169L76.1684 17.1435L77.813 9.1331L71.6775 3.70874L63.9102 6.29477Z" fill="#FA8C16"/>
<path opacity="0.5" d="M211.818 103.012C235.424 100.262 267.632 58.3938 254.602 55.4041C239.485 51.935 257.132 109.648 308.594 96.1372C360.056 82.6268 362.573 50.169 362.573 50.169" stroke="#40A9FF" stroke-linecap="round" stroke-linejoin="round" stroke-dasharray="8 8"/>
<path opacity="0.5" d="M28.8939 183.608C0.784674 165.102 -12.1693 106.254 17.7109 76.5213C39.5834 54.6599 86.0231 53.2596 84.0622 60.8159C80.0141 76.3699 54.1947 38.1093 62.6325 22.4165" stroke="#FA8C16" stroke-linecap="round" stroke-linejoin="round" stroke-dasharray="8 8"/>
</g>
<defs>
<clipPath id="clip0_2022_6856">
<rect width="450" height="283" fill="white"/>
</clipPath>
</defs>
</svg>
