<svg width="673" height="378" viewBox="0 0 673 378" fill="none" xmlns="http://www.w3.org/2000/svg">
<path opacity="0.4" d="M312.099 233.669C312.331 234.345 312.186 235.093 311.717 235.633L218.06 343.367C217.592 343.906 216.871 344.155 216.169 344.018L76.0402 316.776C75.3388 316.64 74.7635 316.14 74.5309 315.464L28.0583 180.488C27.8257 179.812 27.9712 179.064 28.44 178.525L122.097 70.7902C122.565 70.2509 123.286 70.0027 123.988 70.1391L264.117 97.3809C264.818 97.5172 265.394 98.0174 265.626 98.693L312.099 233.669Z" fill="url(#paint0_linear_2102_7365)"/>
<path opacity="0.4" d="M506.876 183.66C506.515 183.043 506.511 182.281 506.864 181.66L546.721 111.649C547.075 111.029 547.733 110.643 548.447 110.639L629.006 110.151C629.721 110.147 630.383 110.524 630.744 111.141L671.446 180.663C671.807 181.279 671.812 182.042 671.458 182.663L631.601 252.673C631.248 253.294 630.59 253.679 629.876 253.683L549.317 254.171C548.602 254.175 547.939 253.798 547.578 253.182L506.876 183.66Z" fill="url(#paint1_linear_2102_7365)"/>
<path opacity="0.4" d="M493.234 100.297C493.134 101.005 492.665 101.605 492.002 101.873L447.568 119.808C446.905 120.075 446.15 119.969 445.587 119.529L407.838 90.015C407.275 89.5749 406.99 88.8679 407.09 88.1603L413.775 40.7119C413.874 40.0043 414.344 39.4037 415.007 39.1363L459.441 21.2014C460.103 20.934 460.858 21.0403 461.421 21.4804L499.17 50.9941C499.733 51.4342 500.019 52.1412 499.919 52.8487L493.234 100.297Z" fill="url(#paint2_linear_2102_7365)"/>
<defs>
<linearGradient id="paint0_linear_2102_7365" x1="217.035" y1="335.188" x2="124.823" y2="135.409" gradientUnits="userSpaceOnUse">
<stop stop-color="#40A9FF"/>
<stop offset="0.630208" stop-color="#0084EF"/>
<stop offset="1" stop-color="#0071CC"/>
</linearGradient>
<linearGradient id="paint1_linear_2102_7365" x1="410.941" y1="119.16" x2="628.708" y2="236.095" gradientUnits="userSpaceOnUse">
<stop stop-color="#40A9FF"/>
<stop offset="0.630208" stop-color="#0084EF"/>
<stop offset="1" stop-color="#0071CC"/>
</linearGradient>
<linearGradient id="paint2_linear_2102_7365" x1="519.5" y1="165" x2="455.001" y2="29.9975" gradientUnits="userSpaceOnUse">
<stop stop-color="#40A9FF"/>
<stop offset="0.630208" stop-color="#0084EF"/>
<stop offset="1" stop-color="#0071CC"/>
</linearGradient>
</defs>
</svg>
